<?xml version="1.0" encoding="utf-8"?>
<!-- Generator: Adobe Illustrator 24.0.0, SVG Export Plug-In . SVG Version: 6.00 Build 0)  -->
<svg version="1.1" id="Layer_1" xmlns="http://www.w3.org/2000/svg" xmlns:xlink="http://www.w3.org/1999/xlink" x="0px" y="0px"
	 viewBox="0 0 201.08 184.22" style="enable-background:new 0 0 201.08 184.22;" xml:space="preserve">
<style type="text/css">
	.st0{fill:#EE3125;}
	.st1{fill:none;}
	.st2{fill:#FFFFFF;}
	.st3{font-family:'RobotoSlab-Regular';}
	.st4{font-size:24px;}
</style>
<g>
	<g>
		<path class="st0" d="M90.19,131.09c-0.18-0.28-0.5-0.45-0.83-0.45H12c-6.07,0-11-4.93-11-11V12C1,5.93,5.93,1,12,1h177.08
			c6.07,0,11,4.93,11,11v107.64c0,6.07-4.93,11-11,11h-65.31c-0.27,0-0.52,0.11-0.71,0.29s-0.29,0.44-0.29,0.71l0.23,49.22
			L90.19,131.09z"/>
		<path d="M189.08,2c5.51,0,10,4.49,10,10v107.64c0,5.51-4.49,10-10,10h-65.31c-0.53,0-1.04,0.21-1.42,0.59
			c-0.38,0.38-0.58,0.89-0.58,1.42l0.21,45.86l-30.95-46.97c-0.37-0.56-1-0.9-1.67-0.9H12c-5.51,0-10-4.49-10-10V12
			C2,6.49,6.49,2,12,2H189.08 M189.08,0H12C5.4,0,0,5.4,0,12v107.64c0,6.6,5.4,12,12,12h77.36l34.65,52.58l-0.24-52.58h65.31
			c6.6,0,12-5.4,12-12V12C201.08,5.4,195.68,0,189.08,0L189.08,0z"/>
	</g>
	<rect x="10.9" y="26.71" class="st1" width="175.29" height="94.89"/>
	<text transform="matrix(1 0 0 1 39.0498 44.9892)"><tspan x="0" y="0" class="st2 st3 st4">We should </tspan><tspan x="-11.13" y="28.8" class="st2 st3 st4">have started </tspan><tspan x="-21.66" y="57.6" class="st2 st3 st4">this in august!</tspan></text>
</g>
</svg>
