<?xml version="1.0" encoding="utf-8"?>
<!-- Generator: Adobe Illustrator 24.0.0, SVG Export Plug-In . SVG Version: 6.00 Build 0)  -->
<svg version="1.1" id="Layer_1" xmlns="http://www.w3.org/2000/svg" xmlns:xlink="http://www.w3.org/1999/xlink" x="0px" y="0px"
	 viewBox="0 0 201.08 184.22" style="enable-background:new 0 0 201.08 184.22;" xml:space="preserve">
<style type="text/css">
	.st0{fill:#EE3125;}
	.st1{enable-background:new    ;}
	.st2{fill:#FFFFFF;}
</style>
<path class="st0" d="M90.2,131.1c-0.18-0.28-0.5-0.45-0.83-0.45H12c-6.07-0.01-10.99-4.93-11-11V12C1.01,5.93,5.93,1.01,12,1h177.08
	c6.07,0.01,10.99,4.93,11,11v107.64c-0.01,6.07-4.93,10.99-11,11h-65.3c-0.27,0-0.52,0.1-0.7,0.3s-0.3,0.44-0.3,0.7l0.23,49.22
	l-32.8-49.77L90.2,131.1z"/>
<path d="M189.08,2c5.52,0.01,9.99,4.48,10,10v107.64c-0.01,5.52-4.48,9.99-10,10h-65.3c-0.53,0-1.04,0.2-1.42,0.6
	s-0.58,0.9-0.58,1.42l0.2,45.86l-30.95-46.97c-0.37-0.56-1-0.9-1.67-0.9H12c-5.52-0.01-9.99-4.48-10-10V12C2.01,6.48,6.48,2.01,12,2
	H189.08 M189.08,0H12C5.38,0.02,0.02,5.38,0,12v107.64c0.02,6.62,5.38,11.98,12,12h77.36L124,184.22l-0.24-52.58h65.3
	c6.62-0.02,11.98-5.38,12-12V12c-0.02-6.62-5.38-11.98-12-12H189.08z"/>
<g class="st1">
	<path class="st2" d="M44.78,29.42l-1.73,0.27l2.19,9.4l0.32,2.13l0.07,0.01l0.46-2.14l3.14-11.16h2.04l3.15,11.16l0.47,2.19h0.07
		l0.34-2.19l2.14-9.4l-1.75-0.27v-1.49h5.43v1.49l-1.37,0.18l-3.71,15.4h-2.06l-3.38-11.84l-0.3-1.54h-0.07l-0.29,1.54L46.5,44.99
		h-2.05l-3.71-15.4l-1.37-0.18v-1.49h5.41V29.42z"/>
	<path class="st2" d="M67.9,45.24c-1.77,0-3.17-0.59-4.21-1.76s-1.56-2.7-1.56-4.58v-0.52c0-1.8,0.54-3.31,1.61-4.51
		s2.35-1.8,3.81-1.8c1.7,0,2.99,0.52,3.87,1.55s1.32,2.41,1.32,4.12v1.44h-8.23l-0.04,0.06c0.02,1.22,0.33,2.22,0.93,3.01
		s1.43,1.18,2.5,1.18c0.78,0,1.47-0.11,2.06-0.33s1.1-0.53,1.53-0.92l0.9,1.5c-0.45,0.44-1.05,0.81-1.8,1.11S68.95,45.24,67.9,45.24
		z M67.55,33.89c-0.77,0-1.43,0.33-1.98,0.98s-0.88,1.47-1.01,2.46l0.02,0.06h5.85v-0.3c0-0.91-0.24-1.66-0.73-2.27
		S68.5,33.89,67.55,33.89z"/>
	<path class="st2" d="M90.68,36.29h-1.73l-0.38-1.52c-0.28-0.27-0.63-0.48-1.06-0.64s-0.91-0.24-1.45-0.24
		c-0.82,0-1.43,0.18-1.83,0.54s-0.6,0.79-0.6,1.3c0,0.5,0.18,0.89,0.53,1.18s1.07,0.55,2.14,0.77c1.6,0.34,2.79,0.81,3.57,1.4
		s1.17,1.38,1.17,2.37c0,1.12-0.46,2.04-1.37,2.73s-2.1,1.04-3.57,1.04c-0.96,0-1.82-0.11-2.59-0.33s-1.45-0.54-2.05-0.97
		l-0.01-2.89h1.73l0.43,1.7c0.27,0.24,0.63,0.42,1.08,0.53s0.92,0.16,1.4,0.16c0.82,0,1.46-0.17,1.93-0.5s0.7-0.77,0.7-1.31
		c0-0.51-0.19-0.93-0.58-1.25s-1.12-0.61-2.2-0.86c-1.54-0.34-2.7-0.79-3.48-1.37s-1.17-1.36-1.17-2.34c0-1.03,0.44-1.91,1.32-2.64
		s2.02-1.09,3.43-1.09c0.96,0,1.82,0.12,2.59,0.38s1.4,0.6,1.91,1.04L90.68,36.29z"/>
	<path class="st2" d="M92.9,43.51l1.91-0.33V28.52L92.9,28.2v-1.49h4.22V34c0.44-0.61,0.97-1.08,1.61-1.42s1.34-0.5,2.11-0.5
		c1.36,0,2.41,0.41,3.16,1.22s1.12,2.06,1.12,3.75v6.14l1.91,0.33v1.48h-6.13v-1.48l1.91-0.33v-6.16c0-1.05-0.22-1.82-0.67-2.32
		s-1.12-0.75-2.01-0.75c-0.63,0-1.21,0.15-1.73,0.45s-0.95,0.71-1.28,1.22v7.56l1.91,0.33v1.48H92.9V43.51z"/>
	<path class="st2" d="M108.6,38.53c0-1.88,0.51-3.42,1.52-4.63s2.39-1.82,4.14-1.82c1.75,0,3.13,0.61,4.15,1.82s1.53,2.76,1.53,4.64
		v0.26c0,1.89-0.51,3.44-1.52,4.64s-2.39,1.8-4.14,1.8c-1.76,0-3.14-0.6-4.16-1.81s-1.52-2.75-1.52-4.63V38.53z M110.91,38.79
		c0,1.34,0.28,2.45,0.85,3.33s1.41,1.31,2.53,1.31c1.09,0,1.93-0.44,2.5-1.31s0.86-1.98,0.86-3.33v-0.26c0-1.33-0.29-2.43-0.86-3.32
		s-1.41-1.32-2.52-1.32s-1.95,0.44-2.51,1.32s-0.84,1.99-0.84,3.32V38.79z"/>
	<path class="st2" d="M131.12,43.11c-0.4,0.68-0.91,1.2-1.54,1.57s-1.35,0.55-2.17,0.55c-1.38,0-2.45-0.44-3.22-1.32
		s-1.16-2.26-1.16-4.12v-5.66l-1.45-0.33v-1.49h1.45h2.31v7.5c0,1.35,0.2,2.28,0.6,2.79s1.02,0.76,1.86,0.76
		c0.82,0,1.5-0.17,2.03-0.5s0.94-0.8,1.21-1.41v-7.32l-1.7-0.33v-1.49h1.7h2.31v10.88l1.45,0.33v1.48h-3.53L131.12,43.11z"/>
	<path class="st2" d="M136.32,28.2v-1.49h4.22v16.48l1.91,0.33v1.48h-6.13v-1.48l1.91-0.33V28.52L136.32,28.2z"/>
	<path class="st2" d="M152.73,43.48c-0.41,0.58-0.92,1.02-1.52,1.31s-1.29,0.45-2.08,0.45c-1.55,0-2.76-0.56-3.63-1.68
		s-1.31-2.6-1.31-4.42v-0.25c0-2.04,0.44-3.68,1.31-4.93s2.09-1.88,3.65-1.88c0.75,0,1.41,0.14,1.99,0.42s1.06,0.68,1.47,1.2v-5.17
		l-1.91-0.33v-1.49h1.91h2.31v16.48l1.91,0.33v1.48h-3.91L152.73,43.48z M146.51,39.13c0,1.27,0.26,2.3,0.79,3.07
		s1.33,1.16,2.43,1.16c0.69,0,1.27-0.16,1.73-0.47s0.86-0.75,1.16-1.32v-5.88c-0.3-0.53-0.68-0.95-1.16-1.27s-1.05-0.47-1.71-0.47
		c-1.1,0-1.92,0.46-2.44,1.37s-0.79,2.1-0.79,3.56V39.13z"/>
</g>
<g class="st1">
	<path class="st2" d="M28.65,72.31l1.91-0.33V57.32L28.65,57v-1.49h4.22v7.29c0.44-0.61,0.97-1.08,1.61-1.42s1.34-0.5,2.11-0.5
		c1.36,0,2.41,0.41,3.16,1.22s1.12,2.06,1.12,3.75v6.14l1.91,0.33v1.48h-6.13v-1.48l1.91-0.33v-6.16c0-1.05-0.22-1.82-0.67-2.32
		s-1.12-0.75-2.01-0.75c-0.63,0-1.21,0.15-1.73,0.45s-0.95,0.71-1.28,1.22v7.56l1.91,0.33v1.48h-6.13V72.31z"/>
	<path class="st2" d="M52.73,73.79c-0.07-0.34-0.12-0.65-0.16-0.93s-0.07-0.55-0.08-0.82c-0.45,0.57-1,1.04-1.67,1.42
		s-1.38,0.57-2.14,0.57c-1.32,0-2.32-0.32-3.01-0.97s-1.03-1.55-1.03-2.72c0-1.2,0.49-2.13,1.46-2.78s2.31-0.98,4-0.98h2.38v-1.48
		c0-0.74-0.23-1.33-0.7-1.76s-1.12-0.65-1.96-0.65c-0.58,0-1.09,0.07-1.53,0.22s-0.8,0.35-1.07,0.61l-0.25,1.34h-1.78V62.4
		c0.58-0.46,1.28-0.83,2.1-1.11s1.71-0.42,2.67-0.42c1.44,0,2.6,0.37,3.49,1.1s1.34,1.79,1.34,3.15v6.11c0,0.16,0,0.32,0.01,0.48
		s0.01,0.31,0.03,0.47l0.94,0.13v1.48H52.73z M49.01,72.1c0.77,0,1.46-0.18,2.1-0.55s1.09-0.81,1.36-1.32v-2.09h-2.46
		c-0.95,0-1.69,0.22-2.24,0.66s-0.83,0.97-0.83,1.59c0,0.55,0.17,0.98,0.52,1.27S48.32,72.1,49.01,72.1z"/>
	<path class="st2" d="M61.85,62.6l-1.52,0.23l2.61,7.22l0.21,0.91h0.07l0.22-0.91l2.53-7.22l-1.54-0.23v-1.49h4.9v1.49l-1.04,0.18
		l-4.25,11.02h-1.75l-4.3-11.02l-1.04-0.18v-1.49h4.9V62.6z"/>
	<path class="st2" d="M76.53,74.04c-1.77,0-3.17-0.59-4.21-1.76s-1.56-2.7-1.56-4.58v-0.52c0-1.8,0.54-3.31,1.61-4.51
		s2.35-1.8,3.81-1.8c1.7,0,2.99,0.52,3.87,1.55s1.32,2.41,1.32,4.12v1.44h-8.23l-0.04,0.06c0.02,1.22,0.33,2.22,0.93,3.01
		s1.43,1.18,2.5,1.18c0.78,0,1.47-0.11,2.06-0.33s1.1-0.53,1.53-0.92l0.9,1.5c-0.45,0.44-1.05,0.81-1.8,1.11
		S77.58,74.04,76.53,74.04z M76.18,62.69c-0.77,0-1.43,0.33-1.98,0.98s-0.88,1.47-1.01,2.46l0.02,0.06h5.85v-0.3
		c0-0.91-0.24-1.66-0.73-2.27S77.13,62.69,76.18,62.69z"/>
	<path class="st2" d="M99.31,65.09h-1.73l-0.38-1.52c-0.28-0.27-0.63-0.48-1.06-0.64s-0.91-0.24-1.45-0.24
		c-0.82,0-1.43,0.18-1.83,0.54s-0.6,0.79-0.6,1.3c0,0.5,0.18,0.89,0.53,1.18s1.07,0.55,2.14,0.77c1.6,0.34,2.79,0.81,3.57,1.4
		s1.17,1.38,1.17,2.37c0,1.12-0.46,2.04-1.37,2.73s-2.1,1.04-3.57,1.04c-0.96,0-1.82-0.11-2.59-0.33s-1.45-0.54-2.05-0.97
		l-0.01-2.89h1.73l0.43,1.7c0.27,0.24,0.63,0.42,1.08,0.53s0.92,0.16,1.4,0.16c0.82,0,1.46-0.17,1.93-0.5s0.7-0.77,0.7-1.31
		c0-0.51-0.19-0.93-0.58-1.25s-1.12-0.61-2.2-0.86c-1.54-0.34-2.7-0.79-3.48-1.37s-1.17-1.36-1.17-2.34c0-1.03,0.44-1.91,1.32-2.64
		s2.02-1.09,3.43-1.09c0.96,0,1.82,0.12,2.59,0.38s1.4,0.6,1.91,1.04L99.31,65.09z"/>
	<path class="st2" d="M105.87,58.05v3.06h2.4v1.71h-2.4v7.7c0,0.59,0.12,1.01,0.37,1.25s0.57,0.36,0.98,0.36
		c0.2,0,0.43-0.02,0.69-0.05s0.47-0.07,0.64-0.11l0.32,1.58c-0.22,0.14-0.54,0.26-0.96,0.35s-0.84,0.13-1.27,0.13
		c-0.94,0-1.68-0.28-2.24-0.85s-0.83-1.46-0.83-2.67v-7.7h-2v-1.71h2v-3.06H105.87z"/>
	<path class="st2" d="M118.9,73.79c-0.07-0.34-0.12-0.65-0.16-0.93s-0.07-0.55-0.08-0.82c-0.45,0.57-1,1.04-1.67,1.42
		s-1.38,0.57-2.14,0.57c-1.32,0-2.32-0.32-3.01-0.97s-1.03-1.55-1.03-2.72c0-1.2,0.49-2.13,1.46-2.78s2.31-0.98,4-0.98h2.38v-1.48
		c0-0.74-0.23-1.33-0.7-1.76s-1.12-0.65-1.96-0.65c-0.58,0-1.09,0.07-1.53,0.22s-0.8,0.35-1.07,0.61l-0.25,1.34h-1.78V62.4
		c0.58-0.46,1.28-0.83,2.1-1.11s1.71-0.42,2.67-0.42c1.44,0,2.6,0.37,3.49,1.1s1.34,1.79,1.34,3.15v6.11c0,0.16,0,0.32,0.01,0.48
		s0.01,0.31,0.03,0.47l0.94,0.13v1.48H118.9z M115.19,72.1c0.77,0,1.46-0.18,2.1-0.55s1.09-0.81,1.36-1.32v-2.09h-2.46
		c-0.95,0-1.69,0.22-2.24,0.66s-0.83,0.97-0.83,1.59c0,0.55,0.17,0.98,0.52,1.27S114.49,72.1,115.19,72.1z"/>
	<path class="st2" d="M123.85,62.6v-1.49h3.97l0.22,1.84c0.36-0.65,0.8-1.16,1.33-1.52s1.13-0.55,1.81-0.55
		c0.18,0,0.37,0.01,0.56,0.04s0.34,0.06,0.44,0.09l-0.3,2.14l-1.31-0.07c-0.61,0-1.12,0.14-1.54,0.43s-0.73,0.69-0.96,1.2v7.28
		l1.91,0.33v1.48h-6.13v-1.48l1.91-0.33v-9.06L123.85,62.6z"/>
	<path class="st2" d="M138.18,58.05v3.06h2.4v1.71h-2.4v7.7c0,0.59,0.12,1.01,0.37,1.25s0.57,0.36,0.98,0.36
		c0.2,0,0.43-0.02,0.69-0.05s0.47-0.07,0.64-0.11l0.32,1.58c-0.22,0.14-0.54,0.26-0.96,0.35s-0.84,0.13-1.27,0.13
		c-0.94,0-1.68-0.28-2.24-0.85s-0.83-1.46-0.83-2.67v-7.7h-2v-1.71h2v-3.06H138.18z"/>
	<path class="st2" d="M148.73,74.04c-1.77,0-3.17-0.59-4.21-1.76s-1.56-2.7-1.56-4.58v-0.52c0-1.8,0.54-3.31,1.61-4.51
		s2.35-1.8,3.81-1.8c1.7,0,2.99,0.52,3.87,1.55s1.32,2.41,1.32,4.12v1.44h-8.23l-0.04,0.06c0.02,1.22,0.33,2.22,0.93,3.01
		s1.43,1.18,2.5,1.18c0.78,0,1.47-0.11,2.06-0.33s1.1-0.53,1.53-0.92l0.9,1.5c-0.45,0.44-1.05,0.81-1.8,1.11
		S149.78,74.04,148.73,74.04z M148.38,62.69c-0.77,0-1.43,0.33-1.98,0.98s-0.88,1.47-1.01,2.46l0.02,0.06h5.85v-0.3
		c0-0.91-0.24-1.66-0.73-2.27S149.33,62.69,148.38,62.69z"/>
	<path class="st2" d="M164.38,72.28c-0.41,0.58-0.92,1.02-1.52,1.31s-1.29,0.45-2.08,0.45c-1.55,0-2.76-0.56-3.63-1.68
		s-1.31-2.6-1.31-4.42v-0.25c0-2.04,0.44-3.68,1.31-4.93s2.09-1.88,3.65-1.88c0.75,0,1.41,0.14,1.99,0.42s1.06,0.68,1.47,1.2v-5.17
		L162.36,57v-1.49h1.91h2.31v16.48l1.91,0.33v1.48h-3.91L164.38,72.28z M158.16,67.93c0,1.27,0.26,2.3,0.79,3.07
		s1.33,1.16,2.43,1.16c0.69,0,1.27-0.16,1.73-0.47s0.86-0.75,1.16-1.32v-5.88c-0.3-0.53-0.68-0.95-1.16-1.27s-1.05-0.47-1.71-0.47
		c-1.1,0-1.92,0.46-2.44,1.37s-0.79,2.1-0.79,3.56V67.93z"/>
</g>
<g class="st1">
	<path class="st2" d="M22.46,86.85v3.06h2.4v1.71h-2.4v7.7c0,0.59,0.12,1.01,0.37,1.25s0.57,0.36,0.98,0.36
		c0.2,0,0.43-0.02,0.69-0.05s0.47-0.07,0.64-0.11l0.32,1.58c-0.22,0.14-0.54,0.26-0.96,0.35s-0.84,0.13-1.27,0.13
		c-0.94,0-1.68-0.28-2.24-0.85s-0.83-1.46-0.83-2.67v-7.7h-2v-1.71h2v-3.06H22.46z"/>
	<path class="st2" d="M26.91,101.11l1.91-0.33V86.12l-1.91-0.33v-1.49h4.22v7.29c0.44-0.61,0.97-1.08,1.61-1.42s1.34-0.5,2.11-0.5
		c1.36,0,2.41,0.41,3.16,1.22s1.12,2.06,1.12,3.75v6.14l1.91,0.33v1.48h-6.13v-1.48l1.91-0.33v-6.16c0-1.05-0.22-1.82-0.67-2.32
		s-1.12-0.75-2.01-0.75c-0.63,0-1.21,0.15-1.73,0.45s-0.95,0.71-1.28,1.22v7.56l1.91,0.33v1.48h-6.13V101.11z"/>
	<path class="st2" d="M42.71,101.11l1.91-0.33v-9.06l-1.91-0.33v-1.49h4.22v10.88l1.91,0.33v1.48h-6.13V101.11z M46.93,86.66h-2.31
		v-2.36h2.31V86.66z"/>
	<path class="st2" d="M60.3,93.89h-1.73l-0.38-1.52c-0.28-0.27-0.63-0.48-1.06-0.64s-0.91-0.24-1.45-0.24
		c-0.82,0-1.43,0.18-1.83,0.54s-0.6,0.79-0.6,1.3c0,0.5,0.18,0.89,0.53,1.18s1.07,0.55,2.14,0.77c1.6,0.34,2.79,0.81,3.57,1.4
		s1.17,1.38,1.17,2.37c0,1.12-0.46,2.04-1.37,2.73s-2.1,1.04-3.57,1.04c-0.96,0-1.82-0.11-2.59-0.33s-1.45-0.54-2.05-0.97
		l-0.01-2.89h1.73l0.43,1.7c0.27,0.24,0.63,0.42,1.08,0.53s0.92,0.16,1.4,0.16c0.82,0,1.46-0.17,1.93-0.5s0.7-0.77,0.7-1.31
		c0-0.51-0.19-0.93-0.58-1.25s-1.12-0.61-2.2-0.86c-1.54-0.34-2.7-0.79-3.48-1.37s-1.17-1.36-1.17-2.34c0-1.03,0.44-1.91,1.32-2.64
		s2.02-1.09,3.43-1.09c0.96,0,1.82,0.12,2.59,0.38s1.4,0.6,1.91,1.04L60.3,93.89z"/>
	<path class="st2" d="M68.8,101.11l1.91-0.33v-9.06L68.8,91.4v-1.49h4.22v10.88l1.91,0.33v1.48H68.8V101.11z M73.02,86.66h-2.31
		v-2.36h2.31V86.66z"/>
	<path class="st2" d="M76.35,101.11l1.91-0.33v-9.06l-1.91-0.33v-1.49h3.97l0.16,1.89c0.42-0.67,0.95-1.19,1.59-1.56
		s1.36-0.56,2.17-0.56c1.37,0,2.43,0.4,3.18,1.2s1.12,2.04,1.12,3.71v6.2l1.91,0.33v1.48h-6.13v-1.48l1.91-0.33v-6.15
		c0-1.12-0.22-1.91-0.66-2.38s-1.12-0.7-2.02-0.7c-0.66,0-1.25,0.16-1.76,0.48s-0.92,0.76-1.22,1.31v7.44l1.91,0.33v1.48h-6.13
		V101.11z"/>
	<path class="st2" d="M106.37,102.59c-0.07-0.34-0.12-0.65-0.16-0.93s-0.07-0.55-0.08-0.82c-0.45,0.57-1,1.04-1.67,1.42
		s-1.38,0.57-2.14,0.57c-1.32,0-2.32-0.32-3.01-0.97s-1.03-1.55-1.03-2.72c0-1.2,0.49-2.13,1.46-2.78s2.31-0.98,4-0.98h2.38v-1.48
		c0-0.74-0.23-1.33-0.7-1.76s-1.12-0.65-1.96-0.65c-0.58,0-1.09,0.07-1.53,0.22c-0.44,0.15-0.8,0.35-1.07,0.61l-0.25,1.34h-1.78
		V91.2c0.58-0.46,1.28-0.83,2.1-1.11s1.71-0.42,2.67-0.42c1.44,0,2.6,0.37,3.49,1.1s1.34,1.79,1.34,3.15v6.11
		c0,0.16,0,0.32,0.01,0.48s0.01,0.31,0.03,0.47l0.94,0.13v1.48H106.37z M102.66,100.9c0.77,0,1.46-0.18,2.1-0.55
		s1.09-0.81,1.36-1.32v-2.09h-2.46c-0.95,0-1.69,0.22-2.24,0.66s-0.83,0.97-0.83,1.59c0,0.55,0.17,0.98,0.52,1.27
		S101.96,100.9,102.66,100.9z"/>
	<path class="st2" d="M120.39,100.71c-0.4,0.68-0.91,1.2-1.54,1.57s-1.35,0.55-2.17,0.55c-1.38,0-2.45-0.44-3.22-1.32
		s-1.16-2.26-1.16-4.12v-5.66l-1.45-0.33v-1.49h1.45h2.31v7.5c0,1.35,0.2,2.28,0.6,2.79s1.02,0.76,1.86,0.76
		c0.82,0,1.5-0.17,2.03-0.5s0.94-0.8,1.21-1.41v-7.32l-1.7-0.33v-1.49h1.7h2.31v10.88l1.45,0.33v1.48h-3.53L120.39,100.71z"/>
	<path class="st2" d="M125.91,96.48c0-2.04,0.45-3.68,1.34-4.93s2.12-1.88,3.69-1.88c0.8,0,1.5,0.16,2.1,0.47s1.11,0.77,1.51,1.36
		l0.21-1.59h1.95v12.52c0,1.64-0.46,2.93-1.37,3.87s-2.21,1.41-3.9,1.41c-0.61,0-1.27-0.08-1.98-0.25s-1.34-0.4-1.88-0.69l0.6-1.79
		c0.43,0.23,0.94,0.41,1.52,0.56s1.16,0.22,1.71,0.22c1.03,0,1.79-0.29,2.27-0.87s0.72-1.4,0.72-2.47v-1.21
		c-0.41,0.53-0.91,0.93-1.49,1.21s-1.24,0.41-1.99,0.41c-1.55,0-2.78-0.56-3.67-1.69s-1.34-2.6-1.34-4.42V96.48z M128.21,96.73
		c0,1.27,0.27,2.3,0.81,3.07s1.36,1.16,2.46,1.16c0.7,0,1.28-0.16,1.75-0.47s0.86-0.76,1.16-1.34v-5.84
		c-0.3-0.54-0.68-0.97-1.16-1.28s-1.05-0.47-1.72-0.47c-1.1,0-1.93,0.46-2.47,1.38s-0.82,2.11-0.82,3.55V96.73z"/>
	<path class="st2" d="M148.55,100.71c-0.4,0.68-0.91,1.2-1.54,1.57s-1.35,0.55-2.17,0.55c-1.38,0-2.45-0.44-3.22-1.32
		s-1.16-2.26-1.16-4.12v-5.66L139,91.4v-1.49h1.45h2.31v7.5c0,1.35,0.2,2.28,0.6,2.79s1.02,0.76,1.86,0.76c0.82,0,1.5-0.17,2.03-0.5
		s0.94-0.8,1.21-1.41v-7.32l-1.7-0.33v-1.49h1.7h2.31v10.88l1.45,0.33v1.48h-3.53L148.55,100.71z"/>
	<path class="st2" d="M163.76,93.89h-1.73l-0.38-1.52c-0.28-0.27-0.63-0.48-1.06-0.64s-0.91-0.24-1.45-0.24
		c-0.82,0-1.43,0.18-1.83,0.54s-0.6,0.79-0.6,1.3c0,0.5,0.18,0.89,0.53,1.18s1.07,0.55,2.14,0.77c1.6,0.34,2.79,0.81,3.57,1.4
		s1.17,1.38,1.17,2.37c0,1.12-0.46,2.04-1.37,2.73s-2.1,1.04-3.57,1.04c-0.96,0-1.82-0.11-2.59-0.33s-1.45-0.54-2.05-0.97
		l-0.01-2.89h1.73l0.43,1.7c0.27,0.24,0.63,0.42,1.08,0.53s0.92,0.16,1.4,0.16c0.82,0,1.46-0.17,1.93-0.5s0.7-0.77,0.7-1.31
		c0-0.51-0.19-0.93-0.58-1.25s-1.12-0.61-2.2-0.86c-1.54-0.34-2.7-0.79-3.48-1.37s-1.17-1.36-1.17-2.34c0-1.03,0.44-1.91,1.32-2.64
		s2.02-1.09,3.43-1.09c0.96,0,1.82,0.12,2.59,0.38s1.4,0.6,1.91,1.04L163.76,93.89z"/>
	<path class="st2" d="M170.32,86.85v3.06h2.4v1.71h-2.4v7.7c0,0.59,0.12,1.01,0.37,1.25s0.57,0.36,0.98,0.36
		c0.2,0,0.43-0.02,0.69-0.05s0.47-0.07,0.64-0.11l0.32,1.58c-0.22,0.14-0.54,0.26-0.96,0.35s-0.84,0.13-1.27,0.13
		c-0.94,0-1.68-0.28-2.24-0.85s-0.83-1.46-0.83-2.67v-7.7h-2v-1.71h2v-3.06H170.32z"/>
	<path class="st2" d="M178.02,96.99h-2.31V85.53h2.31V96.99z M178.02,102.59h-2.31v-2.39h2.31V102.59z"/>
</g>
</svg>
