<svg xmlns="http://www.w3.org/2000/svg" viewBox="0 0 201.08 184.22"><style><![CDATA[.F{font-family:RobotoSlab-Regular}]]></style><path d="M90.2 131.1c-.18-.28-.5-.45-.83-.45H12a11.01 11.01 0 0 1-11-11V12A11.01 11.01 0 0 1 12 1h177.08a11.01 11.01 0 0 1 11 11v107.64a11.01 11.01 0 0 1-11 11h-65.3c-.27 0-.52.1-.7.3s-.3.44-.3.7l.23 49.22-32.8-49.77z" fill="#ee3125"/><path d="M189.08 2a10.02 10.02 0 0 1 10 10v107.64a10.02 10.02 0 0 1-10 10h-65.3c-.53 0-1.04.2-1.42.6s-.58.9-.58 1.42l.2 45.86-30.95-46.97c-.37-.56-1-.9-1.67-.9H12a10.02 10.02 0 0 1-10-10V12A10.02 10.02 0 0 1 12 2h177.08m0-2H12A12.04 12.04 0 0 0 0 12v107.64a12.04 12.04 0 0 0 12 12h77.36L124 184.22l-.24-52.58h65.3a12.04 12.04 0 0 0 12-12V12a12.04 12.04 0 0 0-12-12z"/><text><tspan fill="#fff" font-size="24" x="39.05" y="44.989" class="F">We should </tspan><tspan x="27.92" y="73.789" fill="#fff" font-size="24" class="F">have started </tspan><tspan x="17.39" y="102.589" fill="#fff" font-size="24" class="F">this in august!</tspan></text></svg>