<?xml version="1.0" encoding="utf-8"?>
<!-- Generator: Adobe Illustrator 24.0.0, SVG Export Plug-In . SVG Version: 6.00 Build 0)  -->
<svg version="1.1" id="Layer_1" xmlns="http://www.w3.org/2000/svg" xmlns:xlink="http://www.w3.org/1999/xlink" x="0px" y="0px"
	 viewBox="0 0 205.81 237.62" style="enable-background:new 0 0 205.81 237.62;" xml:space="preserve">
<style type="text/css">
	.st0{fill:#ED3727;}
	.st1{fill:#010101;}
	.st2{enable-background:new    ;}
	.st3{fill:#FFFFFF;}
</style>
<g>
	<g>
		<path class="st0" d="M10.32,236.68c-5.17,0-9.38-4.21-9.38-9.38V102.21c0-5.17,4.21-9.38,9.38-9.38h120.17
			c0.58,0,0.58,0,10.9-14.76c6.03-8.61,14.04-20.1,22.04-31.59c11.88-17.05,23.75-34.11,29.07-41.76
			c-1.98,7.96-6.06,24.41-10.12,40.88c-11.43,46.31-11.41,46.33-11,46.85c0.18,0.23,0.45,0.36,0.74,0.36h23.36
			c5.17,0,9.38,4.21,9.38,9.39v125.1c0,5.17-4.22,9.38-9.39,9.38h0H10.32z"/>
		<path class="st1" d="M190.37,9.43c-2.19,8.83-5.56,22.44-8.89,35.94c-3.29,13.32-5.89,23.94-7.75,31.57
			c-1.1,4.54-1.95,8.05-2.52,10.46c-1.15,4.86-1.15,4.86-0.55,5.62c0.36,0.45,0.9,0.72,1.48,0.72h23.36c4.65,0,8.44,3.79,8.45,8.45
			v125.1c0,4.65-3.79,8.44-8.45,8.45H10.32c-4.65,0-8.44-3.79-8.45-8.45V102.21c0-4.65,3.79-8.44,8.45-8.45h120.17
			c1.02,0,1.02,0,4.36-4.74c1.77-2.51,4.29-6.11,7.31-10.41c5.33-7.62,12.75-18.25,22.04-31.59
			C174.26,32.59,184.29,18.17,190.37,9.43 M194.65,0c0,0-63.9,91.89-64.15,91.89H10.32C4.62,91.89,0.01,96.51,0,102.21V227.3
			c0.01,5.7,4.62,10.32,10.32,10.32h185.17c5.7-0.01,10.32-4.62,10.32-10.32V102.2c-0.01-5.7-4.62-10.32-10.32-10.32h-23.36
			C171.82,91.88,194.65,0,194.65,0L194.65,0z"/>
	</g>
	<g class="st2">
		<path class="st3" d="M31.47,119.51h-1.64l-0.41-2.29c-0.33-0.28-0.77-0.51-1.32-0.69c-0.55-0.18-1.19-0.27-1.91-0.27
			c-1.15,0-2.03,0.24-2.65,0.73c-0.62,0.49-0.92,1.12-0.92,1.91c0,0.7,0.31,1.28,0.94,1.74c0.63,0.47,1.64,0.87,3.04,1.23
			c1.69,0.42,2.97,1.03,3.84,1.85c0.88,0.81,1.31,1.82,1.31,3.02c0,1.29-0.53,2.33-1.58,3.11c-1.05,0.78-2.43,1.18-4.13,1.18
			c-1.23,0-2.33-0.2-3.28-0.6c-0.96-0.4-1.74-0.93-2.34-1.58v-2.98h1.63l0.42,2.3c0.42,0.34,0.92,0.63,1.5,0.85
			c0.58,0.22,1.27,0.33,2.08,0.33c1.09,0,1.96-0.23,2.59-0.69c0.63-0.46,0.95-1.09,0.95-1.88c0-0.73-0.28-1.35-0.83-1.84
			c-0.55-0.49-1.52-0.91-2.91-1.25c-1.69-0.4-3.02-1-3.97-1.78c-0.95-0.78-1.43-1.77-1.43-2.96c0-1.25,0.53-2.3,1.59-3.13
			c1.06-0.83,2.45-1.25,4.15-1.25c1.12,0,2.14,0.19,3.06,0.58s1.66,0.85,2.22,1.4V119.51z"/>
		<path class="st3" d="M33.8,124.74c0-1.76,0.48-3.21,1.43-4.35c0.95-1.14,2.25-1.71,3.88-1.71c1.64,0,2.94,0.57,3.9,1.7
			c0.96,1.14,1.44,2.59,1.44,4.35v0.24c0,1.77-0.48,3.23-1.43,4.35s-2.25,1.69-3.88,1.69c-1.65,0-2.95-0.57-3.9-1.7
			c-0.95-1.13-1.43-2.58-1.43-4.35V124.74z M35.96,124.98c0,1.26,0.27,2.3,0.8,3.12c0.53,0.82,1.32,1.23,2.37,1.23
			c1.03,0,1.81-0.41,2.34-1.23c0.53-0.82,0.8-1.86,0.8-3.12v-0.24c0-1.25-0.27-2.28-0.8-3.11c-0.54-0.83-1.32-1.24-2.37-1.24
			s-1.83,0.41-2.35,1.24c-0.53,0.83-0.79,1.87-0.79,3.11V124.98z"/>
		<path class="st3" d="M61.12,122.64H59.5l-0.35-1.43c-0.26-0.25-0.6-0.45-1-0.6s-0.85-0.23-1.36-0.23c-0.77,0-1.34,0.17-1.71,0.51
			c-0.37,0.34-0.56,0.74-0.56,1.22c0,0.47,0.17,0.84,0.5,1.11c0.33,0.27,1,0.51,2.01,0.73c1.5,0.32,2.62,0.76,3.35,1.31
			c0.73,0.55,1.1,1.3,1.1,2.23c0,1.06-0.43,1.91-1.28,2.56c-0.85,0.65-1.97,0.98-3.35,0.98c-0.9,0-1.71-0.1-2.43-0.31
			s-1.36-0.51-1.92-0.91l-0.01-2.72h1.63l0.41,1.59c0.25,0.23,0.59,0.39,1.02,0.49c0.43,0.1,0.87,0.15,1.31,0.15
			c0.77,0,1.37-0.16,1.81-0.47c0.44-0.31,0.65-0.72,0.65-1.23c0-0.48-0.18-0.87-0.54-1.18c-0.36-0.31-1.05-0.58-2.06-0.8
			c-1.44-0.31-2.53-0.74-3.27-1.29c-0.73-0.54-1.1-1.28-1.1-2.2c0-0.97,0.41-1.79,1.24-2.47c0.82-0.68,1.9-1.02,3.22-1.02
			c0.9,0,1.71,0.12,2.43,0.35c0.72,0.23,1.32,0.56,1.79,0.98L61.12,122.64z"/>
		<path class="st3" d="M63.51,124.74c0-1.76,0.48-3.21,1.43-4.35c0.95-1.14,2.25-1.71,3.88-1.71c1.64,0,2.94,0.57,3.9,1.7
			c0.96,1.14,1.44,2.59,1.44,4.35v0.24c0,1.77-0.48,3.23-1.43,4.35s-2.25,1.69-3.88,1.69c-1.65,0-2.95-0.57-3.9-1.7
			c-0.95-1.13-1.43-2.58-1.43-4.35V124.74z M65.68,124.98c0,1.26,0.27,2.3,0.8,3.12c0.53,0.82,1.32,1.23,2.37,1.23
			c1.03,0,1.81-0.41,2.34-1.23c0.53-0.82,0.8-1.86,0.8-3.12v-0.24c0-1.25-0.27-2.28-0.8-3.11c-0.54-0.83-1.32-1.24-2.37-1.24
			s-1.83,0.41-2.35,1.24c-0.53,0.83-0.79,1.87-0.79,3.11V124.98z"/>
		<path class="st3" d="M76.14,120.29v-1.4h3.73l0.21,1.73c0.34-0.61,0.75-1.08,1.25-1.43c0.49-0.34,1.06-0.52,1.7-0.52
			c0.17,0,0.34,0.01,0.52,0.04s0.32,0.05,0.41,0.08l-0.29,2.01l-1.23-0.07c-0.57,0-1.05,0.13-1.44,0.4
			c-0.39,0.27-0.69,0.64-0.9,1.13v6.83l1.79,0.31v1.39h-5.75v-1.39l1.79-0.31v-8.5L76.14,120.29z"/>
		<path class="st3" d="M85.45,120.29v-1.4h3.73l0.21,1.73c0.34-0.61,0.75-1.08,1.25-1.43c0.49-0.34,1.06-0.52,1.7-0.52
			c0.17,0,0.34,0.01,0.52,0.04s0.32,0.05,0.41,0.08l-0.29,2.01l-1.23-0.07c-0.57,0-1.05,0.13-1.44,0.4
			c-0.39,0.27-0.69,0.64-0.9,1.13v6.83l1.79,0.31v1.39h-5.75v-1.39l1.79-0.31v-8.5L85.45,120.29z"/>
		<path class="st3" d="M106.27,120.29l-1.07,0.17l-4.53,12.16c-0.3,0.8-0.73,1.5-1.3,2.09s-1.32,0.89-2.28,0.89
			c-0.17,0-0.39-0.02-0.66-0.06c-0.27-0.04-0.48-0.08-0.63-0.12l0.22-1.7c-0.04-0.01,0.09,0,0.39,0.02c0.3,0.02,0.5,0.03,0.58,0.03
			c0.46,0,0.84-0.2,1.12-0.6c0.29-0.4,0.54-0.86,0.75-1.38l0.52-1.23l-3.93-10.1l-1.09-0.18v-1.4h4.81v1.4l-1.34,0.22l2.06,5.87
			l0.4,1.52h0.07l2.47-7.39l-1.35-0.22v-1.4h4.79V120.29z"/>
		<path class="st3" d="M109.35,130.8h-2.17v-2.22h2.17V130.8z"/>
		<path class="st3" d="M117.37,116.18v-1.4h5.75v1.4l-1.79,0.31v12.61l1.79,0.31v1.39h-5.75v-1.39l1.79-0.31v-12.61L117.37,116.18z"
			/>
		<path class="st3" d="M127.59,115.66c0,0.73-0.18,1.49-0.53,2.28c-0.36,0.78-0.84,1.43-1.45,1.94l-1.23-0.81
			c0.34-0.52,0.6-1.05,0.78-1.6c0.18-0.55,0.26-1.13,0.26-1.76v-2.06h2.17V115.66z"/>
		<path class="st3" d="M128.81,129.41l1.79-0.31v-8.5l-1.79-0.31v-1.4h3.74l0.14,1.55c0.38-0.56,0.87-1,1.47-1.31
			s1.3-0.46,2.09-0.46c0.79,0,1.47,0.18,2.04,0.55c0.57,0.37,1,0.92,1.28,1.65c0.37-0.67,0.87-1.21,1.49-1.61
			c0.62-0.4,1.33-0.59,2.16-0.59c1.22,0,2.18,0.42,2.88,1.25c0.7,0.83,1.06,2.08,1.06,3.76v5.42l1.79,0.31v1.39h-5.76v-1.39
			l1.79-0.31v-5.44c0-1.17-0.2-2-0.6-2.49c-0.4-0.49-1-0.73-1.79-0.73c-0.76,0-1.36,0.27-1.82,0.8c-0.46,0.53-0.72,1.2-0.8,2.01
			v5.86l1.79,0.31v1.39H136v-1.39l1.79-0.31v-5.44c0-1.11-0.21-1.93-0.62-2.45c-0.41-0.52-1.01-0.77-1.8-0.77
			c-0.66,0-1.2,0.14-1.63,0.41c-0.42,0.27-0.75,0.65-0.98,1.14v7.12l1.79,0.31v1.39h-5.75V129.41z"/>
		<path class="st3" d="M24.3,147.32l-1.36,0.24l1.55,5.93l0.25,1.44h0.07l0.31-1.44l2.38-7.57h1.74l2.39,7.57l0.34,1.61h0.07
			l0.32-1.61l1.46-5.93l-1.39-0.24v-1.4h4.53v1.4l-1.03,0.15l-3,10.35h-1.75l-2.31-7.25l-0.49-2l-0.07,0.01l-0.46,1.99l-2.27,7.25
			h-1.75l-3-10.35l-1.04-0.15v-1.4h4.53V147.32z"/>
		<path class="st3" d="M46.45,157.82c-0.07-0.32-0.12-0.61-0.15-0.87c-0.04-0.26-0.06-0.51-0.08-0.77
			c-0.42,0.54-0.94,0.98-1.57,1.34s-1.3,0.53-2.01,0.53c-1.24,0-2.18-0.3-2.83-0.91s-0.97-1.46-0.97-2.56c0-1.13,0.46-2,1.37-2.61
			s2.17-0.92,3.76-0.92h2.23v-1.39c0-0.7-0.22-1.25-0.66-1.65s-1.05-0.61-1.84-0.61c-0.54,0-1.02,0.07-1.43,0.21
			s-0.75,0.33-1.01,0.57l-0.23,1.25h-1.67v-2.31c0.54-0.43,1.2-0.78,1.97-1.04s1.61-0.39,2.51-0.39c1.35,0,2.44,0.34,3.28,1.03
			c0.84,0.69,1.25,1.68,1.25,2.96v5.73c0,0.15,0,0.3,0.01,0.45c0,0.15,0.01,0.29,0.03,0.44l0.88,0.12v1.39H46.45z M42.97,156.24
			c0.72,0,1.37-0.17,1.97-0.52c0.59-0.34,1.02-0.76,1.28-1.24v-1.96H43.9c-0.89,0-1.59,0.21-2.11,0.62
			c-0.52,0.41-0.77,0.91-0.77,1.5c0,0.52,0.16,0.92,0.48,1.19S42.32,156.24,42.97,156.24z"/>
		<path class="st3" d="M62.23,147.32l-1.07,0.17l-4.53,12.16c-0.3,0.8-0.73,1.5-1.3,2.09s-1.32,0.89-2.28,0.89
			c-0.17,0-0.39-0.02-0.66-0.06c-0.27-0.04-0.48-0.08-0.63-0.12l0.22-1.7c-0.04-0.01,0.09,0,0.39,0.02c0.3,0.02,0.5,0.03,0.58,0.03
			c0.46,0,0.84-0.2,1.12-0.6c0.29-0.4,0.54-0.86,0.75-1.38l0.52-1.23l-3.93-10.1l-1.09-0.18v-1.4h4.81v1.4l-1.34,0.22l2.06,5.87
			l0.4,1.52h0.07l2.47-7.39l-1.35-0.22v-1.4h4.79V147.32z"/>
		<path class="st3" d="M73.09,143.05v2.87h2.25v1.61h-2.25v7.22c0,0.56,0.12,0.95,0.35,1.18c0.23,0.23,0.54,0.34,0.92,0.34
			c0.19,0,0.41-0.02,0.64-0.05c0.24-0.03,0.44-0.07,0.6-0.1l0.3,1.48c-0.21,0.13-0.51,0.24-0.9,0.32c-0.4,0.08-0.79,0.13-1.19,0.13
			c-0.88,0-1.58-0.27-2.1-0.8c-0.52-0.53-0.78-1.37-0.78-2.5v-7.22h-1.88v-1.61h1.88v-2.87H73.09z"/>
		<path class="st3" d="M77.35,151.76c0-1.76,0.48-3.21,1.43-4.35c0.95-1.14,2.25-1.71,3.88-1.71c1.64,0,2.94,0.57,3.9,1.7
			c0.96,1.14,1.44,2.59,1.44,4.35V152c0,1.77-0.48,3.23-1.43,4.35s-2.25,1.69-3.88,1.69c-1.65,0-2.95-0.57-3.9-1.7
			c-0.95-1.13-1.43-2.58-1.43-4.35V151.76z M79.51,152c0,1.26,0.27,2.3,0.8,3.12c0.53,0.82,1.32,1.23,2.37,1.23
			c1.03,0,1.81-0.41,2.34-1.23c0.53-0.82,0.8-1.86,0.8-3.12v-0.24c0-1.25-0.27-2.28-0.8-3.11c-0.54-0.83-1.32-1.24-2.37-1.24
			s-1.83,0.41-2.35,1.24c-0.53,0.83-0.79,1.87-0.79,3.11V152z"/>
		<path class="st3" d="M89.98,151.76c0-1.76,0.48-3.21,1.43-4.35c0.95-1.14,2.25-1.71,3.88-1.71c1.64,0,2.94,0.57,3.9,1.7
			c0.96,1.14,1.44,2.59,1.44,4.35V152c0,1.77-0.48,3.23-1.43,4.35s-2.25,1.69-3.88,1.69c-1.65,0-2.95-0.57-3.9-1.7
			c-0.95-1.13-1.43-2.58-1.43-4.35V151.76z M92.15,152c0,1.26,0.27,2.3,0.8,3.12c0.53,0.82,1.32,1.23,2.37,1.23
			c1.03,0,1.81-0.41,2.34-1.23c0.53-0.82,0.8-1.86,0.8-3.12v-0.24c0-1.25-0.27-2.28-0.8-3.11c-0.54-0.83-1.32-1.24-2.37-1.24
			s-1.83,0.41-2.35,1.24c-0.53,0.83-0.79,1.87-0.79,3.11V152z"/>
		<path class="st3" d="M119.09,152.32c0,1.72-0.41,3.1-1.24,4.15c-0.83,1.05-1.96,1.58-3.4,1.58c-0.78,0-1.45-0.15-2.02-0.45
			c-0.57-0.3-1.05-0.73-1.43-1.31l-0.2,1.53h-1.87v-15.45l-1.79-0.31v-1.4h3.96v6.66c0.37-0.53,0.84-0.93,1.39-1.21
			s1.2-0.42,1.94-0.42c1.47,0,2.61,0.59,3.43,1.76c0.82,1.17,1.23,2.72,1.23,4.63V152.32z M116.91,152.09
			c0-1.37-0.25-2.49-0.75-3.34c-0.5-0.86-1.26-1.29-2.29-1.29c-0.67,0-1.23,0.16-1.69,0.48c-0.46,0.32-0.82,0.75-1.09,1.3v5.26
			c0.27,0.55,0.64,0.99,1.11,1.31c0.46,0.32,1.03,0.48,1.7,0.48c1.02,0,1.78-0.36,2.27-1.09c0.49-0.73,0.74-1.69,0.74-2.88V152.09z"
			/>
		<path class="st3" d="M129.76,156.06c-0.37,0.64-0.86,1.13-1.45,1.47c-0.59,0.34-1.27,0.52-2.04,0.52c-1.29,0-2.3-0.41-3.02-1.24
			c-0.73-0.83-1.09-2.12-1.09-3.87v-5.31l-1.36-0.31v-1.4h1.36h2.17v7.04c0,1.27,0.19,2.14,0.56,2.62c0.37,0.48,0.96,0.71,1.75,0.71
			c0.77,0,1.41-0.16,1.91-0.47c0.5-0.31,0.88-0.75,1.14-1.33v-6.87l-1.59-0.31v-1.4h1.59h2.17v10.21l1.36,0.31v1.39h-3.31
			L129.76,156.06z"/>
		<path class="st3" d="M144.03,149.66h-1.63l-0.35-1.43c-0.26-0.25-0.6-0.45-1-0.6s-0.85-0.23-1.36-0.23
			c-0.77,0-1.34,0.17-1.71,0.51c-0.37,0.34-0.56,0.74-0.56,1.22c0,0.47,0.17,0.84,0.5,1.11c0.33,0.27,1,0.51,2.01,0.73
			c1.5,0.32,2.62,0.76,3.35,1.31c0.73,0.55,1.1,1.3,1.1,2.23c0,1.06-0.43,1.91-1.28,2.56c-0.85,0.65-1.97,0.98-3.35,0.98
			c-0.9,0-1.71-0.1-2.43-0.31s-1.36-0.51-1.92-0.91l-0.01-2.72h1.63l0.41,1.59c0.25,0.23,0.59,0.39,1.02,0.49
			c0.43,0.1,0.87,0.15,1.31,0.15c0.77,0,1.37-0.16,1.81-0.47c0.44-0.31,0.65-0.72,0.65-1.23c0-0.48-0.18-0.87-0.54-1.18
			c-0.36-0.31-1.05-0.58-2.06-0.8c-1.44-0.31-2.53-0.74-3.27-1.29c-0.73-0.54-1.1-1.28-1.1-2.2c0-0.97,0.41-1.79,1.24-2.47
			c0.82-0.68,1.9-1.02,3.22-1.02c0.9,0,1.71,0.12,2.43,0.35c0.72,0.23,1.32,0.56,1.79,0.98L144.03,149.66z"/>
		<path class="st3" d="M157.71,147.32l-1.07,0.17l-4.53,12.16c-0.3,0.8-0.73,1.5-1.3,2.09s-1.32,0.89-2.28,0.89
			c-0.17,0-0.39-0.02-0.66-0.06c-0.27-0.04-0.48-0.08-0.63-0.12l0.22-1.7c-0.04-0.01,0.09,0,0.39,0.02c0.3,0.02,0.5,0.03,0.58,0.03
			c0.46,0,0.84-0.2,1.12-0.6c0.29-0.4,0.54-0.86,0.75-1.38l0.52-1.23l-3.93-10.1l-1.09-0.18v-1.4h4.81v1.4l-1.34,0.22l2.06,5.87
			l0.4,1.52h0.07l2.47-7.39l-1.35-0.22v-1.4h4.79V147.32z"/>
		<path class="st3" d="M168.56,143.05v2.87h2.25v1.61h-2.25v7.22c0,0.56,0.12,0.95,0.35,1.18c0.23,0.23,0.54,0.34,0.92,0.34
			c0.19,0,0.41-0.02,0.64-0.05c0.24-0.03,0.44-0.07,0.6-0.1l0.3,1.48c-0.21,0.13-0.51,0.24-0.9,0.32c-0.4,0.08-0.79,0.13-1.19,0.13
			c-0.88,0-1.58-0.27-2.1-0.8c-0.52-0.53-0.78-1.37-0.78-2.5v-7.22h-1.88v-1.61h1.88v-2.87H168.56z"/>
		<path class="st3" d="M172.82,151.76c0-1.76,0.48-3.21,1.43-4.35c0.95-1.14,2.25-1.71,3.88-1.71c1.64,0,2.94,0.57,3.9,1.7
			c0.96,1.14,1.44,2.59,1.44,4.35V152c0,1.77-0.48,3.23-1.43,4.35s-2.25,1.69-3.88,1.69c-1.65,0-2.95-0.57-3.9-1.7
			c-0.95-1.13-1.43-2.58-1.43-4.35V151.76z M174.99,152c0,1.26,0.27,2.3,0.8,3.12c0.53,0.82,1.32,1.23,2.37,1.23
			c1.03,0,1.81-0.41,2.34-1.23c0.53-0.82,0.8-1.86,0.8-3.12v-0.24c0-1.25-0.27-2.28-0.8-3.11c-0.54-0.83-1.32-1.24-2.37-1.24
			s-1.83,0.41-2.35,1.24c-0.53,0.83-0.79,1.87-0.79,3.11V152z"/>
		<path class="st3" d="M20.08,179.12c0-1.91,0.42-3.46,1.25-4.63s1.99-1.76,3.46-1.76c0.75,0,1.4,0.15,1.97,0.44
			c0.56,0.29,1.04,0.72,1.42,1.28l0.2-1.5h1.83v11.74c0,1.54-0.43,2.75-1.29,3.63c-0.86,0.88-2.08,1.33-3.66,1.33
			c-0.57,0-1.19-0.08-1.86-0.24c-0.67-0.16-1.25-0.37-1.76-0.64l0.56-1.68c0.4,0.21,0.88,0.39,1.43,0.53
			c0.55,0.14,1.08,0.21,1.61,0.21c0.97,0,1.68-0.27,2.13-0.81c0.45-0.54,0.68-1.32,0.68-2.32v-1.13c-0.39,0.5-0.85,0.88-1.4,1.13
			c-0.54,0.26-1.17,0.38-1.87,0.38c-1.46,0-2.61-0.53-3.44-1.58s-1.25-2.44-1.25-4.15V179.12z M22.25,179.35
			c0,1.2,0.25,2.16,0.76,2.88c0.51,0.73,1.28,1.09,2.31,1.09c0.65,0,1.2-0.15,1.64-0.45c0.44-0.3,0.8-0.72,1.09-1.26v-5.48
			c-0.28-0.51-0.64-0.91-1.09-1.2c-0.45-0.3-0.99-0.45-1.62-0.45c-1.03,0-1.81,0.43-2.32,1.3c-0.51,0.87-0.77,1.98-0.77,3.33V179.35
			z"/>
		<path class="st3" d="M32.83,178.79c0-1.76,0.48-3.21,1.43-4.35c0.95-1.14,2.25-1.71,3.88-1.71c1.64,0,2.94,0.57,3.9,1.71
			c0.96,1.14,1.44,2.59,1.44,4.35v0.24c0,1.77-0.48,3.23-1.43,4.35s-2.25,1.69-3.88,1.69c-1.65,0-2.95-0.57-3.9-1.7
			c-0.95-1.13-1.43-2.58-1.43-4.35V178.79z M35,179.03c0,1.26,0.27,2.3,0.8,3.12s1.32,1.23,2.37,1.23c1.03,0,1.81-0.41,2.34-1.23
			c0.53-0.82,0.8-1.86,0.8-3.12v-0.24c0-1.25-0.27-2.28-0.8-3.11c-0.54-0.83-1.32-1.24-2.37-1.24s-1.83,0.41-2.35,1.24
			c-0.53,0.83-0.79,1.87-0.79,3.11V179.03z"/>
		<path class="st3" d="M54.83,170.08v2.87h2.25v1.61h-2.25v7.22c0,0.56,0.12,0.95,0.35,1.18c0.23,0.23,0.54,0.34,0.92,0.34
			c0.19,0,0.41-0.02,0.64-0.05c0.24-0.03,0.44-0.07,0.6-0.1l0.3,1.49c-0.21,0.13-0.51,0.24-0.9,0.32c-0.4,0.08-0.79,0.13-1.19,0.13
			c-0.88,0-1.58-0.27-2.1-0.8s-0.78-1.37-0.78-2.5v-7.22h-1.88v-1.61h1.88v-2.87H54.83z"/>
		<path class="st3" d="M59.09,178.79c0-1.76,0.48-3.21,1.43-4.35c0.95-1.14,2.25-1.71,3.88-1.71c1.64,0,2.94,0.57,3.9,1.71
			c0.96,1.14,1.44,2.59,1.44,4.35v0.24c0,1.77-0.48,3.23-1.43,4.35s-2.25,1.69-3.88,1.69c-1.65,0-2.95-0.57-3.9-1.7
			c-0.95-1.13-1.43-2.58-1.43-4.35V178.79z M61.26,179.03c0,1.26,0.27,2.3,0.8,3.12s1.32,1.23,2.37,1.23c1.03,0,1.81-0.41,2.34-1.23
			c0.53-0.82,0.8-1.86,0.8-3.12v-0.24c0-1.25-0.27-2.28-0.8-3.11c-0.54-0.83-1.32-1.24-2.37-1.24s-1.83,0.41-2.35,1.24
			c-0.53,0.83-0.79,1.87-0.79,3.11V179.03z"/>
		<path class="st3" d="M81.1,170.08v2.87h2.25v1.61H81.1v7.22c0,0.56,0.12,0.95,0.35,1.18c0.23,0.23,0.54,0.34,0.92,0.34
			c0.19,0,0.41-0.02,0.64-0.05c0.24-0.03,0.44-0.07,0.6-0.1l0.3,1.49c-0.21,0.13-0.51,0.24-0.9,0.32c-0.4,0.08-0.79,0.13-1.19,0.13
			c-0.88,0-1.58-0.27-2.1-0.8s-0.78-1.37-0.78-2.5v-7.22h-1.88v-1.61h1.88v-2.87H81.1z"/>
		<path class="st3" d="M85.26,183.46l1.79-0.31V169.4l-1.79-0.31v-1.4h3.96v6.84c0.41-0.57,0.91-1.02,1.51-1.33
			c0.59-0.32,1.25-0.47,1.98-0.47c1.28,0,2.26,0.38,2.97,1.14c0.7,0.76,1.06,1.94,1.06,3.52v5.76l1.79,0.31v1.39h-5.75v-1.39
			l1.79-0.31v-5.79c0-0.98-0.21-1.71-0.63-2.18c-0.42-0.47-1.05-0.7-1.89-0.7c-0.59,0-1.13,0.14-1.62,0.42s-0.89,0.67-1.2,1.15v7.09
			l1.79,0.31v1.39h-5.75V183.46z"/>
		<path class="st3" d="M105.42,185.08c-1.66,0-2.97-0.55-3.95-1.66c-0.98-1.1-1.47-2.53-1.47-4.29v-0.48c0-1.69,0.5-3.1,1.51-4.23
			s2.2-1.69,3.58-1.69c1.6,0,2.81,0.48,3.63,1.45c0.83,0.97,1.24,2.26,1.24,3.87v1.35h-7.72l-0.03,0.05
			c0.02,1.14,0.31,2.08,0.87,2.82c0.56,0.74,1.34,1.11,2.34,1.11c0.73,0,1.38-0.1,1.93-0.31s1.03-0.5,1.44-0.86l0.85,1.41
			c-0.43,0.41-0.99,0.76-1.69,1.04S106.4,185.08,105.42,185.08z M105.09,174.43c-0.73,0-1.34,0.31-1.86,0.92
			c-0.51,0.61-0.83,1.38-0.95,2.3l0.02,0.05h5.49v-0.29c0-0.85-0.23-1.56-0.68-2.13C106.66,174.72,105.99,174.43,105.09,174.43z"/>
		<path class="st3" d="M123.04,183.38c0.72,0,1.35-0.22,1.9-0.67c0.55-0.44,0.82-0.99,0.82-1.63h1.95l0.02,0.07
			c0.04,1.03-0.42,1.94-1.37,2.73c-0.95,0.8-2.05,1.19-3.32,1.19c-1.73,0-3.05-0.56-3.96-1.69c-0.91-1.13-1.37-2.55-1.37-4.26v-0.46
			c0-1.69,0.46-3.11,1.38-4.24s2.24-1.7,3.96-1.7c0.95,0,1.81,0.16,2.57,0.47c0.76,0.31,1.39,0.75,1.89,1.3l0.1,2.64h-1.73
			l-0.47-1.87c-0.26-0.25-0.59-0.45-0.99-0.61c-0.4-0.15-0.86-0.23-1.36-0.23c-1.14,0-1.95,0.41-2.44,1.23
			c-0.49,0.82-0.73,1.82-0.73,3.01v0.46c0,1.22,0.24,2.23,0.73,3.04C121.08,182.98,121.9,183.38,123.04,183.38z"/>
		<path class="st3" d="M129.85,178.79c0-1.76,0.48-3.21,1.43-4.35c0.95-1.14,2.25-1.71,3.88-1.71c1.64,0,2.94,0.57,3.9,1.71
			c0.96,1.14,1.44,2.59,1.44,4.35v0.24c0,1.77-0.48,3.23-1.43,4.35s-2.25,1.69-3.88,1.69c-1.65,0-2.95-0.57-3.9-1.7
			c-0.95-1.13-1.43-2.58-1.43-4.35V178.79z M132.01,179.03c0,1.26,0.27,2.3,0.8,3.12s1.32,1.23,2.37,1.23
			c1.03,0,1.81-0.41,2.34-1.23c0.53-0.82,0.8-1.86,0.8-3.12v-0.24c0-1.25-0.27-2.28-0.8-3.11c-0.54-0.83-1.32-1.24-2.37-1.24
			s-1.83,0.41-2.35,1.24c-0.53,0.83-0.79,1.87-0.79,3.11V179.03z"/>
		<path class="st3" d="M142.48,178.79c0-1.76,0.48-3.21,1.43-4.35c0.95-1.14,2.25-1.71,3.88-1.71c1.64,0,2.94,0.57,3.9,1.71
			c0.96,1.14,1.44,2.59,1.44,4.35v0.24c0,1.77-0.48,3.23-1.43,4.35s-2.25,1.69-3.88,1.69c-1.65,0-2.95-0.57-3.9-1.7
			c-0.95-1.13-1.43-2.58-1.43-4.35V178.79z M144.65,179.03c0,1.26,0.27,2.3,0.8,3.12s1.32,1.23,2.37,1.23
			c1.03,0,1.81-0.41,2.34-1.23c0.53-0.82,0.8-1.86,0.8-3.12v-0.24c0-1.25-0.27-2.28-0.8-3.11c-0.54-0.83-1.32-1.24-2.37-1.24
			s-1.83,0.41-2.35,1.24c-0.53,0.83-0.79,1.87-0.79,3.11V179.03z"/>
		<path class="st3" d="M154.59,169.09v-1.4h3.96v9.94h1.39l2.54-3.15l-1.09-0.14v-1.4h4.98v1.4l-1.45,0.29l-3.13,3.74l3.82,4.83
			l1.35,0.26v1.39h-4.94v-1.39l1.11-0.14l-3.16-3.96h-1.42v3.79l1.79,0.31v1.39h-5.75v-1.39l1.79-0.31V169.4L154.59,169.09z"/>
		<path class="st3" d="M168.58,183.46l1.79-0.31v-8.5l-1.79-0.31v-1.4h3.96v10.21l1.79,0.31v1.39h-5.75V183.46z M172.54,169.9h-2.17
			v-2.21h2.17V169.9z"/>
		<path class="st3" d="M181.41,185.08c-1.66,0-2.97-0.55-3.95-1.66c-0.98-1.1-1.47-2.53-1.47-4.29v-0.48c0-1.69,0.5-3.1,1.51-4.23
			s2.2-1.69,3.58-1.69c1.6,0,2.81,0.48,3.63,1.45c0.83,0.97,1.24,2.26,1.24,3.87v1.35h-7.72l-0.03,0.05
			c0.02,1.14,0.31,2.08,0.87,2.82c0.56,0.74,1.34,1.11,2.34,1.11c0.73,0,1.38-0.1,1.93-0.31s1.03-0.5,1.44-0.86l0.85,1.41
			c-0.43,0.41-0.99,0.76-1.69,1.04S182.39,185.08,181.41,185.08z M181.08,174.43c-0.73,0-1.34,0.31-1.86,0.92
			c-0.51,0.61-0.83,1.38-0.95,2.3l0.02,0.05h5.49v-0.29c0-0.85-0.23-1.56-0.68-2.13C182.65,174.72,181.98,174.43,181.08,174.43z"/>
		<path class="st3" d="M30.96,206.38c0,1.72-0.41,3.1-1.24,4.15c-0.83,1.05-1.96,1.58-3.4,1.58c-0.78,0-1.45-0.15-2.02-0.45
			c-0.57-0.3-1.05-0.74-1.43-1.31l-0.2,1.53H20.8v-15.45l-1.79-0.31v-1.4h3.96v6.66c0.37-0.53,0.84-0.93,1.39-1.21
			c0.55-0.28,1.2-0.42,1.94-0.42c1.47,0,2.61,0.59,3.43,1.76c0.82,1.17,1.23,2.72,1.23,4.63V206.38z M28.78,206.14
			c0-1.37-0.25-2.49-0.75-3.34s-1.26-1.29-2.29-1.29c-0.67,0-1.23,0.16-1.69,0.48s-0.82,0.75-1.09,1.3v5.26
			c0.27,0.55,0.64,0.99,1.11,1.31c0.46,0.32,1.03,0.48,1.7,0.48c1.02,0,1.78-0.36,2.27-1.09c0.49-0.73,0.74-1.69,0.74-2.88V206.14z"
			/>
		<path class="st3" d="M40.88,211.87c-0.07-0.32-0.12-0.61-0.15-0.87c-0.04-0.26-0.06-0.51-0.08-0.77
			c-0.42,0.54-0.94,0.98-1.57,1.34s-1.3,0.53-2.01,0.53c-1.24,0-2.18-0.3-2.83-0.91c-0.65-0.61-0.97-1.46-0.97-2.56
			c0-1.13,0.46-2,1.37-2.61s2.17-0.92,3.76-0.92h2.23v-1.39c0-0.7-0.22-1.25-0.66-1.66c-0.44-0.41-1.05-0.61-1.84-0.61
			c-0.54,0-1.02,0.07-1.43,0.21c-0.41,0.14-0.75,0.33-1.01,0.57l-0.23,1.25H33.8v-2.31c0.54-0.43,1.2-0.78,1.97-1.04
			c0.77-0.26,1.61-0.39,2.51-0.39c1.35,0,2.44,0.34,3.28,1.03c0.84,0.69,1.25,1.68,1.25,2.96v5.73c0,0.15,0,0.3,0.01,0.45
			c0,0.15,0.01,0.29,0.03,0.44l0.88,0.12v1.39H40.88z M37.39,210.29c0.72,0,1.37-0.17,1.97-0.52c0.59-0.34,1.02-0.76,1.28-1.24
			v-1.96h-2.31c-0.89,0-1.59,0.21-2.11,0.62c-0.52,0.41-0.77,0.91-0.77,1.5c0,0.52,0.16,0.92,0.48,1.19
			C36.25,210.15,36.74,210.29,37.39,210.29z"/>
		<path class="st3" d="M45.22,196.11v-1.4h3.96v9.94h1.39l2.54-3.14l-1.09-0.14v-1.4H57v1.4l-1.45,0.29l-3.13,3.74l3.82,4.83
			l1.35,0.26v1.39h-4.94v-1.39l1.11-0.14l-3.16-3.96h-1.42v3.79l1.79,0.31v1.39h-5.75v-1.39l1.79-0.31v-13.76L45.22,196.11z"/>
		<path class="st3" d="M59.21,210.49l1.79-0.31v-8.5l-1.79-0.31v-1.4h3.96v10.21l1.79,0.31v1.39h-5.75V210.49z M63.17,196.93H61
			v-2.21h2.17V196.93z"/>
		<path class="st3" d="M66.29,210.49l1.79-0.31v-8.5l-1.79-0.31v-1.4h3.73l0.15,1.77c0.4-0.63,0.89-1.12,1.49-1.47
			c0.6-0.35,1.28-0.52,2.04-0.52c1.28,0,2.28,0.38,2.98,1.13c0.7,0.75,1.06,1.91,1.06,3.48v5.82l1.79,0.31v1.39h-5.75v-1.39
			l1.79-0.31v-5.77c0-1.05-0.21-1.79-0.62-2.23c-0.42-0.44-1.05-0.66-1.9-0.66c-0.62,0-1.17,0.15-1.66,0.45
			c-0.48,0.3-0.86,0.71-1.15,1.23v6.98l1.79,0.31v1.39h-5.75V210.49z"/>
		<path class="st3" d="M81.01,206.14c0-1.91,0.42-3.46,1.25-4.63c0.84-1.17,1.99-1.76,3.46-1.76c0.75,0,1.4,0.15,1.97,0.44
			c0.56,0.29,1.04,0.72,1.42,1.28l0.2-1.5h1.83v11.75c0,1.54-0.43,2.75-1.29,3.63c-0.86,0.88-2.08,1.33-3.66,1.33
			c-0.57,0-1.19-0.08-1.86-0.24s-1.25-0.37-1.76-0.64l0.56-1.68c0.4,0.21,0.88,0.39,1.43,0.53s1.08,0.21,1.61,0.21
			c0.97,0,1.68-0.27,2.13-0.81c0.45-0.54,0.68-1.32,0.68-2.32v-1.13c-0.39,0.5-0.85,0.88-1.4,1.13c-0.54,0.26-1.17,0.38-1.87,0.38
			c-1.46,0-2.61-0.53-3.44-1.58s-1.25-2.44-1.25-4.15V206.14z M83.17,206.38c0,1.2,0.25,2.16,0.76,2.88s1.28,1.09,2.31,1.09
			c0.65,0,1.2-0.15,1.64-0.45c0.44-0.3,0.8-0.72,1.09-1.26v-5.48c-0.28-0.51-0.64-0.91-1.09-1.2c-0.45-0.3-0.99-0.45-1.62-0.45
			c-1.03,0-1.81,0.43-2.32,1.3c-0.51,0.87-0.77,1.98-0.77,3.33V206.38z"/>
		<path class="st3" d="M99.07,215.05l1.79-0.31v-13.06l-1.79-0.31v-1.4h3.65l0.2,1.45c0.4-0.54,0.88-0.96,1.45-1.24
			s1.23-0.43,1.97-0.43c1.47,0,2.62,0.58,3.44,1.75s1.23,2.71,1.23,4.63v0.23c0,1.72-0.41,3.1-1.23,4.15
			c-0.82,1.05-1.95,1.58-3.4,1.58c-0.73,0-1.38-0.12-1.93-0.37c-0.55-0.25-1.02-0.61-1.41-1.09v4.1l1.79,0.31v1.4h-5.75V215.05z
			 M108.83,206.14c0-1.36-0.26-2.47-0.79-3.33c-0.53-0.86-1.31-1.3-2.35-1.3c-0.62,0-1.14,0.14-1.58,0.42
			c-0.44,0.28-0.79,0.66-1.07,1.14v5.79c0.27,0.49,0.62,0.87,1.06,1.14c0.44,0.27,0.97,0.4,1.61,0.4c1.03,0,1.8-0.37,2.33-1.12
			c0.53-0.75,0.79-1.72,0.79-2.91V206.14z"/>
		<path class="st3" d="M120.74,211.87c-0.07-0.32-0.12-0.61-0.15-0.87c-0.04-0.26-0.06-0.51-0.08-0.77
			c-0.42,0.54-0.94,0.98-1.57,1.34s-1.3,0.53-2.01,0.53c-1.24,0-2.18-0.3-2.83-0.91c-0.65-0.61-0.97-1.46-0.97-2.56
			c0-1.13,0.46-2,1.37-2.61s2.17-0.92,3.76-0.92h2.23v-1.39c0-0.7-0.22-1.25-0.66-1.66c-0.44-0.41-1.05-0.61-1.84-0.61
			c-0.54,0-1.02,0.07-1.43,0.21c-0.41,0.14-0.75,0.33-1.01,0.57l-0.23,1.25h-1.67v-2.31c0.54-0.43,1.2-0.78,1.97-1.04
			c0.77-0.26,1.61-0.39,2.51-0.39c1.35,0,2.44,0.34,3.28,1.03c0.84,0.69,1.25,1.68,1.25,2.96v5.73c0,0.15,0,0.3,0.01,0.45
			c0,0.15,0.01,0.29,0.03,0.44l0.88,0.12v1.39H120.74z M117.25,210.29c0.72,0,1.37-0.17,1.97-0.52c0.59-0.34,1.02-0.76,1.28-1.24
			v-1.96h-2.31c-0.89,0-1.59,0.21-2.11,0.62c-0.52,0.41-0.77,0.91-0.77,1.5c0,0.52,0.16,0.92,0.48,1.19
			C116.11,210.15,116.6,210.29,117.25,210.29z"/>
		<path class="st3" d="M125.38,201.37v-1.4h3.73l0.21,1.73c0.34-0.61,0.75-1.08,1.25-1.43c0.49-0.34,1.06-0.52,1.7-0.52
			c0.17,0,0.34,0.01,0.52,0.04c0.18,0.03,0.32,0.05,0.41,0.08l-0.29,2.01l-1.23-0.07c-0.57,0-1.05,0.13-1.44,0.4
			c-0.39,0.27-0.69,0.64-0.9,1.13v6.83l1.79,0.31v1.39h-5.75v-1.39l1.79-0.31v-8.5L125.38,201.37z"/>
		<path class="st3" d="M138.83,197.1v2.87h2.25v1.61h-2.25v7.22c0,0.56,0.12,0.95,0.35,1.18c0.23,0.23,0.54,0.34,0.92,0.34
			c0.19,0,0.41-0.02,0.64-0.05s0.44-0.07,0.6-0.1l0.3,1.48c-0.21,0.13-0.51,0.24-0.9,0.32s-0.79,0.13-1.19,0.13
			c-0.88,0-1.58-0.27-2.1-0.8c-0.52-0.53-0.78-1.37-0.78-2.5v-7.22h-1.88v-1.61h1.88v-2.87H138.83z"/>
		<path class="st3" d="M154.6,201.37l-1.07,0.17L149,213.7c-0.3,0.8-0.73,1.5-1.3,2.09s-1.32,0.89-2.28,0.89
			c-0.17,0-0.39-0.02-0.66-0.06s-0.48-0.08-0.63-0.12l0.22-1.7c-0.04-0.01,0.09,0,0.39,0.02c0.3,0.02,0.5,0.03,0.58,0.03
			c0.46,0,0.84-0.2,1.12-0.6s0.54-0.86,0.75-1.38l0.52-1.23l-3.93-10.1l-1.09-0.18v-1.4h4.81v1.4l-1.34,0.22l2.06,5.87l0.4,1.52
			h0.07l2.47-7.39l-1.35-0.22v-1.4h4.79V201.37z"/>
		<path class="st3" d="M157.68,211.87h-2.17v-2.22h2.17V211.87z"/>
	</g>
</g>
</svg>
