<?xml version="1.0" encoding="utf-8"?>
<!-- Generator: Adobe Illustrator 24.0.0, SVG Export Plug-In . SVG Version: 6.00 Build 0)  -->
<svg version="1.1" id="Layer_1" xmlns="http://www.w3.org/2000/svg" xmlns:xlink="http://www.w3.org/1999/xlink" x="0px" y="0px"
	 viewBox="0 0 209.81 126.62" style="enable-background:new 0 0 209.81 126.62;" xml:space="preserve">
<style type="text/css">
	.st0{fill:#ED3727;}
	.st1{fill:#010101;}
	.st2{enable-background:new    ;}
	.st3{fill:#FFFFFF;}
</style>
<g>
	<g>
		<path class="st0" d="M10.32,125.68c-5.17,0-9.38-4.21-9.38-9.38V62.21c0-5.17,4.21-9.38,9.38-9.38h22.17
			c0.33,0,0.63-0.17,0.8-0.45c0.36-0.59,0.36-0.59-12.83-26.94C16.08,16.69,11.69,7.95,9.31,3.2c65.2,49.61,65.4,49.61,65.82,49.61
			h124.36c5.17,0,9.38,4.21,9.38,9.39v54.1c0,5.17-4.21,9.38-9.38,9.38h0H10.32z"/>
		<path class="st1" d="M11.97,6.4c6.51,4.95,17.08,12.99,27.67,21.03c8.54,6.49,17.09,12.97,23.53,17.84
			c3.22,2.43,5.91,4.46,7.81,5.88c3.48,2.6,3.48,2.6,4.16,2.6h124.36c4.65,0,8.44,3.79,8.45,8.45v54.1c0,4.65-3.79,8.44-8.45,8.45
			H10.32c-4.65,0-8.44-3.79-8.45-8.45V62.21c0-4.65,3.79-8.44,8.45-8.45h22.17c0.65,0,1.26-0.34,1.6-0.89
			c0.57-0.92,0.45-1.16-0.98-4.1c-0.7-1.44-1.7-3.48-2.92-5.92c-2.14-4.32-5.13-10.31-8.89-17.83C17.87,18.17,14.44,11.33,11.97,6.4
			 M6.65,0c0,0,26.1,51.89,25.85,51.89H10.32C4.62,51.89,0.01,56.51,0,62.21v54.09c0.01,5.7,4.62,10.32,10.32,10.32h189.17
			c5.7-0.01,10.32-4.62,10.32-10.32V62.2c-0.01-5.7-4.62-10.32-10.32-10.32H75.13C74.82,51.88,6.65,0,6.65,0L6.65,0z"/>
	</g>
	<g class="st2">
		<path class="st3" d="M36.46,66.78v1.4l-1.79,0.31v14.31H32.5l-7.7-12.36l-0.07,0.02v10.65l1.79,0.31v1.39h-5.75V81.4l1.79-0.31
			V68.48l-1.79-0.31v-1.4h1.79h2.17l7.7,12.35l0.07-0.02V68.48l-1.79-0.31v-1.4h3.96H36.46z"/>
		<path class="st3" d="M38.14,76.73c0-1.76,0.48-3.21,1.43-4.35c0.95-1.14,2.25-1.71,3.88-1.71c1.64,0,2.94,0.57,3.9,1.7
			c0.96,1.14,1.44,2.59,1.44,4.35v0.24c0,1.77-0.48,3.23-1.43,4.35s-2.25,1.69-3.88,1.69c-1.65,0-2.95-0.57-3.9-1.7
			c-0.95-1.13-1.43-2.58-1.43-4.35V76.73z M40.31,76.97c0,1.26,0.27,2.3,0.8,3.12c0.53,0.82,1.32,1.23,2.37,1.23
			c1.03,0,1.81-0.41,2.34-1.23c0.53-0.82,0.8-1.86,0.8-3.12v-0.24c0-1.25-0.27-2.28-0.8-3.11c-0.54-0.83-1.32-1.24-2.37-1.24
			s-1.83,0.41-2.35,1.24c-0.53,0.83-0.79,1.87-0.79,3.11V76.97z"/>
		<path class="st3" d="M56.38,76.73c0-1.76,0.48-3.21,1.43-4.35c0.95-1.14,2.25-1.71,3.88-1.71c1.64,0,2.94,0.57,3.9,1.7
			c0.96,1.14,1.44,2.59,1.44,4.35v0.24c0,1.77-0.48,3.23-1.43,4.35s-2.25,1.69-3.88,1.69c-1.65,0-2.95-0.57-3.9-1.7
			c-0.95-1.13-1.43-2.58-1.43-4.35V76.73z M58.54,76.97c0,1.26,0.27,2.3,0.8,3.12c0.53,0.82,1.32,1.23,2.37,1.23
			c1.03,0,1.81-0.41,2.34-1.23c0.53-0.82,0.8-1.86,0.8-3.12v-0.24c0-1.25-0.27-2.28-0.8-3.11c-0.54-0.83-1.32-1.24-2.37-1.24
			s-1.83,0.41-2.35,1.24c-0.53,0.83-0.79,1.87-0.79,3.11V76.97z"/>
		<path class="st3" d="M68.68,81.4l1.79-0.31v-8.5l-1.79-0.31v-1.4h3.73l0.15,1.77c0.4-0.63,0.89-1.12,1.49-1.47
			c0.6-0.35,1.28-0.52,2.04-0.52c1.28,0,2.28,0.38,2.98,1.13s1.06,1.91,1.06,3.48v5.82l1.79,0.31v1.39h-5.75V81.4l1.79-0.31v-5.77
			c0-1.05-0.21-1.79-0.62-2.23c-0.42-0.44-1.05-0.66-1.9-0.66c-0.62,0-1.17,0.15-1.66,0.45c-0.48,0.3-0.86,0.71-1.15,1.23v6.98
			l1.79,0.31v1.39h-5.75V81.4z"/>
		<path class="st3" d="M88.82,83.02c-1.66,0-2.97-0.55-3.95-1.66c-0.98-1.1-1.47-2.53-1.47-4.29v-0.48c0-1.69,0.5-3.1,1.51-4.23
			c1.01-1.12,2.2-1.69,3.58-1.69c1.6,0,2.81,0.48,3.63,1.45s1.24,2.26,1.24,3.87v1.35h-7.72l-0.03,0.05
			c0.02,1.14,0.31,2.08,0.87,2.82c0.56,0.74,1.34,1.11,2.34,1.11c0.73,0,1.38-0.1,1.93-0.31s1.03-0.5,1.44-0.86l0.85,1.41
			c-0.43,0.41-0.99,0.76-1.69,1.04S89.8,83.02,88.82,83.02z M88.49,72.37c-0.73,0-1.34,0.31-1.86,0.92
			c-0.51,0.61-0.83,1.38-0.95,2.3l0.02,0.05h5.49v-0.29c0-0.85-0.23-1.56-0.68-2.13C90.06,72.66,89.38,72.37,88.49,72.37z"/>
		<path class="st3" d="M105.31,72.29l-1.36,0.24l1.55,5.93l0.25,1.44h0.07l0.31-1.44l2.38-7.57h1.74l2.39,7.57l0.34,1.61h0.07
			l0.32-1.61l1.46-5.93l-1.39-0.24v-1.4h4.53v1.4l-1.03,0.15l-3,10.35h-1.75l-2.31-7.25l-0.49-2l-0.07,0.01l-0.46,1.99l-2.27,7.25
			h-1.75l-3-10.35l-1.04-0.15v-1.4h4.53V72.29z"/>
		<path class="st3" d="M119.71,81.4l1.79-0.31v-8.5l-1.79-0.31v-1.4h3.96v10.21l1.79,0.31v1.39h-5.75V81.4z M123.67,67.84h-2.17
			v-2.21h2.17V67.84z"/>
		<path class="st3" d="M126.81,67.03v-1.4h3.96v15.46l1.79,0.31v1.39h-5.75V81.4l1.79-0.31V67.34L126.81,67.03z"/>
		<path class="st3" d="M133.91,67.03v-1.4h3.96v15.46l1.79,0.31v1.39h-5.75V81.4l1.79-0.31V67.34L133.91,67.03z"/>
		<path class="st3" d="M152.33,83.02c-1.66,0-2.97-0.55-3.95-1.66c-0.98-1.1-1.47-2.53-1.47-4.29v-0.48c0-1.69,0.5-3.1,1.51-4.23
			c1.01-1.12,2.2-1.69,3.58-1.69c1.6,0,2.81,0.48,3.63,1.45s1.24,2.26,1.24,3.87v1.35h-7.72l-0.03,0.05
			c0.02,1.14,0.31,2.08,0.87,2.82c0.56,0.74,1.34,1.11,2.34,1.11c0.73,0,1.38-0.1,1.93-0.31s1.03-0.5,1.44-0.86l0.85,1.41
			c-0.43,0.41-0.99,0.76-1.69,1.04S153.31,83.02,152.33,83.02z M151.99,72.37c-0.73,0-1.34,0.31-1.86,0.92
			c-0.51,0.61-0.83,1.38-0.95,2.3l0.02,0.05h5.49v-0.29c0-0.85-0.23-1.56-0.68-2.13C153.56,72.66,152.89,72.37,151.99,72.37z"/>
		<path class="st3" d="M162.94,72.29l-1.43,0.22l2.45,6.77l0.2,0.86h0.07l0.21-0.86l2.38-6.77l-1.44-0.22v-1.4h4.6v1.4l-0.98,0.17
			l-3.99,10.34h-1.64l-4.04-10.34l-0.98-0.17v-1.4h4.6V72.29z"/>
		<path class="st3" d="M176.72,83.02c-1.66,0-2.97-0.55-3.95-1.66c-0.98-1.1-1.47-2.53-1.47-4.29v-0.48c0-1.69,0.5-3.1,1.51-4.23
			c1.01-1.12,2.2-1.69,3.58-1.69c1.6,0,2.81,0.48,3.63,1.45s1.24,2.26,1.24,3.87v1.35h-7.72l-0.03,0.05
			c0.02,1.14,0.31,2.08,0.87,2.82c0.56,0.74,1.34,1.11,2.34,1.11c0.73,0,1.38-0.1,1.93-0.31s1.03-0.5,1.44-0.86l0.85,1.41
			c-0.43,0.41-0.99,0.76-1.69,1.04S177.7,83.02,176.72,83.02z M176.39,72.37c-0.73,0-1.34,0.31-1.86,0.92
			c-0.51,0.61-0.83,1.38-0.95,2.3l0.02,0.05h5.49v-0.29c0-0.85-0.23-1.56-0.68-2.13C177.96,72.66,177.28,72.37,176.39,72.37z"/>
		<path class="st3" d="M183.39,72.29v-1.4h3.73l0.21,1.73c0.34-0.61,0.75-1.08,1.25-1.43c0.49-0.34,1.06-0.52,1.7-0.52
			c0.17,0,0.34,0.01,0.52,0.04s0.32,0.05,0.41,0.08l-0.29,2.01l-1.23-0.07c-0.57,0-1.05,0.13-1.44,0.4
			c-0.39,0.27-0.69,0.64-0.9,1.13v6.83l1.79,0.31v1.39h-5.75V81.4l1.79-0.31v-8.5L183.39,72.29z"/>
		<path class="st3" d="M20.68,94.05v-1.4h3.96v9.94h1.39l2.54-3.15l-1.09-0.14v-1.4h4.98v1.4l-1.45,0.29l-3.13,3.74l3.82,4.83
			l1.35,0.26v1.39H28.1v-1.39l1.11-0.14l-3.16-3.96h-1.42v3.79l1.79,0.31v1.39h-5.75v-1.39l1.79-0.31V94.36L20.68,94.05z"/>
		<path class="st3" d="M34.35,108.43l1.79-0.31v-8.5l-1.79-0.31v-1.4h3.73l0.15,1.77c0.4-0.63,0.89-1.12,1.49-1.47
			c0.6-0.35,1.28-0.52,2.04-0.52c1.28,0,2.28,0.38,2.98,1.13s1.06,1.91,1.06,3.48v5.82l1.79,0.31v1.39h-5.75v-1.39l1.79-0.31v-5.77
			c0-1.05-0.21-1.79-0.62-2.23c-0.42-0.44-1.05-0.66-1.9-0.66c-0.62,0-1.17,0.15-1.66,0.45c-0.48,0.3-0.86,0.71-1.15,1.23v6.98
			l1.79,0.31v1.39h-5.75V108.43z"/>
		<path class="st3" d="M49.06,103.75c0-1.76,0.48-3.21,1.43-4.35c0.95-1.14,2.25-1.71,3.88-1.71c1.64,0,2.94,0.57,3.9,1.7
			c0.96,1.14,1.44,2.59,1.44,4.35V104c0,1.77-0.48,3.23-1.43,4.35s-2.25,1.69-3.88,1.69c-1.65,0-2.95-0.57-3.9-1.7
			c-0.95-1.13-1.43-2.58-1.43-4.35V103.75z M51.23,104c0,1.26,0.27,2.3,0.8,3.12c0.53,0.82,1.32,1.23,2.37,1.23
			c1.03,0,1.81-0.41,2.34-1.23c0.53-0.82,0.8-1.86,0.8-3.12v-0.24c0-1.25-0.27-2.28-0.8-3.11c-0.54-0.83-1.32-1.24-2.37-1.24
			s-1.83,0.41-2.35,1.24c-0.53,0.83-0.79,1.87-0.79,3.11V104z"/>
		<path class="st3" d="M65.91,99.31l-1.36,0.24l1.55,5.93l0.25,1.44h0.07l0.31-1.44l2.38-7.57h1.74l2.39,7.57l0.34,1.61h0.07
			l0.32-1.61l1.46-5.93l-1.39-0.24v-1.4h4.53v1.4l-1.03,0.15l-3,10.35h-1.75l-2.31-7.25l-0.49-2l-0.07,0.01l-0.46,1.99l-2.27,7.25
			h-1.75l-3-10.35l-1.04-0.15v-1.4h4.53V99.31z"/>
		<path class="st3" d="M81.72,109.81h-2.17v-2.22h2.17V109.81z"/>
		<path class="st3" d="M87.15,109.81h-2.17v-2.22h2.17V109.81z"/>
		<path class="st3" d="M92.57,109.81H90.4v-2.22h2.17V109.81z"/>
		<path class="st3" d="M100.81,99.31v-1.4h3.73l0.21,1.73c0.34-0.61,0.75-1.08,1.25-1.43c0.49-0.34,1.06-0.52,1.7-0.52
			c0.17,0,0.34,0.01,0.52,0.04s0.32,0.05,0.41,0.08l-0.29,2.01l-1.23-0.07c-0.57,0-1.05,0.13-1.44,0.4
			c-0.39,0.27-0.69,0.64-0.9,1.13v6.83l1.79,0.31v1.39h-5.75v-1.39l1.79-0.31v-8.5L100.81,99.31z"/>
		<path class="st3" d="M110.12,108.43l1.79-0.31v-8.5l-1.79-0.31v-1.4h3.96v10.21l1.79,0.31v1.39h-5.75V108.43z M114.08,94.87h-2.17
			v-2.21h2.17V94.87z"/>
		<path class="st3" d="M117.53,104.08c0-1.91,0.42-3.46,1.25-4.63c0.84-1.17,1.99-1.76,3.46-1.76c0.75,0,1.4,0.15,1.97,0.44
			c0.56,0.29,1.04,0.72,1.42,1.28l0.2-1.5h1.83v11.74c0,1.54-0.43,2.75-1.29,3.63c-0.86,0.88-2.08,1.33-3.66,1.33
			c-0.57,0-1.19-0.08-1.86-0.24c-0.67-0.16-1.25-0.37-1.76-0.64l0.56-1.68c0.4,0.21,0.88,0.39,1.43,0.53
			c0.55,0.14,1.08,0.21,1.61,0.21c0.97,0,1.68-0.27,2.13-0.81c0.45-0.54,0.68-1.32,0.68-2.32v-1.13c-0.39,0.5-0.85,0.88-1.4,1.13
			c-0.54,0.26-1.17,0.38-1.87,0.38c-1.46,0-2.61-0.53-3.44-1.58s-1.25-2.44-1.25-4.15V104.08z M119.7,104.31
			c0,1.2,0.25,2.16,0.76,2.88c0.51,0.73,1.28,1.09,2.31,1.09c0.65,0,1.2-0.15,1.64-0.45c0.44-0.3,0.8-0.72,1.09-1.26v-5.48
			c-0.28-0.51-0.64-0.91-1.09-1.2c-0.45-0.3-0.99-0.45-1.62-0.45c-1.03,0-1.81,0.43-2.32,1.3c-0.51,0.87-0.77,1.98-0.77,3.33V104.31
			z"/>
		<path class="st3" d="M129.97,108.43l1.79-0.31V94.36l-1.79-0.31v-1.4h3.96v6.84c0.41-0.57,0.91-1.02,1.51-1.33
			c0.59-0.32,1.25-0.47,1.98-0.47c1.28,0,2.26,0.38,2.97,1.14c0.7,0.76,1.06,1.94,1.06,3.52v5.76l1.79,0.31v1.39h-5.75v-1.39
			l1.79-0.31v-5.78c0-0.98-0.21-1.71-0.63-2.18c-0.42-0.47-1.05-0.7-1.89-0.7c-0.59,0-1.13,0.14-1.62,0.42s-0.89,0.67-1.2,1.15v7.09
			l1.79,0.31v1.39h-5.75V108.43z"/>
		<path class="st3" d="M148.59,95.04v2.87h2.25v1.61h-2.25v7.22c0,0.56,0.12,0.95,0.35,1.18c0.23,0.23,0.54,0.34,0.92,0.34
			c0.19,0,0.41-0.02,0.64-0.05c0.24-0.03,0.44-0.07,0.6-0.1l0.3,1.48c-0.21,0.13-0.51,0.24-0.9,0.32c-0.4,0.08-0.79,0.13-1.19,0.13
			c-0.88,0-1.58-0.27-2.1-0.8c-0.52-0.53-0.78-1.37-0.78-2.5v-7.22h-1.88v-1.61h1.88v-2.87H148.59z"/>
		<path class="st3" d="M156.03,105.3c0.01-1.07,0.1-1.81,0.27-2.22c0.17-0.41,0.63-0.95,1.38-1.62c0.73-0.86,1.24-1.52,1.55-1.98
			s0.46-1.02,0.46-1.67c0-0.78-0.21-1.37-0.62-1.79c-0.42-0.42-1.01-0.63-1.78-0.63c-0.67,0-1.23,0.18-1.7,0.54s-0.7,0.9-0.7,1.6
			h-2.07l-0.03-0.07c-0.02-1.18,0.39-2.13,1.24-2.84c0.85-0.71,1.94-1.07,3.25-1.07c1.44,0,2.57,0.37,3.37,1.11
			c0.8,0.74,1.2,1.77,1.2,3.08c0,0.95-0.26,1.81-0.78,2.6c-0.52,0.78-1.2,1.59-2.05,2.41c-0.39,0.4-0.62,0.75-0.71,1.07
			c-0.08,0.32-0.13,0.81-0.13,1.47H156.03z M158.27,109.81h-2.25v-2.29h2.25V109.81z"/>
	</g>
</g>
</svg>
