<?xml version="1.0" encoding="utf-8"?>
<!-- Generator: Adobe Illustrator 24.0.0, SVG Export Plug-In . SVG Version: 6.00 Build 0)  -->
<svg version="1.1" id="Layer_1" xmlns="http://www.w3.org/2000/svg" xmlns:xlink="http://www.w3.org/1999/xlink" x="0px" y="0px"
	 viewBox="0 0 231.08 213.55" style="enable-background:new 0 0 231.08 213.55;" xml:space="preserve">
<style type="text/css">
	.st0{fill:#EE3125;}
	.st1{enable-background:new    ;}
	.st2{fill:#FFFFFF;}
</style>
<path class="st0" d="M12,212.55c-6.07-0.01-10.99-4.93-11-11V68.9c0.01-6.07,4.93-10.99,11-11h45.3c0.3,0,0.58-0.13,0.77-0.36
	c0.19-0.23,0.27-0.53,0.22-0.82L48.86,3.78l42.07,53.75c0.2,0.24,0.48,0.38,0.8,0.38h127.36c6.07,0.01,10.99,4.93,11,11v132.64
	c-0.01,6.07-4.93,10.99-11,11H12z"/>
<path d="M50.55,7.56l39.6,50.58c0.38,0.48,0.96,0.77,1.57,0.77h127.36c5.52,0.01,9.99,4.48,10,10v132.64c-0.01,5.52-4.48,9.99-10,10
	H12c-5.52-0.01-9.99-4.48-10-10V68.9c0.01-5.52,4.48-9.99,10-10h45.3c0.59,0,1.15-0.26,1.53-0.72c0.38-0.46,0.54-1.05,0.44-1.64
	l-8.73-49 M47.17,0L57.3,56.9H12c-6.62,0.02-11.98,5.38-12,12v132.64c0.02,6.62,5.38,11.98,12,12h207.08c6.62-0.02,11.98-5.38,12-12
	V68.9c-0.02-6.62-5.38-11.98-12-12H91.72L47.17,0z"/>
<g class="st1">
	<path class="st2" d="M43.63,80.9v3.77h-1.97l-0.18-1.96H37.7v13.44l1.91,0.33v1.48h-6.13v-1.48l1.91-0.33V82.72h-3.8l-0.16,1.96
		h-1.98V80.9H43.63z"/>
	<path class="st2" d="M43.96,91.51c0-1.88,0.51-3.42,1.52-4.63s2.39-1.82,4.14-1.82c1.75,0,3.13,0.61,4.15,1.82s1.53,2.76,1.53,4.64
		v0.26c0,1.89-0.51,3.44-1.52,4.64s-2.39,1.8-4.14,1.8c-1.76,0-3.14-0.6-4.16-1.81s-1.52-2.75-1.52-4.63V91.51z M46.27,91.77
		c0,1.34,0.28,2.45,0.85,3.33s1.41,1.31,2.53,1.31c1.09,0,1.93-0.44,2.5-1.31S53,93.11,53,91.77v-0.26c0-1.33-0.29-2.43-0.86-3.32
		s-1.41-1.32-2.52-1.32s-1.95,0.44-2.51,1.32s-0.84,1.99-0.84,3.32V91.77z"/>
	<path class="st2" d="M63.39,91.86c0-2.04,0.45-3.68,1.34-4.93s2.12-1.88,3.69-1.88c0.8,0,1.5,0.16,2.1,0.47s1.11,0.77,1.51,1.36
		l0.21-1.59h1.95V97.8c0,1.64-0.46,2.93-1.37,3.87s-2.21,1.41-3.9,1.41c-0.61,0-1.27-0.08-1.98-0.25s-1.34-0.4-1.88-0.69l0.6-1.79
		c0.43,0.23,0.94,0.41,1.52,0.56s1.16,0.22,1.71,0.22c1.03,0,1.79-0.29,2.27-0.87s0.72-1.4,0.72-2.47V96.6
		c-0.41,0.53-0.91,0.93-1.49,1.21s-1.24,0.41-1.99,0.41c-1.55,0-2.78-0.56-3.67-1.69s-1.34-2.6-1.34-4.42V91.86z M65.7,92.11
		c0,1.27,0.27,2.3,0.81,3.07s1.36,1.16,2.46,1.16c0.7,0,1.28-0.16,1.75-0.47s0.86-0.76,1.16-1.34v-5.84
		c-0.3-0.54-0.68-0.97-1.16-1.28s-1.05-0.47-1.72-0.47c-1.1,0-1.93,0.46-2.47,1.38s-0.82,2.11-0.82,3.55V92.11z"/>
	<path class="st2" d="M82.75,98.21c-1.77,0-3.17-0.59-4.21-1.76s-1.56-2.7-1.56-4.58v-0.52c0-1.8,0.54-3.31,1.61-4.51
		s2.35-1.8,3.81-1.8c1.7,0,2.99,0.52,3.87,1.55s1.32,2.41,1.32,4.12v1.44h-8.23l-0.04,0.06c0.02,1.22,0.33,2.22,0.93,3.01
		s1.43,1.18,2.5,1.18c0.78,0,1.47-0.11,2.06-0.33s1.1-0.53,1.53-0.92l0.9,1.5c-0.45,0.44-1.05,0.81-1.8,1.11S83.8,98.21,82.75,98.21
		z M82.4,86.87c-0.77,0-1.43,0.33-1.98,0.98s-0.88,1.47-1.01,2.46l0.02,0.06h5.85v-0.3c0-0.91-0.24-1.66-0.73-2.27
		S83.35,86.87,82.4,86.87z"/>
	<path class="st2" d="M93.9,82.23v3.06h2.4V87h-2.4v7.7c0,0.59,0.12,1.01,0.37,1.25s0.57,0.36,0.98,0.36c0.2,0,0.43-0.02,0.69-0.05
		s0.47-0.07,0.64-0.11l0.32,1.58c-0.22,0.14-0.54,0.26-0.96,0.35s-0.84,0.13-1.27,0.13c-0.94,0-1.68-0.28-2.24-0.85
		s-0.83-1.46-0.83-2.67V87h-2v-1.71h2v-3.06H93.9z"/>
	<path class="st2" d="M113.16,96.46c-0.41,0.58-0.92,1.02-1.52,1.31s-1.29,0.45-2.08,0.45c-1.55,0-2.76-0.56-3.63-1.68
		s-1.31-2.6-1.31-4.42v-0.25c0-2.04,0.44-3.68,1.31-4.93s2.09-1.88,3.65-1.88c0.75,0,1.41,0.14,1.99,0.42s1.06,0.68,1.47,1.2V81.5
		l-1.91-0.33v-1.49h1.91h2.31v16.48l1.91,0.33v1.48h-3.91L113.16,96.46z M106.94,92.11c0,1.27,0.26,2.3,0.79,3.07
		s1.33,1.16,2.43,1.16c0.69,0,1.27-0.16,1.73-0.47s0.86-0.75,1.16-1.32v-5.88c-0.3-0.53-0.68-0.95-1.16-1.27s-1.05-0.47-1.71-0.47
		c-1.1,0-1.92,0.46-2.44,1.37s-0.79,2.1-0.79,3.56V92.11z"/>
	<path class="st2" d="M124.81,98.21c-1.77,0-3.17-0.59-4.21-1.76s-1.56-2.7-1.56-4.58v-0.52c0-1.8,0.54-3.31,1.61-4.51
		s2.35-1.8,3.81-1.8c1.7,0,2.99,0.52,3.87,1.55s1.32,2.41,1.32,4.12v1.44h-8.23l-0.04,0.06c0.02,1.22,0.33,2.22,0.93,3.01
		s1.43,1.18,2.5,1.18c0.78,0,1.47-0.11,2.06-0.33s1.1-0.53,1.53-0.92l0.9,1.5c-0.45,0.44-1.05,0.81-1.8,1.11
		S125.86,98.21,124.81,98.21z M124.46,86.87c-0.77,0-1.43,0.33-1.98,0.98s-0.88,1.47-1.01,2.46l0.02,0.06h5.85v-0.3
		c0-0.91-0.24-1.66-0.73-2.27S125.41,86.87,124.46,86.87z"/>
	<path class="st2" d="M131.61,81.17v-1.49h4.22v16.48l1.91,0.33v1.48h-6.13v-1.48l1.91-0.33V81.5L131.61,81.17z"/>
	<path class="st2" d="M139.48,96.49l1.91-0.33V87.1l-1.91-0.33v-1.49h4.22v10.88l1.91,0.33v1.48h-6.13V96.49z M143.7,82.04h-2.31
		v-2.36h2.31V82.04z"/>
	<path class="st2" d="M151.72,86.78l-1.52,0.23l2.61,7.22l0.21,0.91h0.07l0.22-0.91l2.53-7.22l-1.54-0.23v-1.49h4.9v1.49l-1.04,0.18
		l-4.25,11.02h-1.75l-4.3-11.02l-1.04-0.18v-1.49h4.9V86.78z"/>
	<path class="st2" d="M166.4,98.21c-1.77,0-3.17-0.59-4.21-1.76s-1.56-2.7-1.56-4.58v-0.52c0-1.8,0.54-3.31,1.61-4.51
		s2.35-1.8,3.81-1.8c1.7,0,2.99,0.52,3.87,1.55s1.32,2.41,1.32,4.12v1.44h-8.23l-0.04,0.06c0.02,1.22,0.33,2.22,0.93,3.01
		s1.43,1.18,2.5,1.18c0.78,0,1.47-0.11,2.06-0.33s1.1-0.53,1.53-0.92l0.9,1.5c-0.45,0.44-1.05,0.81-1.8,1.11
		S167.45,98.21,166.4,98.21z M166.05,86.87c-0.77,0-1.43,0.33-1.98,0.98s-0.88,1.47-1.01,2.46l0.02,0.06h5.85v-0.3
		c0-0.91-0.24-1.66-0.73-2.27S167,86.87,166.05,86.87z"/>
	<path class="st2" d="M173.51,86.78v-1.49h3.97l0.22,1.84c0.36-0.65,0.8-1.16,1.33-1.52s1.13-0.55,1.81-0.55
		c0.18,0,0.37,0.01,0.56,0.04s0.34,0.06,0.44,0.09l-0.3,2.14l-1.31-0.07c-0.61,0-1.12,0.14-1.54,0.43s-0.73,0.69-0.96,1.2v7.28
		l1.91,0.33v1.48h-6.13v-1.48l1.91-0.33V87.1L173.51,86.78z"/>
	<path class="st2" d="M195.7,86.78l-1.14,0.18l-4.83,12.96c-0.32,0.85-0.78,1.59-1.38,2.23s-1.41,0.95-2.43,0.95
		c-0.18,0-0.41-0.02-0.7-0.06s-0.51-0.08-0.67-0.12l0.23-1.82c-0.05-0.01,0.09,0,0.42,0.02s0.53,0.04,0.62,0.04
		c0.49,0,0.89-0.21,1.2-0.64s0.57-0.92,0.8-1.47l0.55-1.31l-4.18-10.76l-1.16-0.19v-1.49h5.12v1.49l-1.43,0.23l2.19,6.26l0.42,1.62
		h0.07l2.64-7.88l-1.44-0.23v-1.49h5.11V86.78z"/>
	<path class="st2" d="M198.66,97.12c0,0.77-0.19,1.57-0.57,2.4s-0.9,1.53-1.55,2.09l-1.3-0.87c0.37-0.56,0.64-1.14,0.83-1.72
		s0.28-1.21,0.28-1.86v-1.78h2.31V97.12z"/>
</g>
<g class="st1">
	<path class="st2" d="M62.45,120.31c0-1.88,0.51-3.42,1.52-4.63s2.39-1.82,4.14-1.82c1.75,0,3.13,0.61,4.15,1.82
		s1.53,2.76,1.53,4.64v0.26c0,1.89-0.51,3.44-1.52,4.64s-2.39,1.8-4.14,1.8c-1.76,0-3.14-0.6-4.16-1.81s-1.52-2.75-1.52-4.63V120.31
		z M64.75,120.57c0,1.34,0.28,2.45,0.85,3.33s1.41,1.31,2.53,1.31c1.09,0,1.93-0.44,2.5-1.31s0.86-1.98,0.86-3.33v-0.26
		c0-1.33-0.29-2.43-0.86-3.32s-1.41-1.32-2.52-1.32s-1.95,0.44-2.51,1.32s-0.84,1.99-0.84,3.32V120.57z"/>
	<path class="st2" d="M75.9,115.58v-1.49h3.97l0.22,1.84c0.36-0.65,0.8-1.16,1.33-1.52s1.13-0.55,1.81-0.55
		c0.18,0,0.37,0.01,0.56,0.04s0.34,0.06,0.44,0.09l-0.3,2.14l-1.31-0.07c-0.61,0-1.12,0.14-1.54,0.43s-0.73,0.69-0.96,1.2v7.28
		l1.91,0.33v1.48H75.9v-1.48l1.91-0.33v-9.06L75.9,115.58z"/>
	<path class="st2" d="M91.45,125.29l1.91-0.33v-9.06l-1.91-0.33v-1.49h3.97l0.16,1.89c0.42-0.67,0.95-1.19,1.59-1.56
		s1.36-0.56,2.17-0.56c1.37,0,2.43,0.4,3.18,1.2s1.12,2.04,1.12,3.71v6.2l1.91,0.33v1.48h-6.13v-1.48l1.91-0.33v-6.15
		c0-1.12-0.22-1.91-0.66-2.38s-1.12-0.7-2.02-0.7c-0.66,0-1.25,0.16-1.76,0.48s-0.92,0.76-1.22,1.31v7.44l1.91,0.33v1.48h-6.13
		V125.29z"/>
	<path class="st2" d="M107.13,120.31c0-1.88,0.51-3.42,1.52-4.63s2.39-1.82,4.14-1.82c1.75,0,3.13,0.61,4.15,1.82
		c1.02,1.21,1.53,2.76,1.53,4.64v0.26c0,1.89-0.51,3.44-1.52,4.64c-1.02,1.2-2.39,1.8-4.14,1.8c-1.76,0-3.14-0.6-4.16-1.81
		s-1.52-2.75-1.52-4.63V120.31z M109.44,120.57c0,1.34,0.28,2.45,0.85,3.33s1.41,1.31,2.53,1.31c1.09,0,1.93-0.44,2.5-1.31
		s0.86-1.98,0.86-3.33v-0.26c0-1.33-0.29-2.43-0.86-3.32s-1.41-1.32-2.52-1.32s-1.95,0.44-2.51,1.32s-0.84,1.99-0.84,3.32V120.57z"
		/>
	<path class="st2" d="M124.61,111.03v3.06h2.4v1.71h-2.4v7.7c0,0.59,0.12,1.01,0.37,1.25s0.57,0.36,0.98,0.36
		c0.2,0,0.43-0.02,0.69-0.05s0.47-0.07,0.64-0.11l0.32,1.58c-0.22,0.14-0.54,0.26-0.96,0.35s-0.84,0.13-1.27,0.13
		c-0.94,0-1.68-0.28-2.24-0.85s-0.83-1.46-0.83-2.67v-7.7h-2v-1.71h2v-3.06H124.61z"/>
	<path class="st2" d="M135.35,120.66c0-2.04,0.45-3.68,1.34-4.93s2.12-1.88,3.69-1.88c0.8,0,1.5,0.16,2.1,0.47s1.11,0.77,1.51,1.36
		l0.21-1.59h1.95v12.52c0,1.64-0.46,2.93-1.37,3.87s-2.21,1.41-3.9,1.41c-0.61,0-1.27-0.08-1.98-0.25s-1.34-0.4-1.88-0.69l0.6-1.79
		c0.43,0.23,0.94,0.41,1.52,0.56s1.16,0.22,1.71,0.22c1.03,0,1.79-0.29,2.27-0.87s0.72-1.4,0.72-2.47v-1.21
		c-0.41,0.53-0.91,0.93-1.49,1.21s-1.24,0.41-1.99,0.41c-1.55,0-2.78-0.56-3.67-1.69s-1.34-2.6-1.34-4.42V120.66z M137.66,120.91
		c0,1.27,0.27,2.3,0.81,3.07s1.36,1.16,2.46,1.16c0.7,0,1.28-0.16,1.75-0.47s0.86-0.76,1.16-1.34v-5.84
		c-0.3-0.54-0.68-0.97-1.16-1.28s-1.05-0.47-1.72-0.47c-1.1,0-1.93,0.46-2.47,1.38s-0.82,2.11-0.82,3.55V120.91z"/>
	<path class="st2" d="M154.71,127.01c-1.77,0-3.17-0.59-4.21-1.76s-1.56-2.7-1.56-4.58v-0.52c0-1.8,0.54-3.31,1.61-4.51
		s2.35-1.8,3.81-1.8c1.7,0,2.99,0.52,3.87,1.55s1.32,2.41,1.32,4.12v1.44h-8.23l-0.04,0.06c0.02,1.22,0.33,2.22,0.93,3.01
		s1.43,1.18,2.5,1.18c0.78,0,1.47-0.11,2.06-0.33s1.1-0.53,1.53-0.92l0.9,1.5c-0.45,0.44-1.05,0.81-1.8,1.11
		S155.75,127.01,154.71,127.01z M154.36,115.67c-0.77,0-1.43,0.33-1.98,0.98s-0.88,1.47-1.01,2.46l0.02,0.06h5.85v-0.3
		c0-0.91-0.24-1.66-0.73-2.27S155.31,115.67,154.36,115.67z"/>
	<path class="st2" d="M165.85,111.03v3.06h2.4v1.71h-2.4v7.7c0,0.59,0.12,1.01,0.37,1.25s0.57,0.36,0.98,0.36
		c0.2,0,0.43-0.02,0.69-0.05s0.47-0.07,0.64-0.11l0.32,1.58c-0.22,0.14-0.54,0.26-0.96,0.35s-0.84,0.13-1.27,0.13
		c-0.94,0-1.68-0.28-2.24-0.85s-0.83-1.46-0.83-2.67v-7.7h-2v-1.71h2v-3.06H165.85z"/>
</g>
<g class="st1">
	<path class="st2" d="M47.12,154.06c-0.41,0.58-0.92,1.02-1.52,1.31s-1.29,0.45-2.08,0.45c-1.55,0-2.76-0.56-3.63-1.68
		s-1.31-2.6-1.31-4.42v-0.25c0-2.04,0.44-3.68,1.31-4.93s2.09-1.88,3.65-1.88c0.75,0,1.41,0.14,1.99,0.42s1.06,0.68,1.47,1.2v-5.17
		l-1.91-0.33v-1.49H47h2.31v16.48l1.91,0.33v1.48H47.3L47.12,154.06z M40.89,149.71c0,1.27,0.26,2.3,0.79,3.07s1.33,1.16,2.43,1.16
		c0.69,0,1.27-0.16,1.73-0.47s0.86-0.75,1.16-1.32v-5.88c-0.3-0.53-0.68-0.95-1.16-1.27s-1.05-0.47-1.71-0.47
		c-1.1,0-1.92,0.46-2.44,1.37s-0.79,2.1-0.79,3.56V149.71z"/>
	<path class="st2" d="M58.77,155.81c-1.77,0-3.17-0.59-4.21-1.76s-1.56-2.7-1.56-4.58v-0.52c0-1.8,0.54-3.31,1.61-4.51
		s2.35-1.8,3.81-1.8c1.7,0,2.99,0.52,3.87,1.55s1.32,2.41,1.32,4.12v1.44h-8.23l-0.04,0.06c0.02,1.22,0.33,2.22,0.93,3.01
		s1.43,1.18,2.5,1.18c0.78,0,1.47-0.11,2.06-0.33s1.1-0.53,1.53-0.92l0.9,1.5c-0.45,0.44-1.05,0.81-1.8,1.11
		S59.81,155.81,58.77,155.81z M58.41,144.47c-0.77,0-1.43,0.33-1.98,0.98s-0.88,1.47-1.01,2.46l0.02,0.06h5.85v-0.3
		c0-0.91-0.24-1.66-0.73-2.27S59.37,144.47,58.41,144.47z"/>
	<path class="st2" d="M65.56,138.77v-1.49h4.22v16.48l1.91,0.33v1.48h-6.13v-1.48l1.91-0.33V139.1L65.56,138.77z"/>
	<path class="st2" d="M73.44,154.09l1.91-0.33v-9.06l-1.91-0.33v-1.49h4.22v10.88l1.91,0.33v1.48h-6.13V154.09z M77.66,139.64h-2.31
		v-2.36h2.31V139.64z"/>
	<path class="st2" d="M85.67,144.38l-1.52,0.23l2.61,7.22l0.21,0.91h0.07l0.22-0.91l2.53-7.22l-1.54-0.23v-1.49h4.9v1.49l-1.04,0.18
		l-4.25,11.02h-1.75l-4.3-11.02l-1.04-0.18v-1.49h4.9V144.38z"/>
	<path class="st2" d="M100.36,155.81c-1.77,0-3.17-0.59-4.21-1.76s-1.56-2.7-1.56-4.58v-0.52c0-1.8,0.54-3.31,1.61-4.51
		s2.35-1.8,3.81-1.8c1.7,0,2.99,0.52,3.87,1.55s1.32,2.41,1.32,4.12v1.44h-8.23l-0.04,0.06c0.02,1.22,0.33,2.22,0.93,3.01
		s1.43,1.18,2.5,1.18c0.78,0,1.47-0.11,2.06-0.33s1.1-0.53,1.53-0.92l0.9,1.5c-0.45,0.44-1.05,0.81-1.8,1.11
		S101.4,155.81,100.36,155.81z M100,144.47c-0.77,0-1.43,0.33-1.98,0.98s-0.88,1.47-1.01,2.46l0.02,0.06h5.85v-0.3
		c0-0.91-0.24-1.66-0.73-2.27S100.96,144.47,100,144.47z"/>
	<path class="st2" d="M107.47,144.38v-1.49h3.97l0.22,1.84c0.36-0.65,0.8-1.16,1.33-1.52s1.13-0.55,1.81-0.55
		c0.18,0,0.37,0.01,0.56,0.04s0.34,0.06,0.44,0.09l-0.3,2.14l-1.31-0.07c-0.61,0-1.12,0.14-1.54,0.43s-0.73,0.69-0.96,1.2v7.28
		l1.91,0.33v1.48h-6.13v-1.48l1.91-0.33v-9.06L107.47,144.38z"/>
	<path class="st2" d="M129.65,144.38l-1.14,0.18l-4.83,12.96c-0.32,0.85-0.78,1.59-1.38,2.23s-1.41,0.95-2.43,0.95
		c-0.18,0-0.41-0.02-0.7-0.06s-0.51-0.08-0.67-0.12l0.23-1.82c-0.05-0.01,0.09,0,0.42,0.02s0.53,0.04,0.62,0.04
		c0.49,0,0.89-0.21,1.2-0.64s0.57-0.92,0.8-1.47l0.55-1.31l-4.18-10.76l-1.16-0.19v-1.49h5.12v1.49l-1.43,0.23l2.19,6.26l0.42,1.62
		h0.07l2.64-7.88l-1.44-0.23v-1.49h5.11V144.38z"/>
	<path class="st2" d="M134.4,150.76c0.01-1.14,0.1-1.93,0.29-2.36s0.67-1.01,1.47-1.73c0.77-0.91,1.32-1.62,1.65-2.11
		s0.49-1.09,0.49-1.78c0-0.83-0.22-1.46-0.66-1.91s-1.07-0.67-1.89-0.67c-0.71,0-1.31,0.19-1.81,0.58s-0.74,0.96-0.74,1.71h-2.2
		l-0.04-0.07c-0.02-1.26,0.42-2.27,1.32-3.02s2.06-1.14,3.47-1.14c1.54,0,2.73,0.39,3.59,1.18s1.28,1.88,1.28,3.29
		c0,1.01-0.28,1.93-0.83,2.77s-1.28,1.69-2.19,2.57c-0.41,0.42-0.67,0.8-0.76,1.14s-0.13,0.86-0.13,1.57H134.4z M136.78,155.57h-2.4
		v-2.44h2.4V155.57z"/>
	<path class="st2" d="M161.93,138.5v3.77h-1.97l-0.18-1.96H156v13.44l1.91,0.33v1.48h-6.13v-1.48l1.91-0.33v-13.44h-3.8l-0.16,1.96
		h-1.98v-3.77H161.93z"/>
	<path class="st2" d="M163.09,154.09l1.91-0.33V139.1l-1.91-0.33v-1.49h4.22v7.29c0.44-0.61,0.97-1.08,1.61-1.42s1.34-0.5,2.11-0.5
		c1.36,0,2.41,0.41,3.16,1.22s1.12,2.06,1.12,3.75v6.14l1.91,0.33v1.48h-6.13v-1.48l1.91-0.33v-6.16c0-1.05-0.22-1.82-0.67-2.32
		s-1.12-0.75-2.01-0.75c-0.63,0-1.21,0.15-1.73,0.45s-0.95,0.71-1.28,1.22v7.56l1.91,0.33v1.48h-6.13V154.09z"/>
	<path class="st2" d="M187.17,155.57c-0.07-0.34-0.12-0.65-0.16-0.93s-0.07-0.55-0.08-0.82c-0.45,0.57-1,1.04-1.67,1.42
		s-1.38,0.57-2.14,0.57c-1.32,0-2.32-0.32-3.01-0.97s-1.03-1.55-1.03-2.72c0-1.2,0.49-2.13,1.46-2.78s2.31-0.98,4-0.98h2.38v-1.48
		c0-0.74-0.23-1.33-0.7-1.76s-1.12-0.65-1.96-0.65c-0.58,0-1.09,0.07-1.53,0.22s-0.8,0.35-1.07,0.61l-0.25,1.34h-1.78v-2.46
		c0.58-0.46,1.28-0.83,2.1-1.11s1.71-0.42,2.67-0.42c1.44,0,2.6,0.37,3.49,1.1s1.34,1.79,1.34,3.15v6.11c0,0.16,0,0.32,0.01,0.48
		s0.01,0.31,0.03,0.47l0.94,0.13v1.48H187.17z M183.45,153.88c0.77,0,1.46-0.18,2.1-0.55s1.09-0.81,1.36-1.32v-2.09h-2.46
		c-0.95,0-1.69,0.22-2.24,0.66s-0.83,0.97-0.83,1.59c0,0.55,0.17,0.98,0.52,1.27S182.76,153.88,183.45,153.88z"/>
	<path class="st2" d="M196.14,139.83v3.06h2.4v1.71h-2.4v7.7c0,0.59,0.12,1.01,0.37,1.25s0.57,0.36,0.98,0.36
		c0.2,0,0.43-0.02,0.69-0.05s0.47-0.07,0.64-0.11l0.32,1.58c-0.22,0.14-0.54,0.26-0.96,0.35s-0.84,0.13-1.27,0.13
		c-0.94,0-1.68-0.28-2.24-0.85s-0.83-1.46-0.83-2.67v-7.7h-2v-1.71h2v-3.06H196.14z"/>
</g>
<g class="st1">
	<path class="st2" d="M29.66,182.89l1.91-0.33v-9.06l-1.91-0.33v-1.49h4.22v10.88l1.91,0.33v1.48h-6.13V182.89z M33.88,168.44h-2.31
		v-2.36h2.31V168.44z"/>
	<path class="st2" d="M47.25,175.67h-1.73l-0.38-1.52c-0.28-0.27-0.63-0.48-1.06-0.64s-0.91-0.24-1.45-0.24
		c-0.82,0-1.43,0.18-1.83,0.54s-0.6,0.79-0.6,1.3c0,0.5,0.18,0.89,0.53,1.18s1.07,0.55,2.14,0.77c1.6,0.34,2.79,0.81,3.57,1.4
		s1.17,1.38,1.17,2.37c0,1.12-0.46,2.04-1.37,2.73s-2.1,1.04-3.57,1.04c-0.96,0-1.82-0.11-2.59-0.33s-1.45-0.54-2.05-0.97
		l-0.01-2.89h1.73l0.43,1.7c0.27,0.24,0.63,0.42,1.08,0.53s0.92,0.16,1.4,0.16c0.82,0,1.46-0.17,1.93-0.5s0.7-0.77,0.7-1.31
		c0-0.51-0.19-0.93-0.58-1.25s-1.12-0.61-2.2-0.86c-1.54-0.34-2.7-0.79-3.48-1.37s-1.17-1.36-1.17-2.34c0-1.03,0.44-1.91,1.32-2.64
		s2.02-1.09,3.43-1.09c0.96,0,1.82,0.12,2.59,0.38s1.4,0.6,1.91,1.04L47.25,175.67z"/>
	<path class="st2" d="M59.78,168.63v3.06h2.4v1.71h-2.4v7.7c0,0.59,0.12,1.01,0.37,1.25s0.57,0.36,0.98,0.36
		c0.2,0,0.43-0.02,0.69-0.05s0.47-0.07,0.64-0.11l0.32,1.58c-0.22,0.14-0.54,0.26-0.96,0.35s-0.84,0.13-1.27,0.13
		c-0.94,0-1.68-0.28-2.24-0.85s-0.83-1.46-0.83-2.67v-7.7h-2v-1.71h2v-3.06H59.78z"/>
	<path class="st2" d="M64.22,182.89l1.91-0.33V167.9l-1.91-0.33v-1.49h4.22v7.29c0.44-0.61,0.97-1.08,1.61-1.42s1.34-0.5,2.11-0.5
		c1.36,0,2.41,0.41,3.16,1.22s1.12,2.06,1.12,3.75v6.14l1.91,0.33v1.48h-6.13v-1.48l1.91-0.33v-6.16c0-1.05-0.22-1.82-0.67-2.32
		s-1.12-0.75-2.01-0.75c-0.63,0-1.21,0.15-1.73,0.45s-0.95,0.71-1.28,1.22v7.56l1.91,0.33v1.48h-6.13V182.89z"/>
	<path class="st2" d="M85.7,184.61c-1.77,0-3.17-0.59-4.21-1.76s-1.56-2.7-1.56-4.58v-0.52c0-1.8,0.54-3.31,1.61-4.51
		s2.35-1.8,3.81-1.8c1.7,0,2.99,0.52,3.87,1.55s1.32,2.41,1.32,4.12v1.44h-8.23l-0.04,0.06c0.02,1.22,0.33,2.22,0.93,3.01
		s1.43,1.18,2.5,1.18c0.78,0,1.47-0.11,2.06-0.33s1.1-0.53,1.53-0.92l0.9,1.5c-0.45,0.44-1.05,0.81-1.8,1.11
		S86.75,184.61,85.7,184.61z M85.35,173.27c-0.77,0-1.43,0.33-1.98,0.98s-0.88,1.47-1.01,2.46l0.02,0.06h5.85v-0.3
		c0-0.91-0.24-1.66-0.73-2.27S86.3,173.27,85.35,173.27z"/>
	<path class="st2" d="M98.79,178.26c0-2.04,0.44-3.68,1.31-4.93s2.09-1.88,3.65-1.88c0.74,0,1.4,0.14,1.98,0.42s1.07,0.68,1.48,1.21
		l0.19-1.39h1.99v15.74l1.91,0.33v1.49h-6.13v-1.49l1.91-0.33v-4.25c-0.41,0.48-0.89,0.84-1.45,1.08s-1.19,0.36-1.9,0.36
		c-1.55,0-2.76-0.56-3.63-1.68s-1.31-2.6-1.31-4.42V178.26z M101.1,178.51c0,1.28,0.26,2.32,0.79,3.11s1.33,1.19,2.43,1.19
		c0.64,0,1.19-0.14,1.63-0.42s0.83-0.68,1.13-1.2v-6.36c-0.3-0.48-0.68-0.86-1.14-1.14s-0.99-0.42-1.61-0.42
		c-1.1,0-1.92,0.47-2.44,1.4s-0.79,2.13-0.79,3.59V178.51z"/>
	<path class="st2" d="M121.39,182.49c-0.4,0.68-0.91,1.2-1.54,1.57s-1.35,0.55-2.17,0.55c-1.38,0-2.45-0.44-3.22-1.32
		s-1.16-2.26-1.16-4.12v-5.66l-1.45-0.33v-1.49h1.45h2.31v7.5c0,1.35,0.2,2.28,0.6,2.79s1.02,0.76,1.86,0.76
		c0.82,0,1.5-0.17,2.03-0.5s0.94-0.8,1.21-1.41v-7.32l-1.7-0.33v-1.49h1.7h2.31v10.88l1.45,0.33v1.48h-3.53L121.39,182.49z"/>
	<path class="st2" d="M132.68,184.61c-1.77,0-3.17-0.59-4.21-1.76s-1.56-2.7-1.56-4.58v-0.52c0-1.8,0.54-3.31,1.61-4.51
		s2.35-1.8,3.81-1.8c1.7,0,2.99,0.52,3.87,1.55s1.32,2.41,1.32,4.12v1.44h-8.23l-0.04,0.06c0.02,1.22,0.33,2.22,0.93,3.01
		s1.43,1.18,2.5,1.18c0.78,0,1.47-0.11,2.06-0.33s1.1-0.53,1.53-0.92l0.9,1.5c-0.45,0.44-1.05,0.81-1.8,1.11
		S133.73,184.61,132.68,184.61z M132.33,173.27c-0.77,0-1.43,0.33-1.98,0.98s-0.88,1.47-1.01,2.46l0.02,0.06h5.85v-0.3
		c0-0.91-0.24-1.66-0.73-2.27S133.29,173.27,132.33,173.27z"/>
	<path class="st2" d="M149.5,175.67h-1.73l-0.38-1.52c-0.28-0.27-0.63-0.48-1.06-0.64s-0.91-0.24-1.45-0.24
		c-0.82,0-1.43,0.18-1.83,0.54s-0.6,0.79-0.6,1.3c0,0.5,0.18,0.89,0.53,1.18s1.07,0.55,2.14,0.77c1.6,0.34,2.79,0.81,3.57,1.4
		s1.17,1.38,1.17,2.37c0,1.12-0.46,2.04-1.37,2.73s-2.1,1.04-3.57,1.04c-0.96,0-1.82-0.11-2.59-0.33s-1.45-0.54-2.05-0.97
		l-0.01-2.89h1.73l0.43,1.7c0.27,0.24,0.63,0.42,1.08,0.53s0.92,0.16,1.4,0.16c0.82,0,1.46-0.17,1.93-0.5s0.7-0.77,0.7-1.31
		c0-0.51-0.19-0.93-0.58-1.25s-1.12-0.61-2.2-0.86c-1.54-0.34-2.7-0.79-3.48-1.37s-1.17-1.36-1.17-2.34c0-1.03,0.44-1.91,1.32-2.64
		s2.02-1.09,3.43-1.09c0.96,0,1.82,0.12,2.59,0.38s1.4,0.6,1.91,1.04L149.5,175.67z"/>
	<path class="st2" d="M156.06,168.63v3.06h2.4v1.71h-2.4v7.7c0,0.59,0.12,1.01,0.37,1.25s0.57,0.36,0.98,0.36
		c0.2,0,0.43-0.02,0.69-0.05s0.47-0.07,0.64-0.11l0.32,1.58c-0.22,0.14-0.54,0.26-0.96,0.35s-0.84,0.13-1.27,0.13
		c-0.94,0-1.68-0.28-2.24-0.85s-0.83-1.46-0.83-2.67v-7.7h-2v-1.71h2v-3.06H156.06z"/>
	<path class="st2" d="M160.82,182.89l1.91-0.33v-9.06l-1.91-0.33v-1.49h4.22v10.88l1.91,0.33v1.48h-6.13V182.89z M165.04,168.44
		h-2.31v-2.36h2.31V168.44z"/>
	<path class="st2" d="M168.72,177.91c0-1.88,0.51-3.42,1.52-4.63s2.39-1.82,4.14-1.82c1.75,0,3.13,0.61,4.15,1.82
		s1.53,2.76,1.53,4.64v0.26c0,1.89-0.51,3.44-1.52,4.64s-2.39,1.8-4.14,1.8c-1.76,0-3.14-0.6-4.16-1.81s-1.52-2.75-1.52-4.63V177.91
		z M171.03,178.17c0,1.34,0.28,2.45,0.85,3.33s1.41,1.31,2.53,1.31c1.09,0,1.93-0.44,2.5-1.31s0.86-1.98,0.86-3.33v-0.26
		c0-1.33-0.29-2.43-0.86-3.32s-1.41-1.32-2.52-1.32s-1.95,0.44-2.51,1.32s-0.84,1.99-0.84,3.32V178.17z"/>
	<path class="st2" d="M181.83,182.89l1.91-0.33v-9.06l-1.91-0.33v-1.49h3.97l0.16,1.89c0.42-0.67,0.95-1.19,1.59-1.56
		s1.36-0.56,2.17-0.56c1.37,0,2.43,0.4,3.18,1.2s1.12,2.04,1.12,3.71v6.2l1.91,0.33v1.48h-6.13v-1.48l1.91-0.33v-6.15
		c0-1.12-0.22-1.91-0.66-2.38s-1.12-0.7-2.02-0.7c-0.66,0-1.25,0.16-1.76,0.48s-0.92,0.76-1.22,1.31v7.44l1.91,0.33v1.48h-6.13
		V182.89z"/>
	<path class="st2" d="M200.58,184.37h-2.31V182h2.31V184.37z"/>
</g>
</svg>
