<svg xmlns="http://www.w3.org/2000/svg" viewBox="0 0 231.08 213.55"><style><![CDATA[.F{font-family:RobotoSlab-Regular}.G{font-size:24px}]]></style><path d="M12 212.55a11.01 11.01 0 0 1-11-11V68.9a11.01 11.01 0 0 1 11-11h45.3c.3 0 .58-.13.77-.36a1.02 1.02 0 0 0 .22-.82L48.86 3.78l42.07 53.75c.2.24.48.38.8.38h127.36a11.01 11.01 0 0 1 11 11v132.64a11.01 11.01 0 0 1-11 11H12z" fill="#ee3125"/><path d="M50.55 7.56l39.6 50.58c.38.48.96.77 1.57.77h127.36a10.02 10.02 0 0 1 10 10v132.64a10.02 10.02 0 0 1-10 10H12a10.02 10.02 0 0 1-10-10V68.9a10.02 10.02 0 0 1 10-10h45.3a1.98 1.98 0 0 0 1.53-.72c.38-.46.54-1.05.44-1.64l-8.73-49M47.17 0L57.3 56.9H12a12.04 12.04 0 0 0-12 12v132.64a12.04 12.04 0 0 0 12 12h207.08a12.04 12.04 0 0 0 12-12V68.9a12.04 12.04 0 0 0-12-12H91.72L47.17 0z"/><text><tspan fill="#fff" x="29.021" y="97.967" class="F G">To get delivery, </tspan><tspan x="61.391" y="126.767" fill="#fff" class="F G">or not get </tspan><tspan x="37.531" y="155.567" fill="#fff" class="F G">delivery? that </tspan><tspan x="28.621" y="184.367" fill="#fff" class="F G">is the question.</tspan></text></svg>