<?xml version="1.0" encoding="utf-8"?>
<!-- Generator: Adobe Illustrator 24.0.0, SVG Export Plug-In . SVG Version: 6.00 Build 0)  -->
<svg version="1.1" id="Layer_1" xmlns="http://www.w3.org/2000/svg" xmlns:xlink="http://www.w3.org/1999/xlink" x="0px" y="0px"
	 viewBox="0 0 231.08 213.55" style="enable-background:new 0 0 231.08 213.55;" xml:space="preserve">
<style type="text/css">
	.st0{fill:#EE3125;}
	.st1{fill:none;}
	.st2{fill:#FFFFFF;}
	.st3{font-family:'RobotoSlab-Regular';}
	.st4{font-size:24px;}
</style>
<g>
	<path class="st0" d="M12,212.55c-6.07,0-11-4.93-11-11V68.91c0-6.07,4.93-11,11-11h45.31c0.3,0,0.58-0.13,0.77-0.36
		s0.27-0.53,0.22-0.82L48.86,3.78l42.07,53.75c0.19,0.24,0.48,0.38,0.79,0.38h127.36c6.07,0,11,4.93,11,11v132.64
		c0,6.07-4.93,11-11,11H12z"/>
	<path d="M50.55,7.56l39.6,50.58c0.38,0.48,0.96,0.77,1.57,0.77h127.36c5.51,0,10,4.49,10,10v132.64c0,5.51-4.49,10-10,10H12
		c-5.51,0-10-4.49-10-10V68.91c0-5.51,4.49-10,10-10h45.31c0.59,0,1.15-0.26,1.53-0.72s0.54-1.05,0.44-1.64L50.55,7.56 M47.17,0
		l10.14,56.91H12c-6.6,0-12,5.4-12,12v132.64c0,6.6,5.4,12,12,12h207.08c6.6,0,12-5.4,12-12V68.91c0-6.6-5.4-12-12-12H91.72L47.17,0
		L47.17,0z"/>
</g>
<rect x="14.62" y="79.69" class="st1" width="201.83" height="110.42"/>
<text transform="matrix(1 0 0 1 29.0207 97.9666)"><tspan x="0" y="0" class="st2 st3 st4">To get delivery,  </tspan><tspan x="32.37" y="28.8" class="st2 st3 st4">or not get </tspan><tspan x="8.51" y="57.6" class="st2 st3 st4">delivery? that  </tspan><tspan x="-0.4" y="86.4" class="st2 st3 st4">is the question.</tspan></text>
</svg>
