<svg xmlns="http://www.w3.org/2000/svg" viewBox="0 0 271.08 238.92"><path d="M12 237.92a11.01 11.01 0 0 1-11-11v-75.64a11.01 11.01 0 0 1 11-11h135.3a1.01 1.01 0 0 0 .92-.6L204.8 8.52 180.74 139.1c-.05.3.02.6.2.82s.47.36.77.36h77.36a11.01 11.01 0 0 1 11 11v75.64a11.01 11.01 0 0 1-11 11H12z" fill="#ee3125"/><path d="M202.2 17.05l-22.45 121.87c-.1.58.05 1.2.43 1.64.38.46.94.72 1.54.72h77.36a10.02 10.02 0 0 1 10 10v75.64a10.02 10.02 0 0 1-10 10H12a10.02 10.02 0 0 1-10-10v-75.64a10.02 10.02 0 0 1 10-10h135.3a2 2 0 0 0 1.84-1.21L202.2 17.05M207.37 0L147.3 139.28H12a12.04 12.04 0 0 0-12 12v75.64a12.04 12.04 0 0 0 12 12h247.08a12.04 12.04 0 0 0 12-12v-75.64a12.04 12.04 0 0 0-12-12h-77.36L207.37 0z"/><text><tspan fill="#fff" font-family="RobotoSlab-Regular" font-size="24" x="32.96" y="180.334">Does it matter if it </tspan><tspan x="44.12" y="209.134" fill="#fff" font-family="RobotoSlab-Regular" font-size="24">expired in 1987?</tspan></text></svg>