<?xml version="1.0" encoding="utf-8"?>
<!-- Generator: Adobe Illustrator 24.0.0, SVG Export Plug-In . SVG Version: 6.00 Build 0)  -->
<svg version="1.1" id="Layer_1" xmlns="http://www.w3.org/2000/svg" xmlns:xlink="http://www.w3.org/1999/xlink" x="0px" y="0px"
	 viewBox="0 0 271.08 238.92" style="enable-background:new 0 0 271.08 238.92;" xml:space="preserve">
<style type="text/css">
	.st0{fill:#EE3125;}
	.st1{enable-background:new    ;}
	.st2{fill:#FFFFFF;}
</style>
<path class="st0" d="M12,237.92c-6.07-0.01-10.99-4.93-11-11v-75.64c0.01-6.07,4.93-10.99,11-11h135.3c0.4,0,0.76-0.24,0.92-0.6
	L204.8,8.52L180.74,139.1c-0.05,0.3,0.02,0.6,0.2,0.82s0.47,0.36,0.77,0.36h77.36c6.07,0.01,10.99,4.93,11,11v75.64
	c-0.01,6.07-4.93,10.99-11,11L12,237.92L12,237.92z"/>
<path d="M202.2,17.05l-22.45,121.87c-0.1,0.58,0.05,1.2,0.43,1.64c0.38,0.46,0.94,0.72,1.54,0.72h77.36c5.52,0.01,9.99,4.48,10,10
	v75.64c-0.01,5.52-4.48,9.99-10,10H12c-5.52-0.01-9.99-4.48-10-10v-75.64c0.01-5.52,4.48-9.99,10-10h135.3
	c0.8,0,1.52-0.47,1.84-1.21L202.2,17.05 M207.37,0L147.3,139.28H12c-6.62,0.02-11.98,5.38-12,12v75.64c0.02,6.62,5.38,11.98,12,12
	h247.08c6.62-0.02,11.98-5.38,12-12v-75.64c-0.02-6.62-5.38-11.98-12-12h-77.36L207.37,0z"/>
<g class="st1">
	<path class="st2" d="M40.94,163.27c2.23,0,4.02,0.69,5.37,2.06s2.03,3.14,2.03,5.31v2.33c0,2.18-0.68,3.95-2.03,5.31
		s-3.15,2.04-5.37,2.04h-7.15v-1.48l1.91-0.33v-13.44l-1.91-0.33v-1.49h1.91H40.94z M38.01,165.09v13.44h2.93
		c1.58,0,2.82-0.52,3.73-1.56s1.37-2.37,1.37-4v-2.36c0-1.61-0.46-2.93-1.37-3.97s-2.15-1.56-3.73-1.56H38.01z"/>
	<path class="st2" d="M50.64,173.88c0-1.88,0.51-3.42,1.52-4.63s2.39-1.82,4.14-1.82c1.75,0,3.13,0.61,4.15,1.82
		s1.53,2.76,1.53,4.64v0.26c0,1.89-0.51,3.44-1.52,4.64s-2.39,1.8-4.14,1.8c-1.76,0-3.14-0.6-4.16-1.81s-1.52-2.75-1.52-4.63V173.88
		z M52.95,174.13c0,1.34,0.28,2.45,0.85,3.33s1.41,1.31,2.53,1.31c1.09,0,1.93-0.44,2.5-1.31s0.86-1.98,0.86-3.33v-0.26
		c0-1.33-0.29-2.43-0.86-3.32s-1.41-1.32-2.52-1.32s-1.95,0.44-2.51,1.32s-0.84,1.99-0.84,3.32V174.13z"/>
	<path class="st2" d="M69.89,180.58c-1.77,0-3.17-0.59-4.21-1.76s-1.56-2.7-1.56-4.58v-0.52c0-1.8,0.54-3.31,1.61-4.51
		s2.35-1.8,3.81-1.8c1.7,0,2.99,0.52,3.87,1.55s1.32,2.41,1.32,4.12v1.44H66.5l-0.04,0.06c0.02,1.22,0.33,2.22,0.93,3.01
		s1.43,1.18,2.5,1.18c0.78,0,1.47-0.11,2.06-0.33s1.1-0.53,1.53-0.92l0.9,1.5c-0.45,0.44-1.05,0.81-1.8,1.11
		S70.93,180.58,69.89,180.58z M69.53,169.24c-0.77,0-1.43,0.33-1.98,0.98s-0.88,1.47-1.01,2.46l0.02,0.06h5.85v-0.3
		c0-0.91-0.24-1.66-0.73-2.27S70.49,169.24,69.53,169.24z"/>
	<path class="st2" d="M86.7,171.64h-1.73l-0.38-1.52c-0.28-0.27-0.63-0.48-1.06-0.64s-0.91-0.24-1.45-0.24
		c-0.82,0-1.43,0.18-1.83,0.54s-0.6,0.79-0.6,1.3c0,0.5,0.18,0.89,0.53,1.18s1.07,0.55,2.14,0.77c1.6,0.34,2.79,0.81,3.57,1.4
		s1.17,1.38,1.17,2.37c0,1.12-0.46,2.04-1.37,2.73s-2.1,1.04-3.57,1.04c-0.96,0-1.82-0.11-2.59-0.33s-1.45-0.54-2.05-0.97
		l-0.01-2.89h1.73l0.43,1.7c0.27,0.24,0.63,0.42,1.08,0.53s0.92,0.16,1.4,0.16c0.82,0,1.46-0.17,1.93-0.5s0.7-0.77,0.7-1.31
		c0-0.51-0.19-0.93-0.58-1.25s-1.12-0.61-2.2-0.86c-1.54-0.34-2.7-0.79-3.48-1.37s-1.17-1.36-1.17-2.34c0-1.03,0.44-1.91,1.32-2.64
		s2.02-1.09,3.43-1.09c0.96,0,1.82,0.12,2.59,0.38s1.4,0.6,1.91,1.04L86.7,171.64z"/>
	<path class="st2" d="M95.2,178.86l1.91-0.33v-9.06l-1.91-0.33v-1.49h4.22v10.88l1.91,0.33v1.48H95.2V178.86z M99.42,164.41h-2.31
		v-2.36h2.31V164.41z"/>
	<path class="st2" d="M107.12,164.6v3.06h2.4v1.71h-2.4v7.7c0,0.59,0.12,1.01,0.37,1.25s0.57,0.36,0.98,0.36
		c0.2,0,0.43-0.02,0.69-0.05s0.47-0.07,0.64-0.11l0.32,1.58c-0.22,0.14-0.54,0.26-0.96,0.35s-0.84,0.13-1.27,0.13
		c-0.94,0-1.68-0.28-2.24-0.85s-0.83-1.46-0.83-2.67v-7.7h-2v-1.71h2v-3.06H107.12z"/>
	<path class="st2" d="M117.38,178.86l1.91-0.33v-9.06l-1.91-0.33v-1.49h3.98l0.15,1.65c0.41-0.6,0.93-1.07,1.57-1.39
		s1.38-0.49,2.23-0.49s1.57,0.2,2.17,0.59s1.06,0.98,1.37,1.76c0.4-0.72,0.93-1.29,1.58-1.71s1.42-0.63,2.3-0.63
		c1.3,0,2.32,0.44,3.07,1.33s1.12,2.22,1.12,4v5.78l1.91,0.33v1.48h-6.14v-1.48l1.91-0.33v-5.8c0-1.25-0.21-2.13-0.64-2.65
		s-1.07-0.78-1.91-0.78c-0.8,0-1.45,0.28-1.94,0.85s-0.77,1.28-0.85,2.14v6.25l1.91,0.33v1.48h-6.13v-1.48l1.91-0.33v-5.8
		c0-1.19-0.22-2.06-0.66-2.61s-1.08-0.83-1.92-0.83c-0.7,0-1.28,0.14-1.73,0.43s-0.8,0.7-1.04,1.22v7.58l1.91,0.33v1.48h-6.13
		V178.86z"/>
	<path class="st2" d="M148.79,180.33c-0.07-0.34-0.12-0.65-0.16-0.93s-0.07-0.55-0.08-0.82c-0.45,0.57-1,1.04-1.67,1.42
		s-1.38,0.57-2.14,0.57c-1.32,0-2.32-0.32-3.01-0.97s-1.03-1.55-1.03-2.72c0-1.2,0.49-2.13,1.46-2.78s2.31-0.98,4-0.98h2.38v-1.48
		c0-0.74-0.23-1.33-0.7-1.76s-1.12-0.65-1.96-0.65c-0.58,0-1.09,0.07-1.53,0.22s-0.8,0.35-1.07,0.61l-0.25,1.34h-1.78v-2.46
		c0.58-0.46,1.28-0.83,2.1-1.11s1.71-0.42,2.67-0.42c1.44,0,2.6,0.37,3.49,1.1s1.34,1.79,1.34,3.15v6.11c0,0.16,0,0.32,0.01,0.48
		s0.01,0.31,0.03,0.47l0.94,0.13v1.48H148.79z M145.07,178.65c0.77,0,1.46-0.18,2.1-0.55s1.09-0.81,1.36-1.32v-2.09h-2.46
		c-0.95,0-1.69,0.22-2.24,0.66s-0.83,0.97-0.83,1.59c0,0.55,0.17,0.98,0.52,1.27S144.38,178.65,145.07,178.65z"/>
	<path class="st2" d="M157.76,164.6v3.06h2.4v1.71h-2.4v7.7c0,0.59,0.12,1.01,0.37,1.25s0.57,0.36,0.98,0.36
		c0.2,0,0.43-0.02,0.69-0.05s0.47-0.07,0.64-0.11l0.32,1.58c-0.22,0.14-0.54,0.26-0.96,0.35s-0.84,0.13-1.27,0.13
		c-0.94,0-1.68-0.28-2.24-0.85s-0.83-1.46-0.83-2.67v-7.7h-2v-1.71h2v-3.06H157.76z"/>
	<path class="st2" d="M166.55,164.6v3.06h2.4v1.71h-2.4v7.7c0,0.59,0.12,1.01,0.37,1.25s0.57,0.36,0.98,0.36
		c0.2,0,0.43-0.02,0.69-0.05s0.47-0.07,0.64-0.11l0.32,1.58c-0.22,0.14-0.54,0.26-0.96,0.35s-0.84,0.13-1.27,0.13
		c-0.94,0-1.68-0.28-2.24-0.85s-0.83-1.46-0.83-2.67v-7.7h-2v-1.71h2v-3.06H166.55z"/>
	<path class="st2" d="M177.1,180.58c-1.77,0-3.17-0.59-4.21-1.76s-1.56-2.7-1.56-4.58v-0.52c0-1.8,0.54-3.31,1.61-4.51
		s2.35-1.8,3.81-1.8c1.7,0,2.99,0.52,3.87,1.55s1.32,2.41,1.32,4.12v1.44h-8.23l-0.04,0.06c0.02,1.22,0.33,2.22,0.93,3.01
		s1.43,1.18,2.5,1.18c0.78,0,1.47-0.11,2.06-0.33s1.1-0.53,1.53-0.92l0.9,1.5c-0.45,0.44-1.05,0.81-1.8,1.11
		S178.15,180.58,177.1,180.58z M176.75,169.24c-0.77,0-1.43,0.33-1.98,0.98s-0.88,1.47-1.01,2.46l0.02,0.06h5.85v-0.3
		c0-0.91-0.24-1.66-0.73-2.27S177.7,169.24,176.75,169.24z"/>
	<path class="st2" d="M184.21,169.14v-1.49h3.97l0.22,1.84c0.36-0.65,0.8-1.16,1.33-1.52s1.13-0.55,1.81-0.55
		c0.18,0,0.37,0.01,0.56,0.04s0.34,0.06,0.44,0.09l-0.3,2.14l-1.31-0.07c-0.61,0-1.12,0.14-1.54,0.43s-0.73,0.69-0.96,1.2v7.28
		l1.91,0.33v1.48h-6.13v-1.48l1.91-0.33v-9.06L184.21,169.14z"/>
	<path class="st2" d="M200.1,178.86l1.91-0.33v-9.06l-1.91-0.33v-1.49h4.22v10.88l1.91,0.33v1.48h-6.13V178.86z M204.32,164.41
		h-2.31v-2.36h2.31V164.41z"/>
	<path class="st2" d="M207.77,169.37v-1.71h1.98v-1.61c0-1.35,0.35-2.4,1.06-3.13s1.69-1.11,2.96-1.11c0.27,0,0.53,0.02,0.8,0.06
		s0.57,0.1,0.9,0.18l-0.28,1.76c-0.14-0.03-0.31-0.06-0.51-0.08s-0.4-0.04-0.62-0.04c-0.68,0-1.18,0.2-1.51,0.6
		s-0.49,0.99-0.49,1.75v1.61h2.65v1.71h-2.65v9.16l1.91,0.33v1.48h-6.13v-1.48l1.91-0.33v-9.16H207.77z"/>
	<path class="st2" d="M222.49,178.86l1.91-0.33v-9.06l-1.91-0.33v-1.49h4.22v10.88l1.91,0.33v1.48h-6.13V178.86z M226.71,164.41
		h-2.31v-2.36h2.31V164.41z"/>
	<path class="st2" d="M234.41,164.6v3.06h2.4v1.71h-2.4v7.7c0,0.59,0.12,1.01,0.37,1.25s0.57,0.36,0.98,0.36
		c0.2,0,0.43-0.02,0.69-0.05s0.47-0.07,0.64-0.11l0.32,1.58c-0.22,0.14-0.54,0.26-0.96,0.35s-0.84,0.13-1.27,0.13
		c-0.94,0-1.68-0.28-2.24-0.85s-0.83-1.46-0.83-2.67v-7.7h-2v-1.71h2v-3.06H234.41z"/>
</g>
<g class="st1">
	<path class="st2" d="M50.95,209.38c-1.77,0-3.17-0.59-4.21-1.76s-1.56-2.7-1.56-4.58v-0.52c0-1.8,0.54-3.31,1.61-4.51
		s2.35-1.8,3.81-1.8c1.7,0,2.99,0.52,3.87,1.55s1.32,2.41,1.32,4.12v1.44h-8.23l-0.04,0.06c0.02,1.22,0.33,2.22,0.93,3.01
		s1.43,1.18,2.5,1.18c0.78,0,1.47-0.11,2.06-0.33s1.1-0.53,1.53-0.92l0.9,1.5c-0.45,0.44-1.05,0.81-1.8,1.11S52,209.38,50.95,209.38
		z M50.6,198.04c-0.77,0-1.43,0.33-1.98,0.98s-0.88,1.47-1.01,2.46l0.02,0.06h5.85v-0.3c0-0.91-0.24-1.66-0.73-2.27
		S51.55,198.04,50.6,198.04z"/>
	<path class="st2" d="M57.75,207.66l1.36-0.27l3.74-4.66l-3.62-4.51l-1.36-0.27v-1.49h4.97v1.49l-1.15,0.14l2.37,3.05l2.38-3.06
		l-1.14-0.13v-1.49h5v1.49l-1.36,0.27l-3.62,4.51l3.73,4.66l1.37,0.27v1.48h-4.97v-1.48l1.12-0.13l-2.48-3.19l-2.48,3.19l1.14,0.13
		v1.48h-4.99V207.66z"/>
	<path class="st2" d="M71.75,212.52l1.91-0.33v-13.92l-1.91-0.33v-1.49h3.89l0.21,1.55c0.42-0.58,0.94-1.02,1.54-1.32
		s1.31-0.46,2.1-0.46c1.57,0,2.79,0.62,3.66,1.87s1.31,2.89,1.31,4.94v0.25c0,1.83-0.44,3.3-1.31,4.42s-2.08,1.68-3.62,1.68
		c-0.78,0-1.47-0.13-2.06-0.39s-1.09-0.65-1.51-1.17v4.37l1.91,0.33v1.49h-6.13V212.52z M82.15,203.03c0-1.45-0.28-2.63-0.84-3.55
		s-1.4-1.38-2.51-1.38c-0.66,0-1.22,0.15-1.69,0.45s-0.85,0.7-1.14,1.22v6.18c0.29,0.52,0.67,0.93,1.13,1.21s1.04,0.43,1.72,0.43
		c1.09,0,1.92-0.4,2.48-1.2s0.84-1.83,0.84-3.11V203.03z"/>
	<path class="st2" d="M86.57,207.66l1.91-0.33v-9.06l-1.91-0.33v-1.49h4.22v10.88l1.91,0.33v1.48h-6.13V207.66z M90.78,193.21h-2.31
		v-2.36h2.31V193.21z"/>
	<path class="st2" d="M94.45,197.94v-1.49h3.97l0.22,1.84c0.36-0.65,0.8-1.16,1.33-1.52s1.13-0.55,1.81-0.55
		c0.18,0,0.37,0.01,0.56,0.04s0.34,0.06,0.44,0.09l-0.3,2.14l-1.31-0.07c-0.61,0-1.12,0.14-1.54,0.43s-0.73,0.69-0.96,1.2v7.28
		l1.91,0.33v1.48h-6.13v-1.48l1.91-0.33v-9.06L94.45,197.94z"/>
	<path class="st2" d="M109.94,209.38c-1.77,0-3.17-0.59-4.21-1.76s-1.56-2.7-1.56-4.58v-0.52c0-1.8,0.54-3.31,1.61-4.51
		s2.35-1.8,3.81-1.8c1.7,0,2.99,0.52,3.87,1.55s1.32,2.41,1.32,4.12v1.44h-8.23l-0.04,0.06c0.02,1.22,0.33,2.22,0.93,3.01
		s1.43,1.18,2.5,1.18c0.78,0,1.47-0.11,2.06-0.33s1.1-0.53,1.53-0.92l0.9,1.5c-0.45,0.44-1.05,0.81-1.8,1.11
		S110.99,209.38,109.94,209.38z M109.59,198.04c-0.77,0-1.43,0.33-1.98,0.98s-0.88,1.47-1.01,2.46l0.02,0.06h5.85v-0.3
		c0-0.91-0.24-1.66-0.73-2.27S110.55,198.04,109.59,198.04z"/>
	<path class="st2" d="M125.6,207.62c-0.41,0.58-0.92,1.02-1.52,1.31s-1.29,0.45-2.08,0.45c-1.55,0-2.76-0.56-3.63-1.68
		s-1.31-2.6-1.31-4.42v-0.25c0-2.04,0.44-3.68,1.31-4.93s2.09-1.88,3.65-1.88c0.75,0,1.41,0.14,1.99,0.42s1.06,0.68,1.47,1.2v-5.17
		l-1.91-0.33v-1.49h1.91h2.31v16.48l1.91,0.33v1.48h-3.91L125.6,207.62z M119.38,203.27c0,1.27,0.26,2.3,0.79,3.07
		s1.33,1.16,2.43,1.16c0.69,0,1.27-0.16,1.73-0.47s0.86-0.75,1.16-1.32v-5.88c-0.3-0.53-0.68-0.95-1.16-1.27s-1.05-0.47-1.71-0.47
		c-1.1,0-1.92,0.46-2.44,1.37s-0.79,2.1-0.79,3.56V203.27z"/>
	<path class="st2" d="M137.42,207.66l1.91-0.33v-9.06l-1.91-0.33v-1.49h4.22v10.88l1.91,0.33v1.48h-6.13V207.66z M141.64,193.21
		h-2.31v-2.36h2.31V193.21z"/>
	<path class="st2" d="M144.97,207.66l1.91-0.33v-9.06l-1.91-0.33v-1.49h3.97l0.16,1.89c0.42-0.67,0.95-1.19,1.59-1.56
		s1.36-0.56,2.17-0.56c1.37,0,2.43,0.4,3.18,1.2s1.12,2.04,1.12,3.71v6.2l1.91,0.33v1.48h-6.13v-1.48l1.91-0.33v-6.15
		c0-1.12-0.22-1.91-0.66-2.38s-1.12-0.7-2.02-0.7c-0.66,0-1.25,0.16-1.76,0.48s-0.92,0.76-1.22,1.31v7.44l1.91,0.33v1.48h-6.13
		V207.66z"/>
	<path class="st2" d="M167.1,207.66l2.64-0.33v-12.79l-2.68,0.05v-1.44l4.99-1.08v15.26l2.62,0.33v1.48h-7.57V207.66z"/>
	<path class="st2" d="M181.56,207.58c1.11,0,1.99-0.42,2.63-1.27s0.98-2.21,1-4.1l-0.05-0.06c-0.31,0.52-0.75,0.93-1.31,1.21
		s-1.2,0.42-1.9,0.42c-1.66,0-2.98-0.51-3.94-1.54s-1.44-2.47-1.44-4.33c0-1.78,0.51-3.24,1.54-4.38s2.28-1.71,3.74-1.71
		c1.78,0,3.19,0.56,4.21,1.67s1.54,2.76,1.54,4.94v3.08c0,2.66-0.55,4.64-1.65,5.93s-2.56,1.93-4.39,1.93
		c-0.59,0-1.2-0.06-1.82-0.17s-1.18-0.29-1.67-0.52l0.35-1.75c0.48,0.23,0.96,0.39,1.46,0.49S180.93,207.58,181.56,207.58z
		 M181.93,201.96c0.85,0,1.56-0.18,2.13-0.55s0.97-0.84,1.22-1.41v-1.8c0-1.51-0.29-2.64-0.86-3.41s-1.41-1.15-2.51-1.15
		c-0.85,0-1.57,0.4-2.16,1.2s-0.88,1.82-0.88,3.07c0,1.23,0.27,2.21,0.82,2.95S180.98,201.96,181.93,201.96z"/>
	<path class="st2" d="M200.8,196.52c0,0.89-0.25,1.67-0.75,2.34s-1.18,1.17-2.03,1.49c0.98,0.34,1.77,0.88,2.36,1.62
		s0.88,1.58,0.88,2.54c0,1.58-0.51,2.78-1.54,3.62s-2.36,1.25-4,1.25c-1.67,0-3.02-0.42-4.03-1.25s-1.52-2.04-1.52-3.62
		c0-0.96,0.29-1.81,0.87-2.54s1.36-1.27,2.34-1.62c-0.85-0.33-1.52-0.83-2-1.49s-0.73-1.45-0.73-2.34c0-1.5,0.46-2.66,1.39-3.47
		s2.15-1.22,3.66-1.22c1.5,0,2.72,0.41,3.67,1.22S200.8,195.02,200.8,196.52z M198.97,204.47c0-0.94-0.31-1.71-0.93-2.31
		s-1.4-0.9-2.34-0.9c-0.95,0-1.73,0.3-2.33,0.9s-0.9,1.37-0.9,2.31c0,0.97,0.29,1.73,0.88,2.28s1.38,0.83,2.36,0.83
		c0.96,0,1.74-0.28,2.34-0.83S198.97,205.43,198.97,204.47z M198.49,196.57c0-0.84-0.26-1.54-0.79-2.1s-1.19-0.83-2-0.83
		c-0.82,0-1.48,0.27-1.99,0.8s-0.76,1.24-0.76,2.13c0,0.87,0.25,1.56,0.76,2.09s1.18,0.79,2,0.79c0.81,0,1.48-0.26,1.99-0.79
		S198.49,197.44,198.49,196.57z"/>
	<path class="st2" d="M214.77,193.89c-2.06,2.45-3.46,4.63-4.18,6.52s-1.24,4.19-1.56,6.88l-0.19,1.84h-2.31l0.19-1.84
		c0.33-2.69,0.96-5.09,1.91-7.21s2.24-4.18,3.88-6.2h-7.12l-0.18,1.96h-1.97v-3.77h11.53V193.89z"/>
	<path class="st2" d="M219.78,204.33c0.01-1.14,0.1-1.93,0.29-2.36s0.67-1.01,1.47-1.73c0.77-0.91,1.32-1.62,1.65-2.11
		s0.49-1.09,0.49-1.78c0-0.83-0.22-1.46-0.66-1.91s-1.07-0.67-1.89-0.67c-0.71,0-1.31,0.19-1.81,0.58s-0.74,0.96-0.74,1.71h-2.2
		l-0.04-0.07c-0.02-1.26,0.42-2.27,1.32-3.02s2.06-1.14,3.47-1.14c1.54,0,2.73,0.39,3.59,1.18s1.28,1.88,1.28,3.29
		c0,1.01-0.28,1.93-0.83,2.77s-1.28,1.69-2.19,2.57c-0.41,0.42-0.67,0.8-0.76,1.14s-0.13,0.86-0.13,1.57H219.78z M222.16,209.13
		h-2.4v-2.44h2.4V209.13z"/>
</g>
</svg>
