<?xml version="1.0" encoding="utf-8"?>
<!-- Generator: Adobe Illustrator 24.0.0, SVG Export Plug-In . SVG Version: 6.00 Build 0)  -->
<svg version="1.1" id="Layer_1" xmlns="http://www.w3.org/2000/svg" xmlns:xlink="http://www.w3.org/1999/xlink" x="0px" y="0px"
	 viewBox="0 0 271.08 238.92" style="enable-background:new 0 0 271.08 238.92;" xml:space="preserve">
<style type="text/css">
	.st0{fill:#EE3125;}
	.st1{fill:none;}
	.st2{fill:#FFFFFF;}
	.st3{font-family:'RobotoSlab-Regular';}
	.st4{font-size:24px;}
</style>
<g>
	<g>
		<path class="st0" d="M12,237.92c-6.07,0-11-4.93-11-11v-75.64c0-6.07,4.93-11,11-11h135.31c0.4,0,0.76-0.24,0.92-0.6L204.79,8.52
			L180.74,139.1c-0.05,0.29,0.02,0.59,0.21,0.82c0.19,0.23,0.47,0.36,0.77,0.36h77.36c6.07,0,11,4.93,11,11v75.64
			c0,6.07-4.93,11-11,11H12z"/>
		<path d="M202.2,17.05l-22.45,121.87c-0.11,0.58,0.05,1.19,0.43,1.64c0.38,0.46,0.94,0.72,1.54,0.72h77.36c5.51,0,10,4.49,10,10
			v75.64c0,5.51-4.49,10-10,10H12c-5.51,0-10-4.49-10-10v-75.64c0-5.51,4.49-10,10-10h135.31c0.8,0,1.52-0.47,1.84-1.21L202.2,17.05
			 M207.37,0l-60.06,139.28H12c-6.6,0-12,5.4-12,12v75.64c0,6.6,5.4,12,12,12h247.08c6.6,0,12-5.4,12-12v-75.64c0-6.6-5.4-12-12-12
			h-77.36L207.37,0L207.37,0z"/>
	</g>
	<rect x="14.62" y="162.05" class="st1" width="241.83" height="60.42"/>
	<text transform="matrix(1 0 0 1 32.9597 180.3338)"><tspan x="0" y="0" class="st2 st3 st4">Does it matter if it </tspan><tspan x="11.16" y="28.8" class="st2 st3 st4">expired in 1987?</tspan></text>
</g>
</svg>
