<?xml version="1.0" encoding="utf-8"?>
<!-- Generator: Adobe Illustrator 24.0.0, SVG Export Plug-In . SVG Version: 6.00 Build 0)  -->
<svg version="1.1" id="Layer_1" xmlns="http://www.w3.org/2000/svg" xmlns:xlink="http://www.w3.org/1999/xlink" x="0px" y="0px"
	 viewBox="0 0 247.81 116.62" style="enable-background:new 0 0 247.81 116.62;" xml:space="preserve">
<style type="text/css">
	.st0{fill:#EE3426;}
	.st1{enable-background:new    ;}
	.st2{fill:#FFFFFF;}
</style>
<g>
	<g>
		<path class="st0" d="M135.11,113.47c11.82-38.62,11.7-38.78,11.33-39.28c-0.18-0.24-0.46-0.38-0.76-0.38H10.32
			c-5.17,0-9.38-4.21-9.38-9.38v-54.1c0-5.17,4.21-9.38,9.38-9.38h227.17c5.17,0,9.38,4.21,9.38,9.38v54.09
			c0,5.17-4.21,9.38-9.38,9.38h-60.17C176.81,73.8,176.7,73.79,135.11,113.47z"/>
		<path d="M237.49,1.88L237.49,1.88c4.65,0,8.44,3.79,8.45,8.45v54.09c0,4.65-3.79,8.44-8.45,8.45h-60.17c-0.79,0-0.79,0-3.25,2.31
			c-1.23,1.15-2.96,2.79-5.04,4.75c-4.15,3.93-9.67,9.16-15.17,14.4c-6.29,5.99-12.57,11.97-16.8,16c1.18-3.87,2.72-8.94,4.25-13.98
			c1.83-6.06,3.29-10.9,4.32-14.39c2.2-7.46,2.2-7.46,1.57-8.31c-0.35-0.48-0.92-0.76-1.51-0.76H10.32c-4.65,0-8.44-3.79-8.45-8.45
			v-54.1c0-4.65,3.79-8.44,8.45-8.45H237.49 M237.49,0H10.32C4.62,0.01,0.01,4.62,0,10.32v54.1c0.01,5.7,4.62,10.32,10.32,10.32
			h135.36c0.31,0-12.52,41.88-12.52,41.88s43.9-41.89,44.15-41.89h60.17c5.7-0.01,10.32-4.62,10.32-10.32V10.32
			C247.81,4.62,243.19,0.01,237.49,0L237.49,0z"/>
	</g>
	<g class="st1">
		<path class="st2" d="M20.53,15.93l-1.63,0.25L20.96,25l0.3,2l0.07,0.01L21.75,25l2.95-10.47h1.91L29.57,25l0.44,2.06h0.07
			L30.39,25l2.01-8.82l-1.64-0.25v-1.4h5.09v1.4l-1.29,0.16l-3.49,14.45h-1.94l-3.17-11.11L25.7,18h-0.07l-0.28,1.44l-3.21,11.11
			h-1.92L16.74,16.1l-1.29-0.16v-1.4h5.08V15.93z"/>
		<path class="st2" d="M37.13,29.16l1.79-0.31v-8.5l-1.79-0.31v-1.4h3.96v10.21l1.79,0.31v1.39h-5.75V29.16z M41.09,15.6h-2.17
			v-2.21h2.17V15.6z"/>
		<path class="st2" d="M53.64,22.39h-1.63l-0.35-1.43c-0.26-0.25-0.6-0.45-1-0.6s-0.85-0.23-1.36-0.23c-0.77,0-1.34,0.17-1.71,0.51
			c-0.37,0.34-0.56,0.74-0.56,1.22c0,0.47,0.17,0.84,0.5,1.11c0.33,0.27,1,0.51,2.01,0.73c1.5,0.32,2.62,0.76,3.35,1.31
			c0.73,0.55,1.1,1.3,1.1,2.23c0,1.06-0.43,1.91-1.28,2.56c-0.85,0.65-1.97,0.98-3.35,0.98c-0.9,0-1.71-0.1-2.43-0.31
			s-1.36-0.51-1.92-0.91L45,26.84h1.63l0.41,1.59c0.25,0.23,0.59,0.39,1.02,0.49c0.43,0.1,0.87,0.15,1.31,0.15
			c0.77,0,1.37-0.16,1.81-0.47c0.44-0.31,0.65-0.72,0.65-1.23c0-0.48-0.18-0.87-0.54-1.18c-0.36-0.31-1.05-0.58-2.06-0.8
			c-1.44-0.31-2.53-0.74-3.27-1.29c-0.73-0.54-1.1-1.28-1.1-2.2c0-0.97,0.41-1.79,1.24-2.47c0.82-0.68,1.9-1.02,3.22-1.02
			c0.9,0,1.71,0.12,2.43,0.35c0.72,0.23,1.32,0.56,1.79,0.98L53.64,22.39z"/>
		<path class="st2" d="M55.72,29.16l1.79-0.31V15.1l-1.79-0.31v-1.4h3.96v6.84c0.41-0.57,0.91-1.02,1.51-1.33
			c0.59-0.32,1.25-0.47,1.98-0.47c1.28,0,2.26,0.38,2.97,1.14c0.7,0.76,1.06,1.94,1.06,3.52v5.76l1.79,0.31v1.39h-5.75v-1.39
			l1.79-0.31v-5.78c0-0.98-0.21-1.71-0.63-2.18c-0.42-0.47-1.05-0.7-1.89-0.7c-0.59,0-1.13,0.14-1.62,0.42s-0.89,0.67-1.2,1.15v7.09
			l1.79,0.31v1.39h-5.75V29.16z"/>
		<path class="st2" d="M70.55,29.16l1.79-0.31v-8.5l-1.79-0.31v-1.4h3.96v10.21l1.79,0.31v1.39h-5.75V29.16z M74.51,15.6h-2.17
			v-2.21h2.17V15.6z"/>
		<path class="st2" d="M77.64,29.16l1.79-0.31v-8.5l-1.79-0.31v-1.4h3.73l0.15,1.77c0.4-0.63,0.89-1.12,1.49-1.47
			c0.6-0.35,1.28-0.52,2.04-0.52c1.28,0,2.28,0.38,2.98,1.13s1.06,1.91,1.06,3.48v5.82l1.79,0.31v1.39h-5.75v-1.39l1.79-0.31v-5.77
			c0-1.05-0.21-1.79-0.62-2.23c-0.42-0.44-1.05-0.66-1.9-0.66c-0.62,0-1.17,0.15-1.66,0.45c-0.48,0.3-0.86,0.71-1.15,1.23v6.98
			l1.79,0.31v1.39h-5.75V29.16z"/>
		<path class="st2" d="M92.35,24.82c0-1.91,0.42-3.46,1.25-4.63c0.84-1.17,1.99-1.76,3.46-1.76c0.75,0,1.4,0.15,1.97,0.44
			c0.56,0.29,1.04,0.72,1.42,1.28l0.2-1.5h1.83v11.74c0,1.54-0.43,2.75-1.29,3.63c-0.86,0.88-2.08,1.33-3.66,1.33
			c-0.57,0-1.19-0.08-1.86-0.24c-0.67-0.16-1.25-0.37-1.76-0.64l0.56-1.68c0.4,0.21,0.88,0.39,1.43,0.53
			c0.55,0.14,1.08,0.21,1.61,0.21c0.97,0,1.68-0.27,2.13-0.81c0.45-0.54,0.68-1.32,0.68-2.32v-1.13c-0.39,0.5-0.85,0.88-1.4,1.13
			c-0.54,0.26-1.17,0.38-1.87,0.38c-1.46,0-2.61-0.53-3.44-1.58s-1.25-2.44-1.25-4.15V24.82z M94.52,25.05
			c0,1.2,0.25,2.16,0.76,2.88c0.51,0.73,1.28,1.09,2.31,1.09c0.65,0,1.2-0.15,1.64-0.45c0.44-0.3,0.8-0.72,1.09-1.26v-5.48
			c-0.28-0.51-0.64-0.91-1.09-1.2c-0.45-0.3-0.99-0.45-1.62-0.45c-1.03,0-1.81,0.43-2.32,1.3c-0.51,0.87-0.77,1.98-0.77,3.33V25.05z
			"/>
		<path class="st2" d="M121.99,20.04l-1.07,0.17l-4.53,12.16c-0.3,0.8-0.73,1.5-1.3,2.09s-1.32,0.89-2.28,0.89
			c-0.17,0-0.39-0.02-0.66-0.06c-0.27-0.04-0.48-0.08-0.63-0.12l0.22-1.7c-0.04-0.01,0.09,0,0.39,0.02c0.3,0.02,0.5,0.03,0.58,0.03
			c0.46,0,0.84-0.2,1.12-0.6c0.29-0.4,0.54-0.86,0.75-1.38l0.52-1.23l-3.93-10.1l-1.09-0.18v-1.4h4.81v1.4l-1.34,0.22l2.06,5.87
			l0.4,1.52h0.07l2.47-7.39l-1.35-0.22v-1.4h4.79V20.04z"/>
		<path class="st2" d="M123.31,24.49c0-1.76,0.48-3.21,1.43-4.35c0.95-1.14,2.25-1.71,3.88-1.71c1.64,0,2.94,0.57,3.9,1.7
			c0.96,1.14,1.44,2.59,1.44,4.35v0.24c0,1.77-0.48,3.23-1.43,4.35s-2.25,1.69-3.88,1.69c-1.65,0-2.95-0.57-3.9-1.7
			c-0.95-1.13-1.43-2.58-1.43-4.35V24.49z M125.47,24.73c0,1.26,0.27,2.3,0.8,3.12c0.53,0.82,1.32,1.23,2.37,1.23
			c1.03,0,1.81-0.41,2.34-1.23c0.53-0.82,0.8-1.86,0.8-3.12v-0.24c0-1.25-0.27-2.28-0.8-3.11c-0.54-0.83-1.32-1.24-2.37-1.24
			s-1.83,0.41-2.35,1.24c-0.53,0.83-0.79,1.87-0.79,3.11V24.73z"/>
		<path class="st2" d="M144.44,28.79c-0.37,0.64-0.86,1.13-1.45,1.47c-0.59,0.34-1.27,0.52-2.04,0.52c-1.29,0-2.3-0.41-3.02-1.24
			c-0.73-0.83-1.09-2.12-1.09-3.87v-5.31l-1.36-0.31v-1.4h1.36h2.17v7.04c0,1.27,0.19,2.14,0.56,2.62c0.37,0.48,0.96,0.71,1.75,0.71
			c0.77,0,1.41-0.16,1.91-0.47c0.5-0.31,0.88-0.75,1.14-1.33v-6.87l-1.59-0.31v-1.4h1.59h2.17v10.21l1.36,0.31v1.39h-3.31
			L144.44,28.79z"/>
		<path class="st2" d="M162.97,30.55c-0.07-0.32-0.12-0.61-0.15-0.87c-0.04-0.26-0.06-0.51-0.08-0.77
			c-0.42,0.54-0.94,0.98-1.57,1.34s-1.3,0.53-2.01,0.53c-1.24,0-2.18-0.3-2.83-0.91s-0.97-1.46-0.97-2.56c0-1.13,0.46-2,1.37-2.61
			s2.17-0.92,3.76-0.92h2.23V22.4c0-0.7-0.22-1.25-0.66-1.65s-1.05-0.61-1.84-0.61c-0.54,0-1.02,0.07-1.43,0.21
			s-0.75,0.33-1.01,0.57l-0.23,1.25h-1.67v-2.31c0.54-0.43,1.2-0.78,1.97-1.04s1.61-0.39,2.51-0.39c1.35,0,2.44,0.34,3.28,1.03
			c0.84,0.69,1.25,1.68,1.25,2.96v5.73c0,0.15,0,0.3,0.01,0.45c0,0.15,0.01,0.29,0.03,0.44l0.88,0.12v1.39H162.97z M159.49,28.96
			c0.72,0,1.37-0.17,1.97-0.52c0.59-0.34,1.02-0.76,1.28-1.24v-1.96h-2.31c-0.89,0-1.59,0.21-2.11,0.62
			c-0.52,0.41-0.77,0.91-0.77,1.5c0,0.52,0.16,0.92,0.48,1.19S158.83,28.96,159.49,28.96z"/>
		<path class="st2" d="M173.29,17.39c0-0.73,0.18-1.48,0.53-2.27c0.35-0.78,0.83-1.43,1.45-1.95l1.23,0.8
			c-0.35,0.54-0.61,1.08-0.79,1.62c-0.17,0.55-0.26,1.13-0.26,1.75v1.97h-2.17V17.39z"/>
		<path class="st2" d="M177.51,14.79v-1.4h3.96v15.46l1.79,0.31v1.39h-5.75v-1.39l1.79-0.31V15.1L177.51,14.79z"/>
		<path class="st2" d="M192.66,30.55c-0.07-0.32-0.12-0.61-0.15-0.87c-0.04-0.26-0.06-0.51-0.08-0.77
			c-0.42,0.54-0.94,0.98-1.57,1.34s-1.3,0.53-2.01,0.53c-1.24,0-2.18-0.3-2.83-0.91s-0.97-1.46-0.97-2.56c0-1.13,0.46-2,1.37-2.61
			s2.17-0.92,3.76-0.92h2.23V22.4c0-0.7-0.22-1.25-0.66-1.65s-1.05-0.61-1.84-0.61c-0.54,0-1.02,0.07-1.43,0.21
			s-0.75,0.33-1.01,0.57l-0.23,1.25h-1.67v-2.31c0.54-0.43,1.2-0.78,1.97-1.04s1.61-0.39,2.51-0.39c1.35,0,2.44,0.34,3.28,1.03
			c0.84,0.69,1.25,1.68,1.25,2.96v5.73c0,0.15,0,0.3,0.01,0.45c0,0.15,0.01,0.29,0.03,0.44l0.88,0.12v1.39H192.66z M189.18,28.96
			c0.72,0,1.37-0.17,1.97-0.52c0.59-0.34,1.02-0.76,1.28-1.24v-1.96h-2.31c-0.89,0-1.59,0.21-2.11,0.62
			c-0.52,0.41-0.77,0.91-0.77,1.5c0,0.52,0.16,0.92,0.48,1.19S188.52,28.96,189.18,28.96z"/>
		<path class="st2" d="M201.09,15.78v2.87h2.25v1.61h-2.25v7.22c0,0.56,0.12,0.95,0.35,1.18c0.23,0.23,0.54,0.34,0.92,0.34
			c0.19,0,0.41-0.02,0.64-0.05c0.24-0.03,0.44-0.07,0.6-0.1l0.3,1.48c-0.21,0.13-0.51,0.24-0.9,0.32c-0.4,0.08-0.79,0.13-1.19,0.13
			c-0.88,0-1.58-0.27-2.1-0.8c-0.52-0.53-0.78-1.37-0.78-2.5v-7.22h-1.88v-1.61h1.88v-2.87H201.09z"/>
		<path class="st2" d="M205.26,14.79v-1.4h3.96v9.94h1.39l2.54-3.15l-1.09-0.14v-1.4h4.98v1.4l-1.45,0.29l-3.13,3.74l3.82,4.83
			l1.35,0.26v1.39h-4.94v-1.39l1.11-0.14l-3.16-3.96h-1.42v3.79l1.79,0.31v1.39h-5.75v-1.39l1.79-0.31V15.1L205.26,14.79z"/>
		<path class="st2" d="M224.46,30.78c-1.66,0-2.97-0.55-3.95-1.66c-0.98-1.1-1.47-2.53-1.47-4.29v-0.48c0-1.69,0.5-3.1,1.51-4.23
			c1.01-1.12,2.2-1.69,3.58-1.69c1.6,0,2.81,0.48,3.63,1.45s1.24,2.26,1.24,3.87v1.35h-7.72l-0.03,0.05
			c0.02,1.14,0.31,2.08,0.87,2.82c0.56,0.74,1.34,1.11,2.34,1.11c0.73,0,1.38-0.1,1.93-0.31s1.03-0.5,1.44-0.86l0.85,1.41
			c-0.43,0.41-0.99,0.76-1.69,1.04S225.44,30.78,224.46,30.78z M224.13,20.13c-0.73,0-1.34,0.31-1.86,0.92
			c-0.51,0.61-0.83,1.38-0.95,2.3l0.02,0.05h5.49v-0.29c0-0.85-0.23-1.56-0.68-2.13C225.7,20.42,225.02,20.13,224.13,20.13z"/>
		<path class="st2" d="M233.71,15.41c0,0.73-0.18,1.49-0.53,2.28c-0.36,0.78-0.84,1.43-1.45,1.94l-1.23-0.81
			c0.34-0.52,0.6-1.05,0.78-1.6c0.18-0.55,0.26-1.13,0.26-1.76v-2.06h2.17V15.41z"/>
		<path class="st2" d="M15.92,47.28v-1.61h1.86v-1.51c0-1.27,0.33-2.25,1-2.94c0.66-0.69,1.59-1.04,2.78-1.04
			c0.25,0,0.5,0.02,0.75,0.06c0.25,0.04,0.53,0.1,0.84,0.17l-0.26,1.65c-0.13-0.03-0.29-0.05-0.48-0.08
			c-0.19-0.02-0.38-0.03-0.58-0.03c-0.64,0-1.11,0.19-1.42,0.57c-0.31,0.38-0.46,0.93-0.46,1.64v1.51h2.49v1.61h-2.49v8.6l1.79,0.31
			v1.39h-5.75v-1.39l1.79-0.31v-8.6H15.92z"/>
		<path class="st2" d="M32.65,55.81c-0.37,0.64-0.86,1.13-1.45,1.47c-0.59,0.34-1.27,0.52-2.04,0.52c-1.29,0-2.3-0.41-3.02-1.24
			c-0.73-0.83-1.09-2.12-1.09-3.87v-5.31l-1.36-0.31v-1.4h1.36h2.17v7.04c0,1.27,0.19,2.14,0.56,2.62c0.37,0.48,0.96,0.71,1.75,0.71
			c0.77,0,1.41-0.16,1.91-0.47c0.5-0.31,0.88-0.75,1.14-1.33v-6.87l-1.59-0.31v-1.4h1.59h2.17v10.21l1.36,0.31v1.39h-3.31
			L32.65,55.81z"/>
		<path class="st2" d="M37.5,56.19l1.79-0.31v-8.5l-1.79-0.31v-1.4h3.73l0.15,1.77c0.4-0.63,0.89-1.12,1.49-1.47
			c0.6-0.35,1.28-0.52,2.04-0.52c1.28,0,2.28,0.38,2.98,1.13s1.06,1.91,1.06,3.48v5.82l1.79,0.31v1.39h-5.75v-1.39l1.79-0.31v-5.77
			c0-1.05-0.21-1.79-0.62-2.23c-0.42-0.44-1.05-0.66-1.9-0.66c-0.62,0-1.17,0.15-1.66,0.45c-0.48,0.3-0.86,0.71-1.15,1.23v6.98
			l1.79,0.31v1.39H37.5V56.19z"/>
		<path class="st2" d="M61.69,42.8v2.87h2.25v1.61h-2.25v7.22c0,0.56,0.12,0.95,0.35,1.18c0.23,0.23,0.54,0.34,0.92,0.34
			c0.19,0,0.41-0.02,0.64-0.05c0.24-0.03,0.44-0.07,0.6-0.1l0.3,1.48c-0.21,0.13-0.51,0.24-0.9,0.32c-0.4,0.08-0.79,0.13-1.19,0.13
			c-0.88,0-1.58-0.27-2.1-0.8c-0.52-0.53-0.78-1.37-0.78-2.5v-7.22h-1.88v-1.61h1.88V42.8H61.69z"/>
		<path class="st2" d="M65.86,56.19l1.79-0.31V42.12l-1.79-0.31v-1.4h3.96v6.84c0.41-0.57,0.91-1.02,1.51-1.33
			c0.59-0.32,1.25-0.47,1.98-0.47c1.28,0,2.26,0.38,2.97,1.14c0.7,0.76,1.06,1.94,1.06,3.52v5.76l1.79,0.31v1.39h-5.75v-1.39
			l1.79-0.31v-5.78c0-0.98-0.21-1.71-0.63-2.18c-0.42-0.47-1.05-0.7-1.89-0.7c-0.59,0-1.13,0.14-1.62,0.42s-0.89,0.67-1.2,1.15v7.09
			l1.79,0.31v1.39h-5.75V56.19z"/>
		<path class="st2" d="M80.69,56.19l1.79-0.31v-8.5l-1.79-0.31v-1.4h3.96v10.21l1.79,0.31v1.39h-5.75V56.19z M84.65,42.63h-2.17
			v-2.21h2.17V42.63z"/>
		<path class="st2" d="M97.2,49.41h-1.63l-0.35-1.43c-0.26-0.25-0.6-0.45-1-0.6s-0.85-0.23-1.36-0.23c-0.77,0-1.34,0.17-1.71,0.51
			c-0.37,0.34-0.56,0.74-0.56,1.22c0,0.47,0.17,0.84,0.5,1.11c0.33,0.27,1,0.51,2.01,0.73c1.5,0.32,2.62,0.76,3.35,1.31
			c0.73,0.55,1.1,1.3,1.1,2.23c0,1.06-0.43,1.91-1.28,2.56c-0.85,0.65-1.97,0.98-3.35,0.98c-0.9,0-1.71-0.1-2.43-0.31
			s-1.36-0.51-1.92-0.91l-0.01-2.72h1.63l0.41,1.59c0.25,0.23,0.59,0.39,1.02,0.49c0.43,0.1,0.87,0.15,1.31,0.15
			c0.77,0,1.37-0.16,1.81-0.47c0.44-0.31,0.65-0.72,0.65-1.23c0-0.48-0.18-0.87-0.54-1.18c-0.36-0.31-1.05-0.58-2.06-0.8
			c-1.44-0.31-2.53-0.74-3.27-1.29c-0.73-0.54-1.1-1.28-1.1-2.2c0-0.97,0.41-1.79,1.24-2.47c0.82-0.68,1.9-1.02,3.22-1.02
			c0.9,0,1.71,0.12,2.43,0.35c0.72,0.23,1.32,0.56,1.79,0.98L97.2,49.41z"/>
		<path class="st2" d="M114.28,49.41h-1.63l-0.35-1.43c-0.26-0.25-0.6-0.45-1-0.6s-0.85-0.23-1.36-0.23c-0.77,0-1.34,0.17-1.71,0.51
			c-0.37,0.34-0.56,0.74-0.56,1.22c0,0.47,0.17,0.84,0.5,1.11c0.33,0.27,1,0.51,2.01,0.73c1.5,0.32,2.62,0.76,3.35,1.31
			c0.73,0.55,1.1,1.3,1.1,2.23c0,1.06-0.43,1.91-1.28,2.56c-0.85,0.65-1.97,0.98-3.35,0.98c-0.9,0-1.71-0.1-2.43-0.31
			s-1.36-0.51-1.92-0.91l-0.01-2.72h1.63l0.41,1.59c0.25,0.23,0.59,0.39,1.02,0.49c0.43,0.1,0.87,0.15,1.31,0.15
			c0.77,0,1.37-0.16,1.81-0.47c0.44-0.31,0.65-0.72,0.65-1.23c0-0.48-0.18-0.87-0.54-1.18c-0.36-0.31-1.05-0.58-2.06-0.8
			c-1.44-0.31-2.53-0.74-3.27-1.29c-0.73-0.54-1.1-1.28-1.1-2.2c0-0.97,0.41-1.79,1.24-2.47c0.82-0.68,1.9-1.02,3.22-1.02
			c0.9,0,1.71,0.12,2.43,0.35c0.72,0.23,1.32,0.56,1.79,0.98L114.28,49.41z"/>
		<path class="st2" d="M122.09,57.8c-1.66,0-2.97-0.55-3.95-1.66c-0.98-1.1-1.47-2.53-1.47-4.29v-0.48c0-1.69,0.5-3.1,1.51-4.23
			c1.01-1.12,2.2-1.69,3.58-1.69c1.6,0,2.81,0.48,3.63,1.45s1.24,2.26,1.24,3.87v1.35h-7.72l-0.03,0.05
			c0.02,1.14,0.31,2.08,0.87,2.82c0.56,0.74,1.34,1.11,2.34,1.11c0.73,0,1.38-0.1,1.93-0.31s1.03-0.5,1.44-0.86l0.85,1.41
			c-0.43,0.41-0.99,0.76-1.69,1.04S123.07,57.8,122.09,57.8z M121.76,47.16c-0.73,0-1.34,0.31-1.86,0.92
			c-0.51,0.61-0.83,1.38-0.95,2.3l0.02,0.05h5.49v-0.29c0-0.85-0.23-1.56-0.68-2.13C123.33,47.44,122.65,47.16,121.76,47.16z"/>
		<path class="st2" d="M136.52,57.57c-0.07-0.32-0.12-0.61-0.15-0.87c-0.04-0.26-0.06-0.51-0.08-0.77
			c-0.42,0.54-0.94,0.98-1.57,1.34s-1.3,0.53-2.01,0.53c-1.24,0-2.18-0.3-2.83-0.91s-0.97-1.46-0.97-2.56c0-1.13,0.46-2,1.37-2.61
			s2.17-0.92,3.76-0.92h2.23v-1.39c0-0.7-0.22-1.25-0.66-1.65s-1.05-0.61-1.84-0.61c-0.54,0-1.02,0.07-1.43,0.21
			s-0.75,0.33-1.01,0.57l-0.23,1.25h-1.67v-2.31c0.54-0.43,1.2-0.78,1.97-1.04s1.61-0.39,2.51-0.39c1.35,0,2.44,0.34,3.28,1.03
			c0.84,0.69,1.25,1.68,1.25,2.96v5.73c0,0.15,0,0.3,0.01,0.45c0,0.15,0.01,0.29,0.03,0.44l0.88,0.12v1.39H136.52z M133.04,55.99
			c0.72,0,1.37-0.17,1.97-0.52c0.59-0.34,1.02-0.76,1.28-1.24v-1.96h-2.31c-0.89,0-1.59,0.21-2.11,0.62
			c-0.52,0.41-0.77,0.91-0.77,1.5c0,0.52,0.16,0.92,0.48,1.19S132.39,55.99,133.04,55.99z"/>
		<path class="st2" d="M150.27,49.41h-1.63l-0.35-1.43c-0.26-0.25-0.6-0.45-1-0.6s-0.85-0.23-1.36-0.23c-0.77,0-1.34,0.17-1.71,0.51
			c-0.37,0.34-0.56,0.74-0.56,1.22c0,0.47,0.17,0.84,0.5,1.11c0.33,0.27,1,0.51,2.01,0.73c1.5,0.32,2.62,0.76,3.35,1.31
			c0.73,0.55,1.1,1.3,1.1,2.23c0,1.06-0.43,1.91-1.28,2.56c-0.85,0.65-1.97,0.98-3.35,0.98c-0.9,0-1.71-0.1-2.43-0.31
			s-1.36-0.51-1.92-0.91l-0.01-2.72h1.63l0.41,1.59c0.25,0.23,0.59,0.39,1.02,0.49c0.43,0.1,0.87,0.15,1.31,0.15
			c0.77,0,1.37-0.16,1.81-0.47c0.44-0.31,0.65-0.72,0.65-1.23c0-0.48-0.18-0.87-0.54-1.18c-0.36-0.31-1.05-0.58-2.06-0.8
			c-1.44-0.31-2.53-0.74-3.27-1.29c-0.73-0.54-1.1-1.28-1.1-2.2c0-0.97,0.41-1.79,1.24-2.47c0.82-0.68,1.9-1.02,3.22-1.02
			c0.9,0,1.71,0.12,2.43,0.35c0.72,0.23,1.32,0.56,1.79,0.98L150.27,49.41z"/>
		<path class="st2" d="M152.66,51.51c0-1.76,0.48-3.21,1.43-4.35c0.95-1.14,2.25-1.71,3.88-1.71c1.64,0,2.94,0.57,3.9,1.7
			c0.96,1.14,1.44,2.59,1.44,4.35v0.24c0,1.77-0.48,3.23-1.43,4.35s-2.25,1.69-3.88,1.69c-1.65,0-2.95-0.57-3.9-1.7
			c-0.95-1.13-1.43-2.58-1.43-4.35V51.51z M154.82,51.75c0,1.26,0.27,2.3,0.8,3.12c0.53,0.82,1.32,1.23,2.37,1.23
			c1.03,0,1.81-0.41,2.34-1.23c0.53-0.82,0.8-1.86,0.8-3.12v-0.24c0-1.25-0.27-2.28-0.8-3.11c-0.54-0.83-1.32-1.24-2.37-1.24
			s-1.83,0.41-2.35,1.24c-0.53,0.83-0.79,1.87-0.79,3.11V51.75z"/>
		<path class="st2" d="M164.96,56.19l1.79-0.31v-8.5l-1.79-0.31v-1.4h3.73l0.15,1.77c0.4-0.63,0.89-1.12,1.49-1.47
			c0.6-0.35,1.28-0.52,2.04-0.52c1.28,0,2.28,0.38,2.98,1.13s1.06,1.91,1.06,3.48v5.82l1.79,0.31v1.39h-5.75v-1.39l1.79-0.31v-5.77
			c0-1.05-0.21-1.79-0.62-2.23c-0.42-0.44-1.05-0.66-1.9-0.66c-0.62,0-1.17,0.15-1.66,0.45c-0.48,0.3-0.86,0.71-1.15,1.23v6.98
			l1.79,0.31v1.39h-5.75V56.19z"/>
		<path class="st2" d="M182.54,52.32h-2.17V41.56h2.17V52.32z M182.54,57.57h-2.17v-2.24h2.17V57.57z"/>
	</g>
</g>
</svg>
