<?xml version="1.0" encoding="utf-8"?>
<!-- Generator: Adobe Illustrator 24.0.0, SVG Export Plug-In . SVG Version: 6.00 Build 0)  -->
<svg version="1.1" id="Layer_1" xmlns="http://www.w3.org/2000/svg" xmlns:xlink="http://www.w3.org/1999/xlink" x="0px" y="0px"
	 viewBox="0 0 209.81 176.62" style="enable-background:new 0 0 209.81 176.62;" xml:space="preserve">
<style type="text/css">
	.st0{fill:#ED3727;}
	.st1{fill:#010101;}
	.st2{enable-background:new    ;}
	.st3{fill:#FFFFFF;}
</style>
<g>
	<g>
		<path class="st0" d="M10.32,175.68c-5.17,0-9.38-4.22-9.38-9.39V62.21c0-5.17,4.21-9.38,9.38-9.38h112.17
			c0.46,0,0.58,0,61.84-49.73c-1.97,4.7-5.68,13.53-9.38,22.38c-11,26.33-11,26.33-10.6,26.92c0.17,0.26,0.47,0.42,0.78,0.42h34.36
			c5.17,0,9.38,4.21,9.38,9.38v104.1c0,5.17-4.21,9.38-9.38,9.38h0H10.32z"/>
		<path class="st1" d="M182.02,6.18c-2.08,4.96-5.02,11.96-7.93,18.93c-3.14,7.51-5.63,13.51-7.41,17.83
			c-1.01,2.45-1.84,4.49-2.42,5.93c-1.15,2.87-1.27,3.17-0.69,4.05c0.35,0.52,0.94,0.84,1.57,0.84h34.36c4.65,0,8.44,3.79,8.45,8.45
			v104.1c0,4.65-3.79,8.44-8.45,8.45H10.32c-4.65,0-8.44-3.79-8.45-8.45V62.21c0-4.65,3.79-8.44,8.45-8.45h112.17
			c0.7,0,0.7,0,4-2.64c1.77-1.42,4.29-3.45,7.31-5.88c6.03-4.86,14.04-11.35,22.04-17.84C165.9,19.26,175.94,11.11,182.02,6.18
			 M186.65,0c0,0-63.9,51.89-64.15,51.89H10.32C4.62,51.89,0.01,56.51,0,62.21V166.3c0.01,5.7,4.62,10.32,10.32,10.32h189.17
			c5.7-0.01,10.32-4.62,10.32-10.32V62.2c-0.01-5.7-4.62-10.32-10.32-10.32h-34.36C164.82,51.88,186.65,0,186.65,0L186.65,0z"/>
	</g>
	<g class="st2">
		<path class="st3" d="M22.3,75.33c0.54,0,1.08,0.06,1.62,0.19s0.98,0.28,1.34,0.47l-0.42,1.62c-0.34-0.17-0.72-0.31-1.13-0.41
			c-0.41-0.11-0.88-0.16-1.41-0.16c-1.12,0-2.01,0.42-2.68,1.27c-0.66,0.85-1.02,2.12-1.06,3.83l0.04,0.04
			c0.41-0.38,0.91-0.68,1.51-0.91s1.24-0.33,1.92-0.33c1.43,0,2.57,0.49,3.42,1.48c0.85,0.99,1.28,2.24,1.28,3.76
			c0,1.66-0.45,3.01-1.36,4.05c-0.91,1.04-2.11,1.57-3.62,1.57c-1.56,0-2.86-0.57-3.88-1.7s-1.54-2.75-1.54-4.83v-2.16
			c0-2.54,0.56-4.47,1.67-5.79S20.55,75.33,22.3,75.33z M21.56,82.56c-0.74,0-1.37,0.15-1.89,0.45s-0.92,0.69-1.19,1.19v1.29
			c0,1.49,0.31,2.63,0.93,3.43c0.62,0.8,1.4,1.2,2.34,1.2c0.89,0,1.58-0.38,2.07-1.13c0.5-0.75,0.74-1.68,0.74-2.8
			c0-1.06-0.27-1.92-0.8-2.61C23.24,82.9,22.5,82.56,21.56,82.56z"/>
		<path class="st3" d="M33.86,90.19l1.79-0.31V76.13l-1.79-0.31v-1.4h3.96v6.84c0.41-0.57,0.91-1.02,1.51-1.33
			c0.59-0.32,1.25-0.47,1.98-0.47c1.28,0,2.26,0.38,2.97,1.14c0.7,0.76,1.06,1.94,1.06,3.52v5.76l1.79,0.31v1.39h-5.75v-1.39
			l1.79-0.31V84.1c0-0.98-0.21-1.71-0.63-2.18c-0.42-0.47-1.05-0.7-1.89-0.7c-0.59,0-1.13,0.14-1.62,0.42s-0.89,0.67-1.2,1.15v7.09
			l1.79,0.31v1.39h-5.75V90.19z"/>
		<path class="st3" d="M48.59,85.52c0-1.76,0.48-3.21,1.43-4.35c0.95-1.14,2.25-1.71,3.88-1.71c1.64,0,2.94,0.57,3.9,1.71
			c0.96,1.14,1.44,2.59,1.44,4.35v0.24c0,1.77-0.48,3.23-1.43,4.35s-2.25,1.69-3.88,1.69c-1.65,0-2.95-0.57-3.9-1.7
			c-0.95-1.13-1.43-2.58-1.43-4.35V85.52z M50.76,85.76c0,1.26,0.27,2.3,0.8,3.12s1.32,1.23,2.37,1.23c1.03,0,1.81-0.41,2.34-1.23
			c0.53-0.82,0.8-1.86,0.8-3.12v-0.24c0-1.25-0.27-2.28-0.8-3.11c-0.54-0.83-1.32-1.24-2.37-1.24s-1.83,0.41-2.35,1.24
			c-0.53,0.83-0.79,1.87-0.79,3.11V85.76z"/>
		<path class="st3" d="M69.73,89.82c-0.37,0.64-0.86,1.13-1.45,1.47c-0.59,0.34-1.27,0.52-2.04,0.52c-1.29,0-2.3-0.41-3.02-1.24
			c-0.73-0.83-1.09-2.12-1.09-3.87v-5.31l-1.36-0.31v-1.4h1.36h2.17v7.04c0,1.27,0.19,2.14,0.56,2.62c0.37,0.48,0.96,0.71,1.75,0.71
			c0.77,0,1.41-0.16,1.91-0.47c0.5-0.31,0.88-0.75,1.14-1.33v-6.87l-1.59-0.31v-1.4h1.59h2.17v10.21l1.36,0.31v1.39h-3.31
			L69.73,89.82z"/>
		<path class="st3" d="M74.9,81.08v-1.4h3.73l0.21,1.73c0.34-0.61,0.75-1.08,1.25-1.43c0.49-0.34,1.06-0.52,1.7-0.52
			c0.17,0,0.34,0.01,0.52,0.04c0.18,0.03,0.32,0.05,0.41,0.08l-0.29,2.01l-1.23-0.07c-0.57,0-1.05,0.13-1.44,0.4
			c-0.39,0.27-0.69,0.64-0.9,1.13v6.83l1.79,0.31v1.39H74.9v-1.39l1.79-0.31v-8.5L74.9,81.08z"/>
		<path class="st3" d="M93.32,83.42h-1.63l-0.35-1.43c-0.26-0.25-0.6-0.45-1-0.6s-0.85-0.23-1.36-0.23c-0.77,0-1.34,0.17-1.71,0.51
			s-0.56,0.74-0.56,1.22c0,0.47,0.17,0.84,0.5,1.11s1,0.51,2.01,0.73c1.5,0.32,2.62,0.76,3.35,1.31c0.73,0.55,1.1,1.3,1.1,2.23
			c0,1.06-0.43,1.91-1.28,2.56c-0.85,0.65-1.97,0.98-3.35,0.98c-0.9,0-1.71-0.1-2.43-0.31s-1.36-0.51-1.92-0.91l-0.01-2.72h1.63
			l0.41,1.59c0.25,0.23,0.59,0.39,1.02,0.49c0.43,0.1,0.87,0.15,1.31,0.15c0.77,0,1.37-0.16,1.81-0.47
			c0.44-0.31,0.65-0.72,0.65-1.23c0-0.48-0.18-0.87-0.54-1.18c-0.36-0.31-1.05-0.58-2.06-0.8c-1.44-0.32-2.53-0.74-3.27-1.29
			c-0.73-0.54-1.1-1.28-1.1-2.2c0-0.97,0.41-1.79,1.24-2.47c0.82-0.68,1.9-1.02,3.22-1.02c0.9,0,1.71,0.12,2.43,0.35
			c0.72,0.23,1.32,0.56,1.79,0.98L93.32,83.42z"/>
		<path class="st3" d="M101.3,85.52c0-1.76,0.48-3.21,1.43-4.35c0.95-1.14,2.25-1.71,3.88-1.71c1.64,0,2.94,0.57,3.9,1.71
			c0.96,1.14,1.44,2.59,1.44,4.35v0.24c0,1.77-0.48,3.23-1.43,4.35s-2.25,1.69-3.88,1.69c-1.65,0-2.95-0.57-3.9-1.7
			c-0.95-1.13-1.43-2.58-1.43-4.35V85.52z M103.47,85.76c0,1.26,0.27,2.3,0.8,3.12s1.32,1.23,2.37,1.23c1.03,0,1.81-0.41,2.34-1.23
			c0.53-0.82,0.8-1.86,0.8-3.12v-0.24c0-1.25-0.27-2.28-0.8-3.11c-0.54-0.83-1.32-1.24-2.37-1.24s-1.83,0.41-2.35,1.24
			c-0.53,0.83-0.79,1.87-0.79,3.11V85.76z"/>
		<path class="st3" d="M113.72,81.28v-1.61h1.86v-1.51c0-1.27,0.33-2.25,1-2.94c0.66-0.69,1.59-1.04,2.78-1.04
			c0.25,0,0.5,0.02,0.75,0.06c0.25,0.04,0.53,0.1,0.84,0.17l-0.26,1.65c-0.13-0.03-0.29-0.05-0.48-0.08
			c-0.19-0.02-0.38-0.03-0.58-0.03c-0.64,0-1.11,0.19-1.42,0.57c-0.31,0.38-0.46,0.93-0.46,1.64v1.51h2.49v1.61h-2.49v8.6l1.79,0.31
			v1.39h-5.75v-1.39l1.79-0.31v-8.6H113.72z"/>
		<path class="st3" d="M131.31,76.81v2.87h2.25v1.61h-2.25v7.22c0,0.56,0.12,0.95,0.35,1.18c0.23,0.23,0.54,0.34,0.92,0.34
			c0.19,0,0.41-0.02,0.64-0.05c0.24-0.03,0.44-0.07,0.6-0.1l0.3,1.49c-0.21,0.13-0.51,0.24-0.9,0.32c-0.4,0.08-0.79,0.13-1.19,0.13
			c-0.88,0-1.58-0.27-2.1-0.8s-0.78-1.37-0.78-2.5v-7.22h-1.88v-1.61h1.88v-2.87H131.31z"/>
		<path class="st3" d="M135.78,81.08v-1.4h3.73l0.21,1.73c0.34-0.61,0.75-1.08,1.25-1.43c0.49-0.34,1.06-0.52,1.7-0.52
			c0.17,0,0.34,0.01,0.52,0.04c0.18,0.03,0.32,0.05,0.41,0.08l-0.29,2.01l-1.23-0.07c-0.57,0-1.05,0.13-1.44,0.4
			c-0.39,0.27-0.69,0.64-0.9,1.13v6.83l1.79,0.31v1.39h-5.75v-1.39l1.79-0.31v-8.5L135.78,81.08z"/>
		<path class="st3" d="M152.86,91.58c-0.07-0.32-0.12-0.61-0.15-0.87c-0.04-0.26-0.06-0.51-0.08-0.77
			c-0.42,0.54-0.94,0.98-1.57,1.34s-1.3,0.53-2.01,0.53c-1.24,0-2.18-0.3-2.83-0.91c-0.65-0.6-0.97-1.46-0.97-2.56
			c0-1.13,0.46-2,1.37-2.61s2.17-0.92,3.76-0.92h2.23v-1.39c0-0.7-0.22-1.25-0.66-1.65c-0.44-0.41-1.05-0.61-1.84-0.61
			c-0.54,0-1.02,0.07-1.43,0.21c-0.41,0.14-0.75,0.33-1.01,0.57l-0.23,1.25h-1.67v-2.31c0.54-0.43,1.2-0.78,1.97-1.04
			c0.77-0.26,1.61-0.39,2.51-0.39c1.35,0,2.44,0.34,3.28,1.03s1.25,1.67,1.25,2.96v5.73c0,0.15,0,0.3,0.01,0.45
			c0,0.15,0.01,0.29,0.03,0.44l0.88,0.12v1.39H152.86z M149.37,89.99c0.72,0,1.37-0.17,1.97-0.52s1.02-0.76,1.28-1.24v-1.96h-2.31
			c-0.89,0-1.59,0.21-2.11,0.62c-0.52,0.41-0.77,0.91-0.77,1.5c0,0.52,0.16,0.92,0.48,1.19C148.23,89.86,148.72,89.99,149.37,89.99z
			"/>
		<path class="st3" d="M161.41,81.08l-1.43,0.22l2.45,6.77l0.2,0.86h0.07l0.21-0.86l2.38-6.77l-1.44-0.22v-1.4h4.6v1.4l-0.98,0.17
			l-3.99,10.34h-1.64l-4.04-10.34l-0.98-0.17v-1.4h4.6V81.08z"/>
		<path class="st3" d="M175.19,91.81c-1.66,0-2.97-0.55-3.95-1.66c-0.98-1.1-1.47-2.53-1.47-4.29v-0.48c0-1.69,0.5-3.1,1.51-4.23
			s2.2-1.69,3.58-1.69c1.6,0,2.81,0.48,3.63,1.45s1.24,2.26,1.24,3.87v1.35h-7.72l-0.03,0.05c0.02,1.14,0.31,2.08,0.87,2.82
			c0.56,0.74,1.34,1.11,2.34,1.11c0.73,0,1.38-0.1,1.93-0.31s1.03-0.5,1.44-0.86l0.85,1.41c-0.43,0.41-0.99,0.76-1.69,1.04
			S176.17,91.81,175.19,91.81z M174.86,81.16c-0.73,0-1.34,0.31-1.86,0.92c-0.51,0.61-0.83,1.38-0.95,2.3l0.02,0.05h5.49v-0.29
			c0-0.85-0.23-1.56-0.68-2.13C176.43,81.45,175.76,81.16,174.86,81.16z"/>
		<path class="st3" d="M181.57,75.82v-1.4h3.96v15.46l1.79,0.31v1.39h-5.75v-1.39l1.79-0.31V76.13L181.57,75.82z"/>
		<path class="st3" d="M19.76,103.83v2.87h2.25v1.61h-2.25v7.22c0,0.56,0.12,0.95,0.35,1.18c0.23,0.23,0.54,0.34,0.92,0.34
			c0.19,0,0.41-0.02,0.64-0.05s0.44-0.07,0.6-0.1l0.3,1.48c-0.21,0.13-0.51,0.24-0.9,0.32s-0.79,0.13-1.19,0.13
			c-0.88,0-1.58-0.27-2.1-0.8c-0.52-0.53-0.78-1.37-0.78-2.5v-7.22h-1.88v-1.61h1.88v-2.87H19.76z"/>
		<path class="st3" d="M24.02,112.54c0-1.76,0.48-3.21,1.43-4.35s2.25-1.71,3.88-1.71c1.64,0,2.94,0.57,3.9,1.7
			c0.96,1.14,1.44,2.59,1.44,4.36v0.24c0,1.77-0.48,3.23-1.43,4.36s-2.25,1.69-3.88,1.69c-1.65,0-2.95-0.57-3.9-1.7
			s-1.43-2.58-1.43-4.35V112.54z M26.18,112.79c0,1.26,0.27,2.3,0.8,3.12c0.53,0.82,1.32,1.23,2.37,1.23c1.03,0,1.81-0.41,2.34-1.23
			c0.53-0.82,0.8-1.86,0.8-3.12v-0.24c0-1.25-0.27-2.28-0.8-3.11c-0.54-0.83-1.32-1.24-2.37-1.24s-1.83,0.41-2.35,1.24
			c-0.53,0.83-0.79,1.87-0.79,3.11V112.79z"/>
		<path class="st3" d="M42.25,112.87c0-1.91,0.42-3.46,1.25-4.63c0.84-1.17,1.99-1.76,3.46-1.76c0.75,0,1.4,0.15,1.97,0.44
			c0.56,0.29,1.04,0.72,1.42,1.28l0.2-1.5h1.83v11.75c0,1.54-0.43,2.75-1.29,3.63c-0.86,0.88-2.08,1.33-3.66,1.33
			c-0.57,0-1.19-0.08-1.86-0.24s-1.25-0.37-1.76-0.64l0.56-1.68c0.4,0.21,0.88,0.39,1.43,0.53s1.08,0.21,1.61,0.21
			c0.97,0,1.68-0.27,2.13-0.81c0.45-0.54,0.68-1.32,0.68-2.32v-1.13c-0.39,0.5-0.85,0.88-1.4,1.13c-0.54,0.26-1.17,0.38-1.87,0.38
			c-1.46,0-2.61-0.53-3.44-1.58s-1.25-2.44-1.25-4.15V112.87z M44.42,113.1c0,1.2,0.25,2.16,0.76,2.88s1.28,1.09,2.31,1.09
			c0.65,0,1.2-0.15,1.64-0.45c0.44-0.3,0.8-0.72,1.09-1.26v-5.48c-0.28-0.51-0.64-0.91-1.09-1.2c-0.45-0.3-0.99-0.45-1.62-0.45
			c-1.03,0-1.81,0.43-2.32,1.3c-0.51,0.87-0.77,1.98-0.77,3.33V113.1z"/>
		<path class="st3" d="M60.42,118.83c-1.66,0-2.97-0.55-3.95-1.66s-1.47-2.54-1.47-4.29v-0.48c0-1.69,0.5-3.1,1.51-4.23
			c1.01-1.12,2.2-1.69,3.58-1.69c1.6,0,2.81,0.48,3.63,1.45s1.24,2.26,1.24,3.87v1.35h-7.72l-0.03,0.05
			c0.02,1.14,0.31,2.08,0.87,2.82c0.56,0.74,1.34,1.11,2.34,1.11c0.73,0,1.38-0.1,1.93-0.31s1.03-0.5,1.44-0.86l0.85,1.41
			c-0.43,0.41-0.99,0.76-1.69,1.04S61.4,118.83,60.42,118.83z M60.09,108.19c-0.73,0-1.34,0.31-1.86,0.92
			c-0.51,0.61-0.83,1.38-0.95,2.3l0.02,0.05h5.49v-0.29c0-0.85-0.23-1.56-0.68-2.13C61.66,108.47,60.98,108.19,60.09,108.19z"/>
		<path class="st3" d="M70.87,103.83v2.87h2.25v1.61h-2.25v7.22c0,0.56,0.12,0.95,0.35,1.18c0.23,0.23,0.54,0.34,0.92,0.34
			c0.19,0,0.41-0.02,0.64-0.05s0.44-0.07,0.6-0.1l0.3,1.48c-0.21,0.13-0.51,0.24-0.9,0.32s-0.79,0.13-1.19,0.13
			c-0.88,0-1.58-0.27-2.1-0.8c-0.52-0.53-0.78-1.37-0.78-2.5v-7.22h-1.88v-1.61h1.88v-2.87H70.87z"/>
		<path class="st3" d="M92.24,108.1l-1.07,0.17l-4.53,12.16c-0.3,0.8-0.73,1.5-1.3,2.09s-1.32,0.89-2.28,0.89
			c-0.17,0-0.39-0.02-0.66-0.06s-0.48-0.08-0.63-0.12l0.22-1.7c-0.04-0.01,0.09,0,0.39,0.02c0.3,0.02,0.5,0.03,0.58,0.03
			c0.46,0,0.84-0.2,1.12-0.6s0.54-0.86,0.75-1.38l0.52-1.23l-3.93-10.1l-1.09-0.18v-1.4h4.81v1.4l-1.34,0.22l2.06,5.87l0.4,1.52
			h0.07l2.47-7.39l-1.35-0.22v-1.4h4.79V108.1z"/>
		<path class="st3" d="M99,118.83c-1.66,0-2.97-0.55-3.95-1.66s-1.47-2.54-1.47-4.29v-0.48c0-1.69,0.5-3.1,1.51-4.23
			c1.01-1.12,2.2-1.69,3.58-1.69c1.6,0,2.81,0.48,3.63,1.45s1.24,2.26,1.24,3.87v1.35h-7.72l-0.03,0.05
			c0.02,1.14,0.31,2.08,0.87,2.82c0.56,0.74,1.34,1.11,2.34,1.11c0.73,0,1.38-0.1,1.93-0.31s1.03-0.5,1.44-0.86l0.85,1.41
			c-0.43,0.41-0.99,0.76-1.69,1.04S99.99,118.83,99,118.83z M98.67,108.19c-0.73,0-1.34,0.31-1.86,0.92
			c-0.51,0.61-0.83,1.38-0.95,2.3l0.02,0.05h5.49v-0.29c0-0.85-0.23-1.56-0.68-2.13C100.24,108.47,99.57,108.19,98.67,108.19z"/>
		<path class="st3" d="M105.38,102.84v-1.4h3.96v15.46l1.79,0.31v1.39h-5.75v-1.39l1.79-0.31v-13.76L105.38,102.84z"/>
		<path class="st3" d="M112.47,102.84v-1.4h3.96v15.46l1.79,0.31v1.39h-5.75v-1.39l1.79-0.31v-13.76L112.47,102.84z"/>
		<path class="st3" d="M125.3,118.83c-1.66,0-2.97-0.55-3.95-1.66s-1.47-2.54-1.47-4.29v-0.48c0-1.69,0.5-3.1,1.51-4.23
			c1.01-1.12,2.2-1.69,3.58-1.69c1.6,0,2.81,0.48,3.63,1.45s1.24,2.26,1.24,3.87v1.35h-7.72l-0.03,0.05
			c0.02,1.14,0.31,2.08,0.87,2.82c0.56,0.74,1.34,1.11,2.34,1.11c0.73,0,1.38-0.1,1.93-0.31s1.03-0.5,1.44-0.86l0.85,1.41
			c-0.43,0.41-0.99,0.76-1.69,1.04S126.28,118.83,125.3,118.83z M124.97,108.19c-0.73,0-1.34,0.31-1.86,0.92
			c-0.51,0.61-0.83,1.38-0.95,2.3l0.02,0.05h5.49v-0.29c0-0.85-0.23-1.56-0.68-2.13C126.54,108.47,125.86,108.19,124.97,108.19z"/>
		<path class="st3" d="M139.99,117.18c-0.39,0.54-0.86,0.95-1.42,1.23s-1.21,0.42-1.95,0.42c-1.45,0-2.59-0.53-3.4-1.58
			s-1.23-2.44-1.23-4.15v-0.23c0-1.91,0.41-3.46,1.23-4.63c0.82-1.17,1.96-1.76,3.43-1.76c0.7,0,1.33,0.13,1.86,0.39
			c0.54,0.26,1,0.64,1.38,1.13v-4.85l-1.79-0.31v-1.4h1.79h2.17v15.46l1.79,0.31v1.39h-3.67L139.99,117.18z M134.15,113.1
			c0,1.2,0.25,2.16,0.74,2.88s1.25,1.09,2.28,1.09c0.65,0,1.19-0.15,1.63-0.44c0.44-0.29,0.8-0.71,1.09-1.24v-5.52
			c-0.28-0.5-0.64-0.89-1.09-1.19s-0.98-0.44-1.61-0.44c-1.03,0-1.8,0.43-2.29,1.29s-0.74,1.97-0.74,3.34V113.1z"/>
		<path class="st3" d="M158.85,118.6c-0.07-0.32-0.12-0.61-0.15-0.87c-0.04-0.26-0.06-0.51-0.08-0.77
			c-0.42,0.54-0.94,0.98-1.57,1.34s-1.3,0.53-2.01,0.53c-1.24,0-2.18-0.3-2.83-0.91c-0.65-0.61-0.97-1.46-0.97-2.56
			c0-1.13,0.46-2,1.37-2.61s2.17-0.92,3.76-0.92h2.23v-1.39c0-0.7-0.22-1.25-0.66-1.66c-0.44-0.41-1.05-0.61-1.84-0.61
			c-0.54,0-1.02,0.07-1.43,0.21c-0.41,0.14-0.75,0.33-1.01,0.57l-0.23,1.25h-1.67v-2.31c0.54-0.43,1.2-0.78,1.97-1.04
			c0.77-0.26,1.61-0.39,2.51-0.39c1.35,0,2.44,0.34,3.28,1.03c0.84,0.69,1.25,1.68,1.25,2.96v5.73c0,0.15,0,0.3,0.01,0.45
			c0,0.15,0.01,0.29,0.03,0.44l0.88,0.12v1.39H158.85z M155.36,117.02c0.72,0,1.37-0.17,1.97-0.52c0.59-0.34,1.02-0.76,1.28-1.24
			v-1.96h-2.31c-0.89,0-1.59,0.21-2.11,0.62c-0.52,0.41-0.77,0.91-0.77,1.5c0,0.52,0.16,0.92,0.48,1.19
			C154.22,116.88,154.71,117.02,155.36,117.02z"/>
		<path class="st3" d="M167.27,103.83v2.87h2.25v1.61h-2.25v7.22c0,0.56,0.12,0.95,0.35,1.18c0.23,0.23,0.54,0.34,0.92,0.34
			c0.19,0,0.41-0.02,0.64-0.05s0.44-0.07,0.6-0.1l0.3,1.48c-0.21,0.13-0.51,0.24-0.9,0.32s-0.79,0.13-1.19,0.13
			c-0.88,0-1.58-0.27-2.1-0.8c-0.52-0.53-0.78-1.37-0.78-2.5v-7.22h-1.88v-1.61h1.88v-2.87H167.27z"/>
		<path class="st3" d="M26.86,140.13c0,1.72-0.41,3.1-1.24,4.15c-0.83,1.05-1.96,1.58-3.4,1.58c-0.78,0-1.45-0.15-2.02-0.45
			c-0.57-0.3-1.05-0.74-1.43-1.31l-0.2,1.53H16.7v-15.45l-1.79-0.31v-1.4h3.96v6.66c0.37-0.53,0.84-0.93,1.39-1.21
			c0.55-0.28,1.2-0.42,1.94-0.42c1.47,0,2.61,0.59,3.43,1.76c0.82,1.17,1.23,2.72,1.23,4.63V140.13z M24.69,139.9
			c0-1.37-0.25-2.49-0.75-3.34s-1.26-1.29-2.29-1.29c-0.67,0-1.23,0.16-1.69,0.48s-0.82,0.75-1.09,1.3v5.26
			c0.27,0.55,0.64,0.99,1.11,1.31c0.46,0.32,1.03,0.48,1.7,0.48c1.02,0,1.78-0.36,2.27-1.09c0.49-0.73,0.74-1.69,0.74-2.88V139.9z"
			/>
		<path class="st3" d="M40.2,135.13l-1.07,0.17l-4.53,12.16c-0.3,0.8-0.73,1.5-1.3,2.09s-1.32,0.89-2.28,0.89
			c-0.17,0-0.39-0.02-0.66-0.06s-0.48-0.08-0.63-0.12l0.22-1.7c-0.04-0.01,0.09,0,0.39,0.02c0.3,0.02,0.5,0.03,0.58,0.03
			c0.46,0,0.84-0.2,1.12-0.6c0.29-0.4,0.54-0.86,0.75-1.38l0.52-1.23l-3.93-10.1l-1.09-0.18v-1.4h4.81v1.4l-1.34,0.22l2.06,5.87
			l0.4,1.52h0.07l2.47-7.39l-1.35-0.22v-1.4h4.79V135.13z"/>
		<path class="st3" d="M62.72,132.81l-0.06-0.01l-5.18,12.83h-1.44l-5.18-12.82l-0.06,0.01l0.22,6.48v4.64l1.79,0.31v1.39h-5.75
			v-1.39l1.79-0.31v-12.61l-1.79-0.31v-1.4h1.79h2.77l5.1,13.01h0.07l5.09-13.01h4.58v1.4l-1.79,0.31v12.61l1.79,0.31v1.39h-5.75
			v-1.39l1.79-0.31v-4.64L62.72,132.81z"/>
		<path class="st3" d="M68.23,139.57c0-1.76,0.48-3.21,1.43-4.35s2.25-1.71,3.88-1.71c1.64,0,2.94,0.57,3.9,1.7
			c0.96,1.14,1.44,2.59,1.44,4.36v0.24c0,1.77-0.48,3.23-1.43,4.36s-2.25,1.69-3.88,1.69c-1.65,0-2.95-0.57-3.9-1.7
			s-1.43-2.58-1.43-4.35V139.57z M70.4,139.81c0,1.26,0.27,2.3,0.8,3.12c0.53,0.82,1.32,1.23,2.37,1.23c1.03,0,1.81-0.41,2.34-1.23
			c0.53-0.82,0.8-1.86,0.8-3.12v-0.24c0-1.25-0.27-2.28-0.8-3.11c-0.54-0.83-1.32-1.24-2.37-1.24s-1.83,0.41-2.35,1.24
			c-0.53,0.83-0.79,1.87-0.79,3.11V139.81z"/>
		<path class="st3" d="M80.43,144.24l1.79-0.31v-8.5l-1.79-0.31v-1.4h3.74l0.14,1.55c0.38-0.56,0.87-1,1.47-1.31
			c0.6-0.31,1.3-0.46,2.09-0.46c0.79,0,1.47,0.18,2.04,0.55c0.57,0.37,1,0.92,1.28,1.65c0.37-0.67,0.87-1.21,1.49-1.61
			c0.62-0.4,1.33-0.59,2.16-0.59c1.22,0,2.18,0.42,2.88,1.25s1.06,2.08,1.06,3.75v5.42l1.79,0.31v1.39H94.8v-1.39l1.79-0.31v-5.44
			c0-1.17-0.2-2-0.6-2.49c-0.4-0.49-1-0.73-1.79-0.73c-0.76,0-1.36,0.27-1.82,0.8s-0.72,1.2-0.8,2.01v5.86l1.79,0.31v1.39h-5.75
			v-1.39l1.79-0.31v-5.44c0-1.11-0.21-1.93-0.62-2.45c-0.41-0.52-1.01-0.77-1.8-0.77c-0.66,0-1.2,0.14-1.63,0.41
			c-0.42,0.27-0.75,0.65-0.98,1.14v7.12l1.79,0.31v1.39h-5.75V144.24z"/>
		<path class="st3" d="M104.92,145.63h-2.17v-2.22h2.17V145.63z"/>
		<path class="st3" d="M110.34,145.63h-2.17v-2.22h2.17V145.63z"/>
		<path class="st3" d="M115.76,145.63h-2.17v-2.22h2.17V145.63z"/>
		<path class="st3" d="M135.39,134.35h-1.64l-0.41-2.29c-0.33-0.28-0.77-0.51-1.32-0.69s-1.19-0.28-1.91-0.28
			c-1.15,0-2.03,0.24-2.65,0.73c-0.62,0.49-0.92,1.12-0.92,1.91c0,0.7,0.31,1.28,0.94,1.74s1.64,0.87,3.04,1.23
			c1.69,0.42,2.97,1.03,3.84,1.85c0.88,0.81,1.31,1.82,1.31,3.02c0,1.29-0.53,2.33-1.58,3.11s-2.43,1.18-4.13,1.18
			c-1.23,0-2.33-0.2-3.28-0.61c-0.96-0.4-1.74-0.93-2.34-1.58v-2.98h1.63l0.42,2.3c0.42,0.34,0.92,0.63,1.5,0.85
			c0.58,0.22,1.27,0.33,2.08,0.33c1.09,0,1.96-0.23,2.59-0.69c0.63-0.46,0.95-1.09,0.95-1.88c0-0.73-0.28-1.35-0.83-1.84
			c-0.55-0.49-1.52-0.91-2.91-1.25c-1.69-0.4-3.02-1-3.97-1.78s-1.43-1.77-1.43-2.96c0-1.25,0.53-2.3,1.59-3.13
			c1.06-0.83,2.45-1.25,4.15-1.25c1.12,0,2.14,0.19,3.06,0.58s1.66,0.85,2.22,1.4V134.35z"/>
		<path class="st3" d="M137.71,144.24l1.79-0.31v-8.5l-1.79-0.31v-1.4h3.96v10.21l1.79,0.31v1.39h-5.75V144.24z M141.67,130.68
			h-2.17v-2.21h2.17V130.68z"/>
		<path class="st3" d="M145.13,139.9c0-1.91,0.42-3.46,1.25-4.63c0.84-1.17,1.99-1.76,3.46-1.76c0.75,0,1.4,0.15,1.97,0.44
			c0.56,0.29,1.04,0.72,1.42,1.28l0.2-1.5h1.83v11.75c0,1.54-0.43,2.75-1.29,3.63c-0.86,0.88-2.08,1.33-3.66,1.33
			c-0.57,0-1.19-0.08-1.86-0.24s-1.25-0.37-1.76-0.64l0.56-1.68c0.4,0.21,0.88,0.39,1.43,0.53s1.08,0.21,1.61,0.21
			c0.97,0,1.68-0.27,2.13-0.81c0.45-0.54,0.68-1.32,0.68-2.32v-1.13c-0.39,0.5-0.85,0.88-1.4,1.13c-0.54,0.26-1.17,0.38-1.87,0.38
			c-1.46,0-2.61-0.53-3.44-1.58s-1.25-2.44-1.25-4.15V139.9z M147.29,140.13c0,1.2,0.25,2.16,0.76,2.88s1.28,1.09,2.31,1.09
			c0.65,0,1.2-0.15,1.64-0.45c0.44-0.3,0.8-0.72,1.09-1.26v-5.48c-0.28-0.51-0.64-0.91-1.09-1.2c-0.45-0.3-0.99-0.45-1.62-0.45
			c-1.03,0-1.81,0.43-2.32,1.3c-0.51,0.87-0.77,1.98-0.77,3.33V140.13z"/>
		<path class="st3" d="M157.56,144.24l1.79-0.31v-13.76l-1.79-0.31v-1.4h3.96v6.84c0.41-0.57,0.91-1.02,1.51-1.33
			s1.25-0.47,1.98-0.47c1.28,0,2.26,0.38,2.97,1.14s1.06,1.94,1.06,3.52v5.76l1.79,0.31v1.39h-5.75v-1.39l1.79-0.31v-5.78
			c0-0.98-0.21-1.71-0.63-2.18c-0.42-0.47-1.05-0.7-1.89-0.7c-0.59,0-1.13,0.14-1.62,0.42s-0.89,0.67-1.2,1.15v7.09l1.79,0.31v1.39
			h-5.75V144.24z"/>
	</g>
</g>
</svg>
