<svg xmlns="http://www.w3.org/2000/svg" viewBox="0 0 530.6 118.77"><path d="M428.66 61.25c-.2-.24-.48-.38-.8-.38H12a11.01 11.01 0 0 1-11-11V12A11.01 11.01 0 0 1 12 1h506.6a11.01 11.01 0 0 1 11 11v37.86a11.01 11.01 0 0 1-11 11h-56.3c-.3 0-.58.13-.77.36a1.02 1.02 0 0 0-.22.82l9.44 52.96-42.08-53.75z" fill="#ee3125"/><path d="M518.6 2a10.02 10.02 0 0 1 10 10v37.86a10.02 10.02 0 0 1-10 10h-56.3a1.98 1.98 0 0 0-1.53.72c-.38.45-.54 1.05-.44 1.63l8.73 49-39.6-50.58c-.38-.48-.96-.77-1.57-.77H12a10.02 10.02 0 0 1-10-10V12A10.02 10.02 0 0 1 12 2h506.6m0-2H12A12.04 12.04 0 0 0 0 12v37.86a12.04 12.04 0 0 0 12 12h415.88l44.55 56.9-10.14-56.9h56.3a12.04 12.04 0 0 0 12-12V12a12.04 12.04 0 0 0-12-12z"/><text transform="translate(17.039 36.99)" fill="#fff" font-family="RobotoSlab-Regular" font-size="24">Can we compromise on a Christmas movie?</text></svg>