<?xml version="1.0" encoding="utf-8"?>
<!-- Generator: Adobe Illustrator 24.0.0, SVG Export Plug-In . SVG Version: 6.00 Build 0)  -->
<svg version="1.1" id="Layer_1" xmlns="http://www.w3.org/2000/svg" xmlns:xlink="http://www.w3.org/1999/xlink" x="0px" y="0px"
	 viewBox="0 0 530.6 118.77" style="enable-background:new 0 0 530.6 118.77;" xml:space="preserve">
<style type="text/css">
	.st0{fill:#EE3125;}
	.st1{fill:none;}
	.st2{fill:#FFFFFF;}
	.st3{font-family:'RobotoSlab-Regular';}
	.st4{font-size:24px;}
</style>
<g>
	<path class="st0" d="M428.66,61.25c-0.19-0.24-0.48-0.38-0.79-0.38H12c-6.07,0-11-4.93-11-11V12C1,5.93,5.93,1,12,1h506.6
		c6.07,0,11,4.93,11,11v37.86c0,6.07-4.93,11-11,11h-56.31c-0.3,0-0.58,0.13-0.77,0.36c-0.19,0.23-0.27,0.53-0.22,0.82l9.44,52.96
		L428.66,61.25z"/>
	<path d="M518.6,2c5.51,0,10,4.49,10,10v37.86c0,5.51-4.49,10-10,10h-56.31c-0.59,0-1.15,0.26-1.53,0.72
		c-0.38,0.45-0.54,1.05-0.44,1.63l8.73,49l-39.6-50.58c-0.38-0.48-0.96-0.77-1.57-0.77H12c-5.51,0-10-4.49-10-10V12
		C2,6.49,6.49,2,12,2H518.6 M518.6,0H12C5.4,0,0,5.4,0,12v37.86c0,6.6,5.4,12,12,12h415.88l44.55,56.91l-10.14-56.91h56.31
		c6.6,0,12-5.4,12-12V12C530.6,5.4,525.2,0,518.6,0L518.6,0z"/>
</g>
<rect x="9.28" y="18.71" class="st1" width="512.44" height="36.29"/>
<text transform="matrix(1 0 0 1 17.0387 36.9896)" class="st2 st3 st4">Can we compromise on a Christmas movie?</text>
</svg>
