<?xml version="1.0" encoding="utf-8"?>
<!-- Generator: Adobe Illustrator 24.0.0, SVG Export Plug-In . SVG Version: 6.00 Build 0)  -->
<svg version="1.1" id="Layer_1" xmlns="http://www.w3.org/2000/svg" xmlns:xlink="http://www.w3.org/1999/xlink" x="0px" y="0px"
	 viewBox="0 0 530.6 118.77" style="enable-background:new 0 0 530.6 118.77;" xml:space="preserve">
<style type="text/css">
	.st0{fill:#EE3125;}
	.st1{enable-background:new    ;}
	.st2{fill:#FFFFFF;}
</style>
<path class="st0" d="M428.66,61.25c-0.2-0.24-0.48-0.38-0.8-0.38H12c-6.07-0.01-10.99-4.93-11-11V12C1.01,5.93,5.93,1.01,12,1h506.6
	c6.07,0.01,10.99,4.93,11,11v37.86c-0.01,6.07-4.93,10.99-11,11h-56.3c-0.3,0-0.58,0.13-0.77,0.36c-0.19,0.23-0.27,0.53-0.22,0.82
	l9.44,52.96L428.66,61.25L428.66,61.25z"/>
<path d="M518.6,2c5.52,0.01,9.99,4.48,10,10v37.86c-0.01,5.52-4.48,9.99-10,10h-56.3c-0.59,0-1.15,0.26-1.53,0.72
	c-0.38,0.45-0.54,1.05-0.44,1.63l8.73,49l-39.6-50.58c-0.38-0.48-0.96-0.77-1.57-0.77H12c-5.52-0.01-9.99-4.48-10-10V12
	C2.01,6.48,6.48,2.01,12,2H518.6 M518.6,0H12C5.38,0.02,0.02,5.38,0,12v37.86c0.02,6.62,5.38,11.98,12,12h415.88l44.55,56.9
	l-10.14-56.9h56.3c6.62-0.02,11.98-5.38,12-12V12c-0.02-6.62-5.38-11.98-12-12H518.6z"/>
<g class="st1">
	<path class="st2" d="M31.1,25.17h-1.63l-0.43-2.41c-0.38-0.37-0.84-0.67-1.38-0.9s-1.2-0.35-1.96-0.35c-1.77,0-3.14,0.64-4.09,1.93
		s-1.43,2.92-1.43,4.89v0.27c0,1.98,0.47,3.61,1.4,4.9s2.23,1.94,3.88,1.94c0.77,0,1.48-0.12,2.11-0.36s1.12-0.54,1.46-0.89
		l0.43-2.41h1.63v3.04c-0.49,0.63-1.23,1.2-2.21,1.69s-2.12,0.74-3.42,0.74c-2.22,0-4.04-0.82-5.46-2.46s-2.13-3.7-2.13-6.19v-0.25
		c0-2.5,0.7-4.57,2.1-6.21s3.23-2.46,5.5-2.46c1.3,0,2.44,0.25,3.42,0.76s1.72,1.07,2.21,1.69V25.17z"/>
	<path class="st2" d="M41.84,36.99c-0.07-0.34-0.12-0.65-0.16-0.93s-0.07-0.55-0.08-0.82c-0.45,0.57-1,1.04-1.67,1.42
		s-1.38,0.57-2.14,0.57c-1.32,0-2.32-0.32-3.01-0.97s-1.03-1.55-1.03-2.72c0-1.2,0.49-2.13,1.46-2.78s2.31-0.98,4-0.98h2.38v-1.48
		c0-0.74-0.23-1.33-0.7-1.76s-1.12-0.65-1.96-0.65c-0.58,0-1.09,0.07-1.53,0.22s-0.8,0.35-1.07,0.61l-0.25,1.34h-1.78V25.6
		c0.58-0.46,1.28-0.83,2.1-1.11s1.71-0.42,2.67-0.42c1.44,0,2.6,0.37,3.49,1.1s1.34,1.79,1.34,3.15v6.11c0,0.16,0,0.32,0.01,0.48
		s0.01,0.31,0.03,0.47l0.94,0.13v1.48H41.84z M38.12,35.3c0.77,0,1.46-0.18,2.1-0.55s1.09-0.81,1.36-1.32v-2.09h-2.46
		c-0.95,0-1.69,0.22-2.24,0.66s-0.83,0.97-0.83,1.59c0,0.55,0.17,0.98,0.52,1.27S37.43,35.3,38.12,35.3z"/>
	<path class="st2" d="M46.44,35.51l1.91-0.33v-9.06l-1.91-0.33v-1.49h3.97l0.16,1.89c0.42-0.67,0.95-1.19,1.59-1.56
		s1.36-0.56,2.17-0.56c1.37,0,2.43,0.4,3.18,1.2s1.12,2.04,1.12,3.71v6.2l1.91,0.33v1.48h-6.13v-1.48l1.91-0.33v-6.15
		c0-1.12-0.22-1.91-0.66-2.38s-1.12-0.7-2.02-0.7c-0.66,0-1.25,0.16-1.76,0.48s-0.92,0.76-1.22,1.31v7.44l1.91,0.33v1.48h-6.13
		V35.51z"/>
	<path class="st2" d="M72.69,25.8l-1.45,0.26l1.65,6.32l0.27,1.54h0.07l0.33-1.54l2.53-8.06h1.85l2.54,8.06l0.36,1.71h0.07
		l0.34-1.71l1.56-6.32l-1.48-0.26v-1.49h4.83v1.49l-1.1,0.16l-3.2,11.03H80l-2.46-7.72l-0.53-2.13l-0.07,0.01l-0.49,2.12l-2.41,7.72
		h-1.86l-3.2-11.03l-1.11-0.16v-1.49h4.83V25.8z"/>
	<path class="st2" d="M93.82,37.24c-1.77,0-3.17-0.59-4.21-1.76s-1.56-2.7-1.56-4.58v-0.52c0-1.8,0.54-3.31,1.61-4.51
		s2.35-1.8,3.81-1.8c1.7,0,2.99,0.52,3.87,1.55s1.32,2.41,1.32,4.12v1.44h-8.23l-0.04,0.06c0.02,1.22,0.33,2.22,0.93,3.01
		s1.43,1.18,2.5,1.18c0.78,0,1.47-0.11,2.06-0.33s1.1-0.53,1.53-0.92l0.9,1.5c-0.45,0.44-1.05,0.81-1.8,1.11
		S94.87,37.24,93.82,37.24z M93.47,25.89c-0.77,0-1.43,0.33-1.98,0.98s-0.88,1.47-1.01,2.46l0.02,0.06h5.85v-0.3
		c0-0.91-0.24-1.66-0.73-2.27S94.42,25.89,93.47,25.89z"/>
	<path class="st2" d="M112.59,35.43c0.77,0,1.44-0.24,2.02-0.71s0.87-1.05,0.87-1.74h2.07l0.02,0.07c0.04,1.09-0.45,2.06-1.46,2.91
		s-2.19,1.27-3.53,1.27c-1.84,0-3.25-0.6-4.22-1.8s-1.46-2.71-1.46-4.54V30.4c0-1.8,0.49-3.31,1.46-4.52s2.38-1.81,4.22-1.81
		c1.02,0,1.93,0.17,2.74,0.5s1.48,0.8,2.01,1.38l0.11,2.81h-1.84l-0.5-1.99c-0.27-0.27-0.62-0.48-1.05-0.64s-0.91-0.25-1.45-0.25
		c-1.21,0-2.08,0.44-2.6,1.31s-0.78,1.94-0.78,3.21v0.49c0,1.3,0.26,2.38,0.77,3.24S111.38,35.43,112.59,35.43z"/>
	<path class="st2" d="M119.85,30.53c0-1.88,0.51-3.42,1.52-4.63s2.39-1.82,4.14-1.82c1.75,0,3.13,0.61,4.15,1.82
		s1.53,2.76,1.53,4.64v0.26c0,1.89-0.51,3.44-1.52,4.64s-2.39,1.8-4.14,1.8c-1.76,0-3.14-0.6-4.16-1.81s-1.52-2.75-1.52-4.63V30.53z
		 M122.16,30.79c0,1.34,0.28,2.45,0.85,3.33s1.41,1.31,2.53,1.31c1.09,0,1.93-0.44,2.5-1.31s0.86-1.98,0.86-3.33v-0.26
		c0-1.33-0.29-2.43-0.86-3.32s-1.41-1.32-2.52-1.32s-1.95,0.44-2.51,1.32s-0.84,1.99-0.84,3.32V30.79z"/>
	<path class="st2" d="M132.84,35.51l1.91-0.33v-9.06l-1.91-0.33v-1.49h3.98l0.15,1.65c0.41-0.6,0.93-1.07,1.57-1.39
		s1.38-0.49,2.23-0.49s1.57,0.2,2.17,0.59s1.06,0.98,1.37,1.76c0.4-0.72,0.93-1.29,1.58-1.71s1.42-0.63,2.3-0.63
		c1.3,0,2.32,0.44,3.07,1.33s1.12,2.22,1.12,4v5.78l1.91,0.33v1.48h-6.14v-1.48l1.91-0.33v-5.8c0-1.25-0.21-2.13-0.64-2.65
		s-1.07-0.78-1.91-0.78c-0.8,0-1.45,0.28-1.94,0.85s-0.77,1.28-0.85,2.14v6.25l1.91,0.33v1.48h-6.13v-1.48l1.91-0.33v-5.8
		c0-1.19-0.22-2.06-0.66-2.61s-1.08-0.83-1.92-0.83c-0.7,0-1.28,0.14-1.73,0.43s-0.8,0.7-1.04,1.22v7.58l1.91,0.33v1.48h-6.13V35.51
		z"/>
	<path class="st2" d="M155.7,40.38l1.91-0.33V26.13l-1.91-0.33v-1.49h3.89l0.21,1.55c0.42-0.58,0.94-1.02,1.54-1.32
		s1.31-0.46,2.1-0.46c1.57,0,2.79,0.62,3.66,1.87s1.31,2.89,1.31,4.94v0.25c0,1.83-0.44,3.3-1.31,4.42s-2.08,1.68-3.62,1.68
		c-0.78,0-1.47-0.13-2.06-0.39s-1.09-0.65-1.51-1.17v4.37l1.91,0.33v1.49h-6.13V40.38z M166.09,30.88c0-1.45-0.28-2.63-0.84-3.55
		s-1.4-1.38-2.51-1.38c-0.66,0-1.22,0.15-1.69,0.45s-0.85,0.7-1.14,1.22v6.18c0.29,0.52,0.67,0.93,1.13,1.21s1.04,0.43,1.72,0.43
		c1.09,0,1.92-0.4,2.48-1.2s0.84-1.83,0.84-3.11V30.88z"/>
	<path class="st2" d="M170.51,25.8v-1.49h3.97l0.22,1.84c0.36-0.65,0.8-1.16,1.33-1.52s1.13-0.55,1.81-0.55
		c0.18,0,0.37,0.01,0.56,0.04s0.34,0.06,0.44,0.09l-0.3,2.14l-1.31-0.07c-0.61,0-1.12,0.14-1.54,0.43s-0.73,0.69-0.96,1.2v7.28
		l1.91,0.33v1.48h-6.13v-1.48l1.91-0.33v-9.06L170.51,25.8z"/>
	<path class="st2" d="M180.21,30.53c0-1.88,0.51-3.42,1.52-4.63s2.39-1.82,4.14-1.82c1.75,0,3.13,0.61,4.15,1.82
		s1.53,2.76,1.53,4.64v0.26c0,1.89-0.51,3.44-1.52,4.64s-2.39,1.8-4.14,1.8c-1.76,0-3.14-0.6-4.16-1.81s-1.52-2.75-1.52-4.63V30.53z
		 M182.52,30.79c0,1.34,0.28,2.45,0.85,3.33s1.41,1.31,2.53,1.31c1.09,0,1.93-0.44,2.5-1.31s0.86-1.98,0.86-3.33v-0.26
		c0-1.33-0.29-2.43-0.86-3.32s-1.41-1.32-2.52-1.32s-1.95,0.44-2.51,1.32s-0.84,1.99-0.84,3.32V30.79z"/>
	<path class="st2" d="M193.21,35.51l1.91-0.33v-9.06l-1.91-0.33v-1.49h3.98l0.15,1.65c0.41-0.6,0.93-1.07,1.57-1.39
		s1.38-0.49,2.23-0.49s1.57,0.2,2.17,0.59s1.06,0.98,1.37,1.76c0.4-0.72,0.93-1.29,1.58-1.71s1.42-0.63,2.3-0.63
		c1.3,0,2.32,0.44,3.07,1.33s1.12,2.22,1.12,4v5.78l1.91,0.33v1.48h-6.14v-1.48l1.91-0.33v-5.8c0-1.25-0.21-2.13-0.64-2.65
		s-1.07-0.78-1.91-0.78c-0.8,0-1.45,0.28-1.94,0.85s-0.77,1.28-0.85,2.14v6.25l1.91,0.33v1.48h-6.13v-1.48l1.91-0.33v-5.8
		c0-1.19-0.22-2.06-0.66-2.61s-1.08-0.83-1.92-0.83c-0.7,0-1.28,0.14-1.73,0.43s-0.8,0.7-1.04,1.22v7.58l1.91,0.33v1.48h-6.13V35.51
		z"/>
	<path class="st2" d="M216.34,35.51l1.91-0.33v-9.06l-1.91-0.33v-1.49h4.22v10.88l1.91,0.33v1.48h-6.13V35.51z M220.56,21.06h-2.31
		v-2.36h2.31V21.06z"/>
	<path class="st2" d="M233.93,28.29h-1.73l-0.38-1.52c-0.28-0.27-0.63-0.48-1.06-0.64s-0.91-0.24-1.45-0.24
		c-0.82,0-1.43,0.18-1.83,0.54s-0.6,0.79-0.6,1.3c0,0.5,0.18,0.89,0.53,1.18s1.07,0.55,2.14,0.77c1.6,0.34,2.79,0.81,3.57,1.4
		s1.17,1.38,1.17,2.37c0,1.12-0.46,2.04-1.37,2.73s-2.1,1.04-3.57,1.04c-0.96,0-1.82-0.11-2.59-0.33s-1.45-0.54-2.05-0.97
		l-0.01-2.89h1.73l0.43,1.7c0.27,0.24,0.63,0.42,1.08,0.53s0.92,0.16,1.4,0.16c0.82,0,1.46-0.17,1.93-0.5s0.7-0.77,0.7-1.31
		c0-0.51-0.19-0.93-0.58-1.25s-1.12-0.61-2.2-0.86c-1.54-0.34-2.7-0.79-3.48-1.37s-1.17-1.36-1.17-2.34c0-1.03,0.44-1.91,1.32-2.64
		s2.02-1.09,3.43-1.09c0.96,0,1.82,0.12,2.59,0.38s1.4,0.6,1.91,1.04L233.93,28.29z"/>
	<path class="st2" d="M242.25,37.24c-1.77,0-3.17-0.59-4.21-1.76s-1.56-2.7-1.56-4.58v-0.52c0-1.8,0.54-3.31,1.61-4.51
		s2.35-1.8,3.81-1.8c1.7,0,2.99,0.52,3.87,1.55s1.32,2.41,1.32,4.12v1.44h-8.23l-0.04,0.06c0.02,1.22,0.33,2.22,0.93,3.01
		s1.43,1.18,2.5,1.18c0.78,0,1.47-0.11,2.06-0.33s1.1-0.53,1.53-0.92l0.9,1.5c-0.45,0.44-1.05,0.81-1.8,1.11
		S243.3,37.24,242.25,37.24z M241.9,25.89c-0.77,0-1.43,0.33-1.98,0.98s-0.88,1.47-1.01,2.46l0.02,0.06h5.85v-0.3
		c0-0.91-0.24-1.66-0.73-2.27S242.85,25.89,241.9,25.89z"/>
	<path class="st2" d="M255.34,30.53c0-1.88,0.51-3.42,1.52-4.63s2.39-1.82,4.14-1.82c1.75,0,3.13,0.61,4.15,1.82
		s1.53,2.76,1.53,4.64v0.26c0,1.89-0.51,3.44-1.52,4.64s-2.39,1.8-4.14,1.8c-1.76,0-3.14-0.6-4.16-1.81s-1.52-2.75-1.52-4.63V30.53z
		 M257.65,30.79c0,1.34,0.28,2.45,0.85,3.33s1.41,1.31,2.53,1.31c1.09,0,1.93-0.44,2.5-1.31s0.86-1.98,0.86-3.33v-0.26
		c0-1.33-0.29-2.43-0.86-3.32s-1.41-1.32-2.52-1.32s-1.95,0.44-2.51,1.32s-0.84,1.99-0.84,3.32V30.79z"/>
	<path class="st2" d="M268.45,35.51l1.91-0.33v-9.06l-1.91-0.33v-1.49h3.97l0.16,1.89c0.42-0.67,0.95-1.19,1.59-1.56
		s1.36-0.56,2.17-0.56c1.37,0,2.43,0.4,3.18,1.2s1.12,2.04,1.12,3.71v6.2l1.91,0.33v1.48h-6.13v-1.48l1.91-0.33v-6.15
		c0-1.12-0.22-1.91-0.66-2.38s-1.12-0.7-2.02-0.7c-0.66,0-1.25,0.16-1.76,0.48s-0.92,0.76-1.22,1.31v7.44l1.91,0.33v1.48h-6.13
		V35.51z"/>
	<path class="st2" d="M298.48,36.99c-0.07-0.34-0.12-0.65-0.16-0.93s-0.07-0.55-0.08-0.82c-0.45,0.57-1,1.04-1.67,1.42
		s-1.38,0.57-2.14,0.57c-1.32,0-2.32-0.32-3.01-0.97s-1.03-1.55-1.03-2.72c0-1.2,0.49-2.13,1.46-2.78s2.31-0.98,4-0.98h2.38v-1.48
		c0-0.74-0.23-1.33-0.7-1.76s-1.12-0.65-1.96-0.65c-0.58,0-1.09,0.07-1.53,0.22s-0.8,0.35-1.07,0.61l-0.25,1.34h-1.78V25.6
		c0.58-0.46,1.28-0.83,2.1-1.11s1.71-0.42,2.67-0.42c1.44,0,2.6,0.37,3.49,1.1s1.34,1.79,1.34,3.15v6.11c0,0.16,0,0.32,0.01,0.48
		s0.01,0.31,0.03,0.47l0.94,0.13v1.48H298.48z M294.76,35.3c0.77,0,1.46-0.18,2.1-0.55s1.09-0.81,1.36-1.32v-2.09h-2.46
		c-0.95,0-1.69,0.22-2.24,0.66s-0.83,0.97-0.83,1.59c0,0.55,0.17,0.98,0.52,1.27S294.07,35.3,294.76,35.3z"/>
	<path class="st2" d="M322.41,25.17h-1.63l-0.43-2.41c-0.38-0.37-0.84-0.67-1.38-0.9s-1.2-0.35-1.96-0.35
		c-1.77,0-3.14,0.64-4.09,1.93s-1.43,2.92-1.43,4.89v0.27c0,1.98,0.47,3.61,1.4,4.9s2.23,1.94,3.88,1.94c0.77,0,1.48-0.12,2.11-0.36
		s1.12-0.54,1.46-0.89l0.43-2.41h1.63v3.04c-0.49,0.63-1.23,1.2-2.21,1.69s-2.12,0.74-3.42,0.74c-2.22,0-4.04-0.82-5.46-2.46
		s-2.13-3.7-2.13-6.19v-0.25c0-2.5,0.7-4.57,2.1-6.21s3.23-2.46,5.5-2.46c1.3,0,2.44,0.25,3.42,0.76s1.72,1.07,2.21,1.69V25.17z"/>
	<path class="st2" d="M324.55,35.51l1.91-0.33V20.53l-1.91-0.33v-1.49h4.22V26c0.44-0.61,0.97-1.08,1.61-1.42s1.34-0.5,2.11-0.5
		c1.36,0,2.41,0.41,3.16,1.22s1.12,2.06,1.12,3.75v6.14l1.91,0.33v1.48h-6.13v-1.48l1.91-0.33v-6.16c0-1.05-0.22-1.82-0.67-2.32
		s-1.12-0.75-2.01-0.75c-0.63,0-1.21,0.15-1.73,0.45s-0.95,0.71-1.28,1.22v7.56l1.91,0.33v1.48h-6.13V35.51z"/>
	<path class="st2" d="M340.36,25.8v-1.49h3.97l0.22,1.84c0.36-0.65,0.8-1.16,1.33-1.52s1.13-0.55,1.81-0.55
		c0.18,0,0.37,0.01,0.56,0.04s0.34,0.06,0.44,0.09l-0.3,2.14l-1.31-0.07c-0.61,0-1.12,0.14-1.54,0.43s-0.73,0.69-0.96,1.2v7.28
		l1.91,0.33v1.48h-6.13v-1.48l1.91-0.33v-9.06L340.36,25.8z"/>
	<path class="st2" d="M350.29,35.51l1.91-0.33v-9.06l-1.91-0.33v-1.49h4.22v10.88l1.91,0.33v1.48h-6.13V35.51z M354.5,21.06h-2.31
		v-2.36h2.31V21.06z"/>
	<path class="st2" d="M367.88,28.29h-1.73l-0.38-1.52c-0.28-0.27-0.63-0.48-1.06-0.64s-0.91-0.24-1.45-0.24
		c-0.82,0-1.43,0.18-1.83,0.54s-0.6,0.79-0.6,1.3c0,0.5,0.18,0.89,0.53,1.18s1.07,0.55,2.14,0.77c1.6,0.34,2.79,0.81,3.57,1.4
		s1.17,1.38,1.17,2.37c0,1.12-0.46,2.04-1.37,2.73s-2.1,1.04-3.57,1.04c-0.96,0-1.82-0.11-2.59-0.33s-1.45-0.54-2.05-0.97
		l-0.01-2.89h1.73l0.43,1.7c0.27,0.24,0.63,0.42,1.08,0.53s0.92,0.16,1.4,0.16c0.82,0,1.46-0.17,1.93-0.5s0.7-0.77,0.7-1.31
		c0-0.51-0.19-0.93-0.58-1.25s-1.12-0.61-2.2-0.86c-1.54-0.34-2.7-0.79-3.48-1.37s-1.17-1.36-1.17-2.34c0-1.03,0.44-1.91,1.32-2.64
		s2.02-1.09,3.43-1.09c0.96,0,1.82,0.12,2.59,0.38s1.4,0.6,1.91,1.04L367.88,28.29z"/>
	<path class="st2" d="M374.44,21.25v3.06h2.4v1.71h-2.4v7.7c0,0.59,0.12,1.01,0.37,1.25s0.57,0.36,0.98,0.36
		c0.2,0,0.43-0.02,0.69-0.05s0.47-0.07,0.64-0.11l0.32,1.58c-0.22,0.14-0.54,0.26-0.96,0.35s-0.84,0.13-1.27,0.13
		c-0.94,0-1.68-0.28-2.24-0.85s-0.83-1.46-0.83-2.67v-7.7h-2v-1.71h2v-3.06H374.44z"/>
	<path class="st2" d="M378.74,35.51l1.91-0.33v-9.06l-1.91-0.33v-1.49h3.98l0.15,1.65c0.41-0.6,0.93-1.07,1.57-1.39
		s1.38-0.49,2.23-0.49s1.57,0.2,2.17,0.59s1.06,0.98,1.37,1.76c0.4-0.72,0.93-1.29,1.58-1.71s1.42-0.63,2.3-0.63
		c1.3,0,2.32,0.44,3.07,1.33s1.12,2.22,1.12,4v5.78l1.91,0.33v1.48h-6.14v-1.48l1.91-0.33v-5.8c0-1.25-0.21-2.13-0.64-2.65
		s-1.07-0.78-1.91-0.78c-0.8,0-1.45,0.28-1.94,0.85s-0.77,1.28-0.85,2.14v6.25l1.91,0.33v1.48h-6.13v-1.48l1.91-0.33v-5.8
		c0-1.19-0.22-2.06-0.66-2.61s-1.08-0.83-1.92-0.83c-0.7,0-1.28,0.14-1.73,0.43s-0.8,0.7-1.04,1.22v7.58l1.91,0.33v1.48h-6.13V35.51
		z"/>
	<path class="st2" d="M410.14,36.99c-0.07-0.34-0.12-0.65-0.16-0.93s-0.07-0.55-0.08-0.82c-0.45,0.57-1,1.04-1.67,1.42
		s-1.38,0.57-2.14,0.57c-1.32,0-2.32-0.32-3.01-0.97s-1.03-1.55-1.03-2.72c0-1.2,0.49-2.13,1.46-2.78s2.31-0.98,4-0.98h2.38v-1.48
		c0-0.74-0.23-1.33-0.7-1.76s-1.12-0.65-1.96-0.65c-0.58,0-1.09,0.07-1.53,0.22s-0.8,0.35-1.07,0.61l-0.25,1.34h-1.78V25.6
		c0.58-0.46,1.28-0.83,2.1-1.11s1.71-0.42,2.67-0.42c1.44,0,2.6,0.37,3.49,1.1s1.34,1.79,1.34,3.15v6.11c0,0.16,0,0.32,0.01,0.48
		s0.01,0.31,0.03,0.47l0.94,0.13v1.48H410.14z M406.43,35.3c0.77,0,1.46-0.18,2.1-0.55s1.09-0.81,1.36-1.32v-2.09h-2.46
		c-0.95,0-1.69,0.22-2.24,0.66s-0.83,0.97-0.83,1.59c0,0.55,0.17,0.98,0.52,1.27S405.73,35.3,406.43,35.3z"/>
	<path class="st2" d="M424.79,28.29h-1.73l-0.38-1.52c-0.28-0.27-0.63-0.48-1.06-0.64s-0.91-0.24-1.45-0.24
		c-0.82,0-1.43,0.18-1.83,0.54s-0.6,0.79-0.6,1.3c0,0.5,0.18,0.89,0.53,1.18s1.07,0.55,2.14,0.77c1.6,0.34,2.79,0.81,3.57,1.4
		s1.17,1.38,1.17,2.37c0,1.12-0.46,2.04-1.37,2.73s-2.1,1.04-3.57,1.04c-0.96,0-1.82-0.11-2.59-0.33s-1.45-0.54-2.05-0.97
		l-0.01-2.89h1.73l0.43,1.7c0.27,0.24,0.63,0.42,1.08,0.53s0.92,0.16,1.4,0.16c0.82,0,1.46-0.17,1.93-0.5s0.7-0.77,0.7-1.31
		c0-0.51-0.19-0.93-0.58-1.25s-1.12-0.61-2.2-0.86c-1.54-0.34-2.7-0.79-3.48-1.37s-1.17-1.36-1.17-2.34c0-1.03,0.44-1.91,1.32-2.64
		s2.02-1.09,3.43-1.09c0.96,0,1.82,0.12,2.59,0.38s1.4,0.6,1.91,1.04L424.79,28.29z"/>
	<path class="st2" d="M432.83,35.51l1.91-0.33v-9.06l-1.91-0.33v-1.49h3.98l0.15,1.65c0.41-0.6,0.93-1.07,1.57-1.39
		s1.38-0.49,2.23-0.49s1.57,0.2,2.17,0.59s1.06,0.98,1.37,1.76c0.4-0.72,0.93-1.29,1.58-1.71s1.42-0.63,2.3-0.63
		c1.3,0,2.32,0.44,3.07,1.33s1.12,2.22,1.12,4v5.78l1.91,0.33v1.48h-6.14v-1.48l1.91-0.33v-5.8c0-1.25-0.21-2.13-0.64-2.65
		s-1.07-0.78-1.91-0.78c-0.8,0-1.45,0.28-1.94,0.85s-0.77,1.28-0.85,2.14v6.25l1.91,0.33v1.48h-6.13v-1.48l1.91-0.33v-5.8
		c0-1.19-0.22-2.06-0.66-2.61s-1.08-0.83-1.92-0.83c-0.7,0-1.28,0.14-1.73,0.43s-0.8,0.7-1.04,1.22v7.58l1.91,0.33v1.48h-6.13V35.51
		z"/>
	<path class="st2" d="M455.86,30.53c0-1.88,0.51-3.42,1.52-4.63s2.39-1.82,4.14-1.82c1.75,0,3.13,0.61,4.15,1.82
		s1.53,2.76,1.53,4.64v0.26c0,1.89-0.51,3.44-1.52,4.64s-2.39,1.8-4.14,1.8c-1.76,0-3.14-0.6-4.16-1.81s-1.52-2.75-1.52-4.63V30.53z
		 M458.17,30.79c0,1.34,0.28,2.45,0.85,3.33s1.41,1.31,2.53,1.31c1.09,0,1.93-0.44,2.5-1.31s0.86-1.98,0.86-3.33v-0.26
		c0-1.33-0.29-2.43-0.86-3.32s-1.41-1.32-2.52-1.32s-1.95,0.44-2.51,1.32s-0.84,1.99-0.84,3.32V30.79z"/>
	<path class="st2" d="M473.48,25.8l-1.52,0.23l2.61,7.22l0.21,0.91h0.07l0.22-0.91l2.53-7.22l-1.54-0.23v-1.49h4.9v1.49l-1.04,0.18
		l-4.25,11.02h-1.75l-4.3-11.02l-1.04-0.18v-1.49h4.9V25.8z"/>
	<path class="st2" d="M482.53,35.51l1.91-0.33v-9.06l-1.91-0.33v-1.49h4.22v10.88l1.91,0.33v1.48h-6.13V35.51z M486.75,21.06h-2.31
		v-2.36h2.31V21.06z"/>
	<path class="st2" d="M496.21,37.24c-1.77,0-3.17-0.59-4.21-1.76s-1.56-2.7-1.56-4.58v-0.52c0-1.8,0.54-3.31,1.61-4.51
		s2.35-1.8,3.81-1.8c1.7,0,2.99,0.52,3.87,1.55s1.32,2.41,1.32,4.12v1.44h-8.23l-0.04,0.06c0.02,1.22,0.33,2.22,0.93,3.01
		s1.43,1.18,2.5,1.18c0.78,0,1.47-0.11,2.06-0.33s1.1-0.53,1.53-0.92l0.9,1.5c-0.45,0.44-1.05,0.81-1.8,1.11
		S497.25,37.24,496.21,37.24z M495.86,25.89c-0.77,0-1.43,0.33-1.98,0.98s-0.88,1.47-1.01,2.46l0.02,0.06h5.85v-0.3
		c0-0.91-0.24-1.66-0.73-2.27S496.81,25.89,495.86,25.89z"/>
	<path class="st2" d="M506.5,32.19c0.01-1.14,0.1-1.93,0.29-2.36s0.67-1.01,1.47-1.73c0.77-0.91,1.32-1.62,1.65-2.11
		s0.49-1.09,0.49-1.78c0-0.83-0.22-1.46-0.66-1.91s-1.07-0.67-1.89-0.67c-0.71,0-1.31,0.19-1.81,0.58s-0.74,0.96-0.74,1.71h-2.2
		l-0.04-0.07c-0.02-1.26,0.42-2.27,1.32-3.02s2.06-1.14,3.47-1.14c1.54,0,2.73,0.39,3.59,1.18s1.28,1.88,1.28,3.29
		c0,1.01-0.28,1.93-0.83,2.77s-1.28,1.69-2.19,2.57c-0.41,0.42-0.67,0.8-0.76,1.14s-0.13,0.86-0.13,1.57H506.5z M508.88,36.99h-2.4
		v-2.44h2.4V36.99z"/>
</g>
</svg>
