<?xml version="1.0" encoding="utf-8"?>
<!-- Generator: Adobe Illustrator 24.0.0, SVG Export Plug-In . SVG Version: 6.00 Build 0)  -->
<svg version="1.1" id="Layer_1" xmlns="http://www.w3.org/2000/svg" xmlns:xlink="http://www.w3.org/1999/xlink" x="0px" y="0px"
	 viewBox="0 0 530.6 118.77" style="enable-background:new 0 0 530.6 118.77;" xml:space="preserve">
<style type="text/css">
	.st0{fill:#EE3125;}
	.st1{enable-background:new    ;}
	.st2{fill:#FFFFFF;}
</style>
<path class="st0" d="M428.66,61.25c-0.2-0.24-0.48-0.38-0.8-0.38H12c-6.07-0.01-10.99-4.93-11-11V12C1.01,5.93,5.93,1.01,12,1h506.6
	c6.07,0.01,10.99,4.93,11,11v37.86c-0.01,6.07-4.93,10.99-11,11h-56.3c-0.3,0-0.58,0.13-0.77,0.36c-0.19,0.23-0.27,0.53-0.22,0.82
	l9.44,52.96L428.66,61.25L428.66,61.25z"/>
<path d="M518.6,2c5.52,0.01,9.99,4.48,10,10v37.86c-0.01,5.52-4.48,9.99-10,10h-56.3c-0.59,0-1.15,0.26-1.53,0.72
	c-0.38,0.45-0.54,1.05-0.44,1.63l8.73,49l-39.6-50.58c-0.38-0.48-0.96-0.77-1.57-0.77H12c-5.52-0.01-9.99-4.48-10-10V12
	C2.01,6.48,6.48,2.01,12,2H518.6 M518.6,0H12C5.38,0.02,0.02,5.38,0,12v37.86c0.02,6.62,5.38,11.98,12,12h415.88l44.55,56.9
	l-10.14-56.9h56.3c6.62-0.02,11.98-5.38,12-12V12c-0.02-6.62-5.38-11.98-12-12H518.6z"/>
<g class="st1">
	<path class="st2" d="M26.71,26.68h-1.47l-0.39-2.18c-0.34-0.33-0.75-0.6-1.25-0.81c-0.49-0.21-1.08-0.32-1.76-0.32
		c-1.6,0-2.83,0.58-3.69,1.74c-0.86,1.16-1.29,2.63-1.29,4.41v0.24c0,1.78,0.42,3.26,1.26,4.42c0.84,1.17,2.01,1.75,3.5,1.75
		c0.7,0,1.33-0.11,1.9-0.33s1.01-0.49,1.32-0.8l0.39-2.18h1.47v2.74c-0.44,0.57-1.11,1.08-2,1.53s-1.92,0.67-3.08,0.67
		c-2,0-3.64-0.74-4.92-2.22c-1.28-1.48-1.92-3.34-1.92-5.58v-0.22c0-2.25,0.63-4.12,1.89-5.59c1.26-1.48,2.91-2.21,4.95-2.21
		c1.17,0,2.2,0.23,3.08,0.68s1.55,0.96,2,1.53V26.68z"/>
	<path class="st2" d="M36.39,37.33c-0.06-0.31-0.11-0.59-0.15-0.83s-0.06-0.49-0.07-0.74c-0.4,0.51-0.9,0.94-1.51,1.28
		s-1.24,0.51-1.93,0.51c-1.19,0-2.1-0.29-2.71-0.87c-0.62-0.58-0.93-1.4-0.93-2.46c0-1.08,0.44-1.92,1.31-2.51
		c0.88-0.59,2.08-0.88,3.61-0.88h2.14v-1.33c0-0.67-0.21-1.2-0.63-1.59c-0.42-0.39-1.01-0.59-1.76-0.59c-0.52,0-0.98,0.07-1.38,0.2
		c-0.4,0.13-0.72,0.32-0.97,0.55l-0.22,1.2h-1.61v-2.22c0.52-0.42,1.15-0.75,1.89-1c0.74-0.25,1.54-0.38,2.41-0.38
		c1.3,0,2.35,0.33,3.15,0.99s1.2,1.61,1.2,2.84v5.5c0,0.15,0,0.29,0.01,0.43c0,0.14,0.01,0.28,0.03,0.42L39.12,36v1.33H36.39z
		 M33.04,35.81c0.69,0,1.32-0.17,1.89-0.5s0.98-0.73,1.23-1.19v-1.88h-2.22c-0.85,0-1.53,0.2-2.02,0.59
		c-0.5,0.39-0.74,0.87-0.74,1.44c0,0.5,0.15,0.88,0.46,1.15C31.95,35.68,32.42,35.81,33.04,35.81z"/>
	<path class="st2" d="M40.54,36l1.72-0.3v-8.17l-1.72-0.3V25.9h3.58l0.15,1.7c0.38-0.61,0.86-1.08,1.43-1.41
		c0.57-0.33,1.23-0.5,1.96-0.5c1.23,0,2.19,0.36,2.86,1.08c0.68,0.72,1.01,1.84,1.01,3.34v5.59l1.72,0.3v1.33h-5.52V36l1.72-0.3
		v-5.55c0-1.01-0.2-1.72-0.6-2.14c-0.4-0.42-1.01-0.63-1.82-0.63c-0.6,0-1.13,0.14-1.59,0.43c-0.46,0.29-0.83,0.68-1.1,1.18v6.71
		l1.72,0.3v1.33h-5.52V36z"/>
	<path class="st2" d="M64.2,27.25l-1.31,0.23l1.49,5.69l0.24,1.38h0.06l0.3-1.38l2.28-7.27h1.67l2.29,7.27l0.33,1.54h0.06l0.31-1.54
		l1.4-5.69L72,27.25V25.9h4.35v1.34l-0.99,0.15l-2.88,9.94h-1.68l-2.22-6.96l-0.48-1.92l-0.06,0.01l-0.44,1.91l-2.18,6.96h-1.68
		l-2.88-9.94l-1-0.15V25.9h4.35V27.25z"/>
	<path class="st2" d="M83.25,37.56c-1.59,0-2.86-0.53-3.8-1.59c-0.94-1.06-1.41-2.44-1.41-4.12v-0.46c0-1.63,0.48-2.98,1.45-4.06
		c0.97-1.08,2.11-1.62,3.44-1.62c1.54,0,2.7,0.46,3.49,1.39c0.79,0.93,1.19,2.17,1.19,3.72v1.3H80.2l-0.03,0.05
		c0.02,1.1,0.3,2,0.83,2.71c0.54,0.71,1.29,1.06,2.25,1.06c0.7,0,1.32-0.1,1.85-0.3c0.53-0.2,0.99-0.48,1.38-0.83l0.81,1.35
		c-0.41,0.39-0.95,0.73-1.62,1C85,37.42,84.19,37.56,83.25,37.56z M82.93,27.33c-0.7,0-1.29,0.29-1.79,0.88
		c-0.49,0.59-0.8,1.33-0.91,2.21l0.02,0.05h5.27V30.2c0-0.82-0.22-1.5-0.65-2.05C84.44,27.61,83.79,27.33,82.93,27.33z"/>
	<path class="st2" d="M100.17,35.93c0.69,0,1.3-0.21,1.82-0.64c0.52-0.43,0.79-0.95,0.79-1.57h1.87l0.02,0.06
		c0.04,0.99-0.4,1.86-1.32,2.62c-0.91,0.76-1.97,1.15-3.18,1.15c-1.66,0-2.93-0.54-3.81-1.63c-0.88-1.08-1.31-2.45-1.31-4.09V31.4
		c0-1.63,0.44-2.98,1.32-4.07c0.88-1.09,2.15-1.63,3.8-1.63c0.92,0,1.74,0.15,2.47,0.45c0.73,0.3,1.33,0.72,1.81,1.25l0.1,2.54
		h-1.66l-0.45-1.8c-0.25-0.24-0.56-0.43-0.95-0.58c-0.39-0.15-0.82-0.22-1.31-0.22c-1.09,0-1.87,0.39-2.34,1.18s-0.7,1.75-0.7,2.89
		v0.44c0,1.17,0.23,2.14,0.7,2.92C98.29,35.54,99.07,35.93,100.17,35.93z"/>
	<path class="st2" d="M106.71,31.51c0-1.69,0.46-3.08,1.37-4.18c0.92-1.09,2.16-1.64,3.73-1.64c1.58,0,2.83,0.55,3.74,1.64
		c0.92,1.09,1.38,2.49,1.38,4.18v0.23c0,1.7-0.46,3.1-1.37,4.18c-0.92,1.08-2.16,1.63-3.73,1.63c-1.58,0-2.83-0.54-3.75-1.63
		s-1.37-2.48-1.37-4.18V31.51z M108.79,31.75c0,1.21,0.25,2.21,0.77,3s1.27,1.18,2.28,1.18c0.99,0,1.74-0.39,2.25-1.18
		c0.51-0.79,0.77-1.79,0.77-3v-0.23c0-1.2-0.26-2.19-0.77-2.99c-0.51-0.8-1.27-1.19-2.27-1.19c-1,0-1.75,0.4-2.26,1.19
		c-0.51,0.8-0.76,1.79-0.76,2.99V31.75z"/>
	<path class="st2" d="M118.42,36l1.72-0.3v-8.17l-1.72-0.3V25.9h3.59l0.14,1.49c0.37-0.54,0.84-0.96,1.42-1.26
		c0.58-0.3,1.25-0.44,2.01-0.44c0.76,0,1.41,0.18,1.96,0.53s0.96,0.88,1.23,1.58c0.36-0.65,0.83-1.16,1.43-1.54
		c0.59-0.38,1.28-0.57,2.07-0.57c1.17,0,2.09,0.4,2.77,1.2c0.68,0.8,1.01,2,1.01,3.61v5.21l1.72,0.3v1.33h-5.54V36l1.72-0.3v-5.23
		c0-1.13-0.19-1.92-0.58-2.39c-0.39-0.47-0.96-0.7-1.72-0.7c-0.73,0-1.31,0.26-1.75,0.77c-0.44,0.51-0.7,1.15-0.77,1.93v5.63
		l1.72,0.3v1.33h-5.52V36l1.72-0.3v-5.23c0-1.07-0.2-1.85-0.6-2.35c-0.4-0.5-0.97-0.74-1.73-0.74c-0.63,0-1.16,0.13-1.56,0.39
		c-0.41,0.26-0.72,0.63-0.94,1.1v6.83l1.72,0.3v1.33h-5.52V36z"/>
	<path class="st2" d="M139.02,40.39l1.72-0.3V27.54l-1.72-0.3V25.9h3.51l0.19,1.39c0.38-0.52,0.84-0.92,1.39-1.19
		c0.55-0.27,1.18-0.41,1.9-0.41c1.42,0,2.52,0.56,3.3,1.69s1.18,2.61,1.18,4.45v0.22c0,1.65-0.39,2.98-1.18,3.99
		c-0.79,1.01-1.88,1.52-3.26,1.52c-0.7,0-1.32-0.12-1.85-0.35s-0.98-0.59-1.36-1.05v3.94l1.72,0.3v1.34h-5.52V40.39z M148.39,31.83
		c0-1.3-0.25-2.37-0.76-3.2c-0.51-0.83-1.26-1.25-2.26-1.25c-0.59,0-1.1,0.13-1.52,0.4c-0.42,0.27-0.76,0.63-1.02,1.1v5.57
		c0.26,0.47,0.6,0.84,1.02,1.09c0.42,0.26,0.93,0.39,1.55,0.39c0.99,0,1.73-0.36,2.24-1.08c0.51-0.72,0.76-1.65,0.76-2.8V31.83z"/>
	<path class="st2" d="M152.37,27.25V25.9h3.58l0.2,1.66c0.32-0.58,0.72-1.04,1.2-1.37c0.48-0.33,1.02-0.5,1.63-0.5
		c0.16,0,0.33,0.01,0.5,0.04c0.17,0.02,0.3,0.05,0.4,0.08l-0.27,1.93l-1.18-0.06c-0.55,0-1.01,0.13-1.38,0.39
		c-0.37,0.26-0.66,0.62-0.87,1.08v6.56l1.72,0.3v1.33h-5.52V36l1.72-0.3v-8.17L152.37,27.25z"/>
	<path class="st2" d="M161.12,31.51c0-1.69,0.46-3.08,1.37-4.18c0.92-1.09,2.16-1.64,3.73-1.64c1.58,0,2.83,0.55,3.74,1.64
		c0.92,1.09,1.38,2.49,1.38,4.18v0.23c0,1.7-0.46,3.1-1.37,4.18c-0.92,1.08-2.16,1.63-3.73,1.63c-1.58,0-2.83-0.54-3.75-1.63
		s-1.37-2.48-1.37-4.18V31.51z M163.2,31.75c0,1.21,0.25,2.21,0.77,3s1.27,1.18,2.28,1.18c0.99,0,1.74-0.39,2.25-1.18
		c0.51-0.79,0.77-1.79,0.77-3v-0.23c0-1.2-0.26-2.19-0.77-2.99c-0.51-0.8-1.27-1.19-2.27-1.19c-1,0-1.75,0.4-2.26,1.19
		c-0.51,0.8-0.76,1.79-0.76,2.99V31.75z"/>
	<path class="st2" d="M172.83,36l1.72-0.3v-8.17l-1.72-0.3V25.9h3.59l0.14,1.49c0.37-0.54,0.84-0.96,1.42-1.26
		c0.58-0.3,1.25-0.44,2.01-0.44c0.76,0,1.41,0.18,1.96,0.53s0.96,0.88,1.23,1.58c0.36-0.65,0.83-1.16,1.43-1.54
		c0.59-0.38,1.28-0.57,2.07-0.57c1.17,0,2.09,0.4,2.77,1.2c0.68,0.8,1.01,2,1.01,3.61v5.21l1.72,0.3v1.33h-5.54V36l1.72-0.3v-5.23
		c0-1.13-0.19-1.92-0.58-2.39c-0.39-0.47-0.96-0.7-1.72-0.7c-0.73,0-1.31,0.26-1.75,0.77c-0.44,0.51-0.7,1.15-0.77,1.93v5.63
		l1.72,0.3v1.33h-5.52V36l1.72-0.3v-5.23c0-1.07-0.2-1.85-0.6-2.35c-0.4-0.5-0.97-0.74-1.73-0.74c-0.63,0-1.16,0.13-1.56,0.39
		c-0.41,0.26-0.72,0.63-0.94,1.1v6.83l1.72,0.3v1.33h-5.52V36z"/>
	<path class="st2" d="M193.68,36l1.72-0.3v-8.17l-1.72-0.3V25.9h3.8v9.8l1.72,0.3v1.33h-5.52V36z M197.49,22.98h-2.08v-2.12h2.08
		V22.98z"/>
	<path class="st2" d="M209.54,29.5h-1.56l-0.34-1.37c-0.25-0.24-0.57-0.43-0.96-0.58c-0.38-0.14-0.82-0.22-1.3-0.22
		c-0.74,0-1.29,0.16-1.65,0.49c-0.36,0.32-0.54,0.71-0.54,1.17c0,0.45,0.16,0.81,0.48,1.07s0.96,0.49,1.93,0.7
		c1.44,0.31,2.52,0.73,3.22,1.26s1.06,1.24,1.06,2.14c0,1.01-0.41,1.83-1.23,2.46c-0.82,0.63-1.89,0.94-3.22,0.94
		c-0.87,0-1.64-0.1-2.33-0.3c-0.69-0.2-1.31-0.49-1.85-0.87l-0.01-2.61h1.56l0.39,1.53c0.24,0.22,0.56,0.38,0.98,0.48
		s0.83,0.15,1.26,0.15c0.74,0,1.32-0.15,1.74-0.45c0.42-0.3,0.63-0.69,0.63-1.18c0-0.46-0.17-0.83-0.52-1.13
		c-0.35-0.3-1.01-0.55-1.98-0.77c-1.39-0.3-2.43-0.71-3.14-1.24c-0.7-0.52-1.06-1.23-1.06-2.11c0-0.93,0.4-1.72,1.19-2.38
		c0.79-0.65,1.82-0.98,3.09-0.98c0.87,0,1.64,0.11,2.33,0.34c0.69,0.23,1.26,0.54,1.72,0.94L209.54,29.5z"/>
	<path class="st2" d="M217.04,37.56c-1.59,0-2.86-0.53-3.8-1.59c-0.94-1.06-1.41-2.44-1.41-4.12v-0.46c0-1.63,0.48-2.98,1.45-4.06
		c0.97-1.08,2.11-1.62,3.44-1.62c1.54,0,2.7,0.46,3.49,1.39c0.79,0.93,1.19,2.17,1.19,3.72v1.3h-7.42l-0.03,0.05
		c0.02,1.1,0.3,2,0.83,2.71c0.54,0.71,1.29,1.06,2.25,1.06c0.7,0,1.32-0.1,1.85-0.3c0.53-0.2,0.99-0.48,1.38-0.83l0.81,1.35
		c-0.41,0.39-0.95,0.73-1.62,1C218.79,37.42,217.98,37.56,217.04,37.56z M216.72,27.33c-0.7,0-1.29,0.29-1.79,0.88
		c-0.49,0.59-0.8,1.33-0.91,2.21l0.02,0.05h5.27V30.2c0-0.82-0.22-1.5-0.65-2.05C218.23,27.61,217.58,27.33,216.72,27.33z"/>
	<path class="st2" d="M232.88,27.25l-1.31,0.23l1.49,5.69l0.24,1.38h0.06l0.3-1.38l2.28-7.27h1.67l2.29,7.27l0.33,1.54h0.06
		l0.31-1.54l1.4-5.69l-1.33-0.23V25.9h4.35v1.34l-0.99,0.15l-2.88,9.94h-1.68l-2.22-6.96l-0.48-1.92l-0.06,0.01l-0.44,1.91
		l-2.18,6.96h-1.68l-2.88-9.94l-1-0.15V25.9h4.35V27.25z"/>
	<path class="st2" d="M246.71,36l1.72-0.3v-8.17l-1.72-0.3V25.9h3.8v9.8l1.72,0.3v1.33h-5.52V36z M250.51,22.98h-2.08v-2.12h2.08
		V22.98z"/>
	<path class="st2" d="M257.45,23.15v2.76h2.17v1.54h-2.17v6.94c0,0.54,0.11,0.91,0.33,1.13c0.22,0.22,0.52,0.33,0.88,0.33
		c0.18,0,0.39-0.02,0.62-0.05c0.23-0.03,0.42-0.06,0.58-0.1l0.29,1.43c-0.2,0.13-0.49,0.23-0.87,0.31
		c-0.38,0.08-0.76,0.12-1.14,0.12c-0.84,0-1.52-0.25-2.02-0.77s-0.75-1.31-0.75-2.4v-6.94h-1.81V25.9h1.81v-2.76H257.45z"/>
	<path class="st2" d="M261.46,36l1.72-0.3V22.49l-1.72-0.3v-1.34h3.8v6.57c0.39-0.55,0.88-0.98,1.45-1.28s1.21-0.45,1.9-0.45
		c1.23,0,2.18,0.37,2.85,1.1s1.01,1.86,1.01,3.38v5.54l1.72,0.3v1.33h-5.52V36l1.72-0.3v-5.56c0-0.94-0.2-1.64-0.61-2.09
		c-0.4-0.45-1.01-0.68-1.81-0.68c-0.57,0-1.09,0.14-1.56,0.41c-0.47,0.27-0.85,0.64-1.16,1.1v6.81l1.72,0.3v1.33h-5.53V36z"/>
	<path class="st2" d="M288.54,37.33c-0.06-0.31-0.11-0.59-0.15-0.83s-0.06-0.49-0.07-0.74c-0.4,0.51-0.9,0.94-1.5,1.28
		c-0.6,0.34-1.25,0.51-1.93,0.51c-1.19,0-2.1-0.29-2.71-0.87c-0.62-0.58-0.93-1.4-0.93-2.46c0-1.08,0.44-1.92,1.32-2.51
		c0.88-0.59,2.08-0.88,3.61-0.88h2.14v-1.33c0-0.67-0.21-1.2-0.63-1.59c-0.42-0.39-1.01-0.59-1.76-0.59c-0.52,0-0.98,0.07-1.38,0.2
		c-0.4,0.13-0.72,0.32-0.97,0.55l-0.22,1.2h-1.61v-2.22c0.52-0.42,1.15-0.75,1.89-1c0.74-0.25,1.54-0.38,2.41-0.38
		c1.29,0,2.34,0.33,3.15,0.99s1.2,1.61,1.2,2.84v5.5c0,0.15,0,0.29,0,0.43c0,0.14,0.01,0.28,0.03,0.42l0.84,0.12v1.33H288.54z
		 M285.19,35.81c0.69,0,1.32-0.17,1.89-0.5c0.57-0.33,0.98-0.73,1.23-1.19v-1.88h-2.22c-0.85,0-1.53,0.2-2.02,0.59
		c-0.5,0.39-0.74,0.87-0.74,1.44c0,0.5,0.15,0.88,0.46,1.15C284.1,35.68,284.56,35.81,285.19,35.81z"/>
	<path class="st2" d="M310.61,21.95v3.4h-1.77l-0.16-1.76h-3.41v12.12l1.72,0.3v1.33h-5.52V36l1.72-0.3V23.59h-3.42l-0.15,1.76
		h-1.79v-3.4H310.61z"/>
	<path class="st2" d="M311.65,36l1.72-0.3V22.49l-1.72-0.3v-1.34h3.8v6.57c0.39-0.55,0.88-0.98,1.45-1.28
		c0.57-0.3,1.21-0.45,1.9-0.45c1.23,0,2.18,0.37,2.85,1.1s1.01,1.86,1.01,3.38v5.54l1.72,0.3v1.33h-5.52V36l1.72-0.3v-5.56
		c0-0.94-0.2-1.64-0.61-2.09c-0.4-0.45-1.01-0.68-1.81-0.68c-0.57,0-1.09,0.14-1.56,0.41c-0.47,0.27-0.85,0.64-1.16,1.1v6.81
		l1.72,0.3v1.33h-5.52V36z"/>
	<path class="st2" d="M333.36,37.33c-0.06-0.31-0.11-0.59-0.15-0.83s-0.06-0.49-0.07-0.74c-0.4,0.51-0.9,0.94-1.5,1.28
		c-0.6,0.34-1.25,0.51-1.93,0.51c-1.19,0-2.1-0.29-2.71-0.87c-0.62-0.58-0.93-1.4-0.93-2.46c0-1.08,0.44-1.92,1.32-2.51
		c0.88-0.59,2.08-0.88,3.61-0.88h2.14v-1.33c0-0.67-0.21-1.2-0.63-1.59c-0.42-0.39-1.01-0.59-1.76-0.59c-0.52,0-0.98,0.07-1.38,0.2
		c-0.4,0.13-0.72,0.32-0.97,0.55l-0.22,1.2h-1.61v-2.22c0.52-0.42,1.15-0.75,1.89-1c0.74-0.25,1.54-0.38,2.41-0.38
		c1.29,0,2.34,0.33,3.15,0.99s1.2,1.61,1.2,2.84v5.5c0,0.15,0,0.29,0,0.43c0,0.14,0.01,0.28,0.03,0.42l0.84,0.12v1.33H333.36z
		 M330.01,35.81c0.69,0,1.32-0.17,1.89-0.5c0.57-0.33,0.98-0.73,1.23-1.19v-1.88h-2.22c-0.85,0-1.53,0.2-2.02,0.59
		c-0.5,0.39-0.74,0.87-0.74,1.44c0,0.5,0.15,0.88,0.46,1.15C328.92,35.68,329.38,35.81,330.01,35.81z"/>
	<path class="st2" d="M337.51,36l1.72-0.3v-8.17l-1.72-0.3V25.9h3.58l0.15,1.7c0.38-0.61,0.86-1.08,1.43-1.41s1.23-0.5,1.96-0.5
		c1.23,0,2.19,0.36,2.86,1.08c0.68,0.72,1.01,1.84,1.01,3.34v5.59l1.72,0.3v1.33h-5.52V36l1.72-0.3v-5.55c0-1.01-0.2-1.72-0.6-2.14
		c-0.4-0.42-1-0.63-1.82-0.63c-0.6,0-1.13,0.14-1.59,0.43c-0.46,0.29-0.83,0.68-1.1,1.18v6.71l1.72,0.3v1.33h-5.52V36z"/>
	<path class="st2" d="M351.45,22.2v-1.34h3.8v9.55h1.33l2.44-3.02l-1.05-0.14V25.9h4.79v1.34l-1.39,0.27l-3.01,3.59l3.67,4.64
		l1.3,0.25v1.33h-4.74V36l1.07-0.14l-3.03-3.8h-1.36v3.64l1.72,0.3v1.33h-5.52V36l1.72-0.3V22.49L351.45,22.2z"/>
	<path class="st2" d="M373.64,29.5h-1.56l-0.34-1.37c-0.25-0.24-0.57-0.43-0.96-0.58c-0.38-0.14-0.82-0.22-1.3-0.22
		c-0.74,0-1.29,0.16-1.65,0.49c-0.36,0.32-0.54,0.71-0.54,1.17c0,0.45,0.16,0.81,0.48,1.07c0.32,0.26,0.96,0.49,1.93,0.7
		c1.44,0.31,2.52,0.73,3.22,1.26s1.06,1.24,1.06,2.14c0,1.01-0.41,1.83-1.23,2.46s-1.89,0.94-3.22,0.94c-0.87,0-1.64-0.1-2.33-0.3
		c-0.69-0.2-1.31-0.49-1.85-0.87l-0.01-2.61h1.56l0.39,1.53c0.24,0.22,0.57,0.38,0.98,0.48c0.41,0.1,0.83,0.15,1.26,0.15
		c0.74,0,1.32-0.15,1.74-0.45c0.42-0.3,0.63-0.69,0.63-1.18c0-0.46-0.17-0.83-0.52-1.13c-0.35-0.3-1.01-0.55-1.98-0.77
		c-1.39-0.3-2.43-0.71-3.14-1.24c-0.7-0.52-1.06-1.23-1.06-2.11c0-0.93,0.4-1.72,1.19-2.38s1.82-0.98,3.09-0.98
		c0.87,0,1.64,0.11,2.33,0.34c0.69,0.23,1.26,0.54,1.72,0.94L373.64,29.5z"/>
	<path class="st2" d="M375.93,31.83c0-1.84,0.4-3.32,1.21-4.45c0.8-1.13,1.91-1.69,3.33-1.69c0.72,0,1.35,0.14,1.89,0.42
		s1,0.69,1.36,1.23l0.19-1.44h1.75v11.28c0,1.48-0.41,2.64-1.24,3.49s-2,1.27-3.52,1.27c-0.55,0-1.14-0.08-1.79-0.23
		c-0.64-0.15-1.2-0.36-1.69-0.62l0.54-1.62c0.39,0.2,0.84,0.37,1.37,0.51c0.53,0.13,1.04,0.2,1.54,0.2c0.93,0,1.61-0.26,2.04-0.78
		c0.43-0.52,0.65-1.26,0.65-2.23V36.1c-0.37,0.48-0.82,0.84-1.34,1.09s-1.12,0.37-1.8,0.37c-1.4,0-2.5-0.51-3.31-1.52
		s-1.21-2.34-1.21-3.98V31.83z M378.01,32.05c0,1.15,0.24,2.07,0.73,2.77c0.49,0.7,1.22,1.05,2.22,1.05c0.63,0,1.15-0.14,1.57-0.43
		c0.42-0.29,0.77-0.69,1.05-1.21v-5.26c-0.27-0.49-0.62-0.87-1.05-1.16s-0.95-0.43-1.55-0.43c-0.99,0-1.74,0.42-2.23,1.25
		c-0.49,0.83-0.74,1.9-0.74,3.2V32.05z"/>
	<path class="st2" d="M388.16,36l1.72-0.3v-8.17l-1.72-0.3V25.9h3.8v9.8l1.72,0.3v1.33h-5.52V36z M391.96,22.98h-2.08v-2.12h2.08
		V22.98z"/>
	<path class="st2" d="M399.19,27.25l-1.37,0.21l2.36,6.51l0.19,0.82h0.06l0.2-0.82l2.28-6.51l-1.38-0.21V25.9h4.42v1.34L405,27.4
		l-3.83,9.93h-1.57l-3.88-9.93l-0.94-0.16V25.9h4.42V27.25z"/>
	<path class="st2" d="M407.34,36l1.72-0.3v-8.17l-1.72-0.3V25.9h3.8v9.8l1.72,0.3v1.33h-5.52V36z M411.15,22.98h-2.08v-2.12h2.08
		V22.98z"/>
	<path class="st2" d="M414.15,36l1.72-0.3v-8.17l-1.72-0.3V25.9h3.58l0.15,1.7c0.38-0.61,0.86-1.08,1.43-1.41s1.23-0.5,1.96-0.5
		c1.23,0,2.19,0.36,2.86,1.08c0.68,0.72,1.01,1.84,1.01,3.34v5.59l1.72,0.3v1.33h-5.52V36l1.72-0.3v-5.55c0-1.01-0.2-1.72-0.6-2.14
		c-0.4-0.42-1-0.63-1.82-0.63c-0.6,0-1.13,0.14-1.59,0.43c-0.46,0.29-0.83,0.68-1.1,1.18v6.71l1.72,0.3v1.33h-5.52V36z"/>
	<path class="st2" d="M428.28,31.83c0-1.84,0.4-3.32,1.21-4.45c0.8-1.13,1.91-1.69,3.33-1.69c0.72,0,1.35,0.14,1.89,0.42
		s1,0.69,1.36,1.23l0.19-1.44h1.75v11.28c0,1.48-0.41,2.64-1.24,3.49s-2,1.27-3.52,1.27c-0.55,0-1.14-0.08-1.79-0.23
		c-0.64-0.15-1.2-0.36-1.69-0.62l0.54-1.62c0.39,0.2,0.84,0.37,1.37,0.51c0.53,0.13,1.04,0.2,1.54,0.2c0.93,0,1.61-0.26,2.04-0.78
		c0.43-0.52,0.65-1.26,0.65-2.23V36.1c-0.37,0.48-0.82,0.84-1.34,1.09s-1.12,0.37-1.8,0.37c-1.4,0-2.5-0.51-3.31-1.52
		s-1.21-2.34-1.21-3.98V31.83z M430.36,32.05c0,1.15,0.24,2.07,0.73,2.77c0.49,0.7,1.22,1.05,2.22,1.05c0.63,0,1.15-0.14,1.57-0.43
		c0.42-0.29,0.77-0.69,1.05-1.21v-5.26c-0.27-0.49-0.62-0.87-1.05-1.16s-0.95-0.43-1.55-0.43c-0.99,0-1.74,0.42-2.23,1.25
		c-0.49,0.83-0.74,1.9-0.74,3.2V32.05z"/>
	<path class="st2" d="M445.48,36l1.72-0.3v-8.17l-1.72-0.3V25.9h3.59l0.14,1.49c0.37-0.54,0.84-0.96,1.42-1.26
		c0.58-0.3,1.25-0.44,2.01-0.44c0.76,0,1.41,0.18,1.96,0.53s0.96,0.88,1.23,1.58c0.36-0.65,0.83-1.16,1.43-1.54
		c0.59-0.38,1.28-0.57,2.07-0.57c1.17,0,2.09,0.4,2.77,1.2c0.68,0.8,1.01,2,1.01,3.61v5.21l1.72,0.3v1.33h-5.54V36l1.72-0.3v-5.23
		c0-1.13-0.19-1.92-0.58-2.39c-0.39-0.47-0.96-0.7-1.72-0.7c-0.73,0-1.31,0.26-1.75,0.77c-0.44,0.51-0.7,1.15-0.77,1.93v5.63
		l1.72,0.3v1.33h-5.52V36l1.72-0.3v-5.23c0-1.07-0.2-1.85-0.6-2.35c-0.4-0.5-0.97-0.74-1.73-0.74c-0.63,0-1.15,0.13-1.56,0.39
		c-0.41,0.26-0.72,0.63-0.94,1.1v6.83L451,36v1.33h-5.52V36z"/>
	<path class="st2" d="M466.23,31.51c0-1.69,0.46-3.08,1.37-4.18c0.92-1.09,2.16-1.64,3.73-1.64c1.58,0,2.83,0.55,3.74,1.64
		c0.92,1.09,1.38,2.49,1.38,4.18v0.23c0,1.7-0.46,3.1-1.37,4.18c-0.92,1.08-2.16,1.63-3.73,1.63c-1.58,0-2.83-0.54-3.75-1.63
		c-0.92-1.09-1.37-2.48-1.37-4.18V31.51z M468.31,31.75c0,1.21,0.26,2.21,0.77,3c0.51,0.79,1.27,1.18,2.28,1.18
		c0.99,0,1.74-0.39,2.25-1.18c0.51-0.79,0.77-1.79,0.77-3v-0.23c0-1.2-0.26-2.19-0.77-2.99c-0.51-0.8-1.27-1.19-2.27-1.19
		s-1.75,0.4-2.26,1.19s-0.76,1.79-0.76,2.99V31.75z"/>
	<path class="st2" d="M482.12,27.25l-1.37,0.21l2.36,6.51l0.19,0.82h0.06l0.2-0.82l2.28-6.51l-1.38-0.21V25.9h4.42v1.34l-0.94,0.16
		l-3.83,9.93h-1.57l-3.88-9.93l-0.94-0.16V25.9h4.42V27.25z"/>
	<path class="st2" d="M490.27,36l1.72-0.3v-8.17l-1.72-0.3V25.9h3.8v9.8l1.72,0.3v1.33h-5.52V36z M494.08,22.98H492v-2.12h2.08
		V22.98z"/>
	<path class="st2" d="M502.6,37.56c-1.59,0-2.86-0.53-3.8-1.59c-0.94-1.06-1.41-2.44-1.41-4.12v-0.46c0-1.63,0.48-2.98,1.45-4.06
		c0.97-1.08,2.11-1.62,3.44-1.62c1.53,0,2.7,0.46,3.49,1.39c0.79,0.93,1.19,2.17,1.19,3.72v1.3h-7.42l-0.03,0.05
		c0.02,1.1,0.3,2,0.83,2.71c0.54,0.71,1.29,1.06,2.25,1.06c0.7,0,1.32-0.1,1.85-0.3c0.53-0.2,0.99-0.48,1.38-0.83l0.81,1.35
		c-0.41,0.39-0.95,0.73-1.62,1C504.35,37.42,503.54,37.56,502.6,37.56z M502.28,27.33c-0.7,0-1.29,0.29-1.79,0.88
		c-0.49,0.59-0.8,1.33-0.91,2.21l0.02,0.05h5.27V30.2c0-0.82-0.22-1.5-0.65-2.05S503.14,27.33,502.28,27.33z"/>
	<path class="st2" d="M511.88,33c0.01-1.03,0.09-1.74,0.26-2.13c0.17-0.39,0.61-0.91,1.33-1.56c0.7-0.82,1.19-1.46,1.49-1.9
		c0.29-0.44,0.44-0.98,0.44-1.61c0-0.75-0.2-1.32-0.6-1.72c-0.4-0.4-0.97-0.6-1.71-0.6c-0.64,0-1.18,0.17-1.63,0.52
		s-0.67,0.86-0.67,1.54h-1.99l-0.03-0.06c-0.02-1.13,0.38-2.04,1.19-2.73c0.82-0.68,1.86-1.02,3.13-1.02c1.39,0,2.46,0.35,3.23,1.06
		s1.15,1.7,1.15,2.96c0,0.91-0.25,1.74-0.75,2.49c-0.5,0.75-1.15,1.52-1.97,2.31c-0.37,0.38-0.6,0.72-0.68,1.02
		s-0.12,0.77-0.12,1.42H511.88z M514.02,37.33h-2.17v-2.2h2.17V37.33z"/>
</g>
</svg>
