<?xml version="1.0" encoding="utf-8"?>
<!-- Generator: Adobe Illustrator 24.0.0, SVG Export Plug-In . SVG Version: 6.00 Build 0)  -->
<svg version="1.1" id="Layer_1" xmlns="http://www.w3.org/2000/svg" xmlns:xlink="http://www.w3.org/1999/xlink" x="0px" y="0px"
	 viewBox="0 0 402.99 290.08" style="enable-background:new 0 0 402.99 290.08;" xml:space="preserve">
<style type="text/css">
	.st0{fill:#EE3125;stroke:#000000;stroke-width:3;stroke-miterlimit:10;}
	.st1{enable-background:new    ;}
	.st2{fill:#FFFFFF;}
</style>
<g>
	<path class="st0" d="M157.11,146.27h228.66c8.67,0.01,15.7,7.04,15.71,15.71v110.89c-0.01,8.67-7.04,15.7-15.71,15.71H17.21
		c-8.67-0.01-15.7-7.04-15.71-15.71V162c0.01-8.67,7.04-15.7,15.71-15.71h72.14c0.39,0-50.54-138.89-50.54-138.89
		S156.64,146.27,157.11,146.27z"/>
	<g class="st1">
		<path class="st2" d="M32.27,184.58v-2.12h8.75v2.12l-2.73,0.47v8.42h11.82v-8.42l-2.73-0.47v-2.12h2.73h3.3h2.73v2.12l-2.73,0.47
			v19.2l2.73,0.47v2.11h-8.75v-2.11l2.73-0.47v-8.18H38.29v8.18l2.73,0.47v2.11h-8.75v-2.11l2.73-0.47v-19.2L32.27,184.58z"/>
		<path class="st2" d="M58.91,197.6c0-2.68,0.73-4.88,2.18-6.62c1.45-1.73,3.42-2.6,5.91-2.6c2.5,0,4.48,0.86,5.93,2.59
			s2.18,3.94,2.18,6.63v0.37c0,2.7-0.73,4.91-2.18,6.63c-1.45,1.72-3.42,2.58-5.91,2.58c-2.51,0-4.49-0.86-5.94-2.59
			c-1.45-1.72-2.18-3.93-2.18-6.62V197.6z M62.21,197.96c0,1.92,0.4,3.5,1.21,4.75c0.81,1.25,2.01,1.88,3.61,1.88
			c1.56,0,2.75-0.62,3.56-1.88c0.81-1.25,1.22-2.83,1.22-4.75v-0.37c0-1.9-0.41-3.47-1.22-4.74c-0.81-1.26-2.01-1.89-3.6-1.89
			c-1.58,0-2.78,0.63-3.58,1.89c-0.8,1.26-1.21,2.84-1.21,4.74V197.96z"/>
		<path class="st2" d="M77.34,182.84v-2.12h6.02v23.53l2.73,0.47v2.11h-8.75v-2.11l2.73-0.47V183.3L77.34,182.84z"/>
		<path class="st2" d="M88.58,204.71l2.73-0.47V191.3l-2.73-0.47v-2.13h6.02v15.53l2.73,0.47v2.11h-8.75V204.71z M94.61,184.07h-3.3
			v-3.36h3.3V184.07z"/>
		<path class="st2" d="M112.05,204.66c-0.59,0.83-1.31,1.45-2.17,1.88s-1.84,0.64-2.97,0.64c-2.21,0-3.94-0.8-5.18-2.4
			c-1.24-1.6-1.87-3.71-1.87-6.32v-0.35c0-2.91,0.62-5.26,1.87-7.04s2.98-2.68,5.21-2.68c1.07,0,2.02,0.2,2.84,0.59
			c0.82,0.4,1.52,0.97,2.1,1.72v-7.38l-2.73-0.47v-2.12h2.73h3.3v23.53l2.73,0.47v2.11h-5.59L112.05,204.66z M103.16,198.45
			c0,1.82,0.37,3.28,1.12,4.38s1.9,1.66,3.46,1.66c0.98,0,1.81-0.22,2.48-0.67c0.67-0.45,1.22-1.08,1.66-1.89v-8.4
			c-0.42-0.76-0.98-1.36-1.66-1.81c-0.68-0.45-1.5-0.67-2.44-0.67c-1.57,0-2.74,0.65-3.49,1.96c-0.75,1.3-1.13,3-1.13,5.09V198.45z"
			/>
		<path class="st2" d="M132.23,206.82c-0.1-0.49-0.18-0.93-0.23-1.32c-0.06-0.39-0.1-0.78-0.12-1.17c-0.64,0.81-1.43,1.49-2.38,2.03
			c-0.95,0.54-1.97,0.81-3.05,0.81c-1.89,0-3.32-0.46-4.3-1.38c-0.98-0.92-1.47-2.22-1.47-3.89c0-1.72,0.69-3.04,2.08-3.98
			c1.39-0.93,3.29-1.4,5.72-1.4h3.4v-2.11c0-1.06-0.33-1.9-1-2.52s-1.6-0.93-2.79-0.93c-0.83,0-1.55,0.11-2.18,0.32
			c-0.63,0.21-1.14,0.5-1.53,0.87l-0.35,1.91h-2.54v-3.51c0.83-0.66,1.82-1.18,3-1.58c1.17-0.4,2.44-0.59,3.82-0.59
			c2.05,0,3.72,0.52,4.99,1.57c1.27,1.05,1.91,2.55,1.91,4.5v8.72c0,0.23,0,0.46,0.01,0.69c0.01,0.22,0.02,0.45,0.04,0.67l1.34,0.18
			v2.11H132.23z M126.92,204.41c1.09,0,2.09-0.26,3-0.79c0.9-0.52,1.55-1.16,1.94-1.89v-2.98h-3.51c-1.35,0-2.42,0.31-3.21,0.94
			c-0.79,0.62-1.18,1.38-1.18,2.28c0,0.79,0.25,1.4,0.74,1.82C125.19,204.2,125.93,204.41,126.92,204.41z"/>
		<path class="st2" d="M156.24,190.84l-1.62,0.25l-6.9,18.51c-0.46,1.22-1.12,2.28-1.97,3.18c-0.86,0.9-2.01,1.36-3.46,1.36
			c-0.26,0-0.59-0.03-1-0.09c-0.41-0.06-0.73-0.12-0.95-0.18l0.33-2.59c-0.07-0.01,0.13,0,0.59,0.03c0.46,0.03,0.76,0.05,0.88,0.05
			c0.7,0,1.27-0.3,1.71-0.91s0.81-1.31,1.14-2.1l0.79-1.88l-5.97-15.36l-1.66-0.27v-2.13h7.31v2.13l-2.04,0.33l3.13,8.94l0.6,2.31
			h0.1l3.77-11.25l-2.06-0.33v-2.13h7.3V190.84z"/>
		<path class="st2" d="M166.52,204.71l2.73-0.47V191.3l-2.73-0.47v-2.13h5.67l0.23,2.69c0.6-0.96,1.36-1.7,2.27-2.23
			c0.91-0.53,1.94-0.79,3.1-0.79c1.95,0,3.46,0.57,4.54,1.71c1.07,1.14,1.61,2.91,1.61,5.3v8.85l2.73,0.47v2.11h-8.75v-2.11
			l2.73-0.47v-8.79c0-1.6-0.31-2.73-0.95-3.4c-0.63-0.67-1.59-1-2.89-1c-0.95,0-1.79,0.23-2.52,0.69c-0.73,0.46-1.31,1.08-1.75,1.88
			v10.63l2.73,0.47v2.11h-8.75V204.71z"/>
		<path class="st2" d="M197.16,207.17c-2.52,0-4.53-0.84-6.02-2.52c-1.49-1.68-2.23-3.86-2.23-6.54v-0.74c0-2.58,0.77-4.72,2.3-6.43
			c1.53-1.71,3.35-2.57,5.45-2.57c2.43,0,4.28,0.74,5.53,2.21c1.25,1.47,1.88,3.44,1.88,5.89v2.06h-11.75l-0.05,0.08
			c0.03,1.74,0.47,3.17,1.32,4.29c0.85,1.12,2.04,1.68,3.56,1.68c1.12,0,2.09-0.16,2.94-0.48c0.84-0.32,1.57-0.76,2.18-1.31
			l1.29,2.14c-0.65,0.62-1.5,1.15-2.57,1.58S198.66,207.17,197.16,207.17z M196.66,190.97c-1.1,0-2.05,0.47-2.83,1.4
			c-0.78,0.93-1.26,2.1-1.44,3.51l0.03,0.08h8.35v-0.44c0-1.29-0.35-2.38-1.04-3.25C199.05,191.4,198.02,190.97,196.66,190.97z"/>
		<path class="st2" d="M207.34,198.1c0-2.91,0.64-5.26,1.91-7.04s3.03-2.68,5.27-2.68c1.14,0,2.14,0.22,3,0.67
			c0.86,0.45,1.58,1.09,2.16,1.94l0.3-2.28h2.78v17.87c0,2.34-0.65,4.19-1.96,5.53c-1.31,1.34-3.16,2.02-5.57,2.02
			c-0.87,0-1.81-0.12-2.83-0.36c-1.02-0.24-1.91-0.57-2.68-0.98l0.85-2.56c0.61,0.32,1.34,0.59,2.18,0.8
			c0.84,0.21,1.65,0.32,2.44,0.32c1.47,0,2.55-0.41,3.24-1.24c0.69-0.83,1.03-2,1.03-3.53v-1.72c-0.59,0.76-1.3,1.33-2.13,1.72
			s-1.77,0.59-2.85,0.59c-2.22,0-3.97-0.8-5.24-2.41s-1.91-3.71-1.91-6.31V198.1z M210.64,198.45c0,1.82,0.38,3.28,1.15,4.38
			c0.77,1.1,1.94,1.66,3.51,1.66c0.99,0,1.82-0.23,2.49-0.68s1.22-1.09,1.66-1.92v-8.33c-0.42-0.77-0.98-1.38-1.66-1.83
			c-0.68-0.45-1.5-0.68-2.46-0.68c-1.57,0-2.75,0.66-3.53,1.97c-0.78,1.32-1.17,3.01-1.17,5.07V198.45z"/>
		<path class="st2" d="M226.74,197.6c0-2.68,0.73-4.88,2.18-6.62c1.45-1.73,3.42-2.6,5.91-2.6c2.5,0,4.48,0.86,5.93,2.59
			s2.18,3.94,2.18,6.63v0.37c0,2.7-0.73,4.91-2.18,6.63c-1.45,1.72-3.42,2.58-5.91,2.58c-2.51,0-4.49-0.86-5.94-2.59
			c-1.45-1.72-2.18-3.93-2.18-6.62V197.6z M230.03,197.96c0,1.92,0.4,3.5,1.21,4.75c0.81,1.25,2.01,1.88,3.61,1.88
			c1.56,0,2.75-0.62,3.56-1.88c0.81-1.25,1.22-2.83,1.22-4.75v-0.37c0-1.9-0.41-3.47-1.22-4.74c-0.81-1.26-2.01-1.89-3.6-1.89
			c-1.58,0-2.78,0.63-3.58,1.89c-0.8,1.26-1.21,2.84-1.21,4.74V197.96z"/>
		<path class="st2" d="M251.71,184.34v4.37h3.43v2.44h-3.43v11c0,0.85,0.18,1.44,0.53,1.79c0.35,0.35,0.82,0.52,1.4,0.52
			c0.29,0,0.62-0.03,0.98-0.08c0.36-0.05,0.67-0.1,0.91-0.16l0.45,2.26c-0.31,0.2-0.77,0.37-1.37,0.49
			c-0.6,0.13-1.21,0.19-1.81,0.19c-1.34,0-2.4-0.4-3.2-1.21c-0.79-0.81-1.19-2.08-1.19-3.81v-11h-2.86v-2.44h2.86v-4.37H251.71z"/>
		<path class="st2" d="M258.5,204.71l2.73-0.47V191.3l-2.73-0.47v-2.13h6.02v15.53l2.73,0.47v2.11h-8.75V204.71z M264.53,184.07
			h-3.3v-3.36h3.3V184.07z"/>
		<path class="st2" d="M281.58,206.82c-0.1-0.49-0.18-0.93-0.23-1.32c-0.06-0.39-0.1-0.78-0.12-1.17c-0.64,0.81-1.43,1.49-2.38,2.03
			c-0.95,0.54-1.97,0.81-3.05,0.81c-1.89,0-3.32-0.46-4.3-1.38c-0.98-0.92-1.47-2.22-1.47-3.89c0-1.72,0.69-3.04,2.08-3.98
			c1.39-0.93,3.29-1.4,5.72-1.4h3.4v-2.11c0-1.06-0.33-1.9-1-2.52s-1.6-0.93-2.79-0.93c-0.83,0-1.55,0.11-2.18,0.32
			c-0.63,0.21-1.14,0.5-1.53,0.87l-0.35,1.91h-2.54v-3.51c0.83-0.66,1.82-1.18,3-1.58c1.17-0.4,2.44-0.59,3.82-0.59
			c2.05,0,3.72,0.52,4.99,1.57c1.27,1.05,1.91,2.55,1.91,4.5v8.72c0,0.23,0,0.46,0.01,0.69c0.01,0.22,0.02,0.45,0.04,0.67l1.34,0.18
			v2.11H281.58z M276.27,204.41c1.09,0,2.09-0.26,3-0.79c0.9-0.52,1.55-1.16,1.94-1.89v-2.98h-3.51c-1.35,0-2.42,0.31-3.21,0.94
			c-0.79,0.62-1.18,1.38-1.18,2.28c0,0.79,0.25,1.4,0.74,1.82C274.54,204.2,275.28,204.41,276.27,204.41z"/>
		<path class="st2" d="M294.4,184.34v4.37h3.43v2.44h-3.43v11c0,0.85,0.18,1.44,0.53,1.79c0.35,0.35,0.82,0.52,1.4,0.52
			c0.29,0,0.62-0.03,0.98-0.08c0.36-0.05,0.67-0.1,0.91-0.16l0.45,2.26c-0.31,0.2-0.77,0.37-1.37,0.49
			c-0.6,0.13-1.21,0.19-1.81,0.19c-1.34,0-2.4-0.4-3.2-1.21c-0.79-0.81-1.19-2.08-1.19-3.81v-11h-2.86v-2.44h2.86v-4.37H294.4z"/>
		<path class="st2" d="M301.19,204.71l2.73-0.47V191.3l-2.73-0.47v-2.13h6.02v15.53l2.73,0.47v2.11h-8.75V204.71z M307.22,184.07
			h-3.3v-3.36h3.3V184.07z"/>
		<path class="st2" d="M312.47,197.6c0-2.68,0.73-4.88,2.18-6.62c1.45-1.73,3.42-2.6,5.91-2.6c2.5,0,4.48,0.86,5.93,2.59
			s2.18,3.94,2.18,6.63v0.37c0,2.7-0.73,4.91-2.18,6.63c-1.45,1.72-3.42,2.58-5.91,2.58c-2.51,0-4.49-0.86-5.94-2.59
			c-1.45-1.72-2.18-3.93-2.18-6.62V197.6z M315.77,197.96c0,1.92,0.4,3.5,1.21,4.75c0.81,1.25,2.01,1.88,3.61,1.88
			c1.56,0,2.75-0.62,3.56-1.88c0.81-1.25,1.22-2.83,1.22-4.75v-0.37c0-1.9-0.41-3.47-1.22-4.74c-0.81-1.26-2.01-1.89-3.6-1.89
			c-1.58,0-2.78,0.63-3.58,1.89c-0.8,1.26-1.21,2.84-1.21,4.74V197.96z"/>
		<path class="st2" d="M331.2,204.71l2.73-0.47V191.3l-2.73-0.47v-2.13h5.67l0.23,2.69c0.6-0.96,1.36-1.7,2.27-2.23
			c0.91-0.53,1.94-0.79,3.1-0.79c1.95,0,3.46,0.57,4.54,1.71c1.07,1.14,1.61,2.91,1.61,5.3v8.85l2.73,0.47v2.11h-8.75v-2.11
			l2.73-0.47v-8.79c0-1.6-0.31-2.73-0.95-3.4c-0.63-0.67-1.59-1-2.89-1c-0.95,0-1.79,0.23-2.52,0.69c-0.73,0.46-1.31,1.08-1.75,1.88
			v10.63l2.73,0.47v2.11h-8.75V204.71z"/>
		<path class="st2" d="M367.6,194.4h-2.48l-0.54-2.18c-0.4-0.38-0.91-0.68-1.51-0.91c-0.61-0.23-1.3-0.34-2.07-0.34
			c-1.17,0-2.04,0.26-2.61,0.77c-0.57,0.51-0.85,1.13-0.85,1.86c0,0.71,0.25,1.28,0.75,1.69c0.5,0.41,1.52,0.78,3.06,1.1
			c2.29,0.49,3.99,1.16,5.1,2c1.12,0.84,1.67,1.97,1.67,3.39c0,1.61-0.65,2.91-1.95,3.9c-1.3,0.99-3,1.49-5.1,1.49
			c-1.37,0-2.61-0.16-3.7-0.48c-1.09-0.32-2.07-0.78-2.93-1.38l-0.02-4.13h2.48l0.62,2.43c0.38,0.35,0.9,0.6,1.55,0.75
			c0.65,0.16,1.32,0.23,2,0.23c1.17,0,2.09-0.24,2.75-0.71c0.66-0.47,1-1.1,1-1.87c0-0.73-0.28-1.32-0.83-1.79s-1.6-0.88-3.14-1.22
			c-2.2-0.48-3.85-1.13-4.97-1.96c-1.12-0.83-1.67-1.94-1.67-3.35c0-1.47,0.63-2.73,1.88-3.77c1.26-1.04,2.89-1.56,4.9-1.56
			c1.37,0,2.6,0.18,3.7,0.54c1.09,0.36,2,0.85,2.73,1.49L367.6,194.4z"/>
		<path class="st2" d="M44.38,247.95c-0.1-0.49-0.18-0.93-0.23-1.32c-0.06-0.39-0.1-0.78-0.12-1.17c-0.64,0.81-1.43,1.49-2.38,2.03
			c-0.95,0.54-1.97,0.81-3.05,0.81c-1.89,0-3.32-0.46-4.3-1.38c-0.98-0.92-1.47-2.22-1.47-3.89c0-1.72,0.69-3.04,2.08-3.98
			c1.39-0.93,3.29-1.4,5.72-1.4h3.4v-2.11c0-1.06-0.33-1.9-1-2.52s-1.6-0.93-2.79-0.93c-0.83,0-1.55,0.11-2.18,0.32
			c-0.63,0.21-1.14,0.5-1.53,0.87l-0.35,1.91h-2.54v-3.51c0.83-0.66,1.82-1.18,3-1.58c1.17-0.4,2.44-0.59,3.82-0.59
			c2.05,0,3.72,0.52,4.99,1.57c1.27,1.05,1.91,2.55,1.91,4.5v8.72c0,0.23,0,0.46,0.01,0.69c0.01,0.22,0.02,0.45,0.04,0.67l1.34,0.18
			v2.11H44.38z M39.08,245.54c1.09,0,2.09-0.26,3-0.79c0.9-0.52,1.55-1.16,1.94-1.89v-2.98H40.5c-1.35,0-2.42,0.31-3.21,0.94
			c-0.79,0.62-1.18,1.38-1.18,2.28c0,0.79,0.25,1.4,0.74,1.82C37.34,245.33,38.08,245.54,39.08,245.54z"/>
		<path class="st2" d="M51.45,231.97v-2.13h5.67l0.32,2.63c0.51-0.93,1.15-1.65,1.9-2.18s1.62-0.79,2.59-0.79
			c0.26,0,0.52,0.02,0.79,0.06c0.27,0.04,0.48,0.08,0.63,0.12l-0.44,3.06l-1.87-0.1c-0.87,0-1.6,0.2-2.19,0.61s-1.05,0.98-1.37,1.71
			v10.39l2.73,0.47v2.11h-8.75v-2.11l2.73-0.47v-12.94L51.45,231.97z"/>
		<path class="st2" d="M73.57,248.3c-2.52,0-4.53-0.84-6.02-2.52c-1.49-1.68-2.23-3.86-2.23-6.54v-0.74c0-2.58,0.77-4.72,2.3-6.43
			c1.53-1.71,3.35-2.57,5.45-2.57c2.43,0,4.28,0.74,5.53,2.21c1.25,1.47,1.88,3.44,1.88,5.89v2.06H68.73l-0.05,0.08
			c0.03,1.74,0.47,3.17,1.32,4.29c0.85,1.12,2.04,1.68,3.56,1.68c1.12,0,2.09-0.16,2.94-0.48c0.84-0.32,1.57-0.76,2.18-1.31
			l1.29,2.14c-0.65,0.62-1.5,1.15-2.57,1.58S75.07,248.3,73.57,248.3z M73.07,232.1c-1.1,0-2.05,0.47-2.83,1.4
			c-0.78,0.93-1.26,2.1-1.44,3.51l0.03,0.08h8.35v-0.44c0-1.29-0.35-2.38-1.04-3.25C75.46,232.53,74.43,232.1,73.07,232.1z"/>
		<path class="st2" d="M92.26,239.23c0-2.91,0.64-5.26,1.91-7.04s3.03-2.68,5.27-2.68c1.14,0,2.14,0.22,3,0.67
			c0.86,0.45,1.58,1.09,2.16,1.94l0.3-2.28h2.78v17.87c0,2.34-0.65,4.19-1.96,5.53c-1.31,1.34-3.16,2.02-5.57,2.02
			c-0.87,0-1.81-0.12-2.83-0.36c-1.02-0.24-1.91-0.57-2.68-0.98l0.85-2.56c0.61,0.32,1.34,0.59,2.18,0.8
			c0.84,0.21,1.65,0.32,2.44,0.32c1.47,0,2.55-0.41,3.24-1.24c0.69-0.83,1.03-2,1.03-3.53v-1.72c-0.59,0.76-1.3,1.33-2.13,1.72
			s-1.77,0.59-2.85,0.59c-2.22,0-3.97-0.8-5.24-2.41s-1.91-3.71-1.91-6.31V239.23z M95.56,239.58c0,1.82,0.38,3.28,1.15,4.38
			c0.77,1.1,1.94,1.66,3.51,1.66c0.99,0,1.82-0.23,2.49-0.68s1.22-1.09,1.66-1.92v-8.33c-0.42-0.77-0.98-1.38-1.66-1.83
			c-0.68-0.45-1.5-0.68-2.46-0.68c-1.57,0-2.75,0.66-3.53,1.97c-0.78,1.32-1.17,3.01-1.17,5.07V239.58z"/>
		<path class="st2" d="M111.66,238.73c0-2.68,0.73-4.88,2.18-6.62c1.45-1.73,3.42-2.6,5.91-2.6c2.5,0,4.48,0.86,5.93,2.59
			s2.18,3.94,2.18,6.63v0.37c0,2.7-0.73,4.91-2.18,6.63c-1.45,1.72-3.42,2.58-5.91,2.58c-2.51,0-4.49-0.86-5.94-2.59
			c-1.45-1.72-2.18-3.93-2.18-6.62V238.73z M114.96,239.09c0,1.92,0.4,3.5,1.21,4.75c0.81,1.25,2.01,1.88,3.61,1.88
			c1.56,0,2.75-0.62,3.56-1.88c0.81-1.25,1.22-2.83,1.22-4.75v-0.37c0-1.9-0.41-3.47-1.22-4.74c-0.81-1.26-2.01-1.89-3.6-1.89
			c-1.58,0-2.78,0.63-3.58,1.89c-0.8,1.26-1.21,2.84-1.21,4.74V239.09z"/>
		<path class="st2" d="M130.87,245.84l2.73-0.47v-12.94l-2.73-0.47v-2.13h6.02v15.53l2.73,0.47v2.11h-8.75V245.84z M136.9,225.2
			h-3.3v-3.36h3.3V225.2z"/>
		<path class="st2" d="M141.65,245.84l2.73-0.47v-12.94l-2.73-0.47v-2.13h5.67l0.23,2.69c0.6-0.96,1.36-1.7,2.27-2.23
			c0.91-0.53,1.94-0.79,3.1-0.79c1.95,0,3.46,0.57,4.54,1.71c1.07,1.14,1.61,2.91,1.61,5.3v8.85l2.73,0.47v2.11h-8.75v-2.11
			l2.73-0.47v-8.79c0-1.6-0.31-2.73-0.95-3.4c-0.63-0.67-1.59-1-2.89-1c-0.95,0-1.79,0.23-2.52,0.69c-0.73,0.46-1.31,1.08-1.75,1.88
			v10.63l2.73,0.47v2.11h-8.75V245.84z"/>
		<path class="st2" d="M164.04,239.23c0-2.91,0.64-5.26,1.91-7.04s3.03-2.68,5.27-2.68c1.14,0,2.14,0.22,3,0.67
			c0.86,0.45,1.58,1.09,2.16,1.94l0.3-2.28h2.78v17.87c0,2.34-0.65,4.19-1.96,5.53c-1.31,1.34-3.16,2.02-5.57,2.02
			c-0.87,0-1.81-0.12-2.83-0.36c-1.02-0.24-1.91-0.57-2.68-0.98l0.85-2.56c0.61,0.32,1.34,0.59,2.18,0.8
			c0.84,0.21,1.65,0.32,2.44,0.32c1.47,0,2.55-0.41,3.24-1.24c0.69-0.83,1.03-2,1.03-3.53v-1.72c-0.59,0.76-1.3,1.33-2.13,1.72
			s-1.77,0.59-2.85,0.59c-2.22,0-3.97-0.8-5.24-2.41s-1.91-3.71-1.91-6.31V239.23z M167.34,239.58c0,1.82,0.38,3.28,1.15,4.38
			c0.77,1.1,1.94,1.66,3.51,1.66c0.99,0,1.82-0.23,2.49-0.68s1.22-1.09,1.66-1.92v-8.33c-0.42-0.77-0.98-1.38-1.66-1.83
			c-0.68-0.45-1.5-0.68-2.46-0.68c-1.57,0-2.75,0.66-3.53,1.97c-0.78,1.32-1.17,3.01-1.17,5.07V239.58z"/>
		<path class="st2" d="M198.15,231.97l-2.18,0.33l3.73,10.31l0.3,1.31h0.1l0.32-1.31l3.61-10.31l-2.19-0.33v-2.13h7v2.13l-1.49,0.25
			l-6.08,15.73h-2.49l-6.14-15.73l-1.49-0.25v-2.13h7V231.97z"/>
		<path class="st2" d="M219.12,248.3c-2.52,0-4.53-0.84-6.02-2.52c-1.49-1.68-2.23-3.86-2.23-6.54v-0.74c0-2.58,0.77-4.72,2.3-6.43
			c1.53-1.71,3.35-2.57,5.45-2.57c2.43,0,4.28,0.74,5.53,2.21c1.25,1.47,1.88,3.44,1.88,5.89v2.06h-11.75l-0.05,0.08
			c0.03,1.74,0.47,3.17,1.32,4.29c0.85,1.12,2.04,1.68,3.56,1.68c1.12,0,2.09-0.16,2.94-0.48c0.84-0.32,1.57-0.76,2.18-1.31
			l1.29,2.14c-0.65,0.62-1.5,1.15-2.57,1.58S220.62,248.3,219.12,248.3z M218.62,232.1c-1.1,0-2.05,0.47-2.83,1.4
			c-0.78,0.93-1.26,2.1-1.44,3.51l0.03,0.08h8.35v-0.44c0-1.29-0.35-2.38-1.04-3.25C221.01,232.53,219.98,232.1,218.62,232.1z"/>
		<path class="st2" d="M229.28,231.97v-2.13h5.67l0.32,2.63c0.51-0.93,1.15-1.65,1.9-2.18s1.62-0.79,2.59-0.79
			c0.26,0,0.52,0.02,0.79,0.06c0.27,0.04,0.48,0.08,0.63,0.12l-0.44,3.06l-1.87-0.1c-0.87,0-1.6,0.2-2.19,0.61s-1.05,0.98-1.37,1.71
			v10.39l2.73,0.47v2.11h-8.75v-2.11l2.73-0.47v-12.94L229.28,231.97z"/>
		<path class="st2" d="M260.96,231.97l-1.62,0.25l-6.9,18.51c-0.46,1.22-1.12,2.28-1.97,3.18c-0.86,0.9-2.01,1.36-3.46,1.36
			c-0.26,0-0.59-0.03-1-0.09c-0.41-0.06-0.73-0.12-0.95-0.18l0.33-2.59c-0.07-0.01,0.13,0,0.59,0.03c0.46,0.03,0.76,0.05,0.88,0.05
			c0.7,0,1.27-0.3,1.71-0.91s0.81-1.31,1.14-2.1l0.79-1.88l-5.97-15.36l-1.66-0.27v-2.13h7.31v2.13l-2.04,0.33l3.13,8.94l0.6,2.31
			h0.1l3.77-11.25l-2.06-0.33v-2.13h7.3V231.97z"/>
		<path class="st2" d="M278.15,231.97l-2.08,0.37l2.36,9.02l0.38,2.19h0.1l0.47-2.19l3.62-11.51h2.64l3.63,11.51l0.52,2.44h0.1
			l0.49-2.44l2.23-9.02l-2.11-0.37v-2.13h6.9v2.13l-1.57,0.23l-4.57,15.75h-2.66l-3.51-11.03l-0.75-3.05l-0.1,0.02l-0.7,3.03
			l-3.45,11.03h-2.66l-4.57-15.75l-1.59-0.23v-2.13h6.9V231.97z"/>
		<path class="st2" d="M308.32,248.3c-2.52,0-4.53-0.84-6.02-2.52c-1.49-1.68-2.23-3.86-2.23-6.54v-0.74c0-2.58,0.77-4.72,2.3-6.43
			c1.53-1.71,3.35-2.57,5.45-2.57c2.43,0,4.28,0.74,5.53,2.21c1.25,1.47,1.88,3.44,1.88,5.89v2.06h-11.75l-0.05,0.08
			c0.03,1.74,0.47,3.17,1.32,4.29c0.85,1.12,2.04,1.68,3.56,1.68c1.12,0,2.09-0.16,2.94-0.48c0.84-0.32,1.57-0.76,2.18-1.31
			l1.29,2.14c-0.65,0.62-1.5,1.15-2.57,1.58S309.82,248.3,308.32,248.3z M307.82,232.1c-1.1,0-2.05,0.47-2.83,1.4
			c-0.78,0.93-1.26,2.1-1.44,3.51l0.03,0.08h8.35v-0.44c0-1.29-0.35-2.38-1.04-3.25C310.21,232.53,309.18,232.1,307.82,232.1z"/>
		<path class="st2" d="M318.03,223.97v-2.12h6.02v23.53l2.73,0.47v2.11h-8.75v-2.11l2.73-0.47v-20.94L318.03,223.97z"/>
		<path class="st2" d="M328.82,223.97v-2.12h6.02v23.53l2.73,0.47v2.11h-8.75v-2.11l2.73-0.47v-20.94L328.82,223.97z"/>
	</g>
</g>
</svg>
