<svg xmlns="http://www.w3.org/2000/svg" viewBox="0 0 494.08 160.32"><path d="M12 159.32a11.01 11.01 0 0 1-11-11V88.68a11.01 11.01 0 0 1 11-11h145.3c.27 0 .52-.1.7-.3a.99.99 0 0 0 .29-.71l-.33-72L190.8 77.1a1 1 0 0 0 .91.59h290.36a11.01 11.01 0 0 1 11 11v59.64a11.01 11.01 0 0 1-11 11H12z" fill="#ee3125"/><path d="M159 9.35l30.9 68.16c.32.7 1.04 1.17 1.82 1.17h290.36a10.02 10.02 0 0 1 10 10v59.64a10.02 10.02 0 0 1-10 10H12a10.02 10.02 0 0 1-10-10V88.68a10.02 10.02 0 0 1 10-10h145.3c.53 0 1.04-.2 1.42-.6s.58-.9.58-1.42L159 9.35M156.96 0l.35 76.68H12a12.04 12.04 0 0 0-12 12v59.64a12.04 12.04 0 0 0 12 12h470.08a12.04 12.04 0 0 0 12-12V88.68a12.04 12.04 0 0 0-12-12H191.72L156.96 0z"/><text><tspan fill="#fff" font-family="RobotoSlab-Regular" font-size="24" x="64.533" y="112.105">Why did the cop fill over the yam? </tspan><tspan x="137.543" y="140.905" fill="#fff" font-family="RobotoSlab-Regular" font-size="24">He was PEELING out!</tspan></text></svg>