<?xml version="1.0" encoding="utf-8"?>
<!-- Generator: Adobe Illustrator 24.0.0, SVG Export Plug-In . SVG Version: 6.00 Build 0)  -->
<svg version="1.1" id="Layer_1" xmlns="http://www.w3.org/2000/svg" xmlns:xlink="http://www.w3.org/1999/xlink" x="0px" y="0px"
	 viewBox="0 0 494.08 160.32" style="enable-background:new 0 0 494.08 160.32;" xml:space="preserve">
<style type="text/css">
	.st0{fill:#EE3125;}
	.st1{enable-background:new    ;}
	.st2{fill:#FFFFFF;}
</style>
<path class="st0" d="M12,159.32c-6.07-0.01-10.99-4.93-11-11V88.68c0.01-6.07,4.93-10.99,11-11h145.3c0.27,0,0.52-0.1,0.7-0.3
	c0.19-0.19,0.29-0.44,0.29-0.71l-0.33-72L190.8,77.1c0.16,0.36,0.52,0.59,0.91,0.59h290.36c6.07,0.01,10.99,4.93,11,11v59.64
	c-0.01,6.07-4.93,10.99-11,11L12,159.32L12,159.32z"/>
<path d="M159,9.35l30.9,68.16c0.32,0.7,1.04,1.17,1.82,1.17h290.36c5.52,0.01,9.99,4.48,10,10v59.64c-0.01,5.52-4.48,9.99-10,10H12
	c-5.52-0.01-9.99-4.48-10-10V88.68c0.01-5.52,4.48-9.99,10-10h145.3c0.53,0,1.04-0.2,1.42-0.6s0.58-0.9,0.58-1.42L159,9.35
	 M156.96,0l0.35,76.68H12c-6.62,0.02-11.98,5.38-12,12v59.64c0.02,6.62,5.38,11.98,12,12h470.08c6.62-0.02,11.98-5.38,12-12V88.68
	c-0.02-6.62-5.38-11.98-12-12H191.72L156.96,0z"/>
<g class="st1">
	<path class="st2" d="M70.26,96.53l-1.73,0.27l2.19,9.4l0.32,2.13l0.07,0.01l0.46-2.14l3.14-11.16h2.04l3.15,11.16l0.47,2.19h0.07
		l0.34-2.19l2.14-9.4l-1.75-0.27v-1.49h5.43v1.49l-1.37,0.18l-3.71,15.4h-2.06l-3.38-11.84l-0.3-1.54H75.7l-0.29,1.54l-3.42,11.84
		h-2.05l-3.71-15.4l-1.37-0.18v-1.49h5.41V96.53z"/>
	<path class="st2" d="M87.64,110.63l1.91-0.33V95.64l-1.91-0.33v-1.49h4.22v7.29c0.44-0.61,0.97-1.08,1.61-1.42s1.34-0.5,2.11-0.5
		c1.36,0,2.41,0.41,3.16,1.22s1.12,2.06,1.12,3.75v6.14l1.91,0.33v1.48h-6.13v-1.48l1.91-0.33v-6.16c0-1.05-0.22-1.82-0.67-2.32
		s-1.12-0.75-2.01-0.75c-0.63,0-1.21,0.15-1.73,0.45s-0.95,0.71-1.28,1.22v7.56l1.91,0.33v1.48h-6.13V110.63z"/>
	<path class="st2" d="M115.5,100.91l-1.14,0.18l-4.83,12.96c-0.32,0.85-0.78,1.59-1.38,2.23s-1.41,0.95-2.43,0.95
		c-0.18,0-0.41-0.02-0.7-0.06s-0.51-0.08-0.67-0.12l0.23-1.82c-0.05-0.01,0.09,0,0.42,0.02s0.53,0.04,0.62,0.04
		c0.49,0,0.89-0.21,1.2-0.64s0.57-0.92,0.8-1.47l0.55-1.31l-4.18-10.76l-1.16-0.19v-1.49h5.12v1.49l-1.43,0.23l2.19,6.26l0.42,1.62
		h0.07l2.64-7.88l-1.44-0.23v-1.49h5.11V100.91z"/>
	<path class="st2" d="M131.58,110.59c-0.41,0.58-0.92,1.02-1.52,1.31s-1.29,0.45-2.08,0.45c-1.55,0-2.76-0.56-3.63-1.68
		s-1.31-2.6-1.31-4.42V106c0-2.04,0.44-3.68,1.31-4.93s2.09-1.88,3.65-1.88c0.75,0,1.41,0.14,1.99,0.42s1.06,0.68,1.47,1.2v-5.17
		l-1.91-0.33v-1.49h1.91h2.31v16.48l1.91,0.33v1.48h-3.91L131.58,110.59z M125.35,106.25c0,1.27,0.26,2.3,0.79,3.07
		s1.33,1.16,2.43,1.16c0.69,0,1.27-0.16,1.73-0.47s0.86-0.75,1.16-1.32v-5.88c-0.3-0.53-0.68-0.95-1.16-1.27s-1.05-0.47-1.71-0.47
		c-1.1,0-1.92,0.46-2.44,1.37s-0.79,2.1-0.79,3.56V106.25z"/>
	<path class="st2" d="M137.44,110.63l1.91-0.33v-9.06l-1.91-0.33v-1.49h4.22v10.88l1.91,0.33v1.48h-6.13V110.63z M141.65,96.18
		h-2.31v-2.36h2.31V96.18z"/>
	<path class="st2" d="M153.87,110.59c-0.41,0.58-0.92,1.02-1.52,1.31s-1.29,0.45-2.08,0.45c-1.55,0-2.76-0.56-3.63-1.68
		s-1.31-2.6-1.31-4.42V106c0-2.04,0.44-3.68,1.31-4.93s2.09-1.88,3.65-1.88c0.75,0,1.41,0.14,1.99,0.42s1.06,0.68,1.47,1.2v-5.17
		l-1.91-0.33v-1.49h1.91h2.31v16.48l1.91,0.33v1.48h-3.91L153.87,110.59z M147.64,106.25c0,1.27,0.26,2.3,0.79,3.07
		s1.33,1.16,2.43,1.16c0.69,0,1.27-0.16,1.73-0.47s0.86-0.75,1.16-1.32v-5.88c-0.3-0.53-0.68-0.95-1.16-1.27s-1.05-0.47-1.71-0.47
		c-1.1,0-1.92,0.46-2.44,1.37s-0.79,2.1-0.79,3.56V106.25z"/>
	<path class="st2" d="M169.72,96.37v3.06h2.4v1.71h-2.4v7.7c0,0.59,0.12,1.01,0.37,1.25s0.57,0.36,0.98,0.36
		c0.2,0,0.43-0.02,0.69-0.05s0.47-0.07,0.64-0.11l0.32,1.58c-0.22,0.14-0.54,0.26-0.96,0.35s-0.84,0.13-1.27,0.13
		c-0.94,0-1.68-0.28-2.24-0.85s-0.83-1.46-0.83-2.67v-7.7h-2v-1.71h2v-3.06H169.72z"/>
	<path class="st2" d="M174.16,110.63l1.91-0.33V95.64l-1.91-0.33v-1.49h4.22v7.29c0.44-0.61,0.97-1.08,1.61-1.42s1.34-0.5,2.11-0.5
		c1.36,0,2.41,0.41,3.16,1.22s1.12,2.06,1.12,3.75v6.14l1.91,0.33v1.48h-6.13v-1.48l1.91-0.33v-6.16c0-1.05-0.22-1.82-0.67-2.32
		s-1.12-0.75-2.01-0.75c-0.63,0-1.21,0.15-1.73,0.45s-0.95,0.71-1.28,1.22v7.56l1.91,0.33v1.48h-6.13V110.63z"/>
	<path class="st2" d="M195.64,112.35c-1.77,0-3.17-0.59-4.21-1.76s-1.56-2.7-1.56-4.58v-0.52c0-1.8,0.54-3.31,1.61-4.51
		s2.35-1.8,3.81-1.8c1.7,0,2.99,0.52,3.87,1.55s1.32,2.41,1.32,4.12v1.44h-8.23l-0.04,0.06c0.02,1.22,0.33,2.22,0.93,3.01
		s1.43,1.18,2.5,1.18c0.78,0,1.47-0.11,2.06-0.33s1.1-0.53,1.53-0.92l0.9,1.5c-0.45,0.44-1.05,0.81-1.8,1.11
		S196.69,112.35,195.64,112.35z M195.29,101.01c-0.77,0-1.43,0.33-1.98,0.98s-0.88,1.47-1.01,2.46l0.02,0.06h5.85v-0.3
		c0-0.91-0.24-1.66-0.73-2.27S196.24,101.01,195.29,101.01z"/>
	<path class="st2" d="M214.42,110.55c0.77,0,1.44-0.24,2.02-0.71s0.87-1.05,0.87-1.74h2.07l0.02,0.07c0.04,1.09-0.45,2.06-1.46,2.91
		s-2.19,1.27-3.53,1.27c-1.84,0-3.25-0.6-4.22-1.8s-1.46-2.71-1.46-4.54v-0.49c0-1.8,0.49-3.31,1.46-4.52s2.38-1.81,4.22-1.81
		c1.02,0,1.93,0.17,2.74,0.5s1.48,0.8,2.01,1.38l0.11,2.81h-1.84l-0.5-1.99c-0.27-0.27-0.62-0.48-1.05-0.64s-0.91-0.25-1.45-0.25
		c-1.21,0-2.08,0.44-2.6,1.31s-0.78,1.94-0.78,3.21v0.49c0,1.3,0.26,2.38,0.77,3.24S213.2,110.55,214.42,110.55z"/>
	<path class="st2" d="M221.67,105.65c0-1.88,0.51-3.42,1.52-4.63s2.39-1.82,4.14-1.82c1.75,0,3.13,0.61,4.15,1.82
		s1.53,2.76,1.53,4.64v0.26c0,1.89-0.51,3.44-1.52,4.64s-2.39,1.8-4.14,1.8c-1.76,0-3.14-0.6-4.16-1.81s-1.52-2.75-1.52-4.63V105.65
		z M223.98,105.91c0,1.34,0.28,2.45,0.85,3.33s1.41,1.31,2.53,1.31c1.09,0,1.93-0.44,2.5-1.31s0.86-1.98,0.86-3.33v-0.26
		c0-1.33-0.29-2.43-0.86-3.32s-1.41-1.32-2.52-1.32s-1.95,0.44-2.51,1.32s-0.84,1.99-0.84,3.32V105.91z"/>
	<path class="st2" d="M234.84,115.49l1.91-0.33v-13.92l-1.91-0.33v-1.49h3.89l0.21,1.55c0.42-0.58,0.94-1.02,1.54-1.32
		s1.31-0.46,2.1-0.46c1.57,0,2.79,0.62,3.66,1.87s1.31,2.89,1.31,4.94v0.25c0,1.83-0.44,3.3-1.31,4.42s-2.08,1.68-3.62,1.68
		c-0.78,0-1.47-0.13-2.06-0.39s-1.09-0.65-1.51-1.17v4.37l1.91,0.33v1.49h-6.13V115.49z M245.24,106c0-1.45-0.28-2.63-0.84-3.55
		s-1.4-1.38-2.51-1.38c-0.66,0-1.22,0.15-1.69,0.45s-0.85,0.7-1.14,1.22v6.18c0.29,0.52,0.67,0.93,1.13,1.21s1.04,0.43,1.72,0.43
		c1.09,0,1.92-0.4,2.48-1.2s0.84-1.83,0.84-3.11V106z"/>
	<path class="st2" d="M255.34,115.49l1.91-0.33v-13.92l-1.91-0.33v-1.49h3.89l0.21,1.55c0.42-0.58,0.94-1.02,1.54-1.32
		s1.31-0.46,2.1-0.46c1.57,0,2.79,0.62,3.66,1.87s1.31,2.89,1.31,4.94v0.25c0,1.83-0.44,3.3-1.31,4.42s-2.08,1.68-3.62,1.68
		c-0.78,0-1.47-0.13-2.06-0.39s-1.09-0.65-1.51-1.17v4.37l1.91,0.33v1.49h-6.13V115.49z M265.73,106c0-1.45-0.28-2.63-0.84-3.55
		s-1.4-1.38-2.51-1.38c-0.66,0-1.22,0.15-1.69,0.45s-0.85,0.7-1.14,1.22v6.18c0.29,0.52,0.67,0.93,1.13,1.21s1.04,0.43,1.72,0.43
		c1.09,0,1.92-0.4,2.48-1.2s0.84-1.83,0.84-3.11V106z"/>
	<path class="st2" d="M279.22,110.23c-0.4,0.68-0.91,1.2-1.54,1.57s-1.35,0.55-2.17,0.55c-1.38,0-2.45-0.44-3.22-1.32
		s-1.16-2.26-1.16-4.12v-5.66l-1.45-0.33v-1.49h1.45h2.31v7.5c0,1.35,0.2,2.28,0.6,2.79s1.02,0.76,1.86,0.76
		c0.82,0,1.5-0.17,2.03-0.5s0.94-0.8,1.21-1.41v-7.32l-1.7-0.33v-1.49h1.7h2.31v10.88l1.45,0.33v1.48h-3.53L279.22,110.23z"/>
	<path class="st2" d="M284.41,95.31v-1.49h4.22v16.48l1.91,0.33v1.48h-6.13v-1.48l1.91-0.33V95.64L284.41,95.31z"/>
	<path class="st2" d="M291.97,95.31v-1.49h4.22v16.48l1.91,0.33v1.48h-6.13v-1.48l1.91-0.33V95.64L291.97,95.31z"/>
	<path class="st2" d="M305.82,105.65c0-1.88,0.51-3.42,1.52-4.63s2.39-1.82,4.14-1.82c1.75,0,3.13,0.61,4.15,1.82
		s1.53,2.76,1.53,4.64v0.26c0,1.89-0.51,3.44-1.52,4.64s-2.39,1.8-4.14,1.8c-1.76,0-3.14-0.6-4.16-1.81s-1.52-2.75-1.52-4.63V105.65
		z M308.13,105.91c0,1.34,0.28,2.45,0.85,3.33s1.41,1.31,2.53,1.31c1.09,0,1.93-0.44,2.5-1.31s0.86-1.98,0.86-3.33v-0.26
		c0-1.33-0.29-2.43-0.86-3.32s-1.41-1.32-2.52-1.32s-1.95,0.44-2.51,1.32s-0.84,1.99-0.84,3.32V105.91z"/>
	<path class="st2" d="M323.45,100.91l-1.52,0.23l2.61,7.22l0.21,0.91h0.07l0.22-0.91l2.53-7.22l-1.54-0.23v-1.49h4.9v1.49
		l-1.04,0.18l-4.25,11.02h-1.75l-4.3-11.02l-1.04-0.18v-1.49h4.9V100.91z"/>
	<path class="st2" d="M338.13,112.35c-1.77,0-3.17-0.59-4.21-1.76s-1.56-2.7-1.56-4.58v-0.52c0-1.8,0.54-3.31,1.61-4.51
		s2.35-1.8,3.81-1.8c1.7,0,2.99,0.52,3.87,1.55s1.32,2.41,1.32,4.12v1.44h-8.23l-0.04,0.06c0.02,1.22,0.33,2.22,0.93,3.01
		s1.43,1.18,2.5,1.18c0.78,0,1.47-0.11,2.06-0.33s1.1-0.53,1.53-0.92l0.9,1.5c-0.45,0.44-1.05,0.81-1.8,1.11
		S339.18,112.35,338.13,112.35z M337.78,101.01c-0.77,0-1.43,0.33-1.98,0.98s-0.88,1.47-1.01,2.46l0.02,0.06h5.85v-0.3
		c0-0.91-0.24-1.66-0.73-2.27S338.73,101.01,337.78,101.01z"/>
	<path class="st2" d="M345.24,100.91v-1.49h3.97l0.22,1.84c0.36-0.65,0.8-1.16,1.33-1.52s1.13-0.55,1.81-0.55
		c0.18,0,0.37,0.01,0.56,0.04s0.34,0.06,0.44,0.09l-0.3,2.14l-1.31-0.07c-0.61,0-1.12,0.14-1.54,0.43s-0.73,0.69-0.96,1.2v7.28
		l1.91,0.33v1.48h-6.13v-1.48l1.91-0.33v-9.06L345.24,100.91z"/>
	<path class="st2" d="M365.17,96.37v3.06h2.4v1.71h-2.4v7.7c0,0.59,0.12,1.01,0.37,1.25s0.57,0.36,0.98,0.36
		c0.2,0,0.43-0.02,0.69-0.05s0.47-0.07,0.64-0.11l0.32,1.58c-0.22,0.14-0.54,0.26-0.96,0.35s-0.84,0.13-1.27,0.13
		c-0.94,0-1.68-0.28-2.24-0.85s-0.83-1.46-0.83-2.67v-7.7h-2v-1.71h2v-3.06H365.17z"/>
	<path class="st2" d="M369.61,110.63l1.91-0.33V95.64l-1.91-0.33v-1.49h4.22v7.29c0.44-0.61,0.97-1.08,1.61-1.42s1.34-0.5,2.11-0.5
		c1.36,0,2.41,0.41,3.16,1.22s1.12,2.06,1.12,3.75v6.14l1.91,0.33v1.48h-6.13v-1.48l1.91-0.33v-6.16c0-1.05-0.22-1.82-0.67-2.32
		s-1.12-0.75-2.01-0.75c-0.63,0-1.21,0.15-1.73,0.45s-0.95,0.71-1.28,1.22v7.56l1.91,0.33v1.48h-6.13V110.63z"/>
	<path class="st2" d="M391.09,112.35c-1.77,0-3.17-0.59-4.21-1.76s-1.56-2.7-1.56-4.58v-0.52c0-1.8,0.54-3.31,1.61-4.51
		s2.35-1.8,3.81-1.8c1.7,0,2.99,0.52,3.87,1.55s1.32,2.41,1.32,4.12v1.44h-8.23l-0.04,0.06c0.02,1.22,0.33,2.22,0.93,3.01
		s1.43,1.18,2.5,1.18c0.78,0,1.47-0.11,2.06-0.33s1.1-0.53,1.53-0.92l0.9,1.5c-0.45,0.44-1.05,0.81-1.8,1.11
		S392.13,112.35,391.09,112.35z M390.74,101.01c-0.77,0-1.43,0.33-1.98,0.98s-0.88,1.47-1.01,2.46l0.02,0.06h5.85v-0.3
		c0-0.91-0.24-1.66-0.73-2.27S391.69,101.01,390.74,101.01z"/>
	<path class="st2" d="M416.21,100.91l-1.14,0.18l-4.83,12.96c-0.32,0.85-0.78,1.59-1.38,2.23s-1.41,0.95-2.43,0.95
		c-0.18,0-0.41-0.02-0.7-0.06s-0.51-0.08-0.67-0.12l0.23-1.82c-0.05-0.01,0.09,0,0.42,0.02s0.53,0.04,0.62,0.04
		c0.49,0,0.89-0.21,1.2-0.64s0.57-0.92,0.8-1.47l0.55-1.31l-4.18-10.76l-1.16-0.19v-1.49h5.12v1.49l-1.43,0.23l2.19,6.26l0.42,1.62
		h0.07l2.64-7.88l-1.44-0.23v-1.49h5.11V100.91z"/>
	<path class="st2" d="M425.88,112.11c-0.07-0.34-0.12-0.65-0.16-0.93s-0.07-0.55-0.08-0.82c-0.45,0.57-1,1.04-1.67,1.42
		s-1.38,0.57-2.14,0.57c-1.32,0-2.32-0.32-3.01-0.97s-1.03-1.55-1.03-2.72c0-1.2,0.49-2.13,1.46-2.78s2.31-0.98,4-0.98h2.38v-1.48
		c0-0.74-0.23-1.33-0.7-1.76s-1.12-0.65-1.96-0.65c-0.58,0-1.09,0.07-1.53,0.22s-0.8,0.35-1.07,0.61l-0.25,1.34h-1.78v-2.46
		c0.58-0.46,1.28-0.83,2.1-1.11s1.71-0.42,2.67-0.42c1.44,0,2.6,0.37,3.49,1.1s1.34,1.79,1.34,3.15v6.11c0,0.16,0,0.32,0.01,0.48
		s0.01,0.31,0.03,0.47l0.94,0.13v1.48H425.88z M422.17,110.42c0.77,0,1.46-0.18,2.1-0.55s1.09-0.81,1.36-1.32v-2.09h-2.46
		c-0.95,0-1.69,0.22-2.24,0.66s-0.83,0.97-0.83,1.59c0,0.55,0.17,0.98,0.52,1.27S421.47,110.42,422.17,110.42z"/>
	<path class="st2" d="M430.37,110.63l1.91-0.33v-9.06l-1.91-0.33v-1.49h3.98l0.15,1.65c0.41-0.6,0.93-1.07,1.57-1.39
		s1.38-0.49,2.23-0.49s1.57,0.2,2.17,0.59s1.06,0.98,1.37,1.76c0.4-0.72,0.93-1.29,1.58-1.71s1.42-0.63,2.3-0.63
		c1.3,0,2.32,0.44,3.07,1.33s1.12,2.22,1.12,4v5.78l1.91,0.33v1.48h-6.14v-1.48l1.91-0.33v-5.8c0-1.25-0.21-2.13-0.64-2.65
		s-1.07-0.78-1.91-0.78c-0.8,0-1.45,0.28-1.94,0.85s-0.77,1.28-0.85,2.14v6.25l1.91,0.33v1.48h-6.13v-1.48l1.91-0.33v-5.8
		c0-1.19-0.22-2.06-0.66-2.61s-1.08-0.83-1.92-0.83c-0.7,0-1.28,0.14-1.73,0.43s-0.8,0.7-1.04,1.22v7.58l1.91,0.33v1.48h-6.13
		V110.63z"/>
	<path class="st2" d="M456.68,107.3c0.01-1.14,0.1-1.93,0.29-2.36s0.67-1.01,1.47-1.73c0.77-0.91,1.32-1.62,1.65-2.11
		s0.49-1.09,0.49-1.78c0-0.83-0.22-1.46-0.66-1.91s-1.07-0.67-1.89-0.67c-0.71,0-1.31,0.19-1.81,0.58s-0.74,0.96-0.74,1.71h-2.2
		l-0.04-0.07c-0.02-1.26,0.42-2.27,1.32-3.02s2.06-1.14,3.47-1.14c1.54,0,2.73,0.39,3.59,1.18s1.28,1.88,1.28,3.29
		c0,1.01-0.28,1.93-0.83,2.77s-1.28,1.69-2.19,2.57c-0.41,0.42-0.67,0.8-0.76,1.14s-0.13,0.86-0.13,1.57H456.68z M459.06,112.11
		h-2.4v-2.44h2.4V112.11z"/>
</g>
<g class="st1">
	<path class="st2" d="M138.38,125.33v-1.49h6.13v1.49l-1.91,0.33v5.89h8.27v-5.89l-1.91-0.33v-1.49h1.91h2.31h1.91v1.49l-1.91,0.33
		v13.44l1.91,0.33v1.48h-6.13v-1.48l1.91-0.33v-5.73h-8.27v5.73l1.91,0.33v1.48h-6.13v-1.48l1.91-0.33v-13.44L138.38,125.33z"/>
	<path class="st2" d="M162.81,141.15c-1.77,0-3.17-0.59-4.21-1.76s-1.56-2.7-1.56-4.58v-0.52c0-1.8,0.54-3.31,1.61-4.51
		s2.35-1.8,3.81-1.8c1.7,0,2.99,0.52,3.87,1.55s1.32,2.41,1.32,4.12v1.44h-8.23l-0.04,0.06c0.02,1.22,0.33,2.22,0.93,3.01
		s1.43,1.18,2.5,1.18c0.78,0,1.47-0.11,2.06-0.33s1.1-0.53,1.53-0.92l0.9,1.5c-0.45,0.44-1.05,0.81-1.8,1.11
		S163.86,141.15,162.81,141.15z M162.46,129.81c-0.77,0-1.43,0.33-1.98,0.98s-0.88,1.47-1.01,2.46l0.02,0.06h5.85V133
		c0-0.91-0.24-1.66-0.73-2.27S163.41,129.81,162.46,129.81z"/>
	<path class="st2" d="M180.39,129.71l-1.45,0.26l1.65,6.32l0.27,1.54h0.07l0.33-1.54l2.53-8.06h1.85l2.54,8.06l0.36,1.71h0.07
		l0.34-1.71l1.56-6.32l-1.48-0.26v-1.49h4.83v1.49l-1.1,0.16l-3.2,11.03h-1.86l-2.46-7.72l-0.53-2.13l-0.07,0.01l-0.49,2.12
		l-2.41,7.72h-1.86l-3.2-11.03l-1.11-0.16v-1.49h4.83V129.71z"/>
	<path class="st2" d="M204,140.91c-0.07-0.34-0.12-0.65-0.16-0.93s-0.07-0.55-0.08-0.82c-0.45,0.57-1,1.04-1.67,1.42
		s-1.38,0.57-2.14,0.57c-1.32,0-2.32-0.32-3.01-0.97s-1.03-1.55-1.03-2.72c0-1.2,0.49-2.13,1.46-2.78s2.31-0.98,4-0.98h2.38v-1.48
		c0-0.74-0.23-1.33-0.7-1.76s-1.12-0.65-1.96-0.65c-0.58,0-1.09,0.07-1.53,0.22s-0.8,0.35-1.07,0.61l-0.25,1.34h-1.78v-2.46
		c0.58-0.46,1.28-0.83,2.1-1.11s1.71-0.42,2.67-0.42c1.44,0,2.6,0.37,3.49,1.1s1.34,1.79,1.34,3.15v6.11c0,0.16,0,0.32,0.01,0.48
		s0.01,0.31,0.03,0.47l0.94,0.13v1.48H204z M200.29,139.22c0.77,0,1.46-0.18,2.1-0.55s1.09-0.81,1.36-1.32v-2.09h-2.46
		c-0.95,0-1.69,0.22-2.24,0.66s-0.83,0.97-0.83,1.59c0,0.55,0.17,0.98,0.52,1.27S199.59,139.22,200.29,139.22z"/>
	<path class="st2" d="M218.65,132.21h-1.73l-0.38-1.52c-0.28-0.27-0.63-0.48-1.06-0.64s-0.91-0.24-1.45-0.24
		c-0.82,0-1.43,0.18-1.83,0.54s-0.6,0.79-0.6,1.3c0,0.5,0.18,0.89,0.53,1.18s1.07,0.55,2.14,0.77c1.6,0.34,2.79,0.81,3.57,1.4
		s1.17,1.38,1.17,2.37c0,1.12-0.46,2.04-1.37,2.73s-2.1,1.04-3.57,1.04c-0.96,0-1.82-0.11-2.59-0.33s-1.45-0.54-2.05-0.97
		l-0.01-2.89h1.73l0.43,1.7c0.27,0.24,0.63,0.42,1.08,0.53s0.92,0.16,1.4,0.16c0.82,0,1.46-0.17,1.93-0.5s0.7-0.77,0.7-1.31
		c0-0.51-0.19-0.93-0.58-1.25s-1.12-0.61-2.2-0.86c-1.54-0.34-2.7-0.79-3.48-1.37s-1.17-1.36-1.17-2.34c0-1.03,0.44-1.91,1.32-2.64
		s2.02-1.09,3.43-1.09c0.96,0,1.82,0.12,2.59,0.38s1.4,0.6,1.91,1.04L218.65,132.21z"/>
	<path class="st2" d="M234.77,123.84c1.82,0,3.24,0.47,4.25,1.41s1.52,2.17,1.52,3.7c0,1.55-0.51,2.79-1.52,3.71
		s-2.43,1.39-4.25,1.39h-3.62v5.04l1.91,0.33v1.48h-6.13v-1.48l1.91-0.33v-13.44l-1.91-0.33v-1.49h1.91H234.77z M231.15,132.26h3.62
		c1.16,0,2.02-0.31,2.6-0.93s0.86-1.4,0.86-2.35s-0.29-1.73-0.86-2.37s-1.44-0.95-2.6-0.95h-3.62V132.26z"/>
	<path class="st2" d="M242.18,140.91v-1.48l1.91-0.33v-13.44l-1.91-0.33v-1.49h13.1v4.1h-1.98l-0.19-2.29h-6.71v5.52h6.53V133h-6.53
		v6.11h6.86l0.19-2.29h1.97v4.09H242.18z"/>
	<path class="st2" d="M257.48,140.91v-1.48l1.91-0.33v-13.44l-1.91-0.33v-1.49h13.1v4.1h-1.98l-0.19-2.29h-6.71v5.52h6.53V133h-6.53
		v6.11h6.86l0.19-2.29h1.97v4.09H257.48z"/>
	<path class="st2" d="M272.79,140.91v-1.48l1.91-0.33v-13.44l-1.91-0.33v-1.49h1.91h2.31h1.91v1.49l-1.91,0.33v13.44h5.93l0.18-1.96
		h1.97v3.76H272.79z"/>
	<path class="st2" d="M286.83,125.33v-1.49h6.13v1.49l-1.91,0.33v13.44l1.91,0.33v1.48h-6.13v-1.48l1.91-0.33v-13.44L286.83,125.33z
		"/>
	<path class="st2" d="M311.31,123.84v1.49l-1.91,0.33v15.25h-2.31l-8.2-13.17l-0.07,0.02v11.34l1.91,0.33v1.48h-6.13v-1.48
		l1.91-0.33v-13.44l-1.91-0.33v-1.49h1.91h2.31l8.2,13.16l0.07-0.02v-11.32l-1.91-0.33v-1.49h4.22H311.31z"/>
	<path class="st2" d="M326.46,138.97c-0.5,0.52-1.24,1.02-2.21,1.48s-2.25,0.7-3.81,0.7c-2.28,0-4.14-0.8-5.58-2.4
		s-2.16-3.68-2.16-6.23v-0.28c0-2.57,0.71-4.65,2.14-6.25s3.32-2.39,5.69-2.39c1.27,0,2.38,0.2,3.33,0.59s1.76,0.92,2.42,1.56v3.09
		h-1.62l-0.56-2.36c-0.38-0.31-0.85-0.57-1.39-0.77s-1.19-0.3-1.95-0.3c-1.84,0-3.26,0.63-4.26,1.89s-1.49,2.9-1.49,4.9v0.3
		c0,2.04,0.48,3.69,1.45,4.95s2.29,1.89,3.99,1.89c0.93,0,1.69-0.1,2.29-0.29s1.07-0.41,1.43-0.64v-3.74l-2.8-0.12v-1.7h5.11V138.97
		z"/>
	<path class="st2" d="M335.32,134.45c0-1.88,0.51-3.42,1.52-4.63s2.39-1.82,4.14-1.82c1.75,0,3.13,0.61,4.15,1.82
		s1.53,2.76,1.53,4.64v0.26c0,1.89-0.51,3.44-1.52,4.64s-2.39,1.8-4.14,1.8c-1.76,0-3.14-0.6-4.16-1.81s-1.52-2.75-1.52-4.63V134.45
		z M337.63,134.71c0,1.34,0.28,2.45,0.85,3.33s1.41,1.31,2.53,1.31c1.09,0,1.93-0.44,2.5-1.31s0.86-1.98,0.86-3.33v-0.26
		c0-1.33-0.29-2.43-0.86-3.32s-1.41-1.32-2.52-1.32s-1.95,0.44-2.51,1.32s-0.84,1.99-0.84,3.32V134.71z"/>
	<path class="st2" d="M357.84,139.03c-0.4,0.68-0.91,1.2-1.54,1.57s-1.35,0.55-2.17,0.55c-1.38,0-2.45-0.44-3.22-1.32
		s-1.16-2.26-1.16-4.12v-5.66l-1.45-0.33v-1.49h1.45h2.31v7.5c0,1.35,0.2,2.28,0.6,2.79s1.02,0.76,1.86,0.76
		c0.82,0,1.5-0.17,2.03-0.5s0.94-0.8,1.21-1.41v-7.32l-1.7-0.33v-1.49h1.7h2.31v10.88l1.45,0.33v1.48H358L357.84,139.03z"/>
	<path class="st2" d="M367.38,125.17v3.06h2.4v1.71h-2.4v7.7c0,0.59,0.12,1.01,0.37,1.25s0.57,0.36,0.98,0.36
		c0.2,0,0.43-0.02,0.69-0.05s0.47-0.07,0.64-0.11l0.32,1.58c-0.22,0.14-0.54,0.26-0.96,0.35s-0.84,0.13-1.27,0.13
		c-0.94,0-1.68-0.28-2.24-0.85s-0.83-1.46-0.83-2.67v-7.7h-2v-1.71h2v-3.06H367.38z"/>
	<path class="st2" d="M375.08,135.3h-2.31v-11.46h2.31V135.3z M375.08,140.91h-2.31v-2.39h2.31V140.91z"/>
</g>
</svg>
