<?xml version="1.0" encoding="utf-8"?>
<!-- Generator: Adobe Illustrator 24.0.0, SVG Export Plug-In . SVG Version: 6.00 Build 0)  -->
<svg version="1.1" id="Layer_1" xmlns="http://www.w3.org/2000/svg" xmlns:xlink="http://www.w3.org/1999/xlink" x="0px" y="0px"
	 viewBox="0 0 494.08 160.32" style="enable-background:new 0 0 494.08 160.32;" xml:space="preserve">
<style type="text/css">
	.st0{fill:#EE3125;}
	.st1{fill:none;}
	.st2{fill:#FFFFFF;}
	.st3{font-family:'RobotoSlab-Regular';}
	.st4{font-size:24px;}
</style>
<g>
	<g>
		<path class="st0" d="M12,159.32c-6.07,0-11-4.93-11-11V88.68c0-6.07,4.93-11,11-11h145.31c0.27,0,0.52-0.11,0.71-0.29
			c0.19-0.19,0.29-0.44,0.29-0.71l-0.33-72l32.83,72.42c0.16,0.36,0.52,0.59,0.91,0.59h290.36c6.07,0,11,4.93,11,11v59.64
			c0,6.07-4.93,11-11,11H12z"/>
		<path d="M159,9.35l30.9,68.16c0.32,0.71,1.04,1.17,1.82,1.17h290.36c5.51,0,10,4.49,10,10v59.64c0,5.51-4.49,10-10,10H12
			c-5.51,0-10-4.49-10-10V88.68c0-5.51,4.49-10,10-10h145.31c0.53,0,1.04-0.21,1.42-0.59s0.58-0.89,0.58-1.42L159,9.35 M156.96,0
			l0.35,76.68H12c-6.6,0-12,5.4-12,12v59.64c0,6.6,5.4,12,12,12h470.08c6.6,0,12-5.4,12-12V88.68c0-6.6-5.4-12-12-12H191.72
			L156.96,0L156.96,0z"/>
	</g>
	<rect x="37.38" y="93.82" class="st1" width="439.55" height="55.01"/>
	<text transform="matrix(1 0 0 1 64.5326 112.1054)"><tspan x="0" y="0" class="st2 st3 st4">Why did the cop fill over the yam?  </tspan><tspan x="73.01" y="28.8" class="st2 st3 st4">He was PEELING out!</tspan></text>
</g>
</svg>
