<?xml version="1.0" encoding="utf-8"?>
<!-- Generator: Adobe Illustrator 24.0.0, SVG Export Plug-In . SVG Version: 6.00 Build 0)  -->
<svg version="1.1" id="Layer_1" xmlns="http://www.w3.org/2000/svg" xmlns:xlink="http://www.w3.org/1999/xlink" x="0px" y="0px"
	 viewBox="0 0 344.08 242.5" style="enable-background:new 0 0 344.08 242.5;" xml:space="preserve">
<style type="text/css">
	.st0{fill:#EE3125;}
	.st1{fill:none;}
	.st2{fill:#FFFFFF;}
	.st3{font-family:'RobotoSlab-Regular';}
	.st4{font-size:24px;}
</style>
<g>
	<g>
		<path class="st0" d="M12,241.5c-6.07,0-11-4.93-11-11v-59.64c0-6.07,4.93-11,11-11h255.31c0.27,0,0.53-0.11,0.72-0.3
			s0.29-0.46,0.28-0.73L263.35,9.38l37.4,149.72c0.11,0.45,0.51,0.76,0.97,0.76h30.36c6.07,0,11,4.93,11,11v59.64
			c0,6.07-4.93,11-11,11H12z"/>
		<path d="M264.66,18.76l35.12,140.59c0.22,0.89,1.02,1.52,1.94,1.52h30.36c5.51,0,10,4.49,10,10v59.64c0,5.51-4.49,10-10,10H12
			c-5.51,0-10-4.49-10-10v-59.64c0-5.51,4.49-10,10-10h255.31c0.54,0,1.06-0.22,1.44-0.61c0.38-0.39,0.58-0.92,0.56-1.46
			L264.66,18.76 M262.03,0l5.28,158.86H12c-6.6,0-12,5.4-12,12v59.64c0,6.6,5.4,12,12,12h320.08c6.6,0,12-5.4,12-12v-59.64
			c0-6.6-5.4-12-12-12h-30.36L262.03,0L262.03,0z"/>
	</g>
	<rect x="14.79" y="176" class="st1" width="329.14" height="55.01"/>
	<text transform="matrix(1 0 0 1 42.8163 194.2827)"><tspan x="0" y="0" class="st2 st3 st4">Not what they meant by </tspan><tspan x="-1.12" y="28.8" class="st2 st3 st4">roasting on an open fire!</tspan></text>
</g>
</svg>
