<svg xmlns="http://www.w3.org/2000/svg" viewBox="0 0 344.08 242.5"><path d="M12 241.5a11.01 11.01 0 0 1-11-11v-59.64a11.01 11.01 0 0 1 11-11h255.3c.27 0 .53-.1.72-.3s.3-.46.28-.73L263.35 9.38l37.4 149.72c.1.45.5.76.97.76h30.36a11.01 11.01 0 0 1 11 11v59.64a11.01 11.01 0 0 1-11 11H12z" fill="#ee3125"/><path d="M264.66 18.76l35.12 140.6a2 2 0 0 0 1.94 1.52h30.36a10.02 10.02 0 0 1 10 10v59.64a10.02 10.02 0 0 1-10 10H12a10.02 10.02 0 0 1-10-10v-59.64a10.02 10.02 0 0 1 10-10h255.3c.54 0 1.06-.22 1.44-.6a1.99 1.99 0 0 0 .56-1.46l-4.65-140.04M262.03 0l5.28 158.86H12a12.04 12.04 0 0 0-12 12v59.64a12.04 12.04 0 0 0 12 12h320.08a12.04 12.04 0 0 0 12-12v-59.64a12.04 12.04 0 0 0-12-12h-30.36L262.03 0z"/><text><tspan fill="#fff" font-family="RobotoSlab-Regular" font-size="24" x="42.816" y="194.283">Not what they meant by </tspan><tspan x="41.696" y="223.083" fill="#fff" font-family="RobotoSlab-Regular" font-size="24">roasting on an open fire!</tspan></text></svg>