<?xml version="1.0" encoding="utf-8"?>
<!-- Generator: Adobe Illustrator 24.0.0, SVG Export Plug-In . SVG Version: 6.00 Build 0)  -->
<svg version="1.1" id="Layer_1" xmlns="http://www.w3.org/2000/svg" xmlns:xlink="http://www.w3.org/1999/xlink" x="0px" y="0px"
	 viewBox="0 0 344.08 242.5" style="enable-background:new 0 0 344.08 242.5;" xml:space="preserve">
<style type="text/css">
	.st0{fill:#EE3125;}
	.st1{enable-background:new    ;}
	.st2{fill:#FFFFFF;}
</style>
<path class="st0" d="M12,241.5c-6.07-0.01-10.99-4.93-11-11v-59.64c0.01-6.07,4.93-10.99,11-11h255.3c0.27,0,0.53-0.1,0.72-0.3
	s0.3-0.46,0.28-0.73L263.35,9.38l37.4,149.72c0.1,0.45,0.5,0.76,0.97,0.76h30.36c6.07,0.01,10.99,4.93,11,11v59.64
	c-0.01,6.07-4.93,10.99-11,11H12z"/>
<path d="M264.66,18.76l35.12,140.6c0.22,0.89,1.02,1.52,1.94,1.52h30.36c5.52,0.01,9.99,4.48,10,10v59.64
	c-0.01,5.52-4.48,9.99-10,10H12c-5.52-0.01-9.99-4.48-10-10v-59.64c0.01-5.52,4.48-9.99,10-10h255.3c0.54,0,1.06-0.22,1.44-0.6
	c0.38-0.39,0.58-0.92,0.56-1.46l-4.65-140.04 M262.03,0l5.28,158.86H12c-6.62,0.02-11.98,5.38-12,12v59.64
	c0.02,6.62,5.38,11.98,12,12h320.08c6.62-0.02,11.98-5.38,12-12v-59.64c-0.02-6.62-5.38-11.98-12-12h-30.36L262.03,0z"/>
<g class="st1">
	<path class="st2" d="M60.36,177.22v1.49l-1.91,0.33v15.25h-2.31l-8.2-13.17l-0.07,0.02v11.34l1.91,0.33v1.48h-6.13v-1.48l1.91-0.33
		v-13.44l-1.91-0.33v-1.49h1.91h2.31l8.2,13.16l0.07-0.02v-11.32l-1.91-0.33v-1.49h4.22H60.36z"/>
	<path class="st2" d="M62.15,187.83c0-1.88,0.51-3.42,1.52-4.63s2.39-1.82,4.14-1.82c1.75,0,3.13,0.61,4.15,1.82
		s1.53,2.76,1.53,4.64v0.26c0,1.89-0.51,3.44-1.52,4.64s-2.39,1.8-4.14,1.8c-1.76,0-3.14-0.6-4.16-1.81s-1.52-2.75-1.52-4.63V187.83
		z M64.46,188.08c0,1.34,0.28,2.45,0.85,3.33s1.41,1.31,2.53,1.31c1.09,0,1.93-0.44,2.5-1.31s0.86-1.98,0.86-3.33v-0.26
		c0-1.33-0.29-2.43-0.86-3.32s-1.41-1.32-2.52-1.32s-1.95,0.44-2.51,1.32s-0.84,1.99-0.84,3.32V188.08z"/>
	<path class="st2" d="M79.64,178.54v3.06h2.4v1.71h-2.4v7.7c0,0.59,0.12,1.01,0.37,1.25s0.57,0.36,0.98,0.36
		c0.2,0,0.43-0.02,0.69-0.05s0.47-0.07,0.64-0.11l0.32,1.58c-0.22,0.14-0.54,0.26-0.96,0.35s-0.84,0.13-1.27,0.13
		c-0.94,0-1.68-0.28-2.24-0.85s-0.83-1.46-0.83-2.67v-7.7h-2v-1.71h2v-3.06H79.64z"/>
	<path class="st2" d="M94.86,183.09l-1.45,0.26l1.65,6.32l0.27,1.54h0.07l0.33-1.54l2.53-8.06h1.85l2.54,8.06l0.36,1.71h0.07
		l0.34-1.71l1.56-6.32l-1.48-0.26v-1.49h4.83v1.49l-1.1,0.16l-3.2,11.03h-1.86l-2.46-7.72l-0.53-2.13l-0.07,0.01l-0.49,2.12
		l-2.41,7.72h-1.86l-3.2-11.03l-1.11-0.16v-1.49h4.83V183.09z"/>
	<path class="st2" d="M109.88,192.81l1.91-0.33v-14.66l-1.91-0.33V176h4.22v7.29c0.44-0.61,0.97-1.08,1.61-1.42s1.34-0.5,2.11-0.5
		c1.36,0,2.41,0.41,3.16,1.22s1.12,2.06,1.12,3.75v6.14l1.91,0.33v1.48h-6.13v-1.48l1.91-0.33v-6.16c0-1.05-0.22-1.82-0.67-2.32
		s-1.12-0.75-2.01-0.75c-0.63,0-1.21,0.15-1.73,0.45s-0.95,0.71-1.28,1.22v7.56l1.91,0.33v1.48h-6.13V192.81z"/>
	<path class="st2" d="M133.96,194.28c-0.07-0.34-0.12-0.65-0.16-0.93s-0.07-0.55-0.08-0.82c-0.45,0.57-1,1.04-1.67,1.42
		s-1.38,0.57-2.14,0.57c-1.32,0-2.32-0.32-3.01-0.97s-1.03-1.55-1.03-2.72c0-1.2,0.49-2.13,1.46-2.78s2.31-0.98,4-0.98h2.38v-1.48
		c0-0.74-0.23-1.33-0.7-1.76s-1.12-0.65-1.96-0.65c-0.58,0-1.09,0.07-1.53,0.22s-0.8,0.35-1.07,0.61l-0.25,1.34h-1.78v-2.46
		c0.58-0.46,1.28-0.83,2.1-1.11s1.71-0.42,2.67-0.42c1.44,0,2.6,0.37,3.49,1.1s1.34,1.79,1.34,3.15v6.11c0,0.16,0,0.32,0.01,0.48
		s0.01,0.31,0.03,0.47l0.94,0.13v1.48H133.96z M130.25,192.6c0.77,0,1.46-0.18,2.1-0.55s1.09-0.81,1.36-1.32v-2.09h-2.46
		c-0.95,0-1.69,0.22-2.24,0.66s-0.83,0.97-0.83,1.59c0,0.55,0.17,0.98,0.52,1.27S129.55,192.6,130.25,192.6z"/>
	<path class="st2" d="M142.94,178.54v3.06h2.4v1.71h-2.4v7.7c0,0.59,0.12,1.01,0.37,1.25s0.57,0.36,0.98,0.36
		c0.2,0,0.43-0.02,0.69-0.05s0.47-0.07,0.64-0.11l0.32,1.58c-0.22,0.14-0.54,0.26-0.96,0.35s-0.84,0.13-1.27,0.13
		c-0.94,0-1.68-0.28-2.24-0.85s-0.83-1.46-0.83-2.67v-7.7h-2v-1.71h2v-3.06H142.94z"/>
	<path class="st2" d="M157.69,178.54v3.06h2.4v1.71h-2.4v7.7c0,0.59,0.12,1.01,0.37,1.25s0.57,0.36,0.98,0.36
		c0.2,0,0.43-0.02,0.69-0.05s0.47-0.07,0.64-0.11l0.32,1.58c-0.22,0.14-0.54,0.26-0.96,0.35s-0.84,0.13-1.27,0.13
		c-0.94,0-1.68-0.28-2.24-0.85s-0.83-1.46-0.83-2.67v-7.7h-2v-1.71h2v-3.06H157.69z"/>
	<path class="st2" d="M162.14,192.81l1.91-0.33v-14.66l-1.91-0.33V176h4.22v7.29c0.44-0.61,0.97-1.08,1.61-1.42s1.34-0.5,2.11-0.5
		c1.36,0,2.41,0.41,3.16,1.22c0.75,0.81,1.12,2.06,1.12,3.75v6.14l1.91,0.33v1.48h-6.13v-1.48l1.91-0.33v-6.16
		c0-1.05-0.22-1.82-0.67-2.32s-1.12-0.75-2.01-0.75c-0.63,0-1.21,0.15-1.73,0.45s-0.95,0.71-1.28,1.22v7.56l1.91,0.33v1.48h-6.13
		V192.81z"/>
	<path class="st2" d="M183.62,194.53c-1.77,0-3.17-0.59-4.21-1.76s-1.56-2.7-1.56-4.58v-0.52c0-1.8,0.54-3.31,1.61-4.51
		s2.35-1.8,3.81-1.8c1.7,0,2.99,0.52,3.87,1.55s1.32,2.41,1.32,4.12v1.44h-8.23l-0.04,0.06c0.02,1.22,0.33,2.22,0.93,3.01
		s1.43,1.18,2.5,1.18c0.78,0,1.47-0.11,2.06-0.33s1.1-0.53,1.53-0.92l0.9,1.5c-0.45,0.44-1.05,0.81-1.8,1.11
		S184.66,194.53,183.62,194.53z M183.27,183.19c-0.77,0-1.43,0.33-1.98,0.98s-0.88,1.47-1.01,2.46l0.02,0.06h5.85v-0.3
		c0-0.91-0.24-1.66-0.73-2.27S184.22,183.19,183.27,183.19z"/>
	<path class="st2" d="M202.62,183.09l-1.14,0.18l-4.83,12.96c-0.32,0.85-0.78,1.59-1.38,2.23s-1.41,0.95-2.43,0.95
		c-0.18,0-0.41-0.02-0.7-0.06s-0.51-0.08-0.67-0.12l0.23-1.82c-0.05-0.01,0.09,0,0.42,0.02s0.53,0.04,0.62,0.04
		c0.49,0,0.89-0.21,1.2-0.64s0.57-0.92,0.8-1.47l0.55-1.31l-4.18-10.76l-1.16-0.19v-1.49h5.12v1.49l-1.43,0.23l2.19,6.26l0.42,1.62
		h0.07l2.64-7.88l-1.44-0.23v-1.49h5.11V183.09z"/>
	<path class="st2" d="M209.7,192.81l1.91-0.33v-9.06l-1.91-0.33v-1.49h3.98l0.15,1.65c0.41-0.6,0.93-1.07,1.57-1.39
		s1.38-0.49,2.23-0.49s1.57,0.2,2.17,0.59s1.06,0.98,1.37,1.76c0.4-0.72,0.93-1.29,1.58-1.71s1.42-0.63,2.3-0.63
		c1.3,0,2.32,0.44,3.07,1.33s1.12,2.22,1.12,4v5.78l1.91,0.33v1.48h-6.14v-1.48l1.91-0.33v-5.8c0-1.25-0.21-2.13-0.64-2.65
		s-1.07-0.78-1.91-0.78c-0.8,0-1.45,0.28-1.94,0.85s-0.77,1.28-0.85,2.14v6.25l1.91,0.33v1.48h-6.13v-1.48l1.91-0.33v-5.8
		c0-1.19-0.22-2.06-0.66-2.61s-1.08-0.83-1.92-0.83c-0.7,0-1.28,0.14-1.73,0.43s-0.8,0.7-1.04,1.22v7.58l1.91,0.33v1.48h-6.13
		V192.81z"/>
	<path class="st2" d="M238.51,194.53c-1.77,0-3.17-0.59-4.21-1.76s-1.56-2.7-1.56-4.58v-0.52c0-1.8,0.54-3.31,1.61-4.51
		s2.35-1.8,3.81-1.8c1.7,0,2.99,0.52,3.87,1.55s1.32,2.41,1.32,4.12v1.44h-8.23l-0.04,0.06c0.02,1.22,0.33,2.22,0.93,3.01
		s1.43,1.18,2.5,1.18c0.78,0,1.47-0.11,2.06-0.33s1.1-0.53,1.53-0.92l0.9,1.5c-0.45,0.44-1.05,0.81-1.8,1.11
		S239.55,194.53,238.51,194.53z M238.16,183.19c-0.77,0-1.43,0.33-1.98,0.98s-0.88,1.47-1.01,2.46l0.02,0.06h5.85v-0.3
		c0-0.91-0.24-1.66-0.73-2.27S239.11,183.19,238.16,183.19z"/>
	<path class="st2" d="M253.89,194.28c-0.07-0.34-0.12-0.65-0.16-0.93s-0.07-0.55-0.08-0.82c-0.45,0.57-1,1.04-1.67,1.42
		s-1.38,0.57-2.14,0.57c-1.32,0-2.32-0.32-3.01-0.97s-1.03-1.55-1.03-2.72c0-1.2,0.49-2.13,1.46-2.78s2.31-0.98,4-0.98h2.38v-1.48
		c0-0.74-0.23-1.33-0.7-1.76s-1.12-0.65-1.96-0.65c-0.58,0-1.09,0.07-1.53,0.22s-0.8,0.35-1.07,0.61l-0.25,1.34h-1.78v-2.46
		c0.58-0.46,1.28-0.83,2.1-1.11s1.71-0.42,2.67-0.42c1.44,0,2.6,0.37,3.49,1.1s1.34,1.79,1.34,3.15v6.11c0,0.16,0,0.32,0.01,0.48
		s0.01,0.31,0.03,0.47l0.94,0.13v1.48H253.89z M250.18,192.6c0.77,0,1.46-0.18,2.1-0.55s1.09-0.81,1.36-1.32v-2.09h-2.46
		c-0.95,0-1.69,0.22-2.24,0.66s-0.83,0.97-0.83,1.59c0,0.55,0.17,0.98,0.52,1.27S249.48,192.6,250.18,192.6z"/>
	<path class="st2" d="M258.5,192.81l1.91-0.33v-9.06l-1.91-0.33v-1.49h3.97l0.16,1.89c0.42-0.67,0.95-1.19,1.59-1.56
		s1.36-0.56,2.17-0.56c1.37,0,2.43,0.4,3.18,1.2s1.12,2.04,1.12,3.71v6.2l1.91,0.33v1.48h-6.13v-1.48l1.91-0.33v-6.15
		c0-1.12-0.22-1.91-0.66-2.38s-1.12-0.7-2.02-0.7c-0.66,0-1.25,0.16-1.76,0.48s-0.92,0.76-1.22,1.31v7.44l1.91,0.33v1.48h-6.13
		V192.81z"/>
	<path class="st2" d="M278.32,178.54v3.06h2.4v1.71h-2.4v7.7c0,0.59,0.12,1.01,0.37,1.25s0.57,0.36,0.98,0.36
		c0.2,0,0.43-0.02,0.69-0.05s0.47-0.07,0.64-0.11l0.32,1.58c-0.22,0.14-0.54,0.26-0.96,0.35s-0.84,0.13-1.27,0.13
		c-0.94,0-1.68-0.28-2.24-0.85s-0.83-1.46-0.83-2.67v-7.7h-2v-1.71h2v-3.06H278.32z"/>
	<path class="st2" d="M300.64,188.42c0,1.83-0.44,3.3-1.32,4.42s-2.09,1.68-3.63,1.68c-0.83,0-1.55-0.16-2.16-0.47
		s-1.12-0.78-1.52-1.4l-0.21,1.63h-1.99v-16.46l-1.91-0.33V176h4.22v7.1c0.4-0.56,0.89-0.99,1.48-1.29s1.28-0.45,2.07-0.45
		c1.56,0,2.78,0.62,3.66,1.88s1.31,2.89,1.31,4.93V188.42z M298.32,188.18c0-1.46-0.27-2.65-0.8-3.56s-1.34-1.37-2.44-1.37
		c-0.71,0-1.31,0.17-1.8,0.52s-0.88,0.8-1.17,1.38v5.6c0.29,0.59,0.68,1.05,1.18,1.39s1.1,0.52,1.81,0.52
		c1.09,0,1.89-0.39,2.42-1.16s0.79-1.8,0.79-3.07V188.18z"/>
	<path class="st2" d="M314.86,183.09l-1.14,0.18l-4.83,12.96c-0.32,0.85-0.78,1.59-1.38,2.23s-1.41,0.95-2.43,0.95
		c-0.18,0-0.41-0.02-0.7-0.06s-0.51-0.08-0.67-0.12l0.23-1.82c-0.05-0.01,0.09,0,0.42,0.02s0.53,0.04,0.62,0.04
		c0.49,0,0.89-0.21,1.2-0.64s0.57-0.92,0.8-1.47l0.55-1.31l-4.18-10.76l-1.16-0.19v-1.49h5.12v1.49l-1.43,0.23l2.19,6.26l0.42,1.62
		h0.07l2.64-7.88l-1.44-0.23v-1.49h5.11V183.09z"/>
</g>
<g class="st1">
	<path class="st2" d="M42.74,211.89v-1.49h3.97l0.22,1.84c0.36-0.65,0.8-1.16,1.33-1.52s1.13-0.55,1.81-0.55
		c0.18,0,0.37,0.01,0.56,0.04s0.34,0.06,0.44,0.09l-0.3,2.14l-1.31-0.07c-0.61,0-1.12,0.14-1.54,0.43s-0.73,0.69-0.96,1.2v7.28
		l1.91,0.33v1.48h-6.13v-1.48l1.91-0.33v-9.06L42.74,211.89z"/>
	<path class="st2" d="M52.44,216.63c0-1.88,0.51-3.42,1.52-4.63s2.39-1.82,4.14-1.82c1.75,0,3.13,0.61,4.15,1.82
		s1.53,2.76,1.53,4.64v0.26c0,1.89-0.51,3.44-1.52,4.64s-2.39,1.8-4.14,1.8c-1.76,0-3.14-0.6-4.16-1.81s-1.52-2.75-1.52-4.63V216.63
		z M54.75,216.88c0,1.34,0.28,2.45,0.85,3.33s1.41,1.31,2.53,1.31c1.09,0,1.93-0.44,2.5-1.31s0.86-1.98,0.86-3.33v-0.26
		c0-1.33-0.29-2.43-0.86-3.32s-1.41-1.32-2.52-1.32s-1.95,0.44-2.51,1.32s-0.84,1.99-0.84,3.32V216.88z"/>
	<path class="st2" d="M74.17,223.08c-0.07-0.34-0.12-0.65-0.16-0.93s-0.07-0.55-0.08-0.82c-0.45,0.57-1,1.04-1.67,1.42
		s-1.38,0.57-2.14,0.57c-1.32,0-2.32-0.32-3.01-0.97s-1.03-1.55-1.03-2.72c0-1.2,0.49-2.13,1.46-2.78s2.31-0.98,4-0.98h2.38v-1.48
		c0-0.74-0.23-1.33-0.7-1.76s-1.12-0.65-1.96-0.65c-0.58,0-1.09,0.07-1.53,0.22s-0.8,0.35-1.07,0.61l-0.25,1.34h-1.78v-2.46
		c0.58-0.46,1.28-0.83,2.1-1.11s1.71-0.42,2.67-0.42c1.44,0,2.6,0.37,3.49,1.1s1.34,1.79,1.34,3.15v6.11c0,0.16,0,0.32,0.01,0.48
		s0.01,0.31,0.03,0.47l0.94,0.13v1.48H74.17z M70.45,221.4c0.77,0,1.46-0.18,2.1-0.55s1.09-0.81,1.36-1.32v-2.09h-2.46
		c-0.95,0-1.69,0.22-2.24,0.66s-0.83,0.97-0.83,1.59c0,0.55,0.17,0.98,0.52,1.27S69.76,221.4,70.45,221.4z"/>
	<path class="st2" d="M88.82,214.39h-1.73l-0.38-1.52c-0.28-0.27-0.63-0.48-1.06-0.64s-0.91-0.24-1.45-0.24
		c-0.82,0-1.43,0.18-1.83,0.54s-0.6,0.79-0.6,1.3c0,0.5,0.18,0.89,0.53,1.18s1.07,0.55,2.14,0.77c1.6,0.34,2.79,0.81,3.57,1.4
		s1.17,1.38,1.17,2.37c0,1.12-0.46,2.04-1.37,2.73s-2.1,1.04-3.57,1.04c-0.96,0-1.82-0.11-2.59-0.33s-1.45-0.54-2.05-0.97
		l-0.01-2.89h1.73l0.43,1.7c0.27,0.24,0.63,0.42,1.08,0.53s0.92,0.16,1.4,0.16c0.82,0,1.46-0.17,1.93-0.5s0.7-0.77,0.7-1.31
		c0-0.51-0.19-0.93-0.58-1.25s-1.12-0.61-2.2-0.86c-1.54-0.34-2.7-0.79-3.48-1.37s-1.17-1.36-1.17-2.34c0-1.03,0.44-1.91,1.32-2.64
		s2.02-1.09,3.43-1.09c0.96,0,1.82,0.12,2.59,0.38s1.4,0.6,1.91,1.04L88.82,214.39z"/>
	<path class="st2" d="M95.38,207.34v3.06h2.4v1.71h-2.4v7.7c0,0.59,0.12,1.01,0.37,1.25s0.57,0.36,0.98,0.36
		c0.2,0,0.43-0.02,0.69-0.05s0.47-0.07,0.64-0.11l0.32,1.58c-0.22,0.14-0.54,0.26-0.96,0.35s-0.84,0.13-1.27,0.13
		c-0.94,0-1.68-0.28-2.24-0.85s-0.83-1.46-0.83-2.67v-7.7h-2v-1.71h2v-3.06H95.38z"/>
	<path class="st2" d="M100.14,221.61l1.91-0.33v-9.06l-1.91-0.33v-1.49h4.22v10.88l1.91,0.33v1.48h-6.13V221.61z M104.36,207.16
		h-2.31v-2.36h2.31V207.16z"/>
	<path class="st2" d="M107.68,221.61l1.91-0.33v-9.06l-1.91-0.33v-1.49h3.97l0.16,1.89c0.42-0.67,0.95-1.19,1.59-1.56
		s1.36-0.56,2.17-0.56c1.37,0,2.43,0.4,3.18,1.2s1.12,2.04,1.12,3.71v6.2l1.91,0.33v1.48h-6.13v-1.48l1.91-0.33v-6.15
		c0-1.12-0.22-1.91-0.66-2.38s-1.12-0.7-2.02-0.7c-0.66,0-1.25,0.16-1.76,0.48s-0.92,0.76-1.22,1.31v7.44l1.91,0.33v1.48h-6.13
		V221.61z"/>
	<path class="st2" d="M123.36,216.98c0-2.04,0.45-3.68,1.34-4.93s2.12-1.88,3.69-1.88c0.8,0,1.5,0.16,2.1,0.47s1.11,0.77,1.51,1.36
		l0.21-1.59h1.95v12.52c0,1.64-0.46,2.93-1.37,3.87s-2.21,1.41-3.9,1.41c-0.61,0-1.27-0.08-1.98-0.25s-1.34-0.4-1.88-0.69l0.6-1.79
		c0.43,0.23,0.94,0.41,1.52,0.56s1.16,0.22,1.71,0.22c1.03,0,1.79-0.29,2.27-0.87s0.72-1.4,0.72-2.47v-1.21
		c-0.41,0.53-0.91,0.93-1.49,1.21s-1.24,0.41-1.99,0.41c-1.55,0-2.78-0.56-3.67-1.69s-1.34-2.6-1.34-4.42V216.98z M125.67,217.22
		c0,1.27,0.27,2.3,0.81,3.07s1.36,1.16,2.46,1.16c0.7,0,1.28-0.16,1.75-0.47s0.86-0.76,1.16-1.34v-5.84
		c-0.3-0.54-0.68-0.97-1.16-1.28s-1.05-0.47-1.72-0.47c-1.1,0-1.93,0.46-2.47,1.38s-0.82,2.11-0.82,3.55V217.22z"/>
	<path class="st2" d="M142.91,216.63c0-1.88,0.51-3.42,1.52-4.63s2.39-1.82,4.14-1.82c1.75,0,3.13,0.61,4.15,1.82
		s1.53,2.76,1.53,4.64v0.26c0,1.89-0.51,3.44-1.52,4.64s-2.39,1.8-4.14,1.8c-1.76,0-3.14-0.6-4.16-1.81s-1.52-2.75-1.52-4.63V216.63
		z M145.22,216.88c0,1.34,0.28,2.45,0.85,3.33s1.41,1.31,2.53,1.31c1.09,0,1.93-0.44,2.5-1.31s0.86-1.98,0.86-3.33v-0.26
		c0-1.33-0.29-2.43-0.86-3.32s-1.41-1.32-2.52-1.32s-1.95,0.44-2.51,1.32s-0.84,1.99-0.84,3.32V216.88z"/>
	<path class="st2" d="M156.02,221.61l1.91-0.33v-9.06l-1.91-0.33v-1.49H160l0.16,1.89c0.42-0.67,0.95-1.19,1.59-1.56
		s1.36-0.56,2.17-0.56c1.37,0,2.43,0.4,3.18,1.2s1.12,2.04,1.12,3.71v6.2l1.91,0.33v1.48H164v-1.48l1.91-0.33v-6.15
		c0-1.12-0.22-1.91-0.66-2.38s-1.12-0.7-2.02-0.7c-0.66,0-1.25,0.16-1.76,0.48s-0.92,0.76-1.22,1.31v7.44l1.91,0.33v1.48h-6.13
		V221.61z"/>
	<path class="st2" d="M186.05,223.08c-0.07-0.34-0.12-0.65-0.16-0.93s-0.07-0.55-0.08-0.82c-0.45,0.57-1,1.04-1.67,1.42
		s-1.38,0.57-2.14,0.57c-1.32,0-2.32-0.32-3.01-0.97s-1.03-1.55-1.03-2.72c0-1.2,0.49-2.13,1.46-2.78s2.31-0.98,4-0.98h2.38v-1.48
		c0-0.74-0.23-1.33-0.7-1.76s-1.12-0.65-1.96-0.65c-0.58,0-1.09,0.07-1.53,0.22s-0.8,0.35-1.07,0.61l-0.25,1.34h-1.78v-2.46
		c0.58-0.46,1.28-0.83,2.1-1.11s1.71-0.42,2.67-0.42c1.44,0,2.6,0.37,3.49,1.1s1.34,1.79,1.34,3.15v6.11c0,0.16,0,0.32,0.01,0.48
		s0.01,0.31,0.03,0.47l0.94,0.13v1.48H186.05z M182.33,221.4c0.77,0,1.46-0.18,2.1-0.55s1.09-0.81,1.36-1.32v-2.09h-2.46
		c-0.95,0-1.69,0.22-2.24,0.66s-0.83,0.97-0.83,1.59c0,0.55,0.17,0.98,0.52,1.27S181.64,221.4,182.33,221.4z"/>
	<path class="st2" d="M190.65,221.61l1.91-0.33v-9.06l-1.91-0.33v-1.49h3.97l0.16,1.89c0.42-0.67,0.95-1.19,1.59-1.56
		s1.36-0.56,2.17-0.56c1.37,0,2.43,0.4,3.18,1.2s1.12,2.04,1.12,3.71v6.2l1.91,0.33v1.48h-6.13v-1.48l1.91-0.33v-6.15
		c0-1.12-0.22-1.91-0.66-2.38s-1.12-0.7-2.02-0.7c-0.66,0-1.25,0.16-1.76,0.48s-0.92,0.76-1.22,1.31v7.44l1.91,0.33v1.48h-6.13
		V221.61z"/>
	<path class="st2" d="M212.42,216.63c0-1.88,0.51-3.42,1.52-4.63s2.39-1.82,4.14-1.82c1.75,0,3.13,0.61,4.15,1.82
		s1.53,2.76,1.53,4.64v0.26c0,1.89-0.51,3.44-1.52,4.64s-2.39,1.8-4.14,1.8c-1.76,0-3.14-0.6-4.16-1.81s-1.52-2.75-1.52-4.63V216.63
		z M214.72,216.88c0,1.34,0.28,2.45,0.85,3.33s1.41,1.31,2.53,1.31c1.09,0,1.93-0.44,2.5-1.31s0.86-1.98,0.86-3.33v-0.26
		c0-1.33-0.29-2.43-0.86-3.32s-1.41-1.32-2.52-1.32s-1.95,0.44-2.51,1.32s-0.84,1.99-0.84,3.32V216.88z"/>
	<path class="st2" d="M225.59,226.47l1.91-0.33v-13.92l-1.91-0.33v-1.49h3.89l0.21,1.55c0.42-0.58,0.94-1.02,1.54-1.32
		s1.31-0.46,2.1-0.46c1.57,0,2.79,0.62,3.66,1.87s1.31,2.89,1.31,4.94v0.25c0,1.83-0.44,3.3-1.31,4.42s-2.08,1.68-3.62,1.68
		c-0.78,0-1.47-0.13-2.06-0.39s-1.09-0.65-1.51-1.17v4.37l1.91,0.33v1.49h-6.13V226.47z M235.98,216.98c0-1.45-0.28-2.63-0.84-3.55
		s-1.4-1.38-2.51-1.38c-0.66,0-1.22,0.15-1.69,0.45s-0.85,0.7-1.14,1.22v6.18c0.29,0.52,0.67,0.93,1.13,1.21s1.04,0.43,1.72,0.43
		c1.09,0,1.92-0.4,2.48-1.2s0.84-1.83,0.84-3.11V216.98z"/>
	<path class="st2" d="M246.19,223.33c-1.77,0-3.17-0.59-4.21-1.76s-1.56-2.7-1.56-4.58v-0.52c0-1.8,0.54-3.31,1.61-4.51
		s2.35-1.8,3.81-1.8c1.7,0,2.99,0.52,3.87,1.55s1.32,2.41,1.32,4.12v1.44h-8.23l-0.04,0.06c0.02,1.22,0.33,2.22,0.93,3.01
		s1.43,1.18,2.5,1.18c0.78,0,1.47-0.11,2.06-0.33s1.1-0.53,1.53-0.92l0.9,1.5c-0.45,0.44-1.05,0.81-1.8,1.11
		S247.24,223.33,246.19,223.33z M245.84,211.99c-0.77,0-1.43,0.33-1.98,0.98s-0.88,1.47-1.01,2.46l0.02,0.06h5.85v-0.3
		c0-0.91-0.24-1.66-0.73-2.27S246.79,211.99,245.84,211.99z"/>
	<path class="st2" d="M252.96,221.61l1.91-0.33v-9.06l-1.91-0.33v-1.49h3.97l0.16,1.89c0.42-0.67,0.95-1.19,1.59-1.56
		s1.36-0.56,2.17-0.56c1.37,0,2.43,0.4,3.18,1.2s1.12,2.04,1.12,3.71v6.2l1.91,0.33v1.48h-6.13v-1.48l1.91-0.33v-6.15
		c0-1.12-0.22-1.91-0.66-2.38s-1.12-0.7-2.02-0.7c-0.66,0-1.25,0.16-1.76,0.48s-0.92,0.76-1.22,1.31v7.44l1.91,0.33v1.48h-6.13
		V221.61z"/>
	<path class="st2" d="M274.2,212.11v-1.71h1.98v-1.37c0-1.42,0.42-2.52,1.25-3.3s1.99-1.17,3.47-1.17c0.52,0,1.03,0.06,1.55,0.19
		s1.11,0.3,1.78,0.53l-0.39,1.88c-0.41-0.16-0.86-0.3-1.32-0.42s-0.95-0.18-1.44-0.18c-0.92,0-1.58,0.2-1.99,0.61
		s-0.6,1.03-0.6,1.88v1.37h7.23v10.88l1.91,0.33v1.48h-6.13v-1.48l1.91-0.33v-9.16h-4.92v9.16l1.91,0.33v1.48h-6.13v-1.48l1.91-0.33
		v-9.16H274.2z"/>
	<path class="st2" d="M289.23,211.89v-1.49h3.97l0.22,1.84c0.36-0.65,0.8-1.16,1.33-1.52s1.13-0.55,1.81-0.55
		c0.18,0,0.37,0.01,0.56,0.04s0.34,0.06,0.44,0.09l-0.3,2.14l-1.31-0.07c-0.61,0-1.12,0.14-1.54,0.43s-0.73,0.69-0.96,1.2v7.28
		l1.91,0.33v1.48h-6.13v-1.48l1.91-0.33v-9.06L289.23,211.89z"/>
	<path class="st2" d="M304.72,223.33c-1.77,0-3.17-0.59-4.21-1.76s-1.56-2.7-1.56-4.58v-0.52c0-1.8,0.54-3.31,1.61-4.51
		s2.35-1.8,3.81-1.8c1.7,0,2.99,0.52,3.87,1.55s1.32,2.41,1.32,4.12v1.44h-8.23l-0.04,0.06c0.02,1.22,0.33,2.22,0.93,3.01
		s1.43,1.18,2.5,1.18c0.78,0,1.47-0.11,2.06-0.33s1.1-0.53,1.53-0.92l0.9,1.5c-0.45,0.44-1.05,0.81-1.8,1.11
		S305.77,223.33,304.72,223.33z M304.37,211.99c-0.77,0-1.43,0.33-1.98,0.98s-0.88,1.47-1.01,2.46l0.02,0.06h5.85v-0.3
		c0-0.91-0.24-1.66-0.73-2.27S305.33,211.99,304.37,211.99z"/>
	<path class="st2" d="M314.78,217.48h-2.31v-11.46h2.31V217.48z M314.78,223.08h-2.31v-2.39h2.31V223.08z"/>
</g>
</svg>
