<svg xmlns="http://www.w3.org/2000/svg" viewBox="0 0 199.08 183.22"><style><![CDATA[.F{font-family:RobotoSlab-Regular}]]></style><path d="M12 182.22a11.01 11.01 0 0 1-11-11V73.58a11.01 11.01 0 0 1 11-11h16.3c.3 0 .58-.13.77-.36a1.02 1.02 0 0 0 .22-.82L18.7 3.34l52.28 58.9c.2.2.46.34.75.34h115.36a11.01 11.01 0 0 1 11 11v97.64a11.01 11.01 0 0 1-11 11H12z" fill="#ee3125"/><path d="M20.32 6.68l49.9 56.23c.38.43.92.67 1.5.67h115.36a10.02 10.02 0 0 1 10 10v97.64a10.02 10.02 0 0 1-10 10H12a10.02 10.02 0 0 1-10-10V73.58a10.02 10.02 0 0 1 10-10h16.3a2 2 0 0 0 1.54-.72c.38-.46.54-1.06.43-1.64L20.32 6.68M17.07 0L28.3 61.58H12a12.04 12.04 0 0 0-12 12v97.64a12.04 12.04 0 0 0 12 12h175.08a12.04 12.04 0 0 0 12-12V73.58a12.04 12.04 0 0 0-12-12H71.72L17.07 0z"/><text><tspan fill="#fff" font-size="24" x="37.269" y="101.016" class="F">Caught this </tspan><tspan x="43.119" y="129.816" fill="#fff" font-size="24" class="F">guy on the </tspan><tspan x="67.679" y="158.616" fill="#fff" font-size="24" class="F">ROOF!</tspan></text></svg>