<?xml version="1.0" encoding="utf-8"?>
<!-- Generator: Adobe Illustrator 24.0.0, SVG Export Plug-In . SVG Version: 6.00 Build 0)  -->
<svg version="1.1" id="Layer_1" xmlns="http://www.w3.org/2000/svg" xmlns:xlink="http://www.w3.org/1999/xlink" x="0px" y="0px"
	 viewBox="0 0 199.08 183.22" style="enable-background:new 0 0 199.08 183.22;" xml:space="preserve">
<style type="text/css">
	.st0{fill:#EE3125;}
	.st1{fill:none;}
	.st2{fill:#FFFFFF;}
	.st3{font-family:'RobotoSlab-Regular';}
	.st4{font-size:24px;}
</style>
<g>
	<g>
		<path class="st0" d="M12,182.22c-6.07,0-11-4.93-11-11V73.58c0-6.07,4.93-11,11-11h16.31c0.3,0,0.58-0.13,0.77-0.36
			c0.19-0.23,0.27-0.53,0.22-0.82L18.69,3.34l52.28,58.91c0.19,0.21,0.46,0.34,0.75,0.34h115.36c6.07,0,11,4.93,11,11v97.64
			c0,6.07-4.93,11-11,11H12z"/>
		<path d="M20.32,6.68l49.9,56.23c0.38,0.43,0.92,0.67,1.5,0.67h115.36c5.51,0,10,4.49,10,10v97.64c0,5.51-4.49,10-10,10H12
			c-5.51,0-10-4.49-10-10V73.58c0-5.51,4.49-10,10-10h16.31c0.59,0,1.16-0.26,1.54-0.72c0.38-0.46,0.54-1.06,0.43-1.64L20.32,6.68
			 M17.07,0l11.24,61.58H12c-6.6,0-12,5.4-12,12v97.64c0,6.6,5.4,12,12,12h175.08c6.6,0,12-5.4,12-12V73.58c0-6.6-5.4-12-12-12
			H71.72L17.07,0L17.07,0z"/>
	</g>
	<rect x="18.9" y="82.73" class="st1" width="168.26" height="94.89"/>
	<text transform="matrix(1 0 0 1 37.2686 101.0155)"><tspan x="0" y="0" class="st2 st3 st4">Caught this </tspan><tspan x="5.85" y="28.8" class="st2 st3 st4">guy on the </tspan><tspan x="30.41" y="57.6" class="st2 st3 st4">ROOF!</tspan></text>
</g>
</svg>
