<?xml version="1.0" encoding="utf-8"?>
<!-- Generator: Adobe Illustrator 24.0.0, SVG Export Plug-In . SVG Version: 6.00 Build 0)  -->
<svg version="1.1" id="Layer_1" xmlns="http://www.w3.org/2000/svg" xmlns:xlink="http://www.w3.org/1999/xlink" x="0px" y="0px"
	 viewBox="0 0 199.08 183.22" style="enable-background:new 0 0 199.08 183.22;" xml:space="preserve">
<style type="text/css">
	.st0{fill:#EE3125;}
	.st1{enable-background:new    ;}
	.st2{fill:#FFFFFF;}
</style>
<path class="st0" d="M12,182.22c-6.07-0.01-10.99-4.93-11-11V73.58c0.01-6.07,4.93-10.99,11-11h16.3c0.3,0,0.58-0.13,0.77-0.36
	c0.19-0.23,0.27-0.53,0.22-0.82L18.7,3.34l52.28,58.9c0.2,0.2,0.46,0.34,0.75,0.34h115.36c6.07,0.01,10.99,4.93,11,11v97.64
	c-0.01,6.07-4.93,10.99-11,11H12z"/>
<path d="M20.32,6.68l49.9,56.23c0.38,0.43,0.92,0.67,1.5,0.67h115.36c5.52,0.01,9.99,4.48,10,10v97.64c-0.01,5.52-4.48,9.99-10,10
	H12c-5.52-0.01-9.99-4.48-10-10V73.58c0.01-5.52,4.48-9.99,10-10h16.3c0.59,0,1.16-0.26,1.54-0.72c0.38-0.46,0.54-1.06,0.43-1.64
	L20.32,6.68 M17.07,0L28.3,61.58H12c-6.62,0.02-11.98,5.38-12,12v97.64c0.02,6.62,5.38,11.98,12,12h175.08
	c6.62-0.02,11.98-5.38,12-12V73.58c-0.02-6.62-5.38-11.98-12-12H71.72L17.07,0z"/>
<g class="st1">
	<path class="st2" d="M51.33,89.19H49.7l-0.43-2.41c-0.38-0.37-0.84-0.67-1.38-0.9s-1.2-0.35-1.96-0.35c-1.77,0-3.14,0.64-4.09,1.93
		s-1.43,2.92-1.43,4.89v0.27c0,1.98,0.47,3.61,1.4,4.9s2.23,1.94,3.88,1.94c0.77,0,1.48-0.12,2.11-0.36s1.12-0.54,1.46-0.89
		l0.43-2.41h1.63v3.04c-0.49,0.63-1.23,1.2-2.21,1.69s-2.12,0.74-3.42,0.74c-2.22,0-4.04-0.82-5.46-2.46s-2.13-3.7-2.13-6.19v-0.25
		c0-2.5,0.7-4.57,2.1-6.21s3.23-2.46,5.5-2.46c1.3,0,2.44,0.25,3.42,0.76s1.72,1.07,2.21,1.69V89.19z"/>
	<path class="st2" d="M62.07,101.02c-0.07-0.34-0.12-0.65-0.16-0.93s-0.07-0.55-0.08-0.82c-0.45,0.57-1,1.04-1.67,1.42
		s-1.38,0.57-2.14,0.57c-1.32,0-2.32-0.32-3.01-0.97s-1.03-1.55-1.03-2.72c0-1.2,0.49-2.13,1.46-2.78s2.31-0.98,4-0.98h2.38v-1.48
		c0-0.74-0.23-1.33-0.7-1.76s-1.12-0.65-1.96-0.65c-0.58,0-1.09,0.07-1.53,0.22s-0.8,0.35-1.07,0.61l-0.25,1.34h-1.78v-2.46
		c0.58-0.46,1.28-0.83,2.1-1.11s1.71-0.42,2.67-0.42c1.44,0,2.6,0.37,3.49,1.1s1.34,1.79,1.34,3.15v6.1c0,0.16,0,0.32,0.01,0.48
		s0.01,0.31,0.03,0.47l0.94,0.13v1.48H62.07z M58.35,99.33c0.77,0,1.46-0.18,2.1-0.55s1.09-0.81,1.36-1.32v-2.09h-2.46
		c-0.95,0-1.69,0.22-2.24,0.66s-0.83,0.97-0.83,1.59c0,0.55,0.17,0.98,0.52,1.27S57.66,99.33,58.35,99.33z"/>
	<path class="st2" d="M76.08,99.14c-0.4,0.68-0.91,1.2-1.54,1.57s-1.35,0.55-2.17,0.55c-1.38,0-2.45-0.44-3.22-1.32
		s-1.16-2.26-1.16-4.12v-5.66l-1.45-0.33v-1.49h1.45h2.31v7.5c0,1.35,0.2,2.28,0.6,2.79s1.02,0.76,1.86,0.76
		c0.82,0,1.5-0.17,2.03-0.5s0.94-0.8,1.21-1.41v-7.32l-1.7-0.33v-1.49H76h2.31v10.87l1.45,0.33v1.48h-3.53L76.08,99.14z"/>
	<path class="st2" d="M81.6,94.91c0-2.04,0.45-3.68,1.34-4.93s2.12-1.88,3.69-1.88c0.8,0,1.5,0.16,2.1,0.47s1.11,0.77,1.51,1.36
		l0.21-1.59h1.95v12.52c0,1.64-0.46,2.93-1.37,3.87s-2.21,1.41-3.9,1.41c-0.61,0-1.27-0.08-1.98-0.25s-1.34-0.4-1.88-0.69l0.6-1.79
		c0.43,0.23,0.94,0.41,1.52,0.56s1.16,0.22,1.71,0.22c1.03,0,1.79-0.29,2.27-0.87s0.72-1.4,0.72-2.47v-1.21
		c-0.41,0.53-0.91,0.93-1.49,1.21s-1.24,0.41-1.99,0.41c-1.55,0-2.78-0.56-3.67-1.69s-1.34-2.6-1.34-4.42V94.91z M83.91,95.16
		c0,1.27,0.27,2.3,0.81,3.07s1.36,1.16,2.46,1.16c0.7,0,1.28-0.16,1.75-0.47s0.86-0.76,1.16-1.34v-5.84
		c-0.3-0.54-0.68-0.97-1.16-1.28s-1.05-0.47-1.72-0.47c-1.1,0-1.93,0.46-2.47,1.38s-0.82,2.1-0.82,3.55V95.16z"/>
	<path class="st2" d="M94.85,99.54l1.91-0.33V84.55l-1.91-0.33v-1.49h4.22v7.29c0.44-0.61,0.97-1.08,1.61-1.42
		c0.63-0.34,1.34-0.5,2.11-0.5c1.36,0,2.41,0.41,3.16,1.22s1.12,2.06,1.12,3.75v6.14l1.91,0.33v1.48h-6.13v-1.48l1.91-0.33v-6.16
		c0-1.05-0.22-1.82-0.67-2.32s-1.12-0.75-2.01-0.75c-0.63,0-1.21,0.15-1.73,0.45s-0.95,0.71-1.28,1.22v7.56l1.91,0.33v1.48h-6.13
		V99.54z"/>
	<path class="st2" d="M114.69,85.28v3.06h2.4v1.71h-2.4v7.7c0,0.59,0.12,1.01,0.37,1.25s0.57,0.36,0.98,0.36
		c0.2,0,0.43-0.02,0.69-0.05s0.47-0.07,0.64-0.11l0.32,1.58c-0.22,0.14-0.54,0.26-0.96,0.35s-0.84,0.13-1.27,0.13
		c-0.94,0-1.68-0.28-2.24-0.85s-0.83-1.46-0.83-2.67v-7.7h-2v-1.71h2v-3.06H114.69z"/>
	<path class="st2" d="M129.45,85.28v3.06h2.4v1.71h-2.4v7.7c0,0.59,0.12,1.01,0.37,1.25s0.57,0.36,0.98,0.36
		c0.2,0,0.43-0.02,0.69-0.05s0.47-0.07,0.64-0.11l0.32,1.58c-0.22,0.14-0.54,0.26-0.96,0.35s-0.84,0.13-1.27,0.13
		c-0.94,0-1.68-0.28-2.24-0.85s-0.83-1.46-0.83-2.67v-7.7h-2v-1.71h2v-3.06H129.45z"/>
	<path class="st2" d="M133.89,99.54l1.91-0.33V84.55l-1.91-0.33v-1.49h4.22v7.29c0.44-0.61,0.97-1.08,1.61-1.42s1.34-0.5,2.11-0.5
		c1.36,0,2.41,0.41,3.16,1.22s1.12,2.06,1.12,3.75v6.14l1.91,0.33v1.48h-6.13v-1.48l1.91-0.33v-6.16c0-1.05-0.22-1.82-0.67-2.32
		s-1.12-0.75-2.01-0.75c-0.63,0-1.21,0.15-1.73,0.45s-0.95,0.71-1.28,1.22v7.56l1.91,0.33v1.48h-6.13V99.54z"/>
	<path class="st2" d="M149.7,99.54l1.91-0.33v-9.06l-1.91-0.33v-1.49h4.22v10.87l1.91,0.33v1.48h-6.13V99.54z M153.92,85.09h-2.31
		v-2.36h2.31V85.09z"/>
	<path class="st2" d="M167.29,92.32h-1.73l-0.38-1.52c-0.28-0.27-0.63-0.48-1.06-0.64s-0.91-0.24-1.45-0.24
		c-0.82,0-1.43,0.18-1.83,0.54s-0.6,0.79-0.6,1.3c0,0.5,0.18,0.89,0.53,1.18c0.35,0.29,1.07,0.55,2.14,0.77
		c1.6,0.34,2.79,0.81,3.57,1.4s1.17,1.38,1.17,2.37c0,1.12-0.46,2.04-1.37,2.73s-2.1,1.04-3.57,1.04c-0.96,0-1.82-0.11-2.59-0.33
		s-1.45-0.54-2.05-0.97l-0.01-2.89h1.73l0.43,1.7c0.27,0.24,0.63,0.42,1.08,0.53s0.92,0.16,1.4,0.16c0.82,0,1.46-0.17,1.93-0.5
		s0.7-0.77,0.7-1.31c0-0.51-0.19-0.93-0.58-1.25s-1.12-0.61-2.2-0.86c-1.54-0.34-2.7-0.79-3.48-1.37s-1.17-1.36-1.17-2.34
		c0-1.03,0.44-1.91,1.32-2.64s2.02-1.09,3.43-1.09c0.96,0,1.82,0.12,2.59,0.38s1.4,0.6,1.91,1.04L167.29,92.32z"/>
</g>
<g class="st1">
	<path class="st2" d="M44.17,123.71c0-2.04,0.45-3.68,1.34-4.93s2.12-1.88,3.69-1.88c0.8,0,1.5,0.16,2.1,0.47s1.11,0.77,1.51,1.36
		l0.21-1.59h1.95v12.52c0,1.64-0.46,2.93-1.37,3.87s-2.21,1.41-3.9,1.41c-0.61,0-1.27-0.08-1.98-0.25s-1.34-0.4-1.88-0.69l0.6-1.79
		c0.43,0.23,0.94,0.41,1.52,0.56s1.16,0.22,1.71,0.22c1.03,0,1.79-0.29,2.27-0.87s0.72-1.4,0.72-2.47v-1.21
		c-0.41,0.53-0.91,0.93-1.49,1.21s-1.24,0.41-1.99,0.41c-1.55,0-2.78-0.56-3.67-1.69s-1.34-2.6-1.34-4.42V123.71z M46.48,123.96
		c0,1.27,0.27,2.3,0.81,3.07s1.36,1.16,2.46,1.16c0.7,0,1.28-0.16,1.75-0.47s0.86-0.76,1.16-1.34v-5.84
		c-0.3-0.54-0.68-0.97-1.16-1.28s-1.05-0.47-1.72-0.47c-1.1,0-1.93,0.46-2.47,1.38s-0.82,2.11-0.82,3.55V123.96z"/>
	<path class="st2" d="M66.81,127.94c-0.4,0.68-0.91,1.2-1.54,1.57s-1.35,0.55-2.17,0.55c-1.38,0-2.45-0.44-3.22-1.32
		s-1.16-2.26-1.16-4.12v-5.66l-1.45-0.33v-1.49h1.45h2.31v7.5c0,1.35,0.2,2.28,0.6,2.79s1.02,0.76,1.86,0.76
		c0.82,0,1.5-0.17,2.03-0.5s0.94-0.8,1.21-1.41v-7.32l-1.7-0.33v-1.49h1.7h2.31v10.88l1.45,0.33v1.48h-3.53L66.81,127.94z"/>
	<path class="st2" d="M84.37,118.62l-1.14,0.18l-4.83,12.96c-0.32,0.85-0.78,1.59-1.38,2.23s-1.41,0.95-2.43,0.95
		c-0.18,0-0.41-0.02-0.7-0.06s-0.51-0.08-0.67-0.12l0.23-1.82c-0.05-0.01,0.09,0,0.42,0.02s0.53,0.04,0.62,0.04
		c0.49,0,0.89-0.21,1.2-0.64s0.57-0.92,0.8-1.47l0.55-1.31l-4.18-10.76l-1.16-0.19v-1.49h5.12v1.49l-1.43,0.23l2.19,6.26l0.42,1.62
		h0.07l2.64-7.88l-1.44-0.23v-1.49h5.11V118.62z"/>
	<path class="st2" d="M91.92,123.36c0-1.88,0.51-3.42,1.52-4.63s2.39-1.82,4.14-1.82c1.75,0,3.13,0.61,4.15,1.82
		s1.53,2.76,1.53,4.64v0.26c0,1.89-0.51,3.44-1.52,4.64s-2.39,1.8-4.14,1.8c-1.76,0-3.14-0.6-4.16-1.81s-1.52-2.75-1.52-4.63V123.36
		z M94.22,123.62c0,1.34,0.28,2.45,0.85,3.33s1.41,1.31,2.53,1.31c1.09,0,1.93-0.44,2.5-1.31s0.86-1.98,0.86-3.33v-0.26
		c0-1.33-0.29-2.43-0.86-3.32s-1.41-1.32-2.52-1.32s-1.95,0.44-2.51,1.32s-0.84,1.99-0.84,3.32V123.62z"/>
	<path class="st2" d="M105.03,128.34l1.91-0.33v-9.06l-1.91-0.33v-1.49H109l0.16,1.89c0.42-0.67,0.95-1.19,1.59-1.56
		s1.36-0.56,2.17-0.56c1.37,0,2.43,0.4,3.18,1.2s1.12,2.04,1.12,3.71v6.2l1.91,0.33v1.48h-6.13v-1.48l1.91-0.33v-6.15
		c0-1.12-0.22-1.91-0.66-2.38s-1.12-0.7-2.02-0.7c-0.66,0-1.25,0.16-1.76,0.48s-0.92,0.76-1.22,1.31v7.44l1.91,0.33v1.48h-6.13
		V128.34z"/>
	<path class="st2" d="M130.81,114.08v3.06h2.4v1.71h-2.4v7.7c0,0.59,0.12,1.01,0.37,1.25s0.57,0.36,0.98,0.36
		c0.2,0,0.43-0.02,0.69-0.05s0.47-0.07,0.64-0.11l0.32,1.58c-0.22,0.14-0.54,0.26-0.96,0.35s-0.84,0.13-1.27,0.13
		c-0.94,0-1.68-0.28-2.24-0.85s-0.83-1.46-0.83-2.67v-7.7h-2v-1.71h2v-3.06H130.81z"/>
	<path class="st2" d="M135.25,128.34l1.91-0.33v-14.66l-1.91-0.33v-1.49h4.22v7.29c0.44-0.61,0.97-1.08,1.61-1.42s1.34-0.5,2.11-0.5
		c1.36,0,2.41,0.41,3.16,1.22s1.12,2.06,1.12,3.75v6.14l1.91,0.33v1.48h-6.13v-1.48l1.91-0.33v-6.16c0-1.05-0.22-1.82-0.67-2.32
		s-1.12-0.75-2.01-0.75c-0.63,0-1.21,0.15-1.73,0.45s-0.95,0.71-1.28,1.22v7.56l1.91,0.33v1.48h-6.13V128.34z"/>
	<path class="st2" d="M156.73,130.06c-1.77,0-3.17-0.59-4.21-1.76s-1.56-2.7-1.56-4.58v-0.52c0-1.8,0.54-3.31,1.61-4.51
		s2.35-1.8,3.81-1.8c1.7,0,2.99,0.52,3.87,1.55s1.32,2.41,1.32,4.12v1.44h-8.23l-0.04,0.06c0.02,1.22,0.33,2.22,0.93,3.01
		s1.43,1.18,2.5,1.18c0.78,0,1.47-0.11,2.06-0.33s1.1-0.53,1.53-0.92l0.9,1.5c-0.45,0.44-1.05,0.81-1.8,1.11
		S157.78,130.06,156.73,130.06z M156.38,118.72c-0.77,0-1.43,0.33-1.98,0.98s-0.88,1.47-1.01,2.46l0.02,0.06h5.85v-0.3
		c0-0.91-0.24-1.66-0.73-2.27S157.33,118.72,156.38,118.72z"/>
</g>
<g class="st1">
	<path class="st2" d="M76,141.57c1.86,0,3.29,0.41,4.28,1.24s1.49,1.99,1.49,3.51c0,0.83-0.23,1.56-0.69,2.2s-1.12,1.14-1.98,1.51
		c0.93,0.3,1.6,0.8,2.01,1.49s0.62,1.54,0.62,2.54v1.37c0,0.52,0.07,0.91,0.2,1.16s0.35,0.4,0.66,0.45l0.56,0.07v1.51h-1.24
		c-0.9,0-1.54-0.31-1.92-0.94s-0.57-1.38-0.57-2.27v-1.32c0-0.93-0.27-1.68-0.81-2.24S77.34,151,76.43,151h-3.7v5.81l1.91,0.33v1.48
		h-6.13v-1.48l1.91-0.33v-13.44l-1.91-0.33v-1.48h1.91H76z M72.73,149.18h3.04c1.29,0,2.23-0.25,2.81-0.74s0.88-1.21,0.88-2.16
		c0-0.9-0.28-1.61-0.84-2.13s-1.43-0.79-2.61-0.79h-3.27V149.18z"/>
	<path class="st2" d="M99.95,150.21c0,2.48-0.71,4.55-2.14,6.19s-3.27,2.46-5.54,2.46c-2.2,0-3.99-0.82-5.37-2.46
		s-2.06-3.7-2.06-6.19v-0.25c0-2.48,0.69-4.54,2.06-6.19s3.16-2.47,5.37-2.47c2.27,0,4.11,0.82,5.54,2.47s2.14,3.71,2.14,6.19
		V150.21z M97.64,149.94c0-1.98-0.47-3.6-1.42-4.86s-2.26-1.88-3.94-1.88c-1.61,0-2.87,0.63-3.77,1.89s-1.35,2.88-1.35,4.85v0.27
		c0,2,0.45,3.63,1.35,4.88s2.16,1.88,3.77,1.88c1.7,0,3.02-0.62,3.96-1.88s1.41-2.88,1.41-4.89V149.94z"/>
	<path class="st2" d="M116.89,150.21c0,2.48-0.71,4.55-2.14,6.19s-3.27,2.46-5.54,2.46c-2.2,0-3.99-0.82-5.37-2.46
		s-2.06-3.7-2.06-6.19v-0.25c0-2.48,0.69-4.54,2.06-6.19s3.16-2.47,5.37-2.47c2.27,0,4.11,0.82,5.54,2.47s2.14,3.71,2.14,6.19
		V150.21z M114.58,149.94c0-1.98-0.47-3.6-1.42-4.86s-2.26-1.88-3.94-1.88c-1.61,0-2.87,0.63-3.77,1.89s-1.35,2.88-1.35,4.85v0.27
		c0,2,0.45,3.63,1.35,4.88s2.16,1.88,3.77,1.88c1.7,0,3.02-0.62,3.96-1.88s1.41-2.88,1.41-4.89V149.94z"/>
	<path class="st2" d="M118.62,157.14l1.91-0.33v-13.44l-1.91-0.33v-1.49h13.18v4.1h-1.97l-0.19-2.29h-6.81v5.88h6.6v1.82h-6.6v5.74
		l1.91,0.33v1.48h-6.13V157.14z"/>
	<path class="st2" d="M136.69,153.01h-2.31v-11.46h2.31V153.01z M136.69,158.62h-2.31v-2.39h2.31V158.62z"/>
</g>
</svg>
