<?xml version="1.0" encoding="utf-8"?>
<!-- Generator: Adobe Illustrator 24.0.0, SVG Export Plug-In . SVG Version: 6.00 Build 0)  -->
<svg version="1.1" id="Layer_1" xmlns="http://www.w3.org/2000/svg" xmlns:xlink="http://www.w3.org/1999/xlink" x="0px" y="0px"
	 viewBox="0 0 1590 517.6" style="enable-background:new 0 0 1590 517.6;" xml:space="preserve">
<path d="M1555.6,476.4v-199h-27.3v-5.6h-7.6V264h-25.4v-3.2h-24.1v16.6h-26.4v5.6h-16.2v-14h-34.8v14h-29.9v82h-26.4v42.9h-5.4v-39
	h-11.7v-4.2h-17.9v-61.2h-4.9v-23.7h-7.2v-13.1h-3.2v-8h-4.2v-11.1h-0.3v11.1h-4v8.1h-3.6v13h-11.8V274h-6.1v-13h-15.8v13h-4.5v5.8
	h-3.4V296h-4v7.6h-5.4v18.3h-2.3v-9h-6.8V308h-7.2v-7.2h-1.9v7.2h-9v4.9h-6.8v9h-15.2v12.7h-39.8V261h-14.3v-23.7h-2.7V261h-70.6
	v18.8h-8.9v82.3h-4v7.2h-3.3v12.6h-5.6v-14h-4.5v-18.2h-8.5v-6.5h-4.5v6.5h-5.8v-46.1H976V296h-19.7v7.6h-19.7v49.2H921v9.4h-16.6
	V355h-14.3v7.2h-13.9v-71.9h-17v-6.2h-17v6.1h-42.9V371h-8.5v-42.4h-28.2v-106h-61.2v81h-21.1V319h-4.9v68.9h-6.6v-9.8h-13.9v9.8
	h-7.2v-9.8h-28.2v17.6h-14.7v5.6h-4.5v8.5h-24.1v-17H572v-12.2h-5.4v-72.7h-49.7V129.8h-10.7v-12.6h-20.8V8.5H482v108.6h-19.2v12.6
	h-9v213.1h-6.1v6.5h-2v5.4h-3.6v12.1h-2.3v23.5h-3.6V416h-2.6v5.4h-19.2v12.1h-14.3V362h-4.5v-14.7h-6.1V343H359v-24h-40.7v-7.6
	h-44.9v106h-14.6v-24.6h-3.6v-10.3h-9.8v-11.7h-29v11.7H187v10.3h-4.9v28.6h-23.3v-11.7h-18.3v-11.1h-29.9v11.1H102v17.9H82.3v5.8
	h-8.1v-16.2H18.8v59.1H0v41.2h1590v-41.2L1555.6,476.4L1555.6,476.4z"/>
<circle cx="483.72" cy="8.5" r="2.07"/>
</svg>
