<?xml version="1.0" encoding="utf-8"?>
<!-- Generator: Adobe Illustrator 24.0.0, SVG Export Plug-In . SVG Version: 6.00 Build 0)  -->
<svg version="1.1" id="Layer_1" xmlns="http://www.w3.org/2000/svg" xmlns:xlink="http://www.w3.org/1999/xlink" x="0px" y="0px"
	 viewBox="0 0 52.24 89.38" style="enable-background:new 0 0 52.24 89.38;" xml:space="preserve">
<style type="text/css">
	.st0{fill:#FFFFFF;}
</style>
<g>
	<path class="st0" d="M26.11,89.38c-1.7,0-3.28-0.65-4.46-1.84L1.86,67.88c-2.47-2.43-2.49-6.44-0.04-8.92
		c1.19-1.21,2.79-1.88,4.48-1.88c1.67,0,3.25,0.65,4.45,1.83l9.04,8.97V6.32c0-3.48,2.84-6.32,6.32-6.32c3.49,0,6.32,2.84,6.32,6.32
		v61.57l9.05-8.97c1.18-1.18,2.76-1.83,4.45-1.83c1.7,0,3.3,0.67,4.49,1.88c1.18,1.18,1.83,2.77,1.83,4.46
		c-0.01,1.69-0.67,3.28-1.88,4.47l-19.8,19.66C29.39,88.73,27.8,89.38,26.11,89.38z"/>
</g>
</svg>
