<svg xmlns="http://www.w3.org/2000/svg" xmlns:xlink="http://www.w3.org/1999/xlink" viewBox="0 0 267.82 655.37"><defs><style>.cls-1{isolation:isolate;}.cls-2{fill:none;stroke-miterlimit:10;stroke-width:4px;stroke:url(#linear-gradient);}.cls-3{fill:url(#linear-gradient-2);}.cls-4{fill:#fdba1b;}.cls-5,.cls-7{mix-blend-mode:lighten;}.cls-5{fill:url(#linear-gradient-3);}.cls-6{fill:url(#linear-gradient-4);}.cls-7{fill:url(#linear-gradient-5);}</style><linearGradient id="linear-gradient" x1="131.91" y1="173.32" x2="135.91" y2="173.32" gradientUnits="userSpaceOnUse"><stop offset="0.13" stop-color="#fff"/><stop offset="0.25" stop-color="#d0d0d0"/><stop offset="0.46" stop-color="#8a8a8a"/><stop offset="0.64" stop-color="#535353"/><stop offset="0.8" stop-color="#2b2b2b"/><stop offset="0.92" stop-color="#131313"/><stop offset="1" stop-color="#0a0a0a"/></linearGradient><linearGradient id="linear-gradient-2" x1="114.28" y1="370.02" x2="155.02" y2="370.02" gradientUnits="userSpaceOnUse"><stop offset="0" stop-color="#cfcfcf"/><stop offset="0.11" stop-color="#d8d8d8"/><stop offset="0.29" stop-color="#f0f0f0"/><stop offset="0.38" stop-color="#fff"/><stop offset="0.53" stop-color="#c5c5c5"/><stop offset="0.86" stop-color="#424242"/><stop offset="1" stop-color="#0d0d0d"/></linearGradient><linearGradient id="linear-gradient-3" x1="262.45" y1="518.67" x2="188.11" y2="613.59" gradientUnits="userSpaceOnUse"><stop offset="0" stop-color="#fff"/><stop offset="0.12" stop-color="#fffdf9"/><stop offset="0.28" stop-color="#fff9e9"/><stop offset="0.46" stop-color="#fff1cf"/><stop offset="0.65" stop-color="#ffe7aa"/><stop offset="0.85" stop-color="#ffda7b"/><stop offset="1" stop-color="#ffcf54"/></linearGradient><linearGradient id="linear-gradient-4" x1="94.85" y1="383.41" x2="172.22" y2="383.41" xlink:href="#linear-gradient"/><linearGradient id="linear-gradient-5" x1="13.66" y1="509.67" x2="102.37" y2="409.87" xlink:href="#linear-gradient-3"/></defs><title>bulb</title><g class="cls-1"><g id="Layer_1" data-name="Layer 1"><line class="cls-2" x1="133.91" y1="346.63" x2="133.91"/><path class="cls-3" d="M153.44,361.46a18.23,18.23,0,0,0-36.46,0c0,3.05.11,5.78.3,8.25a11.24,11.24,0,0,0-.3,2.54v13.39a11.16,11.16,0,0,0,11.16,11.16h14.14a11.16,11.16,0,0,0,11.16-11.16V372.25a11.25,11.25,0,0,0-.31-2.54C153.33,367.24,153.44,364.51,153.44,361.46Zm-18.23-14.87a14.89,14.89,0,0,1,14.87,14.87c0,1,0,1.9,0,2.8a11.1,11.1,0,0,0-7.77-3.17H128.14a11.14,11.14,0,0,0-7.78,3.17c0-.9,0-1.83,0-2.8A14.89,14.89,0,0,1,135.21,346.59Z"/><path class="cls-4" d="M267.82,518.06A133.91,133.91,0,1,1,133.91,384.15,133.91,133.91,0,0,1,267.82,518.06Z"/><path class="cls-5" d="M179.85,584.46c48.7-14.21,67.5-28.46,80.15-66.4a126,126,0,0,1-52,102C208,599.52,199.37,590.59,179.85,584.46Z"/><path class="cls-6" d="M164.78,383.41a5.21,5.21,0,0,1-5.21,5.21H108.24a5.21,5.21,0,0,1-5.21-5.21h0a5.21,5.21,0,0,1,5.21-5.21h51.33a5.21,5.21,0,0,1,5.21,5.21Z"/><path class="cls-7" d="M109.54,443.29C50.4,448.88,18,499.65,7.81,518.06A126.3,126.3,0,0,1,84.87,401.89C81.64,426.56,131.94,441.18,109.54,443.29Z"/></g></g></svg>