<svg id="Layer_1" data-name="Layer 1" xmlns="http://www.w3.org/2000/svg" viewBox="0 0 267.82 655.37"><defs><style>.cls-1{fill:#7dcfd7;}.cls-2{fill:none;stroke:#000;stroke-miterlimit:10;stroke-width:7px;}.cls-3{fill:#fff;}</style></defs><title>bulb</title><path d="M153.44,364.86a18.23,18.23,0,1,0-36.46,0c0,3.05.11,5.78.31,8.25a11.18,11.18,0,0,0-.31,2.54V389a11.16,11.16,0,0,0,11.16,11.16h14.14A11.16,11.16,0,0,0,153.44,389V375.65a10.64,10.64,0,0,0-.31-2.54C153.33,370.64,153.44,367.91,153.44,364.86ZM135.21,350a14.89,14.89,0,0,1,14.88,14.88c0,1,0,1.89,0,2.79a11.13,11.13,0,0,0-7.77-3.16H128.14a11.13,11.13,0,0,0-7.77,3.16c0-.9,0-1.82,0-2.79A14.9,14.9,0,0,1,135.21,350Z"/><path class="cls-1" d="M267.82,521.46A133.91,133.91,0,1,1,133.91,387.55,133.92,133.92,0,0,1,267.82,521.46Z"/><path d="M164.78,386.81a5.21,5.21,0,0,1-5.21,5.21H108.24a5.21,5.21,0,0,1-5.2-5.21h0a5.2,5.2,0,0,1,5.2-5.21h51.33a5.21,5.21,0,0,1,5.21,5.21Z"/><line class="cls-2" x1="133.91" y1="346.63" x2="133.91"/><circle class="cls-3" cx="82.52" cy="459.79" r="37.81"/></svg>