<svg xmlns="http://www.w3.org/2000/svg" xmlns:xlink="http://www.w3.org/1999/xlink" viewBox="0 0 267.82 655.37"><defs><style>.cls-1{isolation:isolate;}.cls-2{fill:url(#linear-gradient);}.cls-3{fill:#ee3125;}.cls-4,.cls-6{mix-blend-mode:lighten;}.cls-4{fill:url(#linear-gradient-2);}.cls-5{fill:url(#linear-gradient-3);}.cls-6{fill:url(#linear-gradient-4);}.cls-7{fill:none;stroke-miterlimit:10;stroke-width:4px;stroke:url(#linear-gradient-5);}</style><linearGradient id="linear-gradient" x1="114.29" y1="373.42" x2="155.02" y2="373.42" gradientUnits="userSpaceOnUse"><stop offset="0" stop-color="#cfcfcf"/><stop offset="0.11" stop-color="#d8d8d8"/><stop offset="0.29" stop-color="#f0f0f0"/><stop offset="0.38" stop-color="#fff"/><stop offset="0.53" stop-color="#c5c5c5"/><stop offset="0.86" stop-color="#424242"/><stop offset="1" stop-color="#0d0d0d"/></linearGradient><linearGradient id="linear-gradient-2" x1="262.45" y1="522.06" x2="188.12" y2="616.99" gradientUnits="userSpaceOnUse"><stop offset="0" stop-color="#fff"/><stop offset="0.12" stop-color="#fffaf9"/><stop offset="0.28" stop-color="#fdeae9"/><stop offset="0.46" stop-color="#fbd1cf"/><stop offset="0.65" stop-color="#f8aeaa"/><stop offset="0.85" stop-color="#f4827b"/><stop offset="1" stop-color="#f15d54"/></linearGradient><linearGradient id="linear-gradient-3" x1="94.85" y1="386.81" x2="172.22" y2="386.81" gradientUnits="userSpaceOnUse"><stop offset="0.13" stop-color="#fff"/><stop offset="0.25" stop-color="#d0d0d0"/><stop offset="0.46" stop-color="#8a8a8a"/><stop offset="0.64" stop-color="#535353"/><stop offset="0.8" stop-color="#2b2b2b"/><stop offset="0.92" stop-color="#131313"/><stop offset="1" stop-color="#0a0a0a"/></linearGradient><linearGradient id="linear-gradient-4" x1="13.66" y1="513.07" x2="102.37" y2="413.27" xlink:href="#linear-gradient-2"/><linearGradient id="linear-gradient-5" x1="131.91" y1="173.32" x2="135.91" y2="173.32" xlink:href="#linear-gradient-3"/></defs><title>bulb</title><g class="cls-1"><g id="Layer_1" data-name="Layer 1"><path class="cls-2" d="M153.44,364.86a18.23,18.23,0,1,0-36.46,0c0,3.05.11,5.78.31,8.25a11.18,11.18,0,0,0-.31,2.54V389a11.16,11.16,0,0,0,11.16,11.16h14.14A11.16,11.16,0,0,0,153.44,389V375.65a10.64,10.64,0,0,0-.31-2.54C153.33,370.64,153.44,367.91,153.44,364.86ZM135.21,350a14.89,14.89,0,0,1,14.88,14.88c0,1,0,1.89,0,2.79a11.13,11.13,0,0,0-7.77-3.16H128.14a11.13,11.13,0,0,0-7.77,3.16c0-.9,0-1.82,0-2.79A14.9,14.9,0,0,1,135.21,350Z"/><path class="cls-3" d="M267.82,521.46A133.91,133.91,0,1,1,133.91,387.55,133.92,133.92,0,0,1,267.82,521.46Z"/><path class="cls-4" d="M179.85,587.85c48.7-14.2,67.51-28.45,80.16-66.39a126,126,0,0,1-52,101.95C208,602.92,199.38,594,179.85,587.85Z"/><path class="cls-5" d="M164.78,386.81a5.21,5.21,0,0,1-5.21,5.21H108.24a5.21,5.21,0,0,1-5.2-5.21h0a5.2,5.2,0,0,1,5.2-5.21h51.33a5.21,5.21,0,0,1,5.21,5.21Z"/><path class="cls-6" d="M109.54,446.69C50.4,452.27,18,503.05,7.81,521.46A126.29,126.29,0,0,1,84.87,405.29C81.65,430,131.94,444.58,109.54,446.69Z"/><line class="cls-7" x1="133.91" y1="346.63" x2="133.91"/></g></g></svg>