<svg xmlns="http://www.w3.org/2000/svg" xmlns:xlink="http://www.w3.org/1999/xlink" viewBox="0 0 231.27 616.13"><defs><style>.cls-1{isolation:isolate;}.cls-2{fill:none;stroke-miterlimit:10;stroke-width:4px;stroke:url(#linear-gradient);}.cls-3{fill:url(#linear-gradient-2);}.cls-4{fill:#7ccfd7;}.cls-5,.cls-7{mix-blend-mode:lighten;}.cls-5{fill:url(#linear-gradient-3);}.cls-6{fill:url(#linear-gradient-4);}.cls-7{fill:url(#linear-gradient-5);}</style><linearGradient id="linear-gradient" x1="113.63" y1="176.21" x2="117.63" y2="176.21" gradientUnits="userSpaceOnUse"><stop offset="0.13" stop-color="#fff"/><stop offset="0.25" stop-color="#d0d0d0"/><stop offset="0.46" stop-color="#8a8a8a"/><stop offset="0.64" stop-color="#535353"/><stop offset="0.8" stop-color="#2b2b2b"/><stop offset="0.92" stop-color="#131313"/><stop offset="1" stop-color="#0a0a0a"/></linearGradient><linearGradient id="linear-gradient-2" x1="98.69" y1="372.65" x2="133.87" y2="372.65" gradientUnits="userSpaceOnUse"><stop offset="0" stop-color="#cfcfcf"/><stop offset="0.11" stop-color="#d8d8d8"/><stop offset="0.29" stop-color="#f0f0f0"/><stop offset="0.38" stop-color="#fff"/><stop offset="0.53" stop-color="#c5c5c5"/><stop offset="0.86" stop-color="#424242"/><stop offset="1" stop-color="#0d0d0d"/></linearGradient><linearGradient id="linear-gradient-3" x1="226.63" y1="501.02" x2="162.44" y2="582.99" gradientUnits="userSpaceOnUse"><stop offset="0" stop-color="#fff"/><stop offset="0.16" stop-color="#f9fdfd"/><stop offset="0.38" stop-color="#e9f7f8"/><stop offset="0.61" stop-color="#cfedf0"/><stop offset="0.87" stop-color="#aadfe4"/><stop offset="1" stop-color="#94d6dd"/></linearGradient><linearGradient id="linear-gradient-4" x1="81.91" y1="384.22" x2="148.72" y2="384.22" xlink:href="#linear-gradient"/><linearGradient id="linear-gradient-5" x1="11.79" y1="493.25" x2="88.4" y2="407.07" xlink:href="#linear-gradient-3"/></defs><title>bulb</title><g class="cls-1"><g id="Layer_1" data-name="Layer 1"><line class="cls-2" x1="115.63" y1="349.53" x2="115.63" y2="2.89"/><path class="cls-3" d="M132.5,365.27a15.74,15.74,0,1,0-31.48,0c0,2.63.09,5,.26,7.12a9.87,9.87,0,0,0-.26,2.19v11.56a9.64,9.64,0,0,0,9.64,9.64h12.2a9.64,9.64,0,0,0,9.64-9.64V374.58a9.87,9.87,0,0,0-.26-2.19C132.41,370.26,132.5,367.9,132.5,365.27Zm-15.74-12.85a12.86,12.86,0,0,1,12.85,12.85c0,.83,0,1.63,0,2.41a9.6,9.6,0,0,0-6.72-2.73h-12.2a9.62,9.62,0,0,0-6.72,2.73c0-.78,0-1.58,0-2.41A12.87,12.87,0,0,1,116.76,352.42Z"/><path class="cls-4" d="M231.27,500.49A115.64,115.64,0,1,1,115.64,384.86,115.63,115.63,0,0,1,231.27,500.49Z"/><path class="cls-5" d="M155.3,557.83c42.06-12.26,58.3-24.57,69.22-57.33a108.81,108.81,0,0,1-44.87,88C179.65,570.84,172.17,563.13,155.3,557.83Z"/><path class="cls-6" d="M142.29,384.22a4.5,4.5,0,0,1-4.49,4.5H93.47a4.5,4.5,0,0,1-4.49-4.5h0a4.5,4.5,0,0,1,4.49-4.5H137.8a4.5,4.5,0,0,1,4.49,4.5Z"/><path class="cls-7" d="M94.6,435.93c-51.07,4.82-79,48.67-87.86,64.57A109,109,0,0,1,73.29,400.18C70.51,421.48,113.93,434.11,94.6,435.93Z"/></g></g></svg>