<?xml version="1.0" encoding="utf-8"?>
<!-- Generator: Adobe Illustrator 24.0.0, SVG Export Plug-In . SVG Version: 6.00 Build 0)  -->
<svg version="1.1" id="Layer_1" xmlns="http://www.w3.org/2000/svg" xmlns:xlink="http://www.w3.org/1999/xlink" x="0px" y="0px"
	 viewBox="0 0 458.59 434.02" style="enable-background:new 0 0 458.59 434.02;" xml:space="preserve">
<style type="text/css">
	.st0{fill:none;stroke:#231F20;stroke-width:4;stroke-linecap:round;stroke-linejoin:round;stroke-miterlimit:10;}
	.st1{fill:url(#SVGID_1_);}
	.st2{opacity:0.45;fill:#E81C24;}
	.st3{fill:#F8B465;}
	.st4{fill:#FFFFFF;}
	.st5{fill:none;stroke:#FFFFFF;stroke-width:1.5181;stroke-linecap:round;stroke-miterlimit:10;}
	.st6{fill:none;stroke:#FFFFFF;stroke-width:1.5181;stroke-linecap:round;stroke-miterlimit:10;stroke-dasharray:0,4.5072;}
	.st7{fill:none;stroke:#FFFFFF;stroke-width:1.5181;stroke-linecap:round;stroke-miterlimit:10;stroke-dasharray:0,4.5519;}
	.st8{fill:#303942;}
</style>
<polyline class="st0" points="193.07,138.09 229.75,11.84 265.52,138.09 "/>
<g>
	<linearGradient id="SVGID_1_" gradientUnits="userSpaceOnUse" x1="229.2967" y1="434.0179" x2="229.2967" y2="118.0852">
		<stop  offset="0" style="stop-color:#4C1527"/>
		<stop  offset="1" style="stop-color:#8B203A"/>
	</linearGradient>
	<rect y="118.09" class="st1" width="458.59" height="315.93"/>
</g>
<rect y="118.09" class="st2" width="458.59" height="315.93"/>
<path class="st3" d="M242.48,307.89l-1.95-1.06l2.32-0.69c0.23-0.07,0.35-0.29,0.29-0.53s-0.29-0.35-0.53-0.29l-3.13,0.93
	l-0.71-0.39l1.45-0.43c0.23-0.07,0.35-0.29,0.29-0.53s-0.29-0.35-0.53-0.29l-2.26,0.67l-1.5-0.82l1.77-0.84
	c0.14-0.07,0.26-0.2,0.26-0.39c-0.01-0.15-0.12-0.31-0.27-0.39l-1.83-0.75l1.44-0.87l2.31,0.57c0.21,0.06,0.48-0.08,0.51-0.31
	s-0.08-0.48-0.31-0.51l-1.5-0.38l0.72-0.43l3.23,0.78c0.21,0.06,0.48-0.08,0.51-0.31c0.06-0.21-0.08-0.48-0.31-0.51l-2.37-0.56
	l1.89-1.16c0.21-0.13,0.26-0.39,0.14-0.61c-0.13-0.21-0.39-0.26-0.61-0.14l-1.89,1.16l0.56-2.37c0.06-0.21-0.08-0.48-0.31-0.51
	c-0.21-0.06-0.48,0.08-0.51,0.31l-0.78,3.23l-0.72,0.43l0.38-1.5c0.07-0.3-0.06-0.52-0.31-0.6c-0.21-0.06-0.48,0.08-0.51,0.31
	l-0.57,2.31l-1.47,0.91l0.18-1.95c0.01-0.19-0.07-0.33-0.22-0.41s-0.34-0.09-0.46,0.04l-1.53,1.21l-0.06-1.69l1.63-1.74
	c0.14-0.17,0.15-0.45-0.02-0.59c-0.17-0.14-0.45-0.15-0.59,0.02l-1.05,1.13l-0.03-0.84l2.28-2.41c0.14-0.17,0.15-0.45-0.02-0.59
	c-0.17-0.14-0.45-0.15-0.59,0.02l-1.68,1.76l-0.06-2.22c-0.01-0.25-0.22-0.41-0.44-0.44c-0.25,0.01-0.41,0.22-0.44,0.44l0.06,2.22
	l-1.76-1.68c-0.17-0.14-0.45-0.15-0.59,0.02s-0.15,0.45,0.02,0.59l2.41,2.28l0.03,0.84l-1.13-1.05c-0.17-0.14-0.45-0.15-0.59,0.02
	s-0.15,0.45,0.02,0.59l1.74,1.63l0.04,1.72l-1.66-1.15c-0.15-0.08-0.34-0.09-0.48-0.02s-0.24,0.26-0.19,0.43l0.26,1.94l-1.47-0.8
	l-0.69-2.32c-0.07-0.23-0.29-0.35-0.53-0.29c-0.23,0.07-0.35,0.29-0.29,0.53l0.43,1.45l-0.71-0.39l-0.95-3.19
	c-0.07-0.23-0.29-0.35-0.53-0.29c-0.23,0.07-0.35,0.29-0.29,0.53l0.69,2.32l-1.92-1.04c-0.23-0.12-0.46-0.05-0.58,0.17
	c-0.12,0.23-0.05,0.46,0.17,0.58l1.95,1.06l-2.32,0.69c-0.23,0.07-0.35,0.29-0.29,0.53c0.07,0.23,0.29,0.35,0.53,0.29l3.09-0.85
	l0.71,0.39l-1.45,0.43c-0.23,0.07-0.35,0.29-0.29,0.53c0.07,0.23,0.29,0.35,0.53,0.29l2.26-0.67l1.5,0.82l-1.83,0.86
	c-0.14,0.07-0.26,0.2-0.26,0.39c0.01,0.15,0.12,0.31,0.27,0.39l1.83,0.75l-1.44,0.87l-2.31-0.57c-0.21-0.06-0.48,0.08-0.51,0.31
	c-0.06,0.21,0.08,0.48,0.31,0.51l1.5,0.38l-0.72,0.43l-3.23-0.78c-0.21-0.06-0.48,0.08-0.51,0.31s0.1,0.44,0.31,0.51l2.37,0.56
	l-1.89,1.16c-0.21,0.13-0.26,0.39-0.14,0.61c0.13,0.21,0.39,0.26,0.61,0.14l1.89-1.16l-0.56,2.37c-0.06,0.21,0.1,0.44,0.31,0.51
	c0.21,0.06,0.48-0.08,0.51-0.31l0.78-3.23l0.72-0.43l-0.38,1.5c-0.06,0.21,0.1,0.44,0.31,0.51s0.48-0.08,0.51-0.31l0.57-2.31
	l1.44-0.87l-0.16,2c-0.01,0.19,0.07,0.33,0.22,0.41s0.34,0.09,0.46-0.04l1.57-1.19l0.06,1.69l-1.63,1.74
	c-0.14,0.17-0.15,0.45,0.02,0.59c0.17,0.14,0.45,0.15,0.59-0.02l1.05-1.13l0.03,0.84l-2.28,2.41c-0.14,0.17-0.15,0.45,0.02,0.59
	c0.17,0.14,0.45,0.15,0.59-0.02l1.68-1.76l0.06,2.22c0.01,0.25,0.22,0.41,0.44,0.44c0.25-0.01,0.41-0.22,0.44-0.44l-0.06-2.22
	l1.76,1.68c0.17,0.14,0.45,0.15,0.59-0.02c0.14-0.17,0.15-0.45-0.02-0.59l-2.41-2.28l-0.03-0.84l1.13,1.05
	c0.17,0.14,0.45,0.15,0.59-0.02c0.14-0.17,0.15-0.45-0.02-0.59l-1.74-1.63l-0.06-1.69l1.63,1.13c0.15,0.08,0.34,0.09,0.48,0.02
	s0.24-0.26,0.19-0.43l-0.18-2l1.5,0.82l0.67,2.26c0.07,0.23,0.29,0.35,0.53,0.29c0.23-0.07,0.35-0.29,0.29-0.53l-0.43-1.45
	l0.71,0.39l0.95,3.19c0.07,0.23,0.29,0.35,0.53,0.29c0.23-0.07,0.35-0.29,0.29-0.53l-0.69-2.32l1.92,1.04
	c0.23,0.12,0.46,0.05,0.58-0.17C242.75,308.29,242.7,308.02,242.48,307.89z M236.76,303.28l-1.5,0.7c0,0,0,0-0.04-0.02l-1.13-0.61
	l1.09-0.67L236.76,303.28z M234.93,300.29l-0.15,1.62l0,0l-1.11,0.71l-0.01-1.32L234.93,300.29z M231.42,300.39l1.35,0.93l0,0
	l0.03,1.28l-1.16-0.63L231.42,300.39z M229.75,303.47l1.5-0.7c0,0,0,0,0.04,0.02l1.13,0.61l-1.11,0.71L229.75,303.47z
	 M231.58,306.46l0.15-1.62c0,0,0,0,0.06-0.02l1.06-0.69l0.01,1.32L231.58,306.46z M235.09,306.36l-1.35-0.93l0.02-0.04l-0.03-1.28
	l1.13,0.61L235.09,306.36z"/>
<g>
	<path class="st4" d="M44.61,364.64c0-5.91,7.5-9.18,13.95-8.68c-4.95,1.36-7.68,4.82-7.68,9.27c0,3.82,1.95,6.5,6.13,6.5
		c5.31,0,8.9-4.32,10.81-12.58l5.04-21.94h-2.09c-5.45,0-8.04,3.68-8.04,7.4c0,1.27,0.32,2.73,0.86,3.59
		c-3.41-0.27-5.5-2.09-5.5-4.72c0-3.91,4.68-6.59,11.36-6.59h14.99l-0.09,0.27c-2.82,0-3.82,0.91-4.68,4.63l-2.04,8.81h12.17
		l2.04-8.81c0.86-3.72,0.23-4.63-2.59-4.63l0.09-0.27h15.13l-0.09,0.27c-2.82,0-3.82,0.91-4.68,4.63l-4.22,18.26
		c-0.86,3.73-0.27,4.63,2.54,4.63l-0.05,0.27H82.86l0.05-0.27c2.82,0,3.86-0.91,4.72-4.63l2.09-9.04H77.54l-1.86,8.13
		c-2,8.63-9.27,12.95-18.76,12.95C49.11,372.09,44.61,369.18,44.61,364.64z"/>
	<path class="st4" d="M99.12,357.92c0-6.18,4.77-12.36,12.26-12.36c2.95,0,4.27,1,5.04,1.68l6.54-1.64l0.14,0.05l-3.63,16.31
		c-0.27,1.23,0.14,1.82,0.95,1.82c0.64,0,1.45-0.36,2.32-0.77l-0.05,0.27c-2.5,1.45-5.04,2.23-6.95,2.23c-2.32,0-3.41-1.14-3.5-2.95
		c-1.64,1.5-3.95,2.91-6.72,2.91C101.12,365.46,99.12,361.96,99.12,357.92z M112.11,362.19l3.18-14.04c-0.27-1.14-1-2.18-2.36-2.18
		c-3.95,0-6.4,8.95-6.4,13.04c0,2.41,0.86,4.54,2.77,4.54C110.38,363.55,111.34,362.87,112.11,362.19z"/>
	<path class="st4" d="M118.88,372.09c2.45,0,3.13-1.68,3.68-3.95l4.41-19.03c0.27-1.23-0.14-1.82-0.95-1.82
		c-0.64,0-1.45,0.36-2.32,0.77l0.05-0.27c2.5-1.45,5.04-2.23,6.95-2.23c2.27,0,3.32,1.14,3.45,2.86c1.64-1.5,3.86-2.86,6.63-2.86
		c4.41,0,6.45,3.5,6.45,7.54c0,6.22-4.81,12.36-12.31,12.36c-2.18,0-3.45-0.5-4.27-1l-0.95,4.04c-0.54,2.27-0.05,3.59,2.32,3.59
		l-0.05,0.27h-13.13L118.88,372.09z M134.32,348.74l-3,12.9c-0.5,2.14,0.36,3.41,2.09,3.41c4.13,0,6.4-9.22,6.4-13.17
		c0-2.45-0.86-4.41-2.73-4.41C136,347.47,135.09,348.11,134.32,348.74z"/>
	<path class="st4" d="M144.59,372.09c2.45,0,3.13-1.68,3.68-3.95l4.41-19.03c0.27-1.23-0.14-1.82-0.95-1.82
		c-0.64,0-1.45,0.36-2.32,0.77l0.05-0.27c2.5-1.45,5.04-2.23,6.95-2.23c2.27,0,3.32,1.14,3.45,2.86c1.64-1.5,3.86-2.86,6.63-2.86
		c4.41,0,6.45,3.5,6.45,7.54c0,6.22-4.81,12.36-12.31,12.36c-2.18,0-3.45-0.5-4.27-1l-0.95,4.04c-0.54,2.27-0.05,3.59,2.32,3.59
		l-0.05,0.27h-13.13L144.59,372.09z M160.03,348.74l-3,12.9c-0.5,2.14,0.36,3.41,2.09,3.41c4.13,0,6.4-9.22,6.4-13.17
		c0-2.45-0.86-4.41-2.73-4.41C161.71,347.47,160.8,348.11,160.03,348.74z"/>
	<path class="st4" d="M172.34,372.54c-3.36,2.82-5.77,4.45-8.9,4.45c-3.18,0-5.27-1.68-5.27-4.22c0-3.13,3.23-4.5,5.91-4.5
		c2.91,0,5.59,1.59,8.31,3.72c2.23-1.86,5-4.27,8.72-7.22l-3.36-16.67c-0.09-0.54-0.45-0.82-1-0.82c-0.64,0-1.45,0.36-2.32,0.77
		l0.05-0.27c2.5-1.45,5.04-2.23,6.95-2.23c2.04,0,3.18,0.91,3.41,2.36l2.04,12.86c3.18-2.63,5.77-5.68,6.13-8.4
		c-0.36,0.14-0.86,0.23-1.41,0.23c-2.13,0-3.5-1.59-3.5-3.45c0-1.95,1.45-3.59,3.68-3.59c2.63,0,3.54,2.32,3.54,4.04
		c0,4.45-5.95,10.22-13.85,15.44c-3.68,2.82-6.45,5.27-8.77,7.22c5.59,4.45,11.4,10.99,19.4,10.99c6.86,0,9.04-4.82,9.04-8.72
		c0-1.95-0.55-4.18-1.73-5.32c5.27,0.86,7.68,3.73,7.68,7.09c0,3.91-3.18,8.54-11.54,8.54
		C184.93,384.86,178.29,377.36,172.34,372.54z M172.03,372.32c-2.68-2.14-5.27-3.68-8-3.68c-2.54,0-5.41,1.36-5.41,4.13
		c0,2.32,1.95,3.86,4.86,3.86C166.26,376.63,168.48,375.23,172.03,372.32z"/>
	<path class="st4" d="M202.96,364.64c0-5.91,7.5-9.18,13.95-8.68c-4.95,1.36-7.68,4.82-7.68,9.27c0,3.82,1.95,6.5,6.13,6.5
		c5.31,0,8.9-4.32,10.81-12.58l5.04-21.94h-2.09c-5.45,0-8.04,3.68-8.04,7.4c0,1.27,0.32,2.73,0.86,3.59
		c-3.41-0.27-5.5-2.09-5.5-4.72c0-3.91,4.68-6.59,11.36-6.59h14.99l-0.09,0.27c-2.82,0-3.82,0.91-4.68,4.63l-2.04,8.81h12.17
		l2.04-8.81c0.86-3.72,0.23-4.63-2.59-4.63l0.09-0.27h15.13l-0.09,0.27c-2.82,0-3.82,0.91-4.68,4.63l-4.22,18.26
		c-0.86,3.73-0.27,4.63,2.54,4.63l-0.04,0.27h-15.13l0.04-0.27c2.82,0,3.86-0.91,4.72-4.63l2.09-9.04h-12.17l-1.86,8.13
		c-2,8.63-9.27,12.95-18.76,12.95C207.46,372.09,202.96,369.18,202.96,364.64z"/>
	<path class="st4" d="M259.15,357.24c0-6.45,6.31-11.67,13.54-11.67c4.82,0,9.86,2.32,9.86,8.18c0,6.54-6.31,11.72-13.58,11.72
		C263.69,365.46,259.15,362.73,259.15,357.24z M275.78,349.74c0-3.18-1.32-3.86-2.59-3.86c-5.09,0-7.22,11.36-7.22,15.4
		c0,3.18,1.32,3.86,2.59,3.86C273.69,365.14,275.78,353.74,275.78,349.74z"/>
	<path class="st4" d="M284.86,360.55l4.18-18.08c0.27-1.27,0.68-2.45,1.18-3.54c-9.4-4.95-17.08-14.63-26.71-14.63
		c-5.95,0-8.5,3.68-8.5,8.08c0,2.23,0.64,5.32,2.32,7.36c-4.95-0.64-8.4-4.18-8.4-8.31c0-4.41,4-8.72,11.49-8.72
		c11.76,0,20.12,10.63,29.98,15.85c2.73-5.59,7.9-8.13,13.08-8.13c4.82,0,6.63,2.23,6.63,4.95c0,4-3.95,6.36-9.4,6.36
		c-1.45,0-2.82-0.18-4.18-0.46l-4.68,20.67c-0.27,1.23,0.14,1.82,0.95,1.82c0.64,0,1.45-0.36,2.32-0.77l-0.05,0.27
		c-2.5,1.45-5.04,2.23-6.95,2.23C285.04,365.5,284.18,363.46,284.86,360.55z M300.71,341.38c5.31,0,8.9-2.36,8.9-5.95
		c0-2.77-2.09-4.54-5.22-4.54c-5.13,0-6.59,4.91-7.68,9.63l-0.09,0.41C297.94,341.25,299.31,341.38,300.71,341.38z"/>
	<path class="st4" d="M299.26,360.55l2.59-11.45c0.27-1.23-0.14-1.82-0.95-1.82c-0.64,0-1.45,0.36-2.32,0.77l0.05-0.27
		c2.5-1.45,5.04-2.23,6.95-2.23c3.09,0,3.95,2.04,3.27,4.95l-2.59,11.45c-0.27,1.23,0.14,1.82,0.95,1.82c0.64,0,1.45-0.36,2.32-0.77
		l-0.05,0.27c-2.5,1.45-5.04,2.23-6.95,2.23C299.44,365.5,298.58,363.46,299.26,360.55z M303.44,339.29c0-2.32,1.86-3.95,4.18-3.95
		s4.18,1.63,4.18,3.95c0,2.36-1.86,4-4.18,4S303.44,341.65,303.44,339.29z"/>
	<path class="st4" d="M312.39,357.92c0-6.18,4.77-12.36,12.26-12.36c2.18,0,3.5,0.54,4.32,1.09l1.64-7.04
		c0.64-2.77-0.32-3.82-2.77-3.82l0.09-0.27l11.04-0.91l-6.22,27.35c-0.27,1.23,0.14,1.82,0.95,1.82c0.64,0,1.45-0.36,2.32-0.77
		l-0.05,0.27c-2.5,1.45-5.04,2.23-6.95,2.23c-2.32,0-3.41-1.14-3.5-2.95c-1.64,1.5-3.95,2.91-6.72,2.91
		C314.39,365.46,312.39,361.96,312.39,357.92z M325.38,362.19l3.23-13.95c-0.32-1.18-1.04-2.27-2.41-2.27
		c-3.95,0-6.41,8.95-6.41,13.04c0,2.41,0.86,4.54,2.77,4.54C323.65,363.55,324.61,362.87,325.38,362.19z"/>
	<path class="st4" d="M339.1,357.92c0-6.18,4.77-12.36,12.26-12.36c2.95,0,4.27,1,5.04,1.68l6.54-1.64l0.14,0.05l-3.63,16.31
		c-0.27,1.23,0.14,1.82,0.95,1.82c0.64,0,1.45-0.36,2.32-0.77l-0.05,0.27c-2.5,1.45-5.04,2.23-6.95,2.23c-2.32,0-3.41-1.14-3.5-2.95
		c-1.64,1.5-3.95,2.91-6.72,2.91C341.1,365.46,339.1,361.96,339.1,357.92z M352.09,362.19l3.18-14.04c-0.27-1.14-1-2.18-2.36-2.18
		c-3.95,0-6.41,8.95-6.41,13.04c0,2.41,0.86,4.54,2.77,4.54C350.36,363.55,351.32,362.87,352.09,362.19z"/>
	<path class="st4" d="M363.22,372.54c-3.36,2.82-5.77,4.45-8.9,4.45c-3.18,0-5.27-1.68-5.27-4.22c0-3.13,3.23-4.5,5.91-4.5
		c2.91,0,5.59,1.59,8.31,3.72c2.23-1.86,5-4.27,8.72-7.22l-3.36-16.67c-0.09-0.54-0.45-0.82-1-0.82c-0.64,0-1.45,0.36-2.32,0.77
		l0.04-0.27c2.5-1.45,5.04-2.23,6.95-2.23c2.04,0,3.18,0.91,3.41,2.36l2.04,12.86c3.18-2.63,5.77-5.68,6.13-8.4
		c-0.36,0.14-0.86,0.23-1.41,0.23c-2.14,0-3.5-1.59-3.5-3.45c0-1.95,1.45-3.59,3.68-3.59c2.63,0,3.54,2.32,3.54,4.04
		c0,4.45-5.95,10.22-13.85,15.44c-3.68,2.82-6.45,5.27-8.77,7.22c5.59,4.45,11.4,10.99,19.4,10.99c6.86,0,9.04-4.82,9.04-8.72
		c0-1.95-0.54-4.18-1.73-5.32c5.27,0.86,7.68,3.73,7.68,7.09c0,3.91-3.18,8.54-11.54,8.54C375.8,384.86,369.17,377.36,363.22,372.54
		z M362.9,372.32c-2.68-2.14-5.27-3.68-7.99-3.68c-2.54,0-5.41,1.36-5.41,4.13c0,2.32,1.95,3.86,4.86,3.86
		C357.13,376.63,359.36,375.23,362.9,372.32z"/>
	<path class="st4" d="M386.97,360.82c0-1.5,1.14-3.04,2.91-3.04c1.64,0,2.77,1.27,2.77,2.86c0,1.23-0.64,2.18-1.63,2.63
		c0.5,1.04,1.45,1.91,3.5,1.91c2.54,0,4.72-1.41,4.72-3.41c0-4.32-9.86-2.68-9.86-9.18c0-4.18,4.09-7.04,9.36-7.04
		c4.5,0,7.59,2.09,7.59,4.54c0,1.54-1.18,3.04-2.82,3.04c-1.54,0-2.77-1.27-2.77-2.86c0-1.13,0.64-2.09,1.64-2.5
		c-0.5-1.04-1.41-1.95-3.27-1.95c-2.23,0-4.45,1.27-4.45,3.27c0,4.22,9.99,2.59,9.99,9.04c0,4.45-4.72,7.31-9.99,7.31
		C390.06,365.46,386.97,363.28,386.97,360.82z"/>
	<path class="st4" d="M408.19,361.42c0-2.18,1.77-3.95,3.95-3.95c2.18,0,3.95,1.77,3.95,3.95s-1.77,3.95-3.95,3.95
		C409.96,365.37,408.19,363.6,408.19,361.42z M412.46,341.61c0-3.27,2.45-5.27,5.09-5.27c2,0,3.86,1.14,3.86,3.5
		c0,3.5-4.18,5.31-7.77,15.81h-0.32C414.23,347.47,412.46,344.43,412.46,341.61z"/>
</g>
<g>
	<path class="st4" d="M156.33,185.75l2.87-0.49v-20.16l-2.87-0.49v-2.23h19.78v6.15h-2.95l-0.28-3.43h-10.21v8.82h9.9v2.72h-9.9
		v8.61l2.87,0.49v2.21h-9.19V185.75z"/>
	<path class="st4" d="M178.57,171.18v-2.23h5.96l0.33,2.76c0.54-0.97,1.2-1.73,2-2.29s1.7-0.83,2.72-0.83
		c0.27,0,0.55,0.02,0.83,0.06s0.51,0.08,0.66,0.13l-0.46,3.22l-1.97-0.11c-0.91,0-1.68,0.21-2.3,0.64s-1.1,1.03-1.44,1.8v10.92
		l2.87,0.49v2.21h-9.19v-2.21l2.87-0.49v-13.59L178.57,171.18z"/>
	<path class="st4" d="M193.12,178.28c0-2.81,0.76-5.13,2.29-6.95s3.59-2.73,6.21-2.73c2.62,0,4.7,0.91,6.23,2.72
		s2.29,4.14,2.29,6.96v0.39c0,2.84-0.76,5.16-2.29,6.96s-3.59,2.71-6.21,2.71c-2.64,0-4.72-0.91-6.24-2.72s-2.29-4.13-2.29-6.95
		V178.28z M196.58,178.66c0,2.02,0.42,3.68,1.27,4.99s2.11,1.97,3.79,1.97c1.64,0,2.89-0.66,3.74-1.97s1.28-2.98,1.28-4.99v-0.39
		c0-1.99-0.43-3.65-1.28-4.97s-2.12-1.99-3.78-1.99s-2.92,0.66-3.76,1.99s-1.27,2.98-1.27,4.97V178.66z"/>
	<path class="st4" d="M212.61,185.75l2.87-0.49v-13.59l-2.87-0.49v-2.23h5.98l0.23,2.48c0.61-0.9,1.39-1.6,2.36-2.09
		s2.07-0.74,3.34-0.74s2.35,0.29,3.26,0.88s1.59,1.46,2.05,2.64c0.6-1.08,1.39-1.93,2.37-2.57s2.13-0.95,3.45-0.95
		c1.95,0,3.48,0.67,4.61,2s1.69,3.33,1.69,6v8.67l2.87,0.49v2.21h-9.21v-2.21l2.87-0.49v-8.7c0-1.88-0.32-3.2-0.97-3.98
		s-1.6-1.17-2.87-1.17c-1.21,0-2.18,0.42-2.91,1.27s-1.16,1.92-1.27,3.21v9.37l2.87,0.49v2.21h-9.19v-2.21l2.87-0.49v-8.7
		c0-1.78-0.33-3.08-0.99-3.91s-1.62-1.24-2.87-1.24c-1.05,0-1.92,0.22-2.6,0.65s-1.2,1.04-1.56,1.83v11.37l2.87,0.49v2.21h-9.19
		V185.75z"/>
	<path class="st4" d="M256.28,178.28c0-2.81,0.76-5.13,2.29-6.95s3.59-2.73,6.21-2.73c2.62,0,4.7,0.91,6.23,2.72
		s2.29,4.14,2.29,6.96v0.39c0,2.84-0.76,5.16-2.29,6.96s-3.59,2.71-6.21,2.71c-2.64,0-4.72-0.91-6.24-2.72s-2.29-4.13-2.29-6.95
		V178.28z M259.74,178.66c0,2.02,0.42,3.68,1.27,4.99s2.11,1.97,3.79,1.97c1.64,0,2.89-0.66,3.74-1.97s1.28-2.98,1.28-4.99v-0.39
		c0-1.99-0.43-3.65-1.28-4.97s-2.12-1.99-3.78-1.99s-2.92,0.66-3.76,1.99s-1.27,2.98-1.27,4.97V178.66z"/>
	<path class="st4" d="M290.06,185.15c-0.6,1.02-1.37,1.8-2.31,2.36s-2.03,0.83-3.26,0.83c-2.06,0-3.67-0.66-4.83-1.99
		s-1.74-3.39-1.74-6.19v-8.49l-2.18-0.49v-2.23h2.18h3.46v11.25c0,2.03,0.3,3.42,0.9,4.18s1.53,1.14,2.79,1.14
		c1.23,0,2.25-0.25,3.05-0.75s1.41-1.2,1.82-2.12v-10.99l-2.55-0.49v-2.23h2.55h3.46v16.31l2.18,0.49v2.21h-5.29L290.06,185.15z"/>
	<path class="st4" d="M298.32,171.18v-2.23h5.96l0.33,2.76c0.54-0.97,1.2-1.73,2-2.29s1.7-0.83,2.72-0.83
		c0.27,0,0.55,0.02,0.83,0.06s0.51,0.08,0.66,0.13l-0.46,3.22l-1.97-0.11c-0.91,0-1.68,0.21-2.3,0.64s-1.1,1.03-1.44,1.8v10.92
		l2.87,0.49v2.21h-9.19v-2.21l2.87-0.49v-13.59L298.32,171.18z"/>
	<path class="st4" d="M97.98,200.94v4.59h3.6v2.57h-3.6v11.55c0,0.89,0.18,1.52,0.55,1.88s0.86,0.54,1.47,0.54
		c0.3,0,0.65-0.03,1.03-0.08s0.7-0.11,0.96-0.17l0.47,2.37c-0.33,0.21-0.81,0.38-1.44,0.52s-1.27,0.2-1.9,0.2
		c-1.41,0-2.53-0.42-3.36-1.27s-1.25-2.18-1.25-4v-11.55h-3.01v-2.57h3.01v-4.59H97.98z"/>
	<path class="st4" d="M104.78,214.86c0-2.81,0.76-5.13,2.29-6.95s3.59-2.73,6.21-2.73c2.62,0,4.7,0.91,6.23,2.72
		s2.29,4.14,2.29,6.96v0.39c0,2.84-0.76,5.16-2.29,6.96s-3.59,2.71-6.21,2.71c-2.64,0-4.72-0.91-6.24-2.72s-2.29-4.13-2.29-6.95
		V214.86z M108.24,215.25c0,2.02,0.42,3.68,1.27,4.99s2.11,1.97,3.79,1.97c1.64,0,2.89-0.66,3.74-1.97s1.28-2.98,1.28-4.99v-0.39
		c0-1.99-0.43-3.65-1.28-4.97s-2.12-1.99-3.78-1.99s-2.92,0.66-3.76,1.99s-1.27,2.98-1.27,4.97V215.25z"/>
	<path class="st4" d="M137.78,222.28c-0.62,0.87-1.38,1.52-2.28,1.97s-1.94,0.67-3.12,0.67c-2.32,0-4.13-0.84-5.44-2.52
		c-1.31-1.68-1.96-3.89-1.96-6.64v-0.37c0-3.06,0.65-5.53,1.96-7.4c1.31-1.88,3.13-2.81,5.48-2.81c1.12,0,2.12,0.21,2.98,0.62
		s1.6,1.02,2.21,1.8v-7.75l-2.87-0.49v-2.23h2.87h3.46v24.71l2.87,0.49v2.21h-5.87L137.78,222.28z M128.44,215.76
		c0,1.91,0.39,3.45,1.18,4.61s2,1.74,3.64,1.74c1.03,0,1.9-0.23,2.6-0.7s1.28-1.13,1.74-1.99v-8.82c-0.45-0.8-1.03-1.43-1.74-1.9
		s-1.57-0.7-2.57-0.7c-1.65,0-2.87,0.69-3.67,2.06s-1.19,3.15-1.19,5.34V215.76z"/>
	<path class="st4" d="M159.38,222.28c-0.62,0.87-1.38,1.52-2.28,1.97s-1.94,0.67-3.12,0.67c-2.32,0-4.13-0.84-5.44-2.52
		s-1.96-3.89-1.96-6.64v-0.37c0-3.06,0.65-5.53,1.96-7.4s3.13-2.81,5.48-2.81c1.12,0,2.12,0.21,2.98,0.62s1.6,1.02,2.21,1.8v-7.75
		l-2.87-0.49v-2.23h2.87h3.46v24.71l2.87,0.49v2.21h-5.87L159.38,222.28z M150.04,215.76c0,1.91,0.39,3.45,1.18,4.61
		s2,1.74,3.64,1.74c1.03,0,1.9-0.23,2.6-0.7s1.28-1.13,1.74-1.99v-8.82c-0.45-0.8-1.03-1.43-1.74-1.9s-1.57-0.7-2.57-0.7
		c-1.65,0-2.87,0.69-3.67,2.06s-1.19,3.15-1.19,5.34V215.76z"/>
	<path class="st4" d="M182.72,211.5h-2.6l-0.56-2.29c-0.42-0.4-0.95-0.72-1.59-0.96s-1.36-0.36-2.17-0.36
		c-1.23,0-2.14,0.27-2.74,0.81s-0.9,1.19-0.9,1.95c0,0.75,0.26,1.34,0.79,1.78s1.6,0.82,3.22,1.16c2.4,0.52,4.19,1.22,5.36,2.1
		s1.76,2.07,1.76,3.56c0,1.69-0.68,3.05-2.05,4.1s-3.15,1.56-5.35,1.56c-1.44,0-2.74-0.17-3.88-0.5s-2.17-0.82-3.08-1.45l-0.02-4.34
		h2.6l0.65,2.55c0.4,0.36,0.94,0.63,1.63,0.79s1.39,0.25,2.1,0.25c1.23,0,2.19-0.25,2.89-0.75s1.05-1.15,1.05-1.96
		c0-0.76-0.29-1.39-0.87-1.88s-1.68-0.92-3.3-1.28c-2.31-0.5-4.05-1.19-5.22-2.06s-1.76-2.04-1.76-3.52c0-1.55,0.66-2.87,1.98-3.96
		s3.03-1.63,5.14-1.63c1.44,0,2.74,0.19,3.88,0.56s2.1,0.9,2.87,1.56L182.72,211.5z"/>
	<path class="st4" d="M192.57,200.94v4.59h3.6v2.57h-3.6v11.55c0,0.89,0.18,1.52,0.55,1.88s0.86,0.54,1.47,0.54
		c0.3,0,0.65-0.03,1.03-0.08s0.7-0.11,0.96-0.17l0.47,2.37c-0.33,0.21-0.81,0.38-1.44,0.52s-1.27,0.2-1.9,0.2
		c-1.41,0-2.53-0.42-3.36-1.27s-1.25-2.18-1.25-4v-11.55h-3.01v-2.57h3.01v-4.59H192.57z"/>
	<path class="st4" d="M199.7,207.76v-2.23h5.96l0.33,2.76c0.54-0.97,1.2-1.73,2-2.29s1.7-0.83,2.72-0.83c0.27,0,0.55,0.02,0.83,0.06
		s0.51,0.08,0.66,0.13l-0.46,3.22l-1.97-0.11c-0.91,0-1.68,0.21-2.3,0.64s-1.1,1.03-1.44,1.8v10.92l2.87,0.49v2.21h-9.19v-2.21
		l2.87-0.49v-13.59L199.7,207.76z"/>
	<path class="st4" d="M222.94,224.92c-2.65,0-4.75-0.88-6.32-2.65s-2.35-4.05-2.35-6.86v-0.77c0-2.71,0.81-4.96,2.42-6.76
		s3.52-2.7,5.72-2.7c2.55,0,4.49,0.77,5.81,2.32s1.98,3.61,1.98,6.19v2.16h-12.34l-0.05,0.09c0.04,1.83,0.5,3.33,1.39,4.51
		s2.14,1.77,3.74,1.77c1.17,0,2.2-0.17,3.08-0.5s1.65-0.79,2.29-1.38l1.35,2.25c-0.68,0.66-1.58,1.21-2.7,1.66
		S224.51,224.92,222.94,224.92z M222.41,207.9c-1.16,0-2.15,0.49-2.97,1.47s-1.32,2.21-1.51,3.68l0.04,0.09h8.77v-0.46
		c0-1.36-0.36-2.5-1.09-3.41S223.84,207.9,222.41,207.9z"/>
	<path class="st4" d="M242.29,224.92c-2.65,0-4.75-0.88-6.32-2.65s-2.35-4.05-2.35-6.86v-0.77c0-2.71,0.81-4.96,2.42-6.76
		s3.52-2.7,5.72-2.7c2.55,0,4.49,0.77,5.81,2.32s1.98,3.61,1.98,6.19v2.16h-12.34l-0.05,0.09c0.04,1.83,0.5,3.33,1.39,4.51
		s2.14,1.77,3.74,1.77c1.17,0,2.2-0.17,3.08-0.5s1.65-0.79,2.29-1.38l1.35,2.25c-0.68,0.66-1.58,1.21-2.7,1.66
		S243.87,224.92,242.29,224.92z M241.77,207.9c-1.16,0-2.15,0.49-2.97,1.47s-1.32,2.21-1.51,3.68l0.04,0.09h8.77v-0.46
		c0-1.36-0.36-2.5-1.09-3.41S243.2,207.9,241.77,207.9z"/>
	<path class="st4" d="M259.01,200.94v4.59h3.6v2.57h-3.6v11.55c0,0.89,0.18,1.52,0.55,1.88s0.86,0.54,1.47,0.54
		c0.3,0,0.65-0.03,1.03-0.08s0.7-0.11,0.96-0.17l0.47,2.37c-0.33,0.21-0.81,0.38-1.44,0.52s-1.27,0.2-1.9,0.2
		c-1.41,0-2.53-0.42-3.36-1.27c-0.83-0.85-1.25-2.18-1.25-4v-11.55h-3.01v-2.57h3.01v-4.59H259.01z"/>
	<path class="st4" d="M274.62,222.33l2.87-0.49v-21.99l-2.87-0.49v-2.23h6.33v10.93c0.66-0.91,1.46-1.62,2.41-2.13s2-0.76,3.16-0.76
		c2.04,0,3.62,0.61,4.75,1.83s1.69,3.09,1.69,5.62v9.21l2.87,0.49v2.21h-9.19v-2.21l2.87-0.49v-9.25c0-1.57-0.34-2.73-1.01-3.48
		s-1.68-1.12-3.01-1.12c-0.95,0-1.81,0.23-2.59,0.68s-1.42,1.06-1.92,1.84v11.34l2.87,0.49v2.21h-9.19V222.33z"/>
	<path class="st4" d="M298.18,214.86c0-2.81,0.76-5.13,2.29-6.95s3.59-2.73,6.21-2.73c2.62,0,4.7,0.91,6.23,2.72
		s2.29,4.14,2.29,6.96v0.39c0,2.84-0.76,5.16-2.29,6.96s-3.59,2.71-6.21,2.71c-2.64,0-4.72-0.91-6.24-2.72s-2.29-4.13-2.29-6.95
		V214.86z M301.64,215.25c0,2.02,0.42,3.68,1.27,4.99s2.11,1.97,3.79,1.97c1.64,0,2.89-0.66,3.74-1.97s1.28-2.98,1.28-4.99v-0.39
		c0-1.99-0.43-3.65-1.28-4.97s-2.12-1.99-3.78-1.99s-2.92,0.66-3.76,1.99s-1.27,2.98-1.27,4.97V215.25z"/>
	<path class="st4" d="M331.96,221.74c-0.6,1.02-1.37,1.8-2.31,2.36s-2.03,0.83-3.26,0.83c-2.06,0-3.67-0.66-4.83-1.99
		s-1.74-3.39-1.74-6.19v-8.49l-2.18-0.49v-2.23h2.18h3.46v11.25c0,2.03,0.3,3.42,0.9,4.18s1.53,1.14,2.79,1.14
		c1.23,0,2.25-0.25,3.05-0.75s1.41-1.2,1.82-2.12v-10.99l-2.55-0.49v-2.23h2.55h3.46v16.31l2.18,0.49v2.21h-5.29L331.96,221.74z"/>
	<path class="st4" d="M354.78,211.5h-2.6l-0.56-2.29c-0.42-0.4-0.95-0.72-1.59-0.96s-1.36-0.36-2.17-0.36
		c-1.23,0-2.14,0.27-2.74,0.81s-0.9,1.19-0.9,1.95c0,0.75,0.26,1.34,0.79,1.78s1.6,0.82,3.22,1.16c2.4,0.52,4.19,1.22,5.36,2.1
		s1.76,2.07,1.76,3.56c0,1.69-0.68,3.05-2.05,4.1s-3.15,1.56-5.35,1.56c-1.44,0-2.74-0.17-3.88-0.5s-2.17-0.82-3.08-1.45l-0.02-4.34
		h2.6l0.65,2.55c0.4,0.36,0.94,0.63,1.63,0.79s1.39,0.25,2.1,0.25c1.23,0,2.19-0.25,2.89-0.75s1.05-1.15,1.05-1.96
		c0-0.76-0.29-1.39-0.87-1.88s-1.68-0.92-3.3-1.28c-2.31-0.5-4.05-1.19-5.22-2.06s-1.76-2.04-1.76-3.52c0-1.55,0.66-2.87,1.98-3.96
		s3.03-1.63,5.14-1.63c1.44,0,2.74,0.19,3.88,0.56s2.1,0.9,2.87,1.56L354.78,211.5z"/>
	<path class="st4" d="M367.26,224.92c-2.65,0-4.75-0.88-6.32-2.65s-2.35-4.05-2.35-6.86v-0.77c0-2.71,0.81-4.96,2.42-6.76
		s3.52-2.7,5.72-2.7c2.55,0,4.49,0.77,5.81,2.32s1.98,3.61,1.98,6.19v2.16h-12.34l-0.05,0.09c0.04,1.83,0.5,3.33,1.39,4.51
		s2.14,1.77,3.74,1.77c1.17,0,2.2-0.17,3.08-0.5s1.65-0.79,2.29-1.38l1.35,2.25c-0.68,0.66-1.58,1.21-2.7,1.66
		S368.83,224.92,367.26,224.92z M366.73,207.9c-1.16,0-2.15,0.49-2.97,1.47s-1.32,2.21-1.51,3.68l0.04,0.09h8.77v-0.46
		c0-1.36-0.36-2.5-1.09-3.41S368.16,207.9,366.73,207.9z"/>
	<path class="st4" d="M172.25,237.53v4.59h3.6v2.57h-3.6v11.55c0,0.89,0.18,1.52,0.55,1.88s0.86,0.54,1.47,0.54
		c0.3,0,0.65-0.03,1.03-0.08s0.7-0.11,0.96-0.17l0.47,2.37c-0.33,0.21-0.81,0.38-1.44,0.52s-1.27,0.2-1.9,0.2
		c-1.41,0-2.53-0.42-3.36-1.27s-1.25-2.18-1.25-4v-11.55h-3.01v-2.57h3.01v-4.59H172.25z"/>
	<path class="st4" d="M179.06,251.45c0-2.81,0.76-5.13,2.29-6.95s3.59-2.73,6.21-2.73c2.62,0,4.7,0.91,6.23,2.72
		s2.29,4.14,2.29,6.96v0.39c0,2.84-0.76,5.16-2.29,6.96s-3.59,2.71-6.21,2.71c-2.64,0-4.72-0.91-6.24-2.72s-2.29-4.13-2.29-6.95
		V251.45z M182.52,251.83c0,2.02,0.42,3.68,1.27,4.99c0.85,1.31,2.11,1.97,3.79,1.97c1.64,0,2.89-0.66,3.74-1.97
		c0.86-1.31,1.28-2.98,1.28-4.99v-0.39c0-1.99-0.43-3.65-1.28-4.97s-2.12-1.99-3.78-1.99s-2.92,0.66-3.76,1.99s-1.27,2.98-1.27,4.97
		V251.83z"/>
	<path class="st4" d="M226.25,244.35l-1.71,0.26l-7.24,19.44c-0.48,1.28-1.17,2.39-2.07,3.34s-2.12,1.42-3.64,1.42
		c-0.27,0-0.62-0.03-1.05-0.1s-0.77-0.13-1-0.18l0.35-2.72c-0.07-0.01,0.14,0,0.62,0.04s0.79,0.05,0.92,0.05
		c0.74,0,1.34-0.32,1.79-0.96s0.86-1.37,1.2-2.21l0.83-1.97l-6.28-16.14l-1.74-0.28v-2.23h7.68v2.23l-2.14,0.35l3.29,9.39l0.63,2.43
		h0.11l3.96-11.81l-2.16-0.35v-2.23h7.66V244.35z"/>
	<path class="st4" d="M228.36,251.45c0-2.81,0.76-5.13,2.29-6.95s3.59-2.73,6.21-2.73c2.62,0,4.7,0.91,6.23,2.72
		s2.29,4.14,2.29,6.96v0.39c0,2.84-0.76,5.16-2.29,6.96s-3.59,2.71-6.21,2.71c-2.64,0-4.72-0.91-6.24-2.72s-2.29-4.13-2.29-6.95
		V251.45z M231.83,251.83c0,2.02,0.42,3.68,1.27,4.99c0.85,1.31,2.11,1.97,3.79,1.97c1.64,0,2.89-0.66,3.74-1.97
		c0.86-1.31,1.28-2.98,1.28-4.99v-0.39c0-1.99-0.43-3.65-1.28-4.97s-2.12-1.99-3.78-1.99s-2.92,0.66-3.76,1.99s-1.27,2.98-1.27,4.97
		V251.83z"/>
	<path class="st4" d="M262.15,258.32c-0.6,1.02-1.37,1.8-2.31,2.36s-2.03,0.83-3.26,0.83c-2.06,0-3.67-0.66-4.83-1.99
		s-1.74-3.39-1.74-6.19v-8.49l-2.18-0.49v-2.23H250h3.46v11.25c0,2.03,0.3,3.42,0.9,4.18s1.53,1.14,2.79,1.14
		c1.23,0,2.25-0.25,3.05-0.75s1.41-1.2,1.82-2.12v-10.99l-2.55-0.49v-2.23h2.55h3.46v16.31l2.18,0.49v2.21h-5.29L262.15,258.32z"/>
	<path class="st4" d="M270.41,244.35v-2.23h5.96l0.33,2.76c0.54-0.97,1.2-1.73,2-2.29s1.7-0.83,2.72-0.83
		c0.27,0,0.55,0.02,0.83,0.06s0.51,0.08,0.66,0.13l-0.46,3.22l-1.97-0.11c-0.91,0-1.68,0.21-2.3,0.64s-1.1,1.03-1.44,1.8v10.92
		l2.87,0.49v2.21h-9.19v-2.21l2.87-0.49v-13.59L270.41,244.35z"/>
	<path class="st4" d="M299.85,248.09h-2.6l-0.56-2.29c-0.42-0.4-0.95-0.72-1.59-0.96s-1.36-0.36-2.17-0.36
		c-1.23,0-2.14,0.27-2.74,0.81s-0.9,1.19-0.9,1.95c0,0.75,0.26,1.34,0.79,1.78s1.6,0.82,3.22,1.16c2.4,0.52,4.19,1.22,5.36,2.1
		s1.76,2.07,1.76,3.56c0,1.69-0.68,3.05-2.05,4.1s-3.15,1.56-5.35,1.56c-1.44,0-2.74-0.17-3.88-0.5s-2.17-0.82-3.08-1.45l-0.02-4.34
		h2.6l0.65,2.55c0.4,0.36,0.94,0.63,1.63,0.79s1.39,0.25,2.1,0.25c1.23,0,2.19-0.25,2.89-0.75s1.05-1.15,1.05-1.96
		c0-0.76-0.29-1.39-0.87-1.88s-1.68-0.92-3.3-1.28c-2.31-0.5-4.05-1.19-5.22-2.06s-1.76-2.04-1.76-3.52c0-1.55,0.66-2.87,1.98-3.96
		s3.03-1.63,5.14-1.63c1.44,0,2.74,0.19,3.88,0.56s2.1,0.9,2.87,1.56L299.85,248.09z"/>
</g>
<g>
	<g>
		<path class="st3" d="M18.78,130.54c1,0,1.95,0.27,2.76,0.73c3.09-1.51,5.45-1.21,7.4-0.12c0.21,0.09,0.41,0.17,0.61,0.24
			c0.28,0.1,0.54,0.16,0.79,0.16c1.41,0,2.69-0.55,3.61-1.43c0.92-0.88,1.48-2.08,1.48-3.42c0-1.94-1.65-3.51-3.69-3.51
			c-1.03,0-1.95,0.4-2.62,1.04c-0.66,0.63-1.07,1.51-1.07,2.47c0,0.6,0.25,1.13,0.66,1.52c0.42,0.4,0.99,0.64,1.63,0.64
			c0.64,0,1.21-0.25,1.63-0.64c0.41-0.39,0.66-0.93,0.66-1.52c0-0.28,0.23-0.51,0.51-0.51c0.28,0,0.51,0.23,0.51,0.51
			c0,0.89-0.38,1.69-0.98,2.27c-0.6,0.57-1.43,0.93-2.34,0.93c-0.91,0-1.74-0.35-2.34-0.93c-0.61-0.58-0.98-1.38-0.98-2.27
			c0-1.26,0.53-2.39,1.39-3.22c0.85-0.82,2.03-1.32,3.33-1.32c2.61,0,4.72,2.03,4.72,4.54c0,1.63-0.69,3.1-1.8,4.16
			c-0.99,0.94-2.31,1.57-3.78,1.69c0.93,0.82,1.77,1.77,2.58,2.68l0.11,0.12c0.22,0.24,0.01,0.01,0.24,0.27
			c1.3,1.47,2.84,3.21,4.66,2.99c0.66-0.08,1.35-0.41,1.9-0.9c0.51-0.45,0.9-1.02,1.01-1.61c0.12-0.67-0.06-1.34-0.37-1.88
			c-0.37-0.62-0.89-1.07-1.34-1.16c-0.28-0.05-0.46-0.32-0.41-0.6c0.05-0.28,0.32-0.46,0.6-0.41c0.73,0.14,1.53,0.78,2.04,1.65
			c0.43,0.74,0.67,1.65,0.49,2.58c-0.15,0.84-0.66,1.61-1.34,2.2c-0.7,0.61-1.6,1.04-2.46,1.15c-2.35,0.28-4.08-1.67-5.55-3.33
			c-0.07-0.08,0.14,0.15-0.24-0.27l-0.11-0.12c-2.51-2.81-5.36-6.01-10.2-3.95c0.07,0.07,0.14,0.13,0.21,0.2
			c0.35,0.35,0.66,0.76,0.91,1.19c0.49-0.14,1.03-0.16,1.58-0.06c0.95,0.16,1.97,0.65,2.87,1.31c0.89,0.66,1.67,1.51,2.16,2.41
			c0.41,0.77,0.61,1.59,0.47,2.37c-0.07,0.43-0.24,0.86-0.48,1.22c-0.24,0.35-0.54,0.65-0.92,0.84c-0.56,0.28-1.18,0.31-1.72,0.17
			c-0.65-0.16-1.21-0.55-1.44-0.99c-0.13-0.25-0.03-0.56,0.22-0.69s0.56-0.03,0.69,0.22c0.1,0.2,0.4,0.38,0.77,0.47
			c0.33,0.08,0.7,0.07,1.03-0.1c0.2-0.1,0.38-0.28,0.52-0.49c0.16-0.24,0.28-0.54,0.33-0.83c0.09-0.54-0.06-1.13-0.36-1.71
			c-0.41-0.76-1.08-1.49-1.86-2.07c-0.77-0.57-1.64-0.99-2.43-1.12c-0.35-0.06-0.69-0.07-0.99,0c0.19,0.56,0.29,1.16,0.29,1.78
			c0,1.53-0.62,2.92-1.62,3.92c-1,1-2.39,1.62-3.92,1.62c-1.53,0-2.92-0.62-3.92-1.62c-1-1-1.62-2.39-1.62-3.92
			c0-1.53,0.62-2.92,1.62-3.92S17.25,130.54,18.78,130.54L18.78,130.54z M67.19,129.05c-0.28,0-0.51-0.23-0.51-0.51
			c0-0.28,0.23-0.51,0.51-0.51h15.16c0.28,0,0.51,0.23,0.51,0.51c0,0.28-0.23,0.51-0.51,0.51H67.19z M16.87,169.23
			c-0.01,0.6,0.22,1.15,0.61,1.55c0.39,0.4,0.92,0.65,1.52,0.66c0.6,0.01,1.15-0.22,1.55-0.61c0.4-0.39,0.65-0.92,0.66-1.52
			c0.01-0.6-0.22-1.15-0.61-1.55c-0.39-0.4-0.92-0.65-1.52-0.66c-0.6-0.01-1.15,0.22-1.55,0.61
			C17.13,168.09,16.88,168.63,16.87,169.23z M16.74,171.49c-0.57-0.59-0.91-1.39-0.89-2.28c0.02-0.88,0.39-1.68,0.98-2.25
			c0.59-0.57,1.39-0.91,2.28-0.89c0.88,0.02,1.68,0.39,2.25,0.98c0.57,0.59,0.91,1.39,0.89,2.28c-0.02,0.88-0.39,1.68-0.98,2.25
			c-0.5,0.48-1.15,0.8-1.88,0.88l0.01,17.33c0,0.28-0.23,0.51-0.51,0.51s-0.51-0.23-0.51-0.51l-0.01-17.38
			C17.73,172.26,17.17,171.94,16.74,171.49L16.74,171.49z M44.61,125.3c0.88,0,1.68,0.36,2.26,0.94c0.47,0.47,0.8,1.09,0.9,1.78
			h14.81c0.28,0,0.51,0.23,0.51,0.51c0,0.28-0.23,0.51-0.51,0.51H47.76c-0.11,0.66-0.43,1.26-0.89,1.71
			c-0.58,0.58-1.38,0.94-2.26,0.94c-0.88,0-1.68-0.36-2.26-0.94c-0.58-0.58-0.94-1.38-0.94-2.26s0.36-1.68,0.94-2.26
			C42.93,125.65,43.73,125.3,44.61,125.3L44.61,125.3z M46.14,126.96c-0.39-0.39-0.94-0.64-1.54-0.64s-1.14,0.24-1.54,0.64
			c-0.39,0.39-0.64,0.94-0.64,1.54c0,0.6,0.24,1.14,0.64,1.54c0.39,0.39,0.94,0.64,1.54,0.64s1.14-0.24,1.54-0.64
			c0.39-0.39,0.64-0.94,0.64-1.54C46.78,127.9,46.54,127.35,46.14,126.96z M16.86,155.38c-0.28,0-0.51-0.23-0.51-0.51
			c0-0.28,0.23-0.51,0.51-0.51c0.02,0,0.03,0,0.05,0c0.58,0,1.11-0.24,1.5-0.64c0.4-0.41,0.66-0.97,0.67-1.61h0
			c0-0.02,0-0.03,0-0.05c0-0.62-0.23-1.19-0.61-1.6c-0.38-0.42-0.92-0.68-1.51-0.69c-0.97-0.02-1.85,0.38-2.49,1.03
			c-0.65,0.66-1.07,1.58-1.08,2.6c-0.02,1.02,0.36,1.96,0.99,2.64c0.62,0.68,1.49,1.1,2.45,1.12c1.34,0.02,2.56-0.52,3.45-1.42
			c0.9-0.91,1.47-2.17,1.49-3.58c0-0.24-0.05-0.51-0.14-0.79c-0.06-0.2-0.14-0.4-0.23-0.61c-1.07-2-1.32-4.41,0.32-7.53
			c0.13-0.25,0.44-0.35,0.69-0.21c0.25,0.13,0.35,0.44,0.21,0.69c-2.72,5.18,0.58,8.22,3.46,10.89c0.01,0.01,0.02,0.02,0.03,0.03
			l0.09,0.09c0.27,0.25-0.01-0.01,0.26,0.24c1.63,1.5,3.56,3.27,3.23,5.61c-0.12,0.86-0.56,1.74-1.19,2.43
			c-0.6,0.67-1.38,1.16-2.22,1.3c-0.94,0.15-1.85-0.1-2.57-0.54c-0.86-0.52-1.48-1.34-1.61-2.06c-0.05-0.28,0.14-0.55,0.42-0.6
			c0.28-0.05,0.55,0.14,0.6,0.42c0.08,0.45,0.52,0.99,1.13,1.37c0.54,0.33,1.2,0.52,1.87,0.41c0.6-0.1,1.17-0.47,1.63-0.98
			c0.49-0.54,0.84-1.23,0.93-1.89c0.25-1.81-1.46-3.38-2.91-4.71c-0.1-0.09,0.18,0.17-0.26-0.25l-0.09-0.09
			c-0.01-0.01-0.02-0.02-0.03-0.02c-0.89-0.83-1.83-1.69-2.63-2.63c-0.15,1.47-0.8,2.78-1.76,3.75c-1.08,1.09-2.57,1.75-4.19,1.72
			c-1.26-0.02-2.39-0.57-3.19-1.45c-0.8-0.87-1.28-2.05-1.26-3.35c0.02-1.3,0.55-2.47,1.38-3.31c0.84-0.84,1.98-1.35,3.24-1.33
			c0.89,0.02,1.68,0.4,2.25,1.02c0.55,0.6,0.89,1.41,0.88,2.31c0,0.01,0,0.03,0,0.04h0v0.01c-0.02,0.91-0.39,1.73-0.97,2.32
			c-0.58,0.58-1.37,0.94-2.24,0.94C16.89,155.38,16.88,155.38,16.86,155.38L16.86,155.38z M23.91,144.98
			c0.14-0.25,0.45-0.34,0.7-0.2c0.25,0.14,0.34,0.45,0.2,0.7c-0.21,0.38-0.26,0.87-0.17,1.41c0.12,0.8,0.52,1.67,1.08,2.45
			c0.56,0.79,1.28,1.48,2.03,1.9c0.57,0.32,1.16,0.48,1.71,0.39c0.3-0.05,0.59-0.15,0.84-0.31c0.21-0.14,0.39-0.31,0.5-0.51
			c0.17-0.32,0.19-0.69,0.11-1.02c-0.08-0.37-0.26-0.68-0.46-0.78c-0.25-0.13-0.34-0.45-0.2-0.7c0.13-0.25,0.45-0.34,0.7-0.2
			c0.44,0.24,0.82,0.81,0.97,1.46c0.12,0.55,0.09,1.17-0.21,1.72c-0.19,0.37-0.5,0.67-0.86,0.9c-0.37,0.24-0.8,0.39-1.23,0.46
			c-0.78,0.12-1.59-0.09-2.36-0.52c-0.89-0.5-1.72-1.29-2.37-2.2c-0.65-0.91-1.11-1.94-1.26-2.9
			C23.5,146.29,23.57,145.57,23.91,144.98L23.91,144.98z M21.97,132.89c-0.82-0.82-1.95-1.32-3.2-1.32c-1.25,0-2.38,0.51-3.2,1.32
			c-0.82,0.82-1.32,1.95-1.32,3.2s0.51,2.38,1.32,3.2c0.82,0.82,1.95,1.32,3.2,1.32c1.25,0,2.38-0.51,3.2-1.32
			c0.82-0.82,1.32-1.95,1.32-3.2S22.79,133.71,21.97,132.89z"/>
	</g>
</g>
<g>
	<g>
		<path class="st3" d="M18.78,414.31c-1.53,0-2.92-0.62-3.92-1.62c-1-1-1.62-2.39-1.62-3.92c0-1.53,0.62-2.92,1.62-3.92
			c1-1,2.39-1.62,3.92-1.62c1.53,0,2.92,0.62,3.92,1.62c1,1,1.62,2.39,1.62,3.92c0,0.62-0.1,1.22-0.29,1.78
			c0.3,0.06,0.63,0.06,0.99,0c0.79-0.14,1.66-0.55,2.43-1.12c0.78-0.58,1.46-1.31,1.86-2.07c0.31-0.58,0.46-1.17,0.36-1.71
			c-0.05-0.29-0.16-0.58-0.33-0.83c-0.14-0.21-0.32-0.39-0.52-0.49c-0.32-0.16-0.7-0.17-1.03-0.1c-0.37,0.09-0.67,0.28-0.77,0.47
			c-0.13,0.25-0.44,0.35-0.69,0.22s-0.35-0.44-0.22-0.69c0.23-0.44,0.79-0.84,1.44-0.99c0.54-0.13,1.16-0.11,1.72,0.17
			c0.37,0.19,0.68,0.48,0.92,0.84c0.24,0.36,0.41,0.79,0.48,1.22c0.13,0.78-0.06,1.59-0.47,2.37c-0.48,0.9-1.26,1.75-2.16,2.41
			c-0.9,0.67-1.92,1.15-2.87,1.31c-0.56,0.1-1.1,0.08-1.58-0.06c-0.25,0.44-0.56,0.84-0.91,1.19c-0.07,0.07-0.14,0.13-0.21,0.2
			c4.84,2.06,7.7-1.13,10.2-3.95l0.11-0.12c0.38-0.42,0.17-0.19,0.24-0.27c1.47-1.66,3.2-3.62,5.55-3.33
			c0.86,0.1,1.75,0.53,2.46,1.15c0.68,0.59,1.19,1.36,1.34,2.2c0.17,0.94-0.07,1.85-0.49,2.58c-0.51,0.87-1.31,1.51-2.04,1.65
			c-0.28,0.05-0.55-0.13-0.6-0.41c-0.05-0.28,0.13-0.55,0.41-0.6c0.45-0.09,0.98-0.53,1.34-1.16c0.32-0.54,0.5-1.21,0.37-1.88
			c-0.11-0.6-0.49-1.16-1.01-1.61c-0.55-0.48-1.24-0.82-1.9-0.9c-1.82-0.22-3.36,1.52-4.66,2.99c-0.23,0.26-0.02,0.03-0.24,0.27
			l-0.11,0.12c-0.81,0.91-1.65,1.85-2.58,2.68c1.47,0.12,2.79,0.75,3.78,1.69c1.12,1.07,1.8,2.54,1.8,4.16
			c0,2.51-2.11,4.54-4.72,4.54c-1.3,0-2.48-0.51-3.33-1.32c-0.86-0.82-1.39-1.96-1.39-3.22c0-0.89,0.38-1.69,0.98-2.27
			c0.6-0.57,1.43-0.93,2.34-0.93c0.91,0,1.74,0.35,2.34,0.93c0.61,0.58,0.98,1.38,0.98,2.27c0,0.28-0.23,0.51-0.51,0.51
			c-0.28,0-0.51-0.23-0.51-0.51c0-0.6-0.25-1.13-0.66-1.52c-0.42-0.4-0.99-0.64-1.63-0.64c-0.64,0-1.21,0.25-1.63,0.64
			c-0.41,0.39-0.66,0.93-0.66,1.52c0,0.97,0.41,1.84,1.07,2.47c0.67,0.64,1.6,1.04,2.62,1.04c2.04,0,3.69-1.57,3.69-3.51
			c0-1.34-0.57-2.55-1.48-3.42c-0.92-0.88-2.2-1.43-3.61-1.43c-0.24,0-0.51,0.06-0.79,0.16c-0.2,0.07-0.4,0.15-0.61,0.24
			c-1.96,1.09-4.32,1.39-7.4-0.12C20.72,414.04,19.78,414.31,18.78,414.31L18.78,414.31z M82.34,415.81c0.28,0,0.51,0.23,0.51,0.51
			s-0.23,0.51-0.51,0.51H67.19c-0.28,0-0.51-0.23-0.51-0.51s0.23-0.51,0.51-0.51H82.34z M17.53,377.14c0.4,0.39,0.95,0.62,1.55,0.61
			c0.6-0.01,1.14-0.26,1.52-0.66c0.39-0.4,0.62-0.95,0.61-1.55c-0.01-0.6-0.26-1.14-0.66-1.52c-0.4-0.39-0.95-0.62-1.55-0.61
			c-0.6,0.01-1.14,0.26-1.52,0.66c-0.39,0.4-0.62,0.95-0.61,1.55C16.88,376.22,17.13,376.76,17.53,377.14z M16.74,373.36
			c0.43-0.45,0.99-0.77,1.62-0.91l0.01-17.38c0-0.28,0.23-0.51,0.51-0.51s0.51,0.23,0.51,0.51l-0.01,17.33
			c0.72,0.08,1.38,0.4,1.88,0.88c0.59,0.57,0.96,1.36,0.98,2.25c0.02,0.88-0.33,1.69-0.89,2.28c-0.57,0.59-1.36,0.96-2.25,0.98
			c-0.88,0.02-1.69-0.33-2.28-0.89c-0.59-0.57-0.96-1.36-0.98-2.25C15.83,374.76,16.17,373.95,16.74,373.36L16.74,373.36z
			 M44.61,419.56c-0.88,0-1.68-0.36-2.26-0.94c-0.58-0.58-0.94-1.38-0.94-2.26c0-0.88,0.36-1.68,0.94-2.26
			c0.58-0.58,1.38-0.94,2.26-0.94c0.88,0,1.68,0.36,2.26,0.94c0.46,0.46,0.78,1.05,0.89,1.71h14.82c0.28,0,0.51,0.23,0.51,0.51
			c0,0.28-0.23,0.51-0.51,0.51H47.77c-0.1,0.69-0.43,1.31-0.9,1.78C46.29,419.2,45.49,419.56,44.61,419.56L44.61,419.56z
			 M46.78,416.36c0-0.6-0.24-1.14-0.64-1.54s-0.94-0.64-1.54-0.64s-1.14,0.24-1.54,0.64c-0.39,0.39-0.64,0.94-0.64,1.54
			c0,0.6,0.24,1.14,0.64,1.54c0.39,0.39,0.94,0.64,1.54,0.64s1.14-0.24,1.54-0.64C46.54,417.5,46.78,416.96,46.78,416.36z
			 M16.86,389.48c0.01,0,0.03,0,0.04,0c0.87,0,1.66,0.35,2.24,0.94c0.58,0.59,0.95,1.41,0.97,2.32v0.01h0c0,0.01,0,0.03,0,0.04
			c0,0.89-0.33,1.71-0.88,2.31c-0.57,0.62-1.36,1-2.25,1.02c-1.26,0.02-2.4-0.49-3.24-1.33c-0.83-0.84-1.36-2.01-1.38-3.31
			c-0.02-1.3,0.46-2.48,1.26-3.35c0.81-0.87,1.93-1.43,3.19-1.45c1.63-0.03,3.11,0.63,4.19,1.72c0.96,0.97,1.61,2.28,1.76,3.75
			c0.8-0.94,1.74-1.8,2.63-2.63c0.01-0.01,0.02-0.02,0.03-0.02l0.09-0.09c0.44-0.41,0.17-0.16,0.26-0.25
			c1.45-1.33,3.16-2.9,2.91-4.71c-0.09-0.65-0.44-1.34-0.93-1.89c-0.46-0.51-1.03-0.88-1.63-0.98c-0.67-0.11-1.34,0.08-1.87,0.41
			c-0.62,0.38-1.06,0.91-1.13,1.37c-0.05,0.28-0.32,0.47-0.6,0.42c-0.28-0.05-0.47-0.32-0.42-0.6c0.13-0.73,0.75-1.54,1.61-2.06
			c0.73-0.44,1.64-0.7,2.57-0.54c0.84,0.14,1.62,0.63,2.22,1.3c0.63,0.69,1.07,1.58,1.19,2.43c0.33,2.34-1.6,4.11-3.23,5.61
			c-0.28,0.25,0.01-0.01-0.26,0.24l-0.09,0.09c-0.01,0.01-0.02,0.02-0.03,0.03c-2.88,2.66-6.18,5.71-3.46,10.89
			c0.13,0.25,0.04,0.56-0.21,0.69s-0.56,0.04-0.69-0.21c-1.64-3.12-1.39-5.52-0.32-7.53c0.09-0.21,0.17-0.41,0.23-0.61
			c0.09-0.28,0.15-0.55,0.14-0.79c-0.03-1.41-0.6-2.68-1.49-3.58c-0.89-0.9-2.11-1.45-3.45-1.42c-0.96,0.02-1.83,0.44-2.45,1.12
			c-0.63,0.68-1.01,1.62-0.99,2.64c0.02,1.02,0.43,1.94,1.08,2.6c0.65,0.65,1.53,1.05,2.49,1.03c0.59-0.01,1.13-0.27,1.51-0.69
			c0.38-0.42,0.62-0.98,0.61-1.6c0-0.02,0-0.03,0-0.05h0c-0.01-0.63-0.27-1.2-0.67-1.61c-0.39-0.39-0.92-0.63-1.5-0.64
			c-0.02,0-0.03,0-0.05,0c-0.28,0-0.51-0.23-0.51-0.51S16.58,389.47,16.86,389.48L16.86,389.48z M23.91,399.88
			c-0.33-0.6-0.41-1.31-0.3-2.06c0.15-0.96,0.61-1.99,1.26-2.9c0.65-0.91,1.48-1.7,2.37-2.2c0.76-0.43,1.57-0.64,2.36-0.52
			c0.43,0.07,0.86,0.22,1.23,0.46c0.36,0.23,0.66,0.53,0.86,0.9c0.29,0.56,0.33,1.18,0.21,1.72c-0.14,0.65-0.53,1.22-0.97,1.46
			c-0.25,0.14-0.56,0.04-0.7-0.2c-0.14-0.25-0.04-0.56,0.2-0.7c0.2-0.11,0.38-0.41,0.46-0.78c0.07-0.33,0.06-0.7-0.11-1.02
			c-0.11-0.2-0.28-0.38-0.5-0.51c-0.25-0.16-0.54-0.26-0.84-0.31c-0.54-0.08-1.13,0.07-1.71,0.39c-0.75,0.42-1.47,1.11-2.03,1.9
			c-0.56,0.78-0.96,1.66-1.08,2.45c-0.08,0.54-0.04,1.03,0.17,1.41c0.14,0.25,0.05,0.56-0.2,0.7
			C24.36,400.21,24.04,400.12,23.91,399.88L23.91,399.88z M23.3,408.76c0-1.25-0.51-2.38-1.32-3.2c-0.82-0.82-1.95-1.32-3.2-1.32
			c-1.25,0-2.38,0.51-3.2,1.32c-0.82,0.82-1.32,1.95-1.32,3.2s0.51,2.38,1.32,3.2c0.82,0.82,1.95,1.32,3.2,1.32
			c1.25,0,2.38-0.51,3.2-1.32C22.79,411.14,23.3,410.01,23.3,408.76z"/>
	</g>
</g>
<g>
	<g>
		<path class="st3" d="M442.87,130.54c1.53,0,2.92,0.62,3.92,1.62c1,1,1.62,2.39,1.62,3.92c0,1.53-0.62,2.92-1.62,3.92
			c-1,1-2.39,1.62-3.92,1.62c-1.53,0-2.92-0.62-3.92-1.62c-1-1-1.62-2.39-1.62-3.92c0-0.62,0.1-1.22,0.29-1.78
			c-0.3-0.06-0.63-0.06-0.99,0c-0.79,0.14-1.66,0.55-2.43,1.12c-0.78,0.58-1.46,1.31-1.86,2.07c-0.31,0.58-0.46,1.17-0.36,1.71
			c0.05,0.29,0.16,0.58,0.33,0.83c0.14,0.21,0.32,0.39,0.52,0.49c0.32,0.16,0.7,0.17,1.03,0.1c0.37-0.09,0.67-0.28,0.77-0.47
			c0.13-0.25,0.44-0.35,0.69-0.22s0.35,0.44,0.22,0.69c-0.23,0.44-0.79,0.84-1.44,0.99c-0.54,0.13-1.16,0.11-1.72-0.17
			c-0.37-0.19-0.68-0.48-0.92-0.84c-0.24-0.36-0.41-0.79-0.48-1.22c-0.13-0.78,0.06-1.59,0.47-2.37c0.48-0.9,1.26-1.75,2.16-2.41
			c0.9-0.67,1.92-1.15,2.87-1.31c0.56-0.1,1.1-0.08,1.58,0.06c0.25-0.44,0.56-0.84,0.91-1.19c0.07-0.07,0.14-0.13,0.21-0.2
			c-4.84-2.06-7.7,1.13-10.2,3.95l-0.11,0.12c-0.38,0.42-0.17,0.19-0.24,0.27c-1.47,1.66-3.2,3.62-5.55,3.33
			c-0.86-0.1-1.75-0.53-2.46-1.15c-0.68-0.59-1.19-1.36-1.34-2.2c-0.17-0.94,0.07-1.85,0.49-2.58c0.51-0.87,1.31-1.51,2.04-1.65
			c0.28-0.05,0.55,0.13,0.6,0.41c0.05,0.28-0.13,0.55-0.41,0.6c-0.45,0.09-0.98,0.53-1.34,1.16c-0.32,0.54-0.5,1.21-0.37,1.88
			c0.11,0.6,0.49,1.16,1.01,1.61c0.55,0.48,1.24,0.82,1.9,0.9c1.82,0.22,3.36-1.52,4.66-2.99c0.23-0.26,0.02-0.03,0.24-0.27
			l0.11-0.12c0.81-0.91,1.65-1.85,2.58-2.68c-1.47-0.12-2.79-0.75-3.78-1.69c-1.12-1.07-1.8-2.54-1.8-4.16
			c0-2.51,2.11-4.54,4.72-4.54c1.3,0,2.48,0.51,3.33,1.32c0.86,0.82,1.39,1.96,1.39,3.22c0,0.89-0.38,1.69-0.98,2.27
			c-0.6,0.57-1.43,0.93-2.34,0.93c-0.91,0-1.74-0.35-2.34-0.93c-0.61-0.58-0.98-1.38-0.98-2.27c0-0.28,0.23-0.51,0.51-0.51
			s0.51,0.23,0.51,0.51c0,0.6,0.25,1.13,0.66,1.52c0.42,0.4,0.99,0.64,1.63,0.64c0.64,0,1.21-0.25,1.63-0.64
			c0.41-0.39,0.66-0.93,0.66-1.52c0-0.97-0.41-1.84-1.07-2.47c-0.67-0.64-1.6-1.04-2.62-1.04c-2.04,0-3.69,1.57-3.69,3.51
			c0,1.34,0.57,2.55,1.48,3.42c0.92,0.88,2.2,1.43,3.61,1.43c0.24,0,0.51-0.06,0.79-0.16c0.2-0.07,0.4-0.15,0.61-0.24
			c1.96-1.09,4.32-1.39,7.4,0.12C440.92,130.81,441.87,130.54,442.87,130.54L442.87,130.54z M379.31,129.05
			c-0.28,0-0.51-0.23-0.51-0.51c0-0.28,0.23-0.51,0.51-0.51h15.16c0.28,0,0.51,0.23,0.51,0.51c0,0.28-0.23,0.51-0.51,0.51H379.31z
			 M444.12,167.71c-0.4-0.39-0.95-0.62-1.55-0.61c-0.6,0.01-1.14,0.26-1.52,0.66c-0.39,0.4-0.62,0.95-0.61,1.55
			c0.01,0.6,0.26,1.14,0.66,1.52c0.4,0.39,0.95,0.62,1.55,0.61c0.6-0.01,1.14-0.26,1.52-0.66c0.39-0.4,0.62-0.95,0.61-1.55
			C444.77,168.63,444.52,168.09,444.12,167.71z M444.91,171.49c-0.43,0.45-0.99,0.77-1.62,0.91l-0.01,17.38
			c0,0.28-0.23,0.51-0.51,0.51s-0.51-0.23-0.51-0.51l0.01-17.33c-0.72-0.08-1.38-0.4-1.88-0.88c-0.59-0.57-0.96-1.36-0.98-2.25
			c-0.02-0.88,0.33-1.69,0.89-2.28c0.57-0.59,1.36-0.96,2.25-0.98c0.88-0.02,1.69,0.33,2.28,0.89c0.59,0.57,0.96,1.36,0.98,2.25
			C445.82,170.1,445.48,170.9,444.91,171.49L444.91,171.49z M417.04,125.3c0.88,0,1.68,0.36,2.26,0.94
			c0.58,0.58,0.94,1.38,0.94,2.26s-0.36,1.68-0.94,2.26c-0.58,0.58-1.38,0.94-2.26,0.94c-0.88,0-1.68-0.36-2.26-0.94
			c-0.46-0.46-0.78-1.05-0.89-1.71h-14.82c-0.28,0-0.51-0.23-0.51-0.51c0-0.28,0.23-0.51,0.51-0.51h14.81
			c0.1-0.69,0.43-1.31,0.9-1.78C415.36,125.65,416.16,125.3,417.04,125.3L417.04,125.3z M414.87,128.5c0,0.6,0.24,1.14,0.64,1.54
			c0.39,0.39,0.94,0.64,1.54,0.64c0.6,0,1.14-0.24,1.54-0.64c0.39-0.39,0.64-0.94,0.64-1.54c0-0.6-0.24-1.14-0.64-1.54
			c-0.39-0.39-0.94-0.64-1.54-0.64c-0.6,0-1.14,0.24-1.54,0.64S414.87,127.9,414.87,128.5z M444.78,155.38c-0.01,0-0.03,0-0.04,0
			c-0.87,0-1.66-0.35-2.24-0.94c-0.58-0.59-0.95-1.41-0.97-2.32v-0.01h0c0-0.01,0-0.03,0-0.04c0-0.89,0.33-1.71,0.88-2.31
			c0.57-0.62,1.36-1,2.25-1.02c1.26-0.02,2.4,0.49,3.24,1.33c0.83,0.84,1.36,2.01,1.38,3.31c0.02,1.3-0.46,2.48-1.26,3.35
			c-0.81,0.87-1.93,1.43-3.19,1.45c-1.63,0.03-3.11-0.63-4.19-1.72c-0.96-0.97-1.61-2.28-1.76-3.75c-0.8,0.94-1.74,1.8-2.63,2.63
			c-0.01,0.01-0.02,0.02-0.03,0.02l-0.09,0.09c-0.44,0.41-0.17,0.16-0.26,0.25c-1.45,1.33-3.16,2.9-2.91,4.71
			c0.09,0.65,0.44,1.34,0.93,1.89c0.46,0.51,1.03,0.88,1.63,0.98c0.67,0.11,1.34-0.08,1.87-0.41c0.62-0.38,1.06-0.91,1.13-1.37
			c0.05-0.28,0.32-0.47,0.6-0.42c0.28,0.05,0.47,0.32,0.42,0.6c-0.13,0.73-0.75,1.54-1.61,2.06c-0.73,0.44-1.64,0.7-2.57,0.54
			c-0.84-0.14-1.62-0.63-2.22-1.3c-0.63-0.69-1.07-1.58-1.19-2.43c-0.33-2.34,1.6-4.11,3.23-5.61c0.28-0.25-0.01,0.01,0.26-0.24
			l0.09-0.09c0.01-0.01,0.02-0.02,0.03-0.03c2.88-2.66,6.18-5.71,3.46-10.89c-0.13-0.25-0.04-0.56,0.21-0.69
			c0.25-0.13,0.56-0.04,0.69,0.21c1.64,3.12,1.39,5.52,0.32,7.53c-0.09,0.21-0.17,0.41-0.23,0.61c-0.09,0.28-0.15,0.55-0.14,0.79
			c0.03,1.41,0.6,2.68,1.49,3.58c0.89,0.9,2.11,1.45,3.45,1.42c0.96-0.02,1.83-0.44,2.45-1.12c0.63-0.68,1.01-1.62,0.99-2.64
			c-0.02-1.02-0.43-1.94-1.08-2.6c-0.65-0.65-1.53-1.05-2.49-1.03c-0.59,0.01-1.13,0.27-1.51,0.69c-0.38,0.42-0.62,0.98-0.61,1.6
			c0,0.02,0,0.03,0,0.05h0c0.01,0.63,0.27,1.2,0.67,1.61c0.39,0.39,0.92,0.63,1.5,0.64c0.02,0,0.03,0,0.05,0
			c0.28,0,0.51,0.23,0.51,0.51C445.3,155.15,445.07,155.38,444.78,155.38L444.78,155.38z M437.74,144.97
			c0.33,0.6,0.41,1.31,0.3,2.06c-0.15,0.96-0.61,1.99-1.26,2.9c-0.65,0.91-1.48,1.7-2.37,2.2c-0.76,0.43-1.57,0.64-2.36,0.52
			c-0.43-0.07-0.86-0.22-1.23-0.46c-0.36-0.23-0.66-0.53-0.86-0.9c-0.29-0.56-0.33-1.18-0.21-1.72c0.14-0.65,0.53-1.22,0.97-1.46
			c0.25-0.14,0.56-0.04,0.7,0.2c0.14,0.25,0.04,0.56-0.2,0.7c-0.2,0.11-0.38,0.41-0.46,0.78c-0.07,0.33-0.06,0.7,0.11,1.02
			c0.11,0.2,0.28,0.38,0.5,0.51c0.25,0.16,0.54,0.26,0.84,0.31c0.54,0.08,1.13-0.07,1.71-0.39c0.75-0.42,1.47-1.11,2.03-1.9
			c0.56-0.78,0.96-1.66,1.08-2.45c0.08-0.54,0.04-1.03-0.17-1.41c-0.14-0.25-0.05-0.56,0.2-0.7
			C437.29,144.64,437.61,144.73,437.74,144.97L437.74,144.97z M438.35,136.09c0,1.25,0.51,2.38,1.32,3.2
			c0.82,0.82,1.95,1.32,3.2,1.32s2.38-0.51,3.2-1.32c0.82-0.82,1.32-1.95,1.32-3.2s-0.51-2.38-1.32-3.2
			c-0.82-0.82-1.95-1.32-3.2-1.32s-2.38,0.51-3.2,1.32C438.86,133.71,438.35,134.84,438.35,136.09z"/>
	</g>
</g>
<g>
	<g>
		<path class="st3" d="M442.87,414.31c-1,0-1.95-0.27-2.76-0.73c-3.09,1.51-5.45,1.21-7.4,0.12c-0.21-0.09-0.41-0.17-0.61-0.24
			c-0.28-0.1-0.54-0.16-0.79-0.16c-1.41,0-2.69,0.55-3.61,1.43c-0.92,0.88-1.48,2.08-1.48,3.42c0,1.94,1.65,3.51,3.69,3.51
			c1.03,0,1.95-0.4,2.62-1.04c0.66-0.63,1.07-1.51,1.07-2.47c0-0.6-0.25-1.13-0.66-1.52c-0.42-0.4-0.99-0.64-1.63-0.64
			c-0.64,0-1.21,0.25-1.63,0.64c-0.41,0.39-0.66,0.93-0.66,1.52c0,0.28-0.23,0.51-0.51,0.51s-0.51-0.23-0.51-0.51
			c0-0.89,0.38-1.69,0.98-2.27c0.6-0.57,1.43-0.93,2.34-0.93c0.91,0,1.74,0.35,2.34,0.93c0.61,0.58,0.98,1.38,0.98,2.27
			c0,1.26-0.53,2.39-1.39,3.22c-0.85,0.82-2.03,1.32-3.33,1.32c-2.61,0-4.72-2.03-4.72-4.54c0-1.63,0.69-3.1,1.8-4.16
			c0.99-0.94,2.31-1.57,3.78-1.69c-0.93-0.82-1.77-1.77-2.58-2.68l-0.11-0.12c-0.22-0.24-0.01-0.01-0.24-0.27
			c-1.3-1.47-2.84-3.21-4.66-2.99c-0.66,0.08-1.35,0.41-1.9,0.9c-0.51,0.45-0.9,1.02-1.01,1.61c-0.12,0.67,0.06,1.34,0.37,1.88
			c0.37,0.62,0.89,1.07,1.34,1.16c0.28,0.05,0.46,0.32,0.41,0.6c-0.05,0.28-0.32,0.46-0.6,0.41c-0.73-0.14-1.53-0.78-2.04-1.65
			c-0.43-0.74-0.67-1.65-0.49-2.58c0.15-0.84,0.66-1.61,1.34-2.2c0.7-0.61,1.6-1.04,2.46-1.15c2.35-0.28,4.08,1.67,5.55,3.33
			c0.07,0.08-0.14-0.15,0.24,0.27l0.11,0.12c2.51,2.81,5.36,6.01,10.2,3.95c-0.07-0.07-0.14-0.13-0.21-0.2
			c-0.35-0.35-0.66-0.76-0.91-1.19c-0.49,0.14-1.03,0.16-1.58,0.06c-0.95-0.16-1.97-0.65-2.87-1.31c-0.89-0.66-1.67-1.51-2.16-2.41
			c-0.41-0.77-0.61-1.59-0.47-2.37c0.07-0.43,0.24-0.86,0.48-1.22c0.24-0.35,0.54-0.65,0.92-0.84c0.56-0.28,1.18-0.31,1.72-0.17
			c0.65,0.16,1.21,0.55,1.44,0.99c0.13,0.25,0.03,0.56-0.22,0.69s-0.56,0.03-0.69-0.22c-0.1-0.2-0.4-0.38-0.77-0.47
			c-0.33-0.08-0.7-0.07-1.03,0.1c-0.2,0.1-0.38,0.28-0.52,0.49c-0.16,0.24-0.28,0.54-0.33,0.83c-0.09,0.54,0.06,1.13,0.36,1.71
			c0.41,0.76,1.08,1.49,1.86,2.07c0.77,0.57,1.64,0.99,2.43,1.12c0.35,0.06,0.69,0.07,0.99,0c-0.19-0.56-0.29-1.16-0.29-1.78
			c0-1.53,0.62-2.92,1.62-3.92c1-1,2.39-1.62,3.92-1.62c1.53,0,2.92,0.62,3.92,1.62c1,1,1.62,2.39,1.62,3.92
			c0,1.53-0.62,2.92-1.62,3.92C445.79,413.69,444.4,414.31,442.87,414.31L442.87,414.31z M394.46,415.81c0.28,0,0.51,0.23,0.51,0.51
			s-0.23,0.51-0.51,0.51h-15.16c-0.28,0-0.51-0.23-0.51-0.51s0.23-0.51,0.51-0.51H394.46z M444.78,375.62
			c0.01-0.6-0.22-1.15-0.61-1.55c-0.39-0.4-0.92-0.65-1.52-0.66c-0.6-0.01-1.15,0.22-1.55,0.61c-0.4,0.39-0.65,0.92-0.66,1.52
			c-0.01,0.6,0.22,1.15,0.61,1.55c0.39,0.4,0.92,0.65,1.52,0.66c0.6,0.01,1.15-0.22,1.55-0.61
			C444.52,376.76,444.77,376.22,444.78,375.62z M444.91,373.36c0.57,0.59,0.91,1.39,0.89,2.28c-0.02,0.88-0.39,1.68-0.98,2.25
			c-0.59,0.57-1.39,0.91-2.28,0.89c-0.88-0.02-1.68-0.39-2.25-0.98c-0.57-0.59-0.91-1.39-0.89-2.28c0.02-0.88,0.39-1.68,0.98-2.25
			c0.5-0.48,1.15-0.8,1.88-0.88l-0.01-17.33c0-0.28,0.23-0.51,0.51-0.51s0.51,0.23,0.51,0.51l0.01,17.38
			C443.92,372.59,444.48,372.91,444.91,373.36L444.91,373.36z M417.04,419.56c-0.88,0-1.68-0.36-2.26-0.94
			c-0.47-0.47-0.8-1.09-0.9-1.78h-14.81c-0.28,0-0.51-0.23-0.51-0.51c0-0.28,0.23-0.51,0.51-0.51h14.82
			c0.11-0.66,0.43-1.26,0.89-1.71c0.58-0.58,1.38-0.94,2.26-0.94c0.88,0,1.68,0.36,2.26,0.94c0.58,0.58,0.94,1.38,0.94,2.26
			c0,0.88-0.36,1.68-0.94,2.26C418.72,419.2,417.92,419.56,417.04,419.56L417.04,419.56z M415.5,417.89
			c0.39,0.39,0.94,0.64,1.54,0.64c0.6,0,1.14-0.24,1.54-0.64c0.39-0.39,0.64-0.94,0.64-1.54c0-0.6-0.24-1.14-0.64-1.54
			c-0.39-0.39-0.94-0.64-1.54-0.64c-0.6,0-1.14,0.24-1.54,0.64s-0.64,0.94-0.64,1.54C414.87,416.96,415.11,417.5,415.5,417.89z
			 M444.78,389.47c0.28,0,0.51,0.23,0.51,0.51s-0.23,0.51-0.51,0.51c-0.02,0-0.03,0-0.05,0c-0.58,0-1.11,0.24-1.5,0.64
			c-0.4,0.41-0.66,0.97-0.67,1.61h0c0,0.02,0,0.03,0,0.05c0,0.62,0.23,1.19,0.61,1.6c0.38,0.42,0.92,0.68,1.51,0.69
			c0.97,0.02,1.85-0.38,2.49-1.03c0.65-0.66,1.07-1.58,1.08-2.6c0.02-1.02-0.36-1.96-0.99-2.64c-0.62-0.68-1.49-1.1-2.45-1.12
			c-1.34-0.02-2.56,0.52-3.45,1.42c-0.9,0.91-1.47,2.17-1.49,3.58c0,0.24,0.05,0.51,0.14,0.79c0.06,0.2,0.14,0.4,0.23,0.61
			c1.07,2,1.32,4.41-0.32,7.53c-0.13,0.25-0.44,0.35-0.69,0.21s-0.35-0.44-0.21-0.69c2.72-5.18-0.58-8.22-3.46-10.89
			c-0.01-0.01-0.02-0.02-0.03-0.03l-0.09-0.09c-0.27-0.25,0.01,0.01-0.26-0.24c-1.63-1.5-3.56-3.27-3.23-5.61
			c0.12-0.86,0.56-1.74,1.19-2.43c0.6-0.67,1.38-1.16,2.22-1.3c0.94-0.15,1.85,0.1,2.57,0.54c0.86,0.52,1.48,1.34,1.61,2.06
			c0.05,0.28-0.14,0.55-0.42,0.6c-0.28,0.05-0.55-0.14-0.6-0.42c-0.08-0.45-0.52-0.99-1.13-1.37c-0.54-0.33-1.2-0.52-1.87-0.41
			c-0.6,0.1-1.17,0.47-1.63,0.98c-0.49,0.55-0.84,1.23-0.93,1.89c-0.25,1.81,1.46,3.38,2.91,4.71c0.1,0.09-0.18-0.17,0.26,0.25
			l0.09,0.09c0.01,0.01,0.02,0.02,0.03,0.02c0.89,0.83,1.83,1.69,2.63,2.63c0.15-1.47,0.8-2.78,1.76-3.75
			c1.08-1.09,2.57-1.75,4.19-1.72c1.26,0.02,2.39,0.57,3.19,1.45c0.8,0.87,1.28,2.05,1.26,3.35c-0.02,1.3-0.55,2.47-1.38,3.31
			c-0.84,0.84-1.98,1.35-3.24,1.33c-0.89-0.02-1.68-0.4-2.25-1.02c-0.55-0.6-0.89-1.41-0.88-2.31c0-0.01,0-0.03,0-0.04h0v-0.01
			c0.02-0.91,0.39-1.73,0.97-2.32c0.58-0.58,1.37-0.94,2.24-0.94C444.76,389.48,444.77,389.48,444.78,389.47L444.78,389.47z
			 M437.74,399.88c-0.14,0.25-0.45,0.34-0.7,0.2c-0.25-0.14-0.34-0.45-0.2-0.7c0.21-0.38,0.26-0.87,0.17-1.41
			c-0.12-0.8-0.52-1.67-1.08-2.45c-0.56-0.79-1.28-1.48-2.03-1.9c-0.57-0.32-1.16-0.48-1.71-0.39c-0.3,0.05-0.59,0.15-0.84,0.31
			c-0.21,0.14-0.39,0.31-0.5,0.51c-0.17,0.32-0.19,0.69-0.11,1.02c0.08,0.37,0.26,0.68,0.46,0.78c0.25,0.13,0.34,0.45,0.2,0.7
			c-0.13,0.25-0.45,0.34-0.7,0.2c-0.44-0.24-0.82-0.81-0.97-1.46c-0.12-0.55-0.09-1.17,0.21-1.72c0.19-0.37,0.5-0.67,0.86-0.9
			c0.37-0.24,0.8-0.39,1.23-0.46c0.78-0.12,1.59,0.09,2.36,0.52c0.89,0.5,1.72,1.29,2.37,2.2c0.65,0.91,1.11,1.94,1.26,2.9
			C438.15,398.57,438.07,399.28,437.74,399.88L437.74,399.88z M439.68,411.96c0.82,0.82,1.95,1.32,3.2,1.32s2.38-0.51,3.2-1.32
			c0.82-0.82,1.32-1.95,1.32-3.2s-0.51-2.38-1.32-3.2c-0.82-0.82-1.95-1.32-3.2-1.32s-2.38,0.51-3.2,1.32
			c-0.82,0.82-1.32,1.95-1.32,3.2S438.86,411.14,439.68,411.96z"/>
	</g>
</g>
<g>
	<g>
		<line class="st5" x1="210.37" y1="301.88" x2="210.37" y2="301.88"/>
		<line class="st6" x1="205.86" y1="301.88" x2="50.36" y2="301.88"/>
		<line class="st5" x1="48.11" y1="301.88" x2="48.11" y2="301.88"/>
	</g>
</g>
<g>
	<g>
		<line class="st5" x1="357.2" y1="415.97" x2="357.2" y2="415.97"/>
		<line class="st7" x1="352.65" y1="415.97" x2="104.57" y2="415.97"/>
		<line class="st5" x1="102.3" y1="415.97" x2="102.3" y2="415.97"/>
	</g>
</g>
<g>
	<line class="st3" x1="357.2" y1="128.53" x2="102.3" y2="128.53"/>
	<g>
		<line class="st5" x1="357.2" y1="128.53" x2="357.2" y2="128.53"/>
		<line class="st7" x1="352.65" y1="128.53" x2="104.57" y2="128.53"/>
		<line class="st5" x1="102.3" y1="128.53" x2="102.3" y2="128.53"/>
	</g>
</g>
<g>
	<g>
		<line class="st5" x1="418.44" y1="301.88" x2="418.44" y2="301.88"/>
		<line class="st6" x1="413.93" y1="301.88" x2="258.43" y2="301.88"/>
		<line class="st5" x1="256.18" y1="301.88" x2="256.18" y2="301.88"/>
	</g>
</g>
<circle class="st8" cx="229.75" cy="11.84" r="11.84"/>
</svg>
