<?xml version="1.0" encoding="utf-8"?>
<!-- Generator: Adobe Illustrator 24.0.0, SVG Export Plug-In . SVG Version: 6.00 Build 0)  -->
<svg version="1.1" id="Layer_1" xmlns="http://www.w3.org/2000/svg" xmlns:xlink="http://www.w3.org/1999/xlink" x="0px" y="0px"
	 viewBox="0 0 185.77 791.87" style="enable-background:new 0 0 185.77 791.87;" xml:space="preserve">
<style type="text/css">
	.st0{fill:#F6B465;}
	.st1{fill:none;stroke:#FFFFFF;stroke-width:3.4962;stroke-linecap:round;stroke-miterlimit:10;}
	.st2{fill:none;stroke:#FFFFFF;stroke-width:3.4962;stroke-linecap:round;stroke-miterlimit:10;stroke-dasharray:0,10.5364;}
</style>
<g>
	<g>
		<g>
			<path class="st0" d="M16.92,22.08c2.65,0,5.13,0.7,7.27,1.93c8.14-3.98,14.35-3.19,19.51-0.33c0.54,0.24,1.08,0.46,1.6,0.64
				c0.73,0.25,1.43,0.41,2.07,0.41c3.73,0,7.09-1.44,9.52-3.76c2.41-2.31,3.91-5.49,3.91-9.02c0-5.11-4.36-9.25-9.73-9.25
				c-2.7,0-5.14,1.04-6.91,2.73c-1.74,1.67-2.82,3.97-2.82,6.52c0,1.57,0.67,2.99,1.74,4.02c1.09,1.05,2.61,1.69,4.29,1.69
				c1.68,0,3.2-0.65,4.29-1.69c1.08-1.03,1.74-2.45,1.74-4.02c0-0.75,0.61-1.35,1.35-1.35s1.35,0.61,1.35,1.35
				c0,2.33-0.99,4.45-2.59,5.97c-1.58,1.51-3.76,2.45-6.16,2.45c-2.4,0-4.58-0.93-6.16-2.45c-1.6-1.53-2.59-3.64-2.59-5.97
				c0-3.31,1.4-6.31,3.67-8.47C44.54,1.33,47.64,0,51.07,0c6.87,0,12.44,5.35,12.44,11.96c0,4.28-1.82,8.17-4.76,10.97
				c-2.6,2.49-6.08,4.13-9.95,4.45c2.45,2.16,4.66,4.66,6.8,7.05l0.29,0.33c0.57,0.64,0.02,0.02,0.63,0.71
				c3.43,3.87,7.5,8.46,12.28,7.88c1.73-0.21,3.55-1.09,5.01-2.36c1.35-1.18,2.37-2.68,2.66-4.24c0.32-1.76-0.15-3.52-0.99-4.95
				c-0.96-1.65-2.35-2.82-3.54-3.05c-0.73-0.14-1.22-0.85-1.07-1.58c0.14-0.73,0.85-1.22,1.58-1.07c1.92,0.37,4.03,2.05,5.37,4.35
				c1.13,1.94,1.75,4.34,1.3,6.81c-0.4,2.2-1.75,4.23-3.53,5.79c-1.85,1.62-4.21,2.74-6.47,3.02c-6.18,0.75-10.76-4.41-14.62-8.78
				c-0.19-0.21,0.36,0.41-0.63-0.7l-0.29-0.33c-6.6-7.41-14.12-15.84-26.88-10.4c0.19,0.17,0.38,0.35,0.56,0.53
				c0.93,0.93,1.74,1.99,2.39,3.15c1.28-0.38,2.7-0.41,4.17-0.16c2.51,0.43,5.2,1.71,7.57,3.46c2.35,1.74,4.41,3.98,5.68,6.34
				c1.09,2.04,1.6,4.18,1.24,6.24c-0.2,1.13-0.63,2.27-1.27,3.22c-0.62,0.93-1.44,1.72-2.41,2.21c-1.48,0.75-3.11,0.81-4.55,0.46
				c-1.71-0.41-3.19-1.45-3.8-2.62c-0.35-0.66-0.09-1.48,0.57-1.82c0.66-0.35,1.48-0.09,1.82,0.57c0.27,0.52,1.06,1.01,2.04,1.24
				c0.87,0.21,1.85,0.18,2.7-0.25c0.54-0.27,1-0.73,1.37-1.29c0.43-0.64,0.72-1.41,0.86-2.18c0.25-1.43-0.15-2.99-0.96-4.51
				c-1.07-2.01-2.85-3.93-4.91-5.45c-2.04-1.51-4.32-2.6-6.41-2.96c-0.93-0.16-1.82-0.18-2.6-0.01c0.5,1.47,0.77,3.05,0.77,4.69
				c0,4.04-1.64,7.69-4.28,10.34s-6.3,4.28-10.34,4.28s-7.69-1.64-10.34-4.28s-4.28-6.3-4.28-10.34S3.94,29,6.59,26.35
				S12.89,22.07,16.92,22.08L16.92,22.08z M144.48,18.14c-0.75,0-1.35-0.61-1.35-1.35s0.61-1.35,1.35-1.35h39.93
				c0.75,0,1.35,0.61,1.35,1.35s-0.61,1.35-1.35,1.35H144.48z M11.89,124.02c-0.03,1.58,0.59,3.03,1.61,4.08
				c1.02,1.06,2.44,1.72,4.01,1.75c1.58,0.03,3.03-0.59,4.08-1.61c1.06-1.02,1.72-2.44,1.75-4.01c0.03-1.58-0.59-3.03-1.61-4.08
				c-1.02-1.06-2.44-1.72-4.01-1.75c-1.58-0.03-3.03,0.59-4.08,1.61C12.58,121.02,11.91,122.44,11.89,124.02z M11.54,129.98
				c-1.5-1.55-2.4-3.67-2.36-6c0.04-2.33,1.02-4.42,2.58-5.92c1.55-1.5,3.67-2.4,6-2.36c2.33,0.04,4.42,1.02,5.92,2.58
				c1.5,1.55,2.4,3.67,2.36,6c-0.04,2.33-1.02,4.42-2.58,5.92c-1.31,1.27-3.03,2.11-4.94,2.31l0.03,45.65c0,0.75-0.6,1.35-1.35,1.35
				s-1.35-0.6-1.35-1.35l-0.03-45.8C14.16,132,12.69,131.15,11.54,129.98L11.54,129.98z M84.98,8.25c2.33,0,4.44,0.94,5.96,2.47
				c1.25,1.25,2.1,2.88,2.38,4.7h39.03c0.75,0,1.35,0.61,1.35,1.35c0,0.75-0.61,1.35-1.35,1.35H93.3c-0.3,1.75-1.14,3.32-2.35,4.52
				c-1.53,1.53-3.63,2.47-5.96,2.47c-2.33,0-4.44-0.94-5.96-2.47c-1.53-1.53-2.47-3.63-2.47-5.96s0.94-4.44,2.47-5.96
				C80.55,9.2,82.66,8.25,84.98,8.25L84.98,8.25z M89.03,12.64c-1.04-1.04-2.47-1.68-4.05-1.68s-3.01,0.64-4.05,1.68
				c-1.04,1.04-1.68,2.47-1.68,4.05s0.64,3.01,1.68,4.05c1.04,1.04,2.47,1.68,4.05,1.68s3.01-0.64,4.05-1.68
				c1.04-1.04,1.68-2.47,1.68-4.05S90.07,13.68,89.03,12.64z M11.88,87.52c-0.75,0-1.35-0.61-1.35-1.35c0-0.75,0.61-1.35,1.35-1.35
				c0.04,0,0.08,0,0.13,0.01c1.53,0,2.92-0.64,3.95-1.68c1.06-1.07,1.74-2.57,1.77-4.24h0c0-0.04,0-0.09,0.01-0.13
				c0-1.64-0.61-3.13-1.62-4.22c-1.01-1.1-2.42-1.8-3.98-1.82c-2.54-0.05-4.87,0.99-6.57,2.71C3.84,77.18,2.75,79.6,2.7,82.3
				c-0.05,2.7,0.95,5.16,2.6,6.96c1.64,1.78,3.92,2.9,6.46,2.95c3.52,0.06,6.74-1.38,9.09-3.75c2.37-2.39,3.87-5.73,3.94-9.45
				c0.01-0.64-0.14-1.34-0.38-2.08c-0.17-0.52-0.38-1.06-0.61-1.61c-2.81-5.28-3.47-11.61,0.85-19.84c0.35-0.66,1.17-0.91,1.83-0.57
				c0.66,0.35,0.91,1.17,0.57,1.83c-7.16,13.64,1.52,21.67,9.12,28.68c0.03,0.02,0.05,0.05,0.07,0.07l0.24,0.23
				c0.71,0.66-0.03-0.03,0.7,0.64c4.29,3.95,9.37,8.61,8.5,14.78c-0.31,2.26-1.48,4.59-3.13,6.41c-1.59,1.76-3.65,3.07-5.85,3.43
				c-2.47,0.41-4.86-0.26-6.78-1.43c-2.27-1.38-3.91-3.52-4.25-5.44c-0.13-0.73,0.37-1.44,1.1-1.57c0.73-0.13,1.44,0.37,1.57,1.1
				c0.21,1.2,1.36,2.61,2.99,3.6c1.42,0.86,3.17,1.36,4.94,1.07c1.57-0.26,3.09-1.24,4.29-2.57c1.3-1.44,2.22-3.24,2.46-4.97
				c0.67-4.77-3.84-8.92-7.66-12.42c-0.26-0.24,0.47,0.44-0.7-0.65l-0.24-0.23c-0.03-0.02-0.05-0.04-0.07-0.06
				c-2.36-2.18-4.81-4.45-6.93-6.94c-0.4,3.87-2.1,7.32-4.64,9.88c-2.86,2.88-6.76,4.62-11.05,4.55c-3.32-0.06-6.29-1.51-8.41-3.82
				C1.21,88.8-0.06,85.67,0,82.25c0.06-3.43,1.45-6.51,3.64-8.71c2.2-2.22,5.22-3.57,8.53-3.51c2.34,0.04,4.43,1.07,5.93,2.69
				c1.45,1.58,2.34,3.72,2.33,6.08c0,0.03,0,0.07,0,0.1h0v0.02c-0.04,2.4-1.02,4.57-2.56,6.12c-1.52,1.54-3.6,2.48-5.89,2.47
				C11.95,87.51,11.91,87.51,11.88,87.52L11.88,87.52z M30.43,60.11c0.36-0.65,1.19-0.89,1.84-0.52c0.65,0.36,0.89,1.19,0.52,1.84
				c-0.56,1.01-0.68,2.3-0.46,3.72c0.32,2.1,1.37,4.4,2.84,6.47c1.48,2.08,3.37,3.89,5.35,5c1.51,0.84,3.06,1.26,4.49,1.04
				c0.78-0.12,1.55-0.4,2.2-0.81c0.57-0.36,1.03-0.82,1.31-1.35c0.45-0.85,0.49-1.82,0.3-2.7c-0.22-0.98-0.69-1.78-1.21-2.06
				c-0.65-0.36-0.9-1.18-0.54-1.83c0.36-0.65,1.18-0.9,1.83-0.54c1.16,0.64,2.17,2.13,2.55,3.85c0.32,1.44,0.23,3.08-0.54,4.54
				c-0.51,0.96-1.31,1.76-2.26,2.37c-0.98,0.62-2.11,1.04-3.25,1.22c-2.06,0.32-4.19-0.23-6.21-1.36c-2.34-1.31-4.54-3.41-6.24-5.8
				c-1.71-2.4-2.93-5.11-3.32-7.63C29.36,63.56,29.56,61.68,30.43,60.11L30.43,60.11z M25.34,28.27c-2.15-2.15-5.13-3.49-8.42-3.49
				s-6.27,1.33-8.42,3.49s-3.49,5.13-3.49,8.42c0,3.29,1.33,6.27,3.49,8.42s5.13,3.49,8.42,3.49s6.27-1.33,8.42-3.49
				s3.49-5.13,3.49-8.42C28.83,33.4,27.5,30.43,25.34,28.27z"/>
		</g>
	</g>
	<g>
		<g>
			<path class="st0" d="M16.92,769.79c-4.04,0-7.69-1.64-10.34-4.28s-4.28-6.3-4.28-10.34s1.64-7.69,4.28-10.34
				c2.65-2.65,6.3-4.28,10.34-4.28s7.69,1.64,10.34,4.28c2.65,2.65,4.28,6.3,4.28,10.34c0,1.64-0.27,3.22-0.77,4.69
				c0.78,0.17,1.67,0.15,2.6-0.01c2.09-0.36,4.38-1.45,6.41-2.96c2.06-1.52,3.84-3.44,4.91-5.45c0.81-1.52,1.21-3.08,0.96-4.51
				c-0.13-0.77-0.43-1.54-0.86-2.18c-0.37-0.56-0.84-1.02-1.37-1.29c-0.85-0.43-1.83-0.46-2.7-0.25c-0.98,0.24-1.76,0.72-2.04,1.24
				c-0.35,0.66-1.16,0.92-1.82,0.57s-0.92-1.16-0.57-1.82c0.61-1.17,2.09-2.2,3.8-2.62c1.43-0.35,3.07-0.28,4.55,0.46
				c0.98,0.49,1.79,1.28,2.41,2.21c0.64,0.96,1.07,2.09,1.27,3.22c0.36,2.06-0.16,4.2-1.24,6.24c-1.27,2.37-3.33,4.6-5.68,6.34
				c-2.37,1.75-5.06,3.03-7.57,3.46c-1.47,0.25-2.89,0.22-4.17-0.16c-0.65,1.15-1.46,2.22-2.39,3.15c-0.18,0.18-0.37,0.36-0.56,0.53
				c12.77,5.44,20.28-2.99,26.88-10.4l0.29-0.33c0.99-1.11,0.44-0.49,0.63-0.7c3.87-4.37,8.44-9.53,14.62-8.78
				c2.26,0.27,4.62,1.4,6.47,3.02c1.78,1.55,3.13,3.59,3.53,5.79c0.45,2.47-0.17,4.87-1.3,6.81c-1.34,2.3-3.45,3.98-5.37,4.35
				c-0.73,0.14-1.44-0.34-1.58-1.07c-0.14-0.73,0.34-1.44,1.07-1.58c1.19-0.23,2.57-1.41,3.54-3.05c0.84-1.44,1.31-3.19,0.99-4.95
				c-0.29-1.57-1.3-3.06-2.66-4.24c-1.46-1.27-3.28-2.15-5.01-2.36c-4.79-0.58-8.85,4-12.28,7.88c-0.61,0.69-0.06,0.07-0.63,0.71
				l-0.29,0.33c-2.14,2.39-4.36,4.89-6.8,7.05c3.87,0.33,7.35,1.97,9.95,4.45c2.94,2.81,4.76,6.69,4.76,10.97
				c0,6.6-5.57,11.96-12.44,11.96c-3.42,0-6.52-1.33-8.77-3.48c-2.27-2.17-3.67-5.16-3.67-8.47c0-2.33,0.99-4.45,2.59-5.97
				c1.58-1.51,3.76-2.45,6.16-2.45c2.4,0,4.58,0.93,6.16,2.45c1.6,1.53,2.59,3.64,2.59,5.97c0,0.75-0.61,1.35-1.35,1.35
				s-1.35-0.61-1.35-1.35c0-1.57-0.66-2.99-1.74-4.02c-1.09-1.05-2.61-1.69-4.29-1.69c-1.68,0-3.2,0.65-4.29,1.69
				c-1.07,1.03-1.74,2.45-1.74,4.02c0,2.54,1.08,4.85,2.82,6.52c1.76,1.69,4.21,2.73,6.91,2.73c5.37,0,9.73-4.14,9.73-9.25
				c0-3.52-1.49-6.71-3.91-9.02c-2.43-2.32-5.8-3.76-9.52-3.76c-0.64,0-1.34,0.16-2.07,0.41c-0.52,0.18-1.06,0.4-1.6,0.64
				c-5.15,2.87-11.37,3.65-19.51-0.33C22.05,769.09,19.57,769.79,16.92,769.79L16.92,769.79z M184.41,773.73
				c0.75,0,1.35,0.61,1.35,1.35s-0.61,1.35-1.35,1.35h-39.93c-0.75,0-1.35-0.61-1.35-1.35s0.61-1.35,1.35-1.35H184.41z
				 M13.64,671.86c1.06,1.02,2.5,1.64,4.08,1.61c1.58-0.03,3-0.69,4.01-1.75c1.02-1.06,1.64-2.5,1.61-4.08
				c-0.03-1.58-0.69-3-1.75-4.01c-1.06-1.02-2.5-1.64-4.08-1.61c-1.58,0.03-3,0.69-4.01,1.75c-1.02,1.06-1.64,2.5-1.61,4.08
				C11.91,669.42,12.58,670.84,13.64,671.86z M11.55,661.89c1.13-1.18,2.61-2.03,4.28-2.39l0.03-45.8c0-0.75,0.6-1.35,1.35-1.35
				s1.35,0.6,1.35,1.35l-0.03,45.65c1.91,0.2,3.63,1.04,4.94,2.31c1.55,1.5,2.53,3.59,2.58,5.92c0.04,2.33-0.86,4.45-2.36,6
				c-1.5,1.55-3.59,2.53-5.92,2.58c-2.33,0.04-4.45-0.86-6-2.36c-1.55-1.5-2.53-3.59-2.58-5.92
				C9.14,665.56,10.05,663.44,11.55,661.89L11.55,661.89z M84.99,783.61c-2.33,0-4.44-0.94-5.96-2.47
				c-1.52-1.53-2.47-3.63-2.47-5.96c0-2.33,0.94-4.44,2.47-5.96c1.53-1.52,3.63-2.47,5.96-2.47c2.33,0,4.44,0.94,5.96,2.47
				c1.2,1.2,2.05,2.77,2.35,4.52h39.06c0.75,0,1.35,0.61,1.35,1.35c0,0.75-0.61,1.35-1.35,1.35H93.33c-0.27,1.83-1.13,3.45-2.38,4.7
				C89.42,782.67,87.31,783.61,84.99,783.61L84.99,783.61z M90.71,775.18c0-1.58-0.64-3.01-1.68-4.05s-2.47-1.68-4.05-1.68
				s-3.01,0.64-4.05,1.68c-1.04,1.04-1.68,2.47-1.68,4.05c0,1.58,0.64,3.01,1.68,4.05c1.04,1.04,2.47,1.68,4.05,1.68
				s3.01-0.64,4.05-1.68S90.71,776.76,90.71,775.18z M11.88,704.35c0.03,0,0.07,0,0.1,0c2.29-0.01,4.37,0.93,5.89,2.47
				c1.54,1.55,2.51,3.72,2.56,6.12v0.02h0c0,0.03,0,0.07,0,0.1c0.01,2.35-0.88,4.5-2.33,6.08c-1.5,1.62-3.59,2.65-5.93,2.69
				c-3.31,0.06-6.33-1.29-8.53-3.51c-2.19-2.21-3.58-5.29-3.64-8.71c-0.06-3.42,1.21-6.55,3.32-8.83c2.12-2.3,5.09-3.76,8.41-3.82
				c4.29-0.08,8.2,1.67,11.05,4.55c2.53,2.56,4.24,6.01,4.64,9.88c2.12-2.49,4.58-4.76,6.93-6.94c0.02-0.02,0.05-0.04,0.07-0.06
				l0.24-0.23c1.17-1.09,0.44-0.41,0.7-0.65c3.81-3.51,8.32-7.65,7.66-12.42c-0.24-1.72-1.16-3.53-2.46-4.97
				c-1.2-1.33-2.72-2.32-4.29-2.57c-1.77-0.29-3.52,0.21-4.94,1.07c-1.63,0.99-2.78,2.4-2.99,3.6c-0.13,0.73-0.83,1.23-1.57,1.1
				c-0.73-0.13-1.23-0.83-1.1-1.57c0.34-1.92,1.98-4.06,4.25-5.44c1.92-1.17,4.31-1.84,6.78-1.43c2.2,0.36,4.26,1.67,5.85,3.43
				c1.65,1.82,2.82,4.15,3.13,6.41c0.86,6.17-4.21,10.84-8.5,14.78c-0.73,0.67,0.02-0.02-0.7,0.64l-0.24,0.23
				c-0.02,0.02-0.05,0.05-0.07,0.07c-7.6,7.02-16.28,15.04-9.12,28.68c0.35,0.66,0.09,1.48-0.57,1.83
				c-0.66,0.35-1.48,0.09-1.83-0.57c-4.32-8.22-3.66-14.56-0.85-19.84c0.23-0.55,0.44-1.09,0.61-1.61c0.24-0.74,0.39-1.44,0.38-2.08
				c-0.07-3.72-1.57-7.05-3.94-9.45c-2.35-2.37-5.57-3.81-9.09-3.75c-2.54,0.05-4.82,1.17-6.46,2.95c-1.65,1.8-2.66,4.26-2.6,6.96
				c0.05,2.7,1.14,5.12,2.86,6.85c1.7,1.72,4.03,2.76,6.57,2.71c1.56-0.03,2.97-0.72,3.98-1.82c1.01-1.09,1.62-2.58,1.62-4.22
				c0-0.04-0.01-0.08-0.01-0.13h0c-0.03-1.67-0.71-3.17-1.77-4.24c-1.03-1.04-2.42-1.67-3.95-1.68c-0.04,0-0.08,0.01-0.13,0.01
				c-0.75,0-1.35-0.61-1.35-1.35S11.13,704.35,11.88,704.35L11.88,704.35z M30.44,731.76c-0.88-1.57-1.08-3.46-0.78-5.44
				c0.39-2.52,1.61-5.23,3.32-7.63c1.7-2.39,3.9-4.49,6.24-5.8c2.02-1.12,4.15-1.68,6.21-1.36c1.13,0.18,2.27,0.59,3.25,1.22
				c0.95,0.61,1.75,1.41,2.26,2.37c0.77,1.46,0.86,3.1,0.54,4.54c-0.38,1.72-1.39,3.21-2.55,3.85c-0.66,0.36-1.48,0.12-1.83-0.54
				c-0.36-0.66-0.12-1.48,0.54-1.83c0.51-0.28,0.99-1.08,1.21-2.06c0.19-0.87,0.15-1.85-0.3-2.7c-0.28-0.53-0.75-0.99-1.31-1.35
				c-0.65-0.41-1.42-0.69-2.2-0.81c-1.44-0.22-2.99,0.2-4.49,1.04c-1.98,1.11-3.87,2.92-5.35,5c-1.47,2.07-2.52,4.37-2.84,6.47
				c-0.22,1.42-0.1,2.72,0.46,3.72c0.36,0.65,0.13,1.47-0.52,1.84C31.62,732.64,30.8,732.41,30.44,731.76L30.44,731.76z
				 M28.83,755.17c0-3.29-1.33-6.27-3.49-8.42c-2.15-2.15-5.13-3.49-8.42-3.49s-6.27,1.33-8.42,3.49c-2.15,2.15-3.49,5.13-3.49,8.42
				s1.33,6.27,3.49,8.42s5.13,3.49,8.42,3.49s6.27-1.33,8.42-3.49S28.83,758.46,28.83,755.17z"/>
		</g>
	</g>
	<g>
		<g>
			<line class="st1" x1="16.92" y1="560.25" x2="16.92" y2="560.25"/>
			<line class="st2" x1="16.92" y1="549.71" x2="16.92" y2="238.89"/>
			<line class="st1" x1="16.92" y1="233.62" x2="16.92" y2="233.62"/>
		</g>
	</g>
</g>
</svg>
