<?xml version="1.0" encoding="utf-8"?>
<!-- Generator: Adobe Illustrator 24.0.0, SVG Export Plug-In . SVG Version: 6.00 Build 0)  -->
<svg version="1.1" id="Layer_1" xmlns="http://www.w3.org/2000/svg" xmlns:xlink="http://www.w3.org/1999/xlink" x="0px" y="0px"
	 viewBox="0 0 1007.99 448.3" style="enable-background:new 0 0 1007.99 448.3;" xml:space="preserve">
<style type="text/css">
	.st0{fill:url(#SVGID_1_);}
	.st1{fill:#FFFFFF;}
</style>
<g>
	<linearGradient id="SVGID_1_" gradientUnits="userSpaceOnUse" x1="159.7234" y1="549.8655" x2="811.1002" y2="3.2956">
		<stop  offset="0" style="stop-color:#FFB12B"/>
		<stop  offset="0.1832" style="stop-color:#BD7508"/>
		<stop  offset="0.4894" style="stop-color:#EDA626"/>
		<stop  offset="0.7887" style="stop-color:#BD7508"/>
		<stop  offset="1" style="stop-color:#E39B1F"/>
	</linearGradient>
	<path class="st0" d="M189.92,174.19c-17.84,0-32.68-3.33-42.92-9.64c-10.53-6.49-16.1-15.92-16.1-27.26
		c0-26.73,30.77-42.71,60.52-42.71c2.07,0,4.15,0.08,6.17,0.24l0.56,5.88c-20.8,5.72-32.73,20.04-32.73,39.28
		c0,9.92,3.23,26.56,24.9,26.56c22.29,0,37.86-18.48,46.27-54.92l22.1-96.16h-5.74c-23.2,0-33.58,15.41-33.58,30.69
		c0,5.52,1.39,11.44,3.47,14.73l3.2,5.07l-5.98-0.48c-17.13-1.37-27.77-10.75-27.77-24.49C192.29,21.56,214.77,8,246.96,8h72.36
		l-2.39,7.24h-2.17c-12.18,0-15,4.23-18.37,18.76l-8.45,36.42h49.23l8.76-37.78c1.92-8.28,2.05-13.09,0.42-15.14
		c-1.22-1.54-4.17-2.26-9.28-2.26h-4.15L335.32,8h75.15l-2.39,7.24h-2.17c-12.18,0-15,4.23-18.37,18.76l-19.22,83.09
		c-1.94,8.36-2.1,13.19-0.49,15.2c1.19,1.5,4.1,2.2,9.14,2.2h3.55l-1.23,7.24h-74.92l1.23-7.24h2.53c10.85,0,14.83-2.59,18.58-18.76
		l8.66-37.45h-49.23l-7.94,34.67C269.2,151.87,237.02,174.19,189.92,174.19z M490.7,133.69l1.22-0.71l1.41-8.3l-5.2,2.46
		c-3.44,1.63-7,3.22-9.26,3.22c-0.46,0-1.07-0.07-1.33-0.39c-0.39-0.48-0.61-1.84-0.08-4.23l17.13-76.83l-4.01-1.36l-29.12,7.28
		c-4.46-3.63-11.24-7.37-23.71-7.37c-16.68,0-31.92,6.58-42.9,18.54c-10.11,11-15.91,25.83-15.91,40.68
		c0,22.66,12.61,37.31,32.13,37.32c11.83,0,21.61-5.2,28.59-10.62c2.35,6.95,8.63,10.83,17.92,10.83
		C467.11,144.23,479.18,140.39,490.7,133.69z M452.43,62.31l-14.09,62.2c-2.79,2.37-6.33,4.82-10.1,4.82
		c-7.09,0-9.61-9.52-9.61-17.67c0-18.78,11.3-56.32,26.14-56.32C449.61,55.34,451.62,59.44,452.43,62.31z M533.9,175.42l1.23-7.24
		h-3.55c-3.64,0-6.09-0.76-7.28-2.27c-1.44-1.82-1.55-5.31-0.34-10.37l3.46-14.66c4.81,2.09,10.54,3.12,17.39,3.12
		c16.7,0,31.97-6.55,42.99-18.45c10.18-10.99,16.02-25.85,16.02-40.77c0-22.66-12.7-37.31-32.35-37.31
		c-9.91,0-19.41,3.53-28.3,10.49c-2.46-6.73-8.63-10.49-17.59-10.49c-9.54,0-21.61,3.84-33.13,10.54l-1.22,0.71l-1.41,8.31
		l5.21-2.47c3.44-1.63,6.98-3.22,9.25-3.22c0.46,0,1.07,0.07,1.33,0.39c0.39,0.48,0.61,1.84,0.08,4.2l-20.04,86.59
		c-2.55,10.62-5.27,15.68-13.82,15.68h-2.55l-1.18,7.23H533.9z M544.81,66.63c3-2.4,6.26-4.47,9.92-4.47c2.21,0,9.4,1.23,9.4,17.05
		c0,19.49-11.04,56.94-26.14,56.94c-2.59,0-4.5-0.75-5.68-2.23c-1.57-1.98-1.89-5.38-0.91-9.59L544.81,66.63z M650.89,175.42
		l1.23-7.24h-3.55c-3.65,0-6.1-0.76-7.28-2.27c-1.44-1.82-1.55-5.31-0.34-10.37l3.46-14.66c4.81,2.09,10.54,3.12,17.39,3.12
		c16.7,0,31.97-6.55,42.99-18.45c10.18-10.99,16.02-25.85,16.02-40.77c0-22.66-12.7-37.31-32.35-37.31
		c-9.91,0-19.41,3.53-28.3,10.49c-2.46-6.73-8.63-10.49-17.59-10.49c-9.54,0-21.61,3.84-33.13,10.54l-1.21,0.71l-1.41,8.3l5.2-2.46
		c3.44-1.63,7-3.22,9.26-3.22c0.46,0,1.07,0.07,1.33,0.39c0.39,0.48,0.61,1.84,0.08,4.2l-20.04,86.59
		c-2.55,10.62-5.27,15.68-13.82,15.68h-2.53l-1.23,7.23H650.89z M661.8,66.63c3-2.4,6.26-4.47,9.92-4.47c2.21,0,9.4,1.23,9.4,17.05
		c0,19.49-11.04,56.94-26.14,56.94c-2.59,0-4.5-0.75-5.68-2.23c-1.57-1.98-1.89-5.38-0.91-9.59L661.8,66.63z M876.23,190.41
		c0-18.2-14-31.36-37.44-35.2l-9.54-1.56l6.97,6.69c4.21,4.04,6.94,12.68,6.94,22.02c0,17.74-10.02,36.69-38.13,36.69
		c-28.59,0-50.73-19.02-72.15-37.42c-3.92-3.36-7.66-6.58-11.41-9.65c1.44-1.22,2.92-2.48,4.44-3.78
		c9.14-7.8,19.49-16.63,32.49-26.58c24.06-15.91,64.3-46.46,64.3-72.73c0-10.31-5.98-21.4-19.12-21.4
		c-11.25,0-19.74,8.31-19.74,19.33c0,10.67,8.13,18.71,18.92,18.71c0.82,0,1.64-0.04,2.43-0.12c-2.76,8.46-10.3,18.35-21.8,28.56
		l-8.46-53.18c-1.31-8.44-8.04-13.29-18.46-13.29c-9.54,0-21.61,3.84-33.13,10.54l-1.22,0.71l-1.41,8.3l5.2-2.46
		c3.44-1.63,7-3.22,9.26-3.22c1.3,0,1.47,0.46,1.59,1.21l14.96,74.16c-12.17,9.68-22.22,18.18-30.36,25.07
		c-2.13,1.8-4.16,3.52-6.1,5.15c-10.71-8.19-23.44-16.1-37.75-16.1c-14.84,0-29.87,8.06-29.87,23.46
		c0,13.29,10.84,22.22,26.98,22.22c14.16,0,24.98-6.52,40.53-19.37c3.68,3.03,7.41,6.26,11.32,9.65
		c24.62,21.31,52.53,45.47,94.26,45.47C859.07,232.27,876.23,211.25,876.23,190.41z M708.86,172.27
		c-13.96,11.23-23.01,16.59-34.04,16.59c-11.62,0-19.12-5.72-19.12-14.57c0-10.27,11.13-15.81,21.6-15.81
		C686.61,158.48,696.19,162.63,708.86,172.27z M63.23,390.24c47.1,0,79.29-22.32,88.29-61.24l7.94-34.67h49.23l-8.66,37.45
		c-3.75,16.17-7.73,18.76-18.58,18.76h-2.53l-1.23,7.24h74.92l1.23-7.24h-3.55c-5.05,0-7.96-0.7-9.15-2.2
		c-1.6-2.01-1.44-6.84,0.49-15.2l19.22-83.09c3.78-16.3,7.51-18.76,18.37-18.76h2.17l2.39-7.24h-75.15l-2.39,7.24h4.15
		c5.11,0,8.05,0.72,9.28,2.26c1.63,2.05,1.5,6.87-0.42,15.14l-8.76,37.78h-49.23l8.45-36.42c3.78-16.3,7.51-18.76,18.37-18.76h2.17
		l2.39-7.24h-72.36c-32.19,0-54.67,13.56-54.67,32.97c0,13.74,10.64,23.12,27.77,24.49l5.98,0.48l-3.2-5.07
		c-2.07-3.29-3.47-9.2-3.47-14.73c0-15.28,10.38-30.69,33.58-30.69h5.74l-22.1,96.16c-8.41,36.45-23.98,54.92-46.27,54.92
		c-21.67,0-24.9-16.64-24.9-26.56c0-19.24,11.93-33.55,32.73-39.28l-0.56-5.88c-2.02-0.16-4.1-0.24-6.17-0.24
		c-29.75,0-60.52,15.97-60.52,42.71c0,11.34,5.57,20.76,16.1,27.25C30.54,386.89,45.38,390.23,63.23,390.24L63.23,390.24z
		 M352.76,343.83c12.61-10.71,19.56-24.96,19.56-40.11c0-13.18-5.35-23.92-15.48-31.06c-8.38-5.9-19.87-9.15-32.37-9.15
		c-35.01,0-64.59,25.7-64.59,56.12c0,12.7,5.02,23.24,14.51,30.48c8.4,6.41,20.17,9.94,33.13,9.94
		C324.38,360.05,340.45,354.29,352.76,343.83z M335.53,285.53c0,20.06-10.16,67.07-29.86,67.07c-2.4,0-8.78,0-8.78-14.57
		c0-9.57,2.6-26.71,7.58-40.95c3.41-9.76,10.84-26.12,22.28-26.12C329.15,270.96,335.53,270.96,335.53,285.53z M394.75,360.24
		c9.53,0,21.61-3.84,33.13-10.54l1.22-0.71l1.41-8.3l-5.2,2.46c-3.44,1.63-6.99,3.22-9.26,3.22c-0.46,0-1.07-0.07-1.33-0.39
		c-0.39-0.48-0.61-1.84-0.08-4.22l20.65-91.23c6.07,1.08,11.45,1.58,16.73,1.58c27.82,0,45.79-12.54,45.79-31.94
		c0-7.68-3.23-25.53-33.18-25.53c-26.09,0-48.59,13.36-60.79,35.9c-13.71-7.62-27.1-17.65-40.07-27.36
		c-28.66-21.47-58.29-43.68-95.09-43.68c-36.3,0-55.29,21.48-55.29,42.69c0,20.61,17.18,37.77,40.86,40.81l7.51,0.96l-4.81-5.84
		c-7.28-8.84-9.86-22.54-9.86-31.57c0-10.16,3.47-33.79,35.65-33.79c27.45,0,51.46,18.04,76.88,37.14
		c13.04,9.79,26.5,19.9,40.8,27.75c-1.93,4.61-3.42,9.35-4.44,14.11l-19.02,82.26c-2.04,8.69-1.2,15.44,2.47,20.07
		c3.23,4.07,8.38,6.13,15.31,6.13H394.75z M468.75,202.75c12.81,0,20.77,6.77,20.77,17.67c0,14.4-15.07,24.08-37.51,24.08
		c-5.4,0-10.34-0.45-15.01-1.36C442,221.72,448.38,202.75,468.75,202.75z M493.4,349.71l1.22-0.71l1.41-8.3l-5.2,2.46
		c-3.44,1.63-6.99,3.22-9.26,3.22c-0.46,0-1.07-0.07-1.33-0.39c-0.39-0.48-0.61-1.84-0.08-4.22l11.77-52.07
		c2.04-8.69,1.2-15.44-2.47-20.08c-3.23-4.07-8.39-6.14-15.33-6.14c-9.53,0-21.61,3.84-33.13,10.54l-1.22,0.71l-1.41,8.3l5.2-2.46
		c3.44-1.63,6.99-3.22,9.26-3.22c0.47,0,1.07,0.07,1.33,0.39c0.39,0.48,0.61,1.84,0.08,4.22l-11.77,52.07
		c-2.04,8.69-1.2,15.44,2.47,20.08c3.23,4.07,8.39,6.14,15.33,6.14C469.81,360.25,481.88,356.41,493.4,349.71z M505.45,237.99
		c0-11.96-9.47-20.98-22.02-20.98s-22.02,9.02-22.02,20.98c0,12.08,9.47,21.19,22.02,21.19S505.45,250.07,505.45,237.99z
		 M613.9,349.73l1.21-0.71l1.41-8.31l-5.21,2.47c-3.43,1.63-6.98,3.22-9.25,3.22c-0.46,0-1.07-0.07-1.33-0.39
		c-0.39-0.48-0.61-1.84-0.08-4.21l29.23-128.42l-56.29,4.63l-2.34,7.07h4.15c4.7,0,7.69,0.89,9.14,2.71
		c1.58,1.98,1.76,5.68,0.55,10.97l-6.54,28.16c-4.86-2.26-10.76-3.4-17.62-3.4c-16.68,0-31.92,6.58-42.91,18.54
		c-10.11,11-15.91,25.83-15.91,40.68c0,22.66,12.62,37.31,32.14,37.32c11.83,0,21.61-5.2,28.59-10.62
		c2.35,6.95,8.63,10.83,17.92,10.83C590.31,360.27,602.38,356.43,613.9,349.73z M575.81,278.78l-14.28,61.75
		c-2.78,2.37-6.32,4.83-10.12,4.83c-7.09,0-9.61-9.52-9.61-17.67c0-18.78,11.3-56.32,26.14-56.32
		C572.5,271.37,574.73,275.25,575.81,278.78z M735.43,349.73l1.21-0.71l1.41-8.3l-5.2,2.46c-3.45,1.63-7,3.22-9.26,3.22
		c-0.46,0-1.07-0.07-1.33-0.39c-0.39-0.48-0.61-1.84-0.08-4.23l17.13-76.83l-4.01-1.36l-29.12,7.28
		c-4.46-3.63-11.24-7.37-23.71-7.37c-16.68,0-31.92,6.58-42.9,18.54c-10.11,11-15.91,25.83-15.91,40.68
		c0,22.66,12.61,37.31,32.13,37.32c11.83,0,21.61-5.2,28.59-10.62c2.35,6.95,8.63,10.83,17.92,10.83
		C711.84,360.27,723.91,356.43,735.43,349.73z M697.16,278.34l-14.09,62.2c-2.78,2.37-6.31,4.82-10.1,4.82
		c-7.09,0-9.61-9.52-9.61-17.67c0-18.78,11.3-56.32,26.14-56.32C694.34,271.37,696.35,275.47,697.16,278.34z M842.02,448.3
		c38.34,0,55.5-21.02,55.5-41.86c0-18.2-14-31.36-37.44-35.2l-9.52-1.56l6.95,6.68c4.21,4.04,6.93,12.69,6.93,22.02
		c0,17.74-10.02,36.69-38.13,36.69c-28.59,0-50.73-19.02-72.15-37.42c-3.92-3.36-7.66-6.58-11.41-9.65
		c1.44-1.22,2.92-2.48,4.44-3.78c9.14-7.8,19.49-16.63,32.49-26.58c24.06-15.91,64.3-46.46,64.3-72.73c0-10.31-5.98-21.4-19.12-21.4
		c-11.25,0-19.74,8.31-19.74,19.33c0,10.67,8.13,18.71,18.92,18.71c0.82,0,1.64-0.04,2.43-0.12c-2.76,8.46-10.3,18.35-21.8,28.56
		l-8.46-53.18c-1.31-8.45-8.04-13.29-18.46-13.29c-9.54,0-21.61,3.84-33.13,10.54l-1.21,0.71l-1.41,8.31l5.21-2.47
		c3.43-1.63,6.98-3.22,9.25-3.22c1.3,0,1.47,0.46,1.59,1.21L773,352.75c-12.17,9.68-22.23,18.19-30.37,25.07
		c-2.13,1.8-4.15,3.51-6.09,5.14c-10.71-8.19-23.43-16.1-37.75-16.1c-14.84,0-29.87,8.06-29.87,23.46
		c0,13.29,10.84,22.22,26.98,22.22c14.16,0,24.98-6.52,40.53-19.37c3.68,3.04,7.42,6.27,11.35,9.67
		c24.62,21.31,52.52,45.45,94.23,45.45H842.02z M730.15,388.31c-13.96,11.22-23.01,16.58-34.04,16.59
		c-11.62,0-19.12-5.72-19.12-14.57c0-6.36,5.75-15.81,21.6-15.81C707.9,374.52,717.47,378.67,730.15,388.31z M879.45,360.04
		c27.63,0,48.47-15.6,48.47-36.28c0-9.47-4.19-15.55-9.97-19.84c0.59,0.07,1.2,0.11,1.81,0.11c9.46,0,15.82-8.71,15.82-16.85
		c0-13.49-16.13-23.67-37.52-23.67c-26.41,0-45.58,14.74-45.58,35.04c0,18.37,15.41,24.09,27.8,28.69
		c10.57,3.92,17.05,6.65,17.05,13.06c0,7.01-8.13,12.5-18.5,12.5c-6.65,0-9.96-2.25-11.8-4.63c4.01-2.95,6.32-7.63,6.32-13.04
		c0-9.13-6.71-16.02-15.61-16.02c-10.03,0-16.23,8.75-16.23,16.85c0,13.73,16.3,24.08,37.91,24.08H879.45z M910.44,275.51
		c-3.95,2.78-6.29,7.33-6.29,12.5c0,3.97,1.42,7.61,3.76,10.42c-2.78-1.17-5.61-2.19-8.29-3.15c-10.64-3.82-17.17-6.47-17.17-12.64
		c0-7.34,8.96-11.88,17.26-11.88C904.58,270.75,908.06,272.27,910.44,275.51z M980,338.65c0-11.57-9.41-20.98-20.98-20.98
		s-20.98,9.41-20.98,20.98s9.41,20.98,20.98,20.98S980,350.22,980,338.65z M968,315.4l0.69-2.03c8.85-25.91,18.43-39.9,25.43-50.11
		c5.85-8.54,10.07-14.71,10.07-22.79c0-13-10.66-18.92-20.57-18.92c-12.68,0-26.15,9.46-26.15,26.98c0,4.38,0.86,8.79,1.86,13.89
		c2.05,10.46,4.85,24.78,2.09,49.65l-0.37,3.33H968z"/>
</g>
<g>
	<g>
		<path class="st1" d="M133.7,133.29c0-26.87,34.1-41.75,63.46-39.48c-22.53,6.2-34.93,21.91-34.93,42.17
			c0,17.36,8.89,29.56,27.9,29.56c24.18,0,40.51-19.64,49.19-57.25l22.94-99.83h-9.51c-24.8,0-36.58,16.74-36.58,33.69
			c0,5.79,1.45,12.4,3.93,16.33c-15.5-1.24-25.01-9.51-25.01-21.5C195.09,19.19,216.38,7,246.76,7h68.21l-0.41,1.24
			c-12.81,0-17.36,4.13-21.29,21.08l-9.3,40.1h55.39l9.3-40.1c3.93-16.95,1.03-21.08-11.78-21.08L337.29,7h68.83l-0.41,1.24
			c-12.81,0-17.36,4.13-21.29,21.08l-19.22,83.09c-3.93,16.95-1.24,21.08,11.57,21.08l-0.21,1.24h-68.83l0.21-1.24
			c12.82,0,17.57-4.13,21.5-21.08l9.51-41.13h-55.39l-8.47,37c-9.09,39.27-42.17,58.91-85.37,58.91
			C154.16,167.19,133.7,153.96,133.7,133.29z"/>
	</g>
	<g>
		<path class="st1" d="M381.73,102.7c0-28.11,21.7-56.22,55.81-56.22c13.44,0,19.43,4.55,22.94,7.65l29.76-7.44l0.62,0.21
			l-16.54,74.2c-1.24,5.58,0.62,8.27,4.34,8.27c2.89,0,6.61-1.65,10.54-3.51l-0.21,1.24c-11.37,6.61-22.94,10.13-31.62,10.13
			c-10.54,0-15.5-5.17-15.92-13.44c-7.44,6.82-17.98,13.23-30.59,13.23C390.83,137.01,381.73,121.1,381.73,102.7z M440.85,122.13
			l14.47-63.87c-1.24-5.17-4.55-9.92-10.75-9.92c-17.98,0-29.14,40.72-29.14,59.32c0,10.96,3.93,20.67,12.61,20.67
			C432.99,128.33,437.33,125.23,440.85,122.13z"/>
	</g>
	<g>
		<path class="st1" d="M471.64,167.19c11.16,0,14.26-7.65,16.74-17.98l20.05-86.61c1.24-5.58-0.62-8.27-4.34-8.27
			c-2.89,0-6.62,1.65-10.54,3.51l0.21-1.24c11.37-6.61,22.94-10.13,31.62-10.13c10.33,0,15.09,5.17,15.71,13.02
			c7.44-6.82,17.57-13.02,30.18-13.02c20.05,0,29.35,15.92,29.35,34.31c0,28.32-21.91,56.22-56.01,56.22
			c-9.92,0-15.71-2.27-19.43-4.55l-4.34,18.4c-2.48,10.33-0.21,16.33,10.54,16.33l-0.21,1.24h-59.73L471.64,167.19z M541.92,60.95
			l-13.64,58.7c-2.27,9.71,1.65,15.5,9.51,15.5c18.81,0,29.14-41.96,29.14-59.94c0-11.16-3.93-20.05-12.4-20.05
			C549.57,55.16,545.43,58.05,541.92,60.95z"/>
	</g>
	<g>
		<path class="st1" d="M588.63,167.19c11.16,0,14.26-7.65,16.74-17.98l20.05-86.61c1.24-5.58-0.62-8.27-4.34-8.27
			c-2.89,0-6.61,1.65-10.54,3.51l0.21-1.24c11.37-6.61,22.94-10.13,31.62-10.13c10.33,0,15.09,5.17,15.71,13.02
			c7.44-6.82,17.57-13.02,30.18-13.02c20.05,0,29.35,15.92,29.35,34.31c0,28.32-21.91,56.22-56.01,56.22
			c-9.92,0-15.71-2.27-19.43-4.55l-4.34,18.4c-2.48,10.33-0.21,16.33,10.54,16.33l-0.21,1.24h-59.74L588.63,167.19z M658.91,60.95
			l-13.64,58.7c-2.27,9.71,1.65,15.5,9.51,15.5c18.81,0,29.14-41.96,29.14-59.94c0-11.16-3.93-20.05-12.4-20.05
			C666.56,55.16,662.42,58.05,658.91,60.95z"/>
	</g>
	<g>
		<path class="st1" d="M714.93,169.26c-15.3,12.82-26.25,20.26-40.51,20.26c-14.47,0-23.98-7.65-23.98-19.22
			c0-14.26,14.68-20.46,26.87-20.46c13.23,0,25.42,7.23,37.83,16.95c10.13-8.47,22.74-19.43,39.69-32.86l-15.3-75.86
			c-0.41-2.48-2.07-3.72-4.55-3.72c-2.89,0-6.61,1.65-10.54,3.51l0.21-1.24c11.37-6.61,22.94-10.13,31.62-10.13
			c9.3,0,14.47,4.13,15.5,10.75l9.3,58.49c14.47-11.99,26.25-25.84,27.9-38.24c-1.65,0.62-3.93,1.03-6.41,1.03
			c-9.71,0-15.92-7.23-15.92-15.71c0-8.89,6.61-16.33,16.74-16.33c11.99,0,16.12,10.54,16.12,18.4c0,20.26-27.08,46.51-63.04,70.28
			c-16.74,12.81-29.35,23.98-39.89,32.86c25.42,20.26,51.88,50.02,88.26,50.02c31.21,0,41.13-21.91,41.13-39.69
			c0-8.89-2.48-19.02-7.86-24.18c23.98,3.93,34.93,16.95,34.93,32.24c0,17.78-14.47,38.86-52.5,38.86
			C772.18,225.27,742,191.17,714.93,169.26z M713.48,168.22c-12.2-9.71-23.98-16.74-36.38-16.74c-11.57,0-24.6,6.2-24.6,18.81
			c0,10.54,8.89,17.57,22.12,17.57C687.23,187.86,697.36,181.45,713.48,168.22z"/>
	</g>
	<g>
		<path class="st1" d="M7,349.33c0-26.87,34.11-41.75,63.46-39.48c-22.53,6.2-34.93,21.91-34.93,42.17
			c0,17.36,8.89,29.56,27.9,29.56c24.18,0,40.51-19.64,49.19-57.25l22.94-99.83h-9.51c-24.8,0-36.58,16.74-36.58,33.69
			c0,5.79,1.45,12.4,3.93,16.33c-15.5-1.24-25.01-9.51-25.01-21.5c0-17.78,21.29-29.97,51.67-29.97h68.21l-0.41,1.24
			c-12.82,0-17.36,4.13-21.29,21.08l-9.3,40.1h55.39l9.3-40.1c3.93-16.95,1.03-21.08-11.78-21.08l0.41-1.24h68.83l-0.41,1.24
			c-12.82,0-17.36,4.13-21.29,21.08l-19.22,83.09c-3.93,16.95-1.24,21.08,11.58,21.08l-0.21,1.24h-68.83l0.21-1.24
			c12.82,0,17.57-4.13,21.5-21.08l9.51-41.13h-55.39l-8.47,37c-9.09,39.27-42.17,58.91-85.37,58.91C27.46,383.22,7,370,7,349.33z"/>
	</g>
	<g>
		<path class="st1" d="M262.68,315.63c0-29.35,28.73-53.12,61.59-53.12c21.91,0,44.85,10.54,44.85,37.21
			c0,29.76-28.73,53.33-61.8,53.33C283.35,353.05,262.68,340.65,262.68,315.63z M338.33,281.53c0-14.47-5.99-17.57-11.78-17.57
			c-23.15,0-32.86,51.67-32.86,70.07c0,14.47,5.99,17.57,11.78,17.57C328.82,351.6,338.33,299.72,338.33,281.53z"/>
	</g>
	<g>
		<path class="st1" d="M379.67,330.72l19.02-82.27c1.24-5.79,3.1-11.16,5.38-16.12c-42.79-22.53-77.72-66.56-121.54-66.56
			c-27.08,0-38.65,16.74-38.65,36.79c0,10.13,2.89,24.18,10.54,33.48c-22.53-2.89-38.24-19.02-38.24-37.83
			c0-20.05,18.19-39.69,52.29-39.69c53.53,0,91.57,48.37,136.42,72.14c12.4-25.42,35.96-37,59.53-37
			c21.91,0,30.18,10.13,30.18,22.53c0,18.19-17.98,28.94-42.79,28.94c-6.61,0-12.81-0.83-19.02-2.07l-21.29,94.05
			c-1.24,5.58,0.62,8.27,4.34,8.27c2.89,0,6.61-1.65,10.54-3.51l-0.21,1.24c-11.37,6.61-22.94,10.13-31.62,10.13
			C380.5,353.25,376.57,343.95,379.67,330.72z M451.81,243.5c24.18,0,40.51-10.75,40.51-27.08c0-12.61-9.51-20.67-23.77-20.67
			c-23.36,0-29.97,22.32-34.93,43.82l-0.41,1.86C439.2,242.88,445.4,243.5,451.81,243.5z"/>
	</g>
	<g>
		<path class="st1" d="M445.19,330.72l11.78-52.09c1.24-5.58-0.62-8.27-4.34-8.27c-2.89,0-6.61,1.65-10.54,3.51l0.21-1.24
			c11.37-6.61,22.94-10.13,31.62-10.13c14.05,0,17.98,9.3,14.88,22.53l-11.78,52.09c-1.24,5.58,0.62,8.27,4.34,8.27
			c2.89,0,6.61-1.65,10.54-3.51l-0.21,1.24c-11.37,6.61-22.94,10.13-31.62,10.13C446.02,353.25,442.09,343.95,445.19,330.72z
			 M464.21,233.99c0-10.54,8.47-17.98,19.02-17.98s19.02,7.44,19.02,17.98c0,10.75-8.47,18.19-19.02,18.19
			S464.21,244.74,464.21,233.99z"/>
	</g>
	<g>
		<path class="st1" d="M504.92,318.74c0-28.11,21.7-56.22,55.81-56.22c9.92,0,15.92,2.48,19.64,4.96l7.44-32.04
			c2.89-12.61-1.45-17.36-12.61-17.36l0.41-1.24l50.23-4.13l-28.32,124.43c-1.24,5.58,0.62,8.27,4.34,8.27
			c2.89,0,6.62-1.65,10.54-3.51l-0.21,1.24c-11.37,6.61-22.94,10.13-31.62,10.13c-10.54,0-15.5-5.17-15.92-13.44
			c-7.44,6.82-17.98,13.23-30.59,13.23C514.02,353.05,504.92,337.13,504.92,318.74z M564.04,338.16l14.67-63.46
			c-1.45-5.37-4.75-10.33-10.96-10.33c-17.98,0-29.14,40.72-29.14,59.32c0,10.96,3.93,20.67,12.61,20.67
			C556.18,344.37,560.52,341.27,564.04,338.16z"/>
	</g>
	<g>
		<path class="st1" d="M626.46,318.74c0-28.11,21.7-56.22,55.81-56.22c13.44,0,19.43,4.55,22.94,7.65l29.76-7.44l0.62,0.21
			l-16.54,74.2c-1.24,5.58,0.62,8.27,4.34,8.27c2.89,0,6.61-1.65,10.54-3.51l-0.21,1.24c-11.37,6.61-22.94,10.13-31.62,10.13
			c-10.54,0-15.5-5.17-15.92-13.44c-7.44,6.82-17.98,13.23-30.59,13.23C635.55,353.05,626.46,337.13,626.46,318.74z M685.58,338.16
			l14.47-63.87c-1.24-5.17-4.55-9.92-10.75-9.92c-17.98,0-29.14,40.72-29.14,59.32c0,10.96,3.93,20.67,12.61,20.67
			C677.72,344.37,682.06,341.27,685.58,338.16z"/>
	</g>
	<g>
		<path class="st1" d="M736.21,385.29c-15.3,12.82-26.25,20.26-40.51,20.26c-14.47,0-23.98-7.65-23.98-19.22
			c0-14.26,14.68-20.46,26.87-20.46c13.23,0,25.42,7.23,37.82,16.95c10.13-8.47,22.74-19.43,39.69-32.86l-15.29-75.86
			c-0.41-2.48-2.07-3.72-4.55-3.72c-2.89,0-6.62,1.65-10.54,3.51l0.21-1.24c11.37-6.61,22.94-10.13,31.62-10.13
			c9.3,0,14.47,4.13,15.5,10.75l9.3,58.49c14.47-11.99,26.25-25.84,27.9-38.24c-1.65,0.62-3.93,1.03-6.41,1.03
			c-9.71,0-15.92-7.23-15.92-15.71c0-8.89,6.61-16.33,16.74-16.33c11.99,0,16.12,10.54,16.12,18.4c0,20.26-27.08,46.51-63.04,70.28
			C761,364,748.39,375.17,737.85,384.05c25.42,20.26,51.88,50.02,88.26,50.02c31.21,0,41.13-21.91,41.13-39.69
			c0-8.89-2.48-19.02-7.85-24.18c23.98,3.93,34.93,16.95,34.93,32.24c0,17.78-14.47,38.86-52.5,38.86
			C793.47,441.31,763.29,407.2,736.21,385.29z M734.77,384.26c-12.2-9.71-23.98-16.74-36.38-16.74c-11.58,0-24.6,6.2-24.6,18.81
			c0,10.54,8.89,17.57,22.12,17.57C708.52,403.89,718.64,397.49,734.77,384.26z"/>
	</g>
	<g>
		<path class="st1" d="M844.31,331.96c0-6.82,5.17-13.85,13.23-13.85c7.44,0,12.61,5.79,12.61,13.02c0,5.58-2.89,9.92-7.44,11.99
			c2.27,4.75,6.61,8.68,15.92,8.68c11.58,0,21.5-6.41,21.5-15.5c0-19.64-44.85-12.19-44.85-41.75c0-19.02,18.6-32.04,42.58-32.04
			c20.46,0,34.52,9.51,34.52,20.67c0,7.03-5.38,13.85-12.82,13.85c-7.03,0-12.61-5.79-12.61-13.02c0-5.17,2.89-9.51,7.44-11.37
			c-2.27-4.75-6.41-8.89-14.88-8.89c-10.13,0-20.26,5.79-20.26,14.88c0,19.22,45.47,11.78,45.47,41.13
			c0,20.26-21.5,33.28-45.47,33.28C858.37,353.05,844.31,343.12,844.31,331.96z"/>
	</g>
	<g>
		<path class="st1" d="M940.84,334.65c0-9.92,8.06-17.98,17.98-17.98s17.98,8.06,17.98,17.98s-8.06,17.98-17.98,17.98
			S940.84,344.57,940.84,334.65z M960.27,244.53c0-14.88,11.16-23.98,23.15-23.98c9.09,0,17.57,5.17,17.57,15.92
			c0,15.92-19.02,24.18-35.34,71.93h-1.45C968.33,271.2,960.27,257.35,960.27,244.53z"/>
	</g>
</g>
</svg>
