<?xml version="1.0" encoding="utf-8"?>
<!-- Generator: Adobe Illustrator 24.0.0, SVG Export Plug-In . SVG Version: 6.00 Build 0)  -->
<svg version="1.1" id="Layer_1" xmlns="http://www.w3.org/2000/svg" xmlns:xlink="http://www.w3.org/1999/xlink" x="0px" y="0px"
	 viewBox="0 0 993.99 434.31" style="enable-background:new 0 0 993.99 434.31;" xml:space="preserve">
<style type="text/css">
	.st0{fill:#0D2B4C;}
</style>
<g>
	<g>
		<path class="st0" d="M126.7,126.29c0-26.87,34.1-41.75,63.46-39.48c-22.53,6.2-34.93,21.91-34.93,42.17
			c0,17.36,8.89,29.56,27.9,29.56c24.18,0,40.51-19.64,49.19-57.25l22.94-99.83h-9.51c-24.8,0-36.58,16.74-36.58,33.69
			c0,5.79,1.45,12.4,3.93,16.33c-15.5-1.24-25.01-9.51-25.01-21.5C188.09,12.19,209.38,0,239.76,0h68.21l-0.41,1.24
			c-12.81,0-17.36,4.13-21.29,21.08l-9.3,40.1h55.39l9.3-40.1c3.93-16.95,1.03-21.08-11.78-21.08L330.29,0h68.83l-0.41,1.24
			c-12.81,0-17.36,4.13-21.29,21.08l-19.22,83.09c-3.93,16.95-1.24,21.08,11.57,21.08l-0.21,1.24h-68.83l0.21-1.24
			c12.82,0,17.57-4.13,21.5-21.08l9.51-41.13h-55.39l-8.47,37c-9.09,39.27-42.17,58.91-85.37,58.91
			C147.16,160.19,126.7,146.96,126.7,126.29z"/>
		<path class="st0" d="M374.73,95.7c0-28.11,21.7-56.22,55.81-56.22c13.44,0,19.43,4.55,22.94,7.65l29.76-7.44l0.62,0.21
			l-16.54,74.2c-1.24,5.58,0.62,8.27,4.34,8.27c2.89,0,6.61-1.65,10.54-3.51l-0.21,1.24c-11.37,6.61-22.94,10.13-31.62,10.13
			c-10.54,0-15.5-5.17-15.92-13.44c-7.44,6.82-17.98,13.23-30.59,13.23C383.83,130.01,374.73,114.1,374.73,95.7z M433.85,115.13
			l14.47-63.87c-1.24-5.17-4.55-9.92-10.75-9.92c-17.98,0-29.14,40.72-29.14,59.32c0,10.96,3.93,20.67,12.61,20.67
			C425.99,121.33,430.33,118.23,433.85,115.13z"/>
		<path class="st0" d="M464.64,160.19c11.16,0,14.26-7.65,16.74-17.98l20.05-86.61c1.24-5.58-0.62-8.27-4.34-8.27
			c-2.89,0-6.62,1.65-10.54,3.51l0.21-1.24c11.37-6.61,22.94-10.13,31.62-10.13c10.33,0,15.09,5.17,15.71,13.02
			c7.44-6.82,17.57-13.02,30.18-13.02c20.05,0,29.35,15.92,29.35,34.31c0,28.32-21.91,56.22-56.01,56.22
			c-9.92,0-15.71-2.27-19.43-4.55l-4.34,18.4c-2.48,10.33-0.21,16.33,10.54,16.33l-0.21,1.24h-59.73L464.64,160.19z M534.92,53.95
			l-13.64,58.7c-2.27,9.71,1.65,15.5,9.51,15.5c18.81,0,29.14-41.96,29.14-59.94c0-11.16-3.93-20.05-12.4-20.05
			C542.57,48.16,538.43,51.05,534.92,53.95z"/>
		<path class="st0" d="M581.63,160.19c11.16,0,14.26-7.65,16.74-17.98l20.05-86.61c1.24-5.58-0.62-8.27-4.34-8.27
			c-2.89,0-6.61,1.65-10.54,3.51l0.21-1.24c11.37-6.61,22.94-10.13,31.62-10.13c10.33,0,15.09,5.17,15.71,13.02
			c7.44-6.82,17.57-13.02,30.18-13.02c20.05,0,29.35,15.92,29.35,34.31c0,28.32-21.91,56.22-56.01,56.22
			c-9.92,0-15.71-2.27-19.43-4.55l-4.34,18.4c-2.48,10.33-0.21,16.33,10.54,16.33l-0.21,1.24h-59.74L581.63,160.19z M651.91,53.95
			l-13.64,58.7c-2.27,9.71,1.65,15.5,9.51,15.5c18.81,0,29.14-41.96,29.14-59.94c0-11.16-3.93-20.05-12.4-20.05
			C659.56,48.16,655.42,51.05,651.91,53.95z"/>
		<path class="st0" d="M707.93,162.26c-15.3,12.82-26.25,20.26-40.51,20.26c-14.47,0-23.98-7.65-23.98-19.22
			c0-14.26,14.68-20.46,26.87-20.46c13.23,0,25.42,7.23,37.83,16.95c10.13-8.47,22.74-19.43,39.69-32.86l-15.3-75.86
			c-0.41-2.48-2.07-3.72-4.55-3.72c-2.89,0-6.61,1.65-10.54,3.51l0.21-1.24c11.37-6.61,22.94-10.13,31.62-10.13
			c9.3,0,14.47,4.13,15.5,10.75l9.3,58.49c14.47-11.99,26.25-25.84,27.9-38.24c-1.65,0.62-3.93,1.03-6.41,1.03
			c-9.71,0-15.92-7.23-15.92-15.71c0-8.89,6.61-16.33,16.74-16.33c11.99,0,16.12,10.54,16.12,18.4c0,20.26-27.08,46.51-63.04,70.28
			c-16.74,12.81-29.35,23.98-39.89,32.86c25.42,20.26,51.88,50.02,88.26,50.02c31.21,0,41.13-21.91,41.13-39.69
			c0-8.89-2.48-19.02-7.86-24.18c23.98,3.93,34.93,16.95,34.93,32.24c0,17.78-14.47,38.86-52.5,38.86
			C765.18,218.27,735,184.17,707.93,162.26z M706.48,161.22c-12.2-9.71-23.98-16.74-36.38-16.74c-11.57,0-24.6,6.2-24.6,18.81
			c0,10.54,8.89,17.57,22.12,17.57C680.23,180.86,690.36,174.45,706.48,161.22z"/>
	</g>
	<g>
		<path class="st0" d="M0,342.33c0-26.87,34.11-41.75,63.46-39.48c-22.53,6.2-34.93,21.91-34.93,42.17
			c0,17.36,8.89,29.56,27.9,29.56c24.18,0,40.51-19.64,49.19-57.25l22.94-99.83h-9.51c-24.8,0-36.58,16.74-36.58,33.69
			c0,5.79,1.45,12.4,3.93,16.33c-15.5-1.24-25.01-9.51-25.01-21.5c0-17.78,21.29-29.97,51.67-29.97h68.21l-0.41,1.24
			c-12.82,0-17.36,4.13-21.29,21.08l-9.3,40.1h55.39l9.3-40.1c3.93-16.95,1.03-21.08-11.78-21.08l0.41-1.24h68.83l-0.41,1.24
			c-12.82,0-17.36,4.13-21.29,21.08l-19.22,83.09c-3.93,16.95-1.24,21.08,11.58,21.08l-0.21,1.24h-68.83l0.21-1.24
			c12.82,0,17.57-4.13,21.5-21.08l9.51-41.13h-55.39l-8.47,37c-9.09,39.27-42.17,58.91-85.37,58.91C20.46,376.22,0,363,0,342.33z"/>
		<path class="st0" d="M255.68,308.63c0-29.35,28.73-53.12,61.59-53.12c21.91,0,44.85,10.54,44.85,37.21
			c0,29.76-28.73,53.33-61.8,53.33C276.35,346.05,255.68,333.65,255.68,308.63z M331.33,274.53c0-14.47-5.99-17.57-11.78-17.57
			c-23.15,0-32.86,51.67-32.86,70.07c0,14.47,5.99,17.57,11.78,17.57C321.82,344.6,331.33,292.72,331.33,274.53z"/>
		<path class="st0" d="M372.67,323.72l19.02-82.27c1.24-5.79,3.1-11.16,5.38-16.12c-42.79-22.53-77.72-66.56-121.54-66.56
			c-27.08,0-38.65,16.74-38.65,36.79c0,10.13,2.89,24.18,10.54,33.48c-22.53-2.89-38.24-19.02-38.24-37.83
			c0-20.05,18.19-39.69,52.29-39.69c53.53,0,91.57,48.37,136.42,72.14c12.4-25.42,35.96-37,59.53-37
			c21.91,0,30.18,10.13,30.18,22.53c0,18.19-17.98,28.94-42.79,28.94c-6.61,0-12.81-0.83-19.02-2.07l-21.29,94.05
			c-1.24,5.58,0.62,8.27,4.34,8.27c2.89,0,6.61-1.65,10.54-3.51l-0.21,1.24c-11.37,6.61-22.94,10.13-31.62,10.13
			C373.5,346.25,369.57,336.95,372.67,323.72z M444.81,236.5c24.18,0,40.51-10.75,40.51-27.08c0-12.61-9.51-20.67-23.77-20.67
			c-23.36,0-29.97,22.32-34.93,43.82l-0.41,1.86C432.2,235.88,438.4,236.5,444.81,236.5z"/>
		<path class="st0" d="M438.19,323.72l11.78-52.09c1.24-5.58-0.62-8.27-4.34-8.27c-2.89,0-6.61,1.65-10.54,3.51l0.21-1.24
			c11.37-6.61,22.94-10.13,31.62-10.13c14.05,0,17.98,9.3,14.88,22.53l-11.78,52.09c-1.24,5.58,0.62,8.27,4.34,8.27
			c2.89,0,6.61-1.65,10.54-3.51l-0.21,1.24c-11.37,6.61-22.94,10.13-31.62,10.13C439.02,346.25,435.09,336.95,438.19,323.72z
			 M457.21,226.99c0-10.54,8.47-17.98,19.02-17.98s19.02,7.44,19.02,17.98c0,10.75-8.47,18.19-19.02,18.19
			S457.21,237.74,457.21,226.99z"/>
		<path class="st0" d="M497.92,311.74c0-28.11,21.7-56.22,55.81-56.22c9.92,0,15.92,2.48,19.64,4.96l7.44-32.04
			c2.89-12.61-1.45-17.36-12.61-17.36l0.41-1.24l50.23-4.13l-28.32,124.43c-1.24,5.58,0.62,8.27,4.34,8.27
			c2.89,0,6.62-1.65,10.54-3.51l-0.21,1.24c-11.37,6.61-22.94,10.13-31.62,10.13c-10.54,0-15.5-5.17-15.92-13.44
			c-7.44,6.82-17.98,13.23-30.59,13.23C507.02,346.05,497.92,330.13,497.92,311.74z M557.04,331.16l14.67-63.46
			c-1.45-5.37-4.75-10.33-10.96-10.33c-17.98,0-29.14,40.72-29.14,59.32c0,10.96,3.93,20.67,12.61,20.67
			C549.18,337.37,553.52,334.27,557.04,331.16z"/>
		<path class="st0" d="M619.46,311.74c0-28.11,21.7-56.22,55.81-56.22c13.44,0,19.43,4.55,22.94,7.65l29.76-7.44l0.62,0.21
			l-16.54,74.2c-1.24,5.58,0.62,8.27,4.34,8.27c2.89,0,6.61-1.65,10.54-3.51l-0.21,1.24c-11.37,6.61-22.94,10.13-31.62,10.13
			c-10.54,0-15.5-5.17-15.92-13.44c-7.44,6.82-17.98,13.23-30.59,13.23C628.55,346.05,619.46,330.13,619.46,311.74z M678.58,331.16
			l14.47-63.87c-1.24-5.17-4.55-9.92-10.75-9.92c-17.98,0-29.14,40.72-29.14,59.32c0,10.96,3.93,20.67,12.61,20.67
			C670.72,337.37,675.06,334.27,678.58,331.16z"/>
		<path class="st0" d="M729.21,378.29c-15.3,12.82-26.25,20.26-40.51,20.26c-14.47,0-23.98-7.65-23.98-19.22
			c0-14.26,14.68-20.46,26.87-20.46c13.23,0,25.42,7.23,37.82,16.95c10.13-8.47,22.74-19.43,39.69-32.86l-15.29-75.86
			c-0.41-2.48-2.07-3.72-4.55-3.72c-2.89,0-6.62,1.65-10.54,3.51l0.21-1.24c11.37-6.61,22.94-10.13,31.62-10.13
			c9.3,0,14.47,4.13,15.5,10.75l9.3,58.49c14.47-11.99,26.25-25.84,27.9-38.24c-1.65,0.62-3.93,1.03-6.41,1.03
			c-9.71,0-15.92-7.23-15.92-15.71c0-8.89,6.61-16.33,16.74-16.33c11.99,0,16.12,10.54,16.12,18.4c0,20.26-27.08,46.51-63.04,70.28
			c-16.74,12.81-29.35,23.98-39.89,32.86c25.42,20.26,51.88,50.02,88.26,50.02c31.21,0,41.13-21.91,41.13-39.69
			c0-8.89-2.48-19.02-7.85-24.18c23.98,3.93,34.93,16.95,34.93,32.24c0,17.78-14.47,38.86-52.5,38.86
			C786.47,434.31,756.29,400.2,729.21,378.29z M727.77,377.26c-12.2-9.71-23.98-16.74-36.38-16.74c-11.58,0-24.6,6.2-24.6,18.81
			c0,10.54,8.89,17.57,22.12,17.57C701.52,396.89,711.64,390.49,727.77,377.26z"/>
		<path class="st0" d="M837.31,324.96c0-6.82,5.17-13.85,13.23-13.85c7.44,0,12.61,5.79,12.61,13.02c0,5.58-2.89,9.92-7.44,11.99
			c2.27,4.75,6.61,8.68,15.92,8.68c11.58,0,21.5-6.41,21.5-15.5c0-19.64-44.85-12.19-44.85-41.75c0-19.02,18.6-32.04,42.58-32.04
			c20.46,0,34.52,9.51,34.52,20.67c0,7.03-5.38,13.85-12.82,13.85c-7.03,0-12.61-5.79-12.61-13.02c0-5.17,2.89-9.51,7.44-11.37
			c-2.27-4.75-6.41-8.89-14.88-8.89c-10.13,0-20.26,5.79-20.26,14.88c0,19.22,45.47,11.78,45.47,41.13
			c0,20.26-21.5,33.28-45.47,33.28C851.37,346.05,837.31,336.12,837.31,324.96z"/>
		<path class="st0" d="M933.84,327.65c0-9.92,8.06-17.98,17.98-17.98c9.92,0,17.98,8.06,17.98,17.98s-8.06,17.98-17.98,17.98
			C941.9,345.63,933.84,337.57,933.84,327.65z M953.27,237.53c0-14.88,11.16-23.98,23.15-23.98c9.09,0,17.57,5.17,17.57,15.92
			c0,15.92-19.02,24.18-35.34,71.93h-1.45C961.33,264.2,953.27,250.35,953.27,237.53z"/>
	</g>
</g>
</svg>
