<?xml version="1.0" encoding="utf-8"?>
<!-- Generator: Adobe Illustrator 24.0.0, SVG Export Plug-In . SVG Version: 6.00 Build 0)  -->
<svg version="1.1" id="Layer_1" xmlns="http://www.w3.org/2000/svg" xmlns:xlink="http://www.w3.org/1999/xlink" x="0px" y="0px"
	 viewBox="0 0 1007.99 448.3" style="enable-background:new 0 0 1007.99 448.3;" xml:space="preserve">
<style type="text/css">
	.st0{fill:url(#SVGID_1_);}
	.st1{fill:#FFFFFF;}
</style>
<g>
	<linearGradient id="SVGID_1_" gradientUnits="userSpaceOnUse" x1="161.4723" y1="548.1896" x2="809.1348" y2="4.7362">
		<stop  offset="0" style="stop-color:#FFB12B"/>
		<stop  offset="0.1832" style="stop-color:#BD7508"/>
		<stop  offset="0.4894" style="stop-color:#EDA626"/>
		<stop  offset="0.7887" style="stop-color:#BD7508"/>
		<stop  offset="1" style="stop-color:#E39B1F"/>
	</linearGradient>
	<path class="st0" d="M191.93,174.19c-17.72,0-32.47-3.33-42.64-9.64c-10.47-6.49-16-15.92-16-27.26
		c0-26.73,30.57-42.71,60.13-42.71c2.06,0,4.12,0.08,6.13,0.24l0.56,5.88c-20.66,5.72-32.52,20.04-32.52,39.28
		c0,9.92,3.21,26.56,24.74,26.56c22.15,0,37.61-18.48,45.97-54.92l21.95-96.16h-5.71c-23.05,0-33.37,15.41-33.37,30.69
		c0,5.52,1.38,11.44,3.45,14.73l3.18,5.07l-5.94-0.48c-17.02-1.37-27.59-10.75-27.59-24.49C194.29,21.56,216.62,8,248.61,8h71.9
		l-2.38,7.24h-2.15c-12.1,0-14.9,4.23-18.25,18.76l-8.39,36.42h48.92l8.71-37.78c1.91-8.28,2.04-13.09,0.42-15.14
		c-1.22-1.54-4.15-2.26-9.22-2.26h-4.13L336.4,8h74.67l-2.38,7.24h-2.15c-12.1,0-14.9,4.23-18.25,18.76l-19.1,83.09
		c-1.93,8.36-2.08,13.19-0.49,15.2c1.18,1.5,4.07,2.2,9.08,2.2h3.53l-1.22,7.24h-74.44l1.22-7.24h2.52
		c10.78,0,14.73-2.59,18.46-18.76l8.6-37.45h-48.91l-7.89,34.67C270.71,151.87,238.73,174.19,191.93,174.19z M490.78,133.69
		l1.21-0.71l1.4-8.3l-5.17,2.46c-3.42,1.63-6.95,3.22-9.2,3.22c-0.46,0-1.07-0.07-1.32-0.39c-0.38-0.48-0.61-1.84-0.08-4.23
		l17.02-76.83l-3.98-1.36l-28.94,7.28c-4.43-3.63-11.17-7.37-23.55-7.37c-16.57,0-31.71,6.58-42.63,18.54
		c-10.04,11-15.8,25.83-15.8,40.68c0,22.66,12.53,37.31,31.92,37.32c11.75,0,21.47-5.2,28.41-10.62
		c2.33,6.95,8.58,10.83,17.81,10.83C467.34,144.23,479.34,140.39,490.78,133.69z M452.76,62.31l-14,62.2
		c-2.77,2.37-6.29,4.82-10.04,4.82c-7.05,0-9.55-9.52-9.55-17.67c0-18.78,11.23-56.32,25.97-56.32
		C449.96,55.34,451.96,59.44,452.76,62.31z M533.71,175.42l1.22-7.24h-3.53c-3.62,0-6.06-0.76-7.24-2.27
		c-1.43-1.82-1.54-5.31-0.34-10.37l3.43-14.66c4.78,2.09,10.48,3.12,17.28,3.12c16.6,0,31.77-6.55,42.72-18.45
		c10.11-10.99,15.91-25.85,15.91-40.77c0-22.66-12.62-37.31-32.14-37.31c-9.84,0-19.28,3.53-28.12,10.49
		c-2.44-6.73-8.57-10.49-17.48-10.49c-9.47,0-21.47,3.84-32.92,10.54l-1.21,0.71l-1.4,8.31l5.17-2.47c3.41-1.63,6.93-3.22,9.2-3.22
		c0.46,0,1.07,0.07,1.32,0.39c0.38,0.48,0.61,1.84,0.08,4.2l-19.92,86.59c-2.53,10.62-5.24,15.68-13.73,15.68h-2.53l-1.17,7.23
		H533.71z M544.55,66.63c2.98-2.4,6.22-4.47,9.86-4.47c2.19,0,9.34,1.23,9.34,17.05c0,19.49-10.97,56.94-25.97,56.94
		c-2.58,0-4.48-0.75-5.64-2.23c-1.56-1.98-1.88-5.38-0.9-9.59L544.55,66.63z M649.96,175.42l1.22-7.24h-3.53
		c-3.62,0-6.06-0.76-7.24-2.27c-1.43-1.82-1.54-5.31-0.34-10.37l3.43-14.66c4.78,2.09,10.48,3.12,17.28,3.12
		c16.6,0,31.77-6.55,42.72-18.45c10.11-10.99,15.91-25.85,15.91-40.77c0-22.66-12.62-37.31-32.14-37.31
		c-9.85,0-19.28,3.53-28.12,10.49c-2.44-6.73-8.57-10.49-17.48-10.49c-9.47,0-21.47,3.84-32.92,10.54l-1.21,0.71l-1.4,8.3l5.17-2.46
		c3.42-1.63,6.95-3.22,9.2-3.22c0.46,0,1.07,0.07,1.32,0.39c0.38,0.48,0.61,1.84,0.08,4.2l-19.92,86.59
		c-2.53,10.62-5.24,15.68-13.73,15.68h-2.52l-1.23,7.23H649.96z M660.79,66.63c2.98-2.4,6.22-4.47,9.86-4.47
		c2.19,0,9.34,1.23,9.34,17.05c0,19.49-10.97,56.94-25.97,56.94c-2.58,0-4.48-0.75-5.64-2.23c-1.56-1.98-1.88-5.38-0.9-9.59
		L660.79,66.63z M873.85,190.41c0-18.2-13.91-31.36-37.2-35.2l-9.47-1.56l6.93,6.69c4.19,4.04,6.89,12.68,6.89,22.02
		c0,17.74-9.95,36.69-37.89,36.69c-28.41,0-50.41-19.02-71.68-37.42c-3.89-3.36-7.61-6.58-11.33-9.65c1.43-1.22,2.9-2.48,4.41-3.78
		c9.08-7.8,19.37-16.63,32.28-26.58c23.9-15.91,63.89-46.46,63.89-72.73c0-10.31-5.95-21.4-19-21.4c-11.18,0-19.61,8.31-19.61,19.33
		c0,10.67,8.08,18.71,18.8,18.71c0.82,0,1.63-0.04,2.42-0.12c-2.74,8.46-10.23,18.35-21.66,28.56l-8.4-53.18
		c-1.31-8.44-7.99-13.29-18.35-13.29c-9.47,0-21.47,3.84-32.92,10.54l-1.21,0.71l-1.4,8.3l5.17-2.46c3.42-1.63,6.95-3.22,9.2-3.22
		c1.29,0,1.46,0.46,1.58,1.21l14.86,74.16c-12.09,9.68-22.08,18.18-30.17,25.07c-2.12,1.8-4.13,3.52-6.06,5.15
		c-10.65-8.19-23.29-16.1-37.51-16.1c-14.75,0-29.68,8.06-29.68,23.46c0,13.29,10.77,22.22,26.81,22.22
		c14.06,0,24.82-6.52,40.27-19.37c3.65,3.03,7.36,6.26,11.25,9.65c24.47,21.31,52.2,45.47,93.66,45.47
		C856.8,232.27,873.85,211.25,873.85,190.41z M707.55,172.27c-13.87,11.23-22.86,16.59-33.82,16.59c-11.54,0-19-5.72-19-14.57
		c0-10.27,11.06-15.81,21.46-15.81C685.45,158.48,694.96,162.63,707.55,172.27z M66.05,390.24c46.8,0,78.78-22.32,87.73-61.24
		l7.89-34.67h48.91l-8.6,37.45c-3.73,16.17-7.68,18.76-18.46,18.76H181l-1.22,7.24h74.44l1.22-7.24h-3.53c-5.02,0-7.91-0.7-9.09-2.2
		c-1.59-2.01-1.43-6.84,0.49-15.2l19.1-83.09c3.75-16.3,7.46-18.76,18.25-18.76h2.15l2.38-7.24h-74.67l-2.38,7.24h4.12
		c5.07,0,8,0.72,9.22,2.26c1.62,2.05,1.49,6.87-0.42,15.14l-8.71,37.78h-48.92l8.39-36.42c3.75-16.3,7.46-18.76,18.25-18.76h2.15
		l2.38-7.24h-71.9c-31.98,0-54.32,13.56-54.32,32.97c0,13.74,10.57,23.12,27.59,24.49l5.94,0.48l-3.18-5.07
		c-2.06-3.29-3.44-9.2-3.44-14.73c0-15.28,10.32-30.69,33.36-30.69h5.71l-21.95,96.16c-8.36,36.45-23.82,54.92-45.97,54.92
		c-21.53,0-24.74-16.64-24.74-26.56c0-19.24,11.85-33.55,32.52-39.28l-0.56-5.88c-2.01-0.16-4.07-0.24-6.13-0.24
		c-29.56,0-60.14,15.97-60.14,42.71c0,11.34,5.53,20.76,16,27.25C33.57,386.89,48.32,390.23,66.05,390.24L66.05,390.24z
		 M353.73,343.83c12.53-10.71,19.43-24.96,19.43-40.11c0-13.18-5.32-23.92-15.38-31.06c-8.32-5.9-19.75-9.15-32.16-9.15
		c-34.79,0-64.18,25.7-64.18,56.12c0,12.7,4.99,23.24,14.42,30.48c8.35,6.41,20.04,9.94,32.92,9.94
		C325.53,360.05,341.5,354.29,353.73,343.83z M336.61,285.53c0,20.06-10.09,67.07-29.67,67.07c-2.39,0-8.72,0-8.72-14.57
		c0-9.57,2.59-26.71,7.53-40.95c3.39-9.76,10.77-26.12,22.14-26.12C330.27,270.96,336.61,270.96,336.61,285.53z M395.45,360.24
		c9.47,0,21.47-3.84,32.92-10.54l1.21-0.71l1.4-8.3l-5.17,2.46c-3.42,1.63-6.95,3.22-9.2,3.22c-0.46,0-1.07-0.07-1.32-0.39
		c-0.38-0.48-0.61-1.84-0.08-4.22l20.52-91.23c6.03,1.08,11.37,1.58,16.63,1.58c27.64,0,45.5-12.54,45.5-31.94
		c0-7.68-3.21-25.53-32.97-25.53c-25.92,0-48.28,13.36-60.41,35.9c-13.63-7.62-26.93-17.65-39.81-27.36
		c-28.47-21.47-57.91-43.68-94.48-43.68c-36.07,0-54.94,21.48-54.94,42.69c0,20.61,17.07,37.77,40.6,40.81l7.46,0.96l-4.78-5.84
		c-7.23-8.84-9.79-22.54-9.79-31.57c0-10.16,3.45-33.79,35.42-33.79c27.27,0,51.13,18.04,76.39,37.14
		c12.95,9.79,26.33,19.9,40.54,27.75c-1.92,4.61-3.4,9.35-4.41,14.11l-18.9,82.26c-2.02,8.69-1.2,15.44,2.45,20.07
		c3.21,4.07,8.32,6.13,15.21,6.13H395.45z M468.98,202.75c12.73,0,20.64,6.77,20.64,17.67c0,14.4-14.98,24.08-37.27,24.08
		c-5.36,0-10.27-0.45-14.92-1.36C442.4,221.72,448.74,202.75,468.98,202.75z M493.47,349.71l1.21-0.71l1.4-8.3l-5.17,2.46
		c-3.42,1.63-6.95,3.22-9.2,3.22c-0.46,0-1.07-0.07-1.32-0.39c-0.38-0.48-0.61-1.84-0.08-4.22l11.7-52.07
		c2.02-8.69,1.2-15.44-2.46-20.08c-3.21-4.07-8.33-6.14-15.23-6.14c-9.47,0-21.47,3.84-32.92,10.54l-1.21,0.71l-1.4,8.3l5.17-2.46
		c3.42-1.63,6.95-3.22,9.2-3.22c0.46,0,1.07,0.07,1.32,0.39c0.38,0.48,0.61,1.84,0.08,4.22l-11.7,52.07
		c-2.02,8.69-1.2,15.44,2.46,20.08c3.21,4.07,8.33,6.14,15.23,6.14C470.03,360.25,482.02,356.41,493.47,349.71z M505.44,237.99
		c0-11.96-9.41-20.98-21.88-20.98c-12.47,0-21.88,9.02-21.88,20.98c0,12.08,9.41,21.19,21.88,21.19
		C496.04,259.18,505.44,250.07,505.44,237.99z M613.2,349.73l1.21-0.71l1.4-8.31l-5.17,2.47c-3.41,1.63-6.93,3.22-9.19,3.22
		c-0.46,0-1.07-0.07-1.32-0.39c-0.38-0.48-0.61-1.84-0.08-4.21l29.04-128.42l-55.93,4.63l-2.32,7.07h4.12
		c4.67,0,7.64,0.89,9.08,2.71c1.57,1.98,1.75,5.68,0.55,10.97l-6.5,28.16c-4.83-2.26-10.69-3.4-17.51-3.4
		c-16.57,0-31.71,6.58-42.63,18.54c-10.04,11-15.8,25.83-15.8,40.68c0,22.66,12.53,37.31,31.93,37.32c11.75,0,21.47-5.2,28.41-10.62
		c2.33,6.95,8.58,10.83,17.81,10.83C589.76,360.27,601.75,356.43,613.2,349.73z M575.35,278.78l-14.18,61.75
		c-2.76,2.37-6.28,4.83-10.05,4.83c-7.05,0-9.55-9.52-9.55-17.67c0-18.78,11.23-56.32,25.97-56.32
		C572.06,271.37,574.28,275.25,575.35,278.78z M733.95,349.73l1.21-0.71l1.4-8.3l-5.17,2.46c-3.42,1.63-6.95,3.22-9.2,3.22
		c-0.46,0-1.07-0.07-1.32-0.39c-0.38-0.48-0.61-1.84-0.08-4.23l17.02-76.83l-3.98-1.36l-28.93,7.28
		c-4.43-3.63-11.17-7.37-23.56-7.37c-16.57,0-31.71,6.58-42.63,18.54c-10.04,11-15.8,25.83-15.8,40.68
		c0,22.66,12.53,37.31,31.92,37.32c11.75,0,21.47-5.2,28.4-10.62c2.33,6.95,8.58,10.83,17.81,10.83
		C710.51,360.27,722.5,356.43,733.95,349.73z M695.93,278.34l-14,62.2c-2.76,2.37-6.27,4.82-10.04,4.82
		c-7.05,0-9.55-9.52-9.55-17.67c0-18.78,11.23-56.32,25.97-56.32C693.13,271.37,695.12,275.47,695.93,278.34z M839.86,448.3
		c38.09,0,55.14-21.02,55.14-41.86c0-18.2-13.91-31.36-37.2-35.2l-9.46-1.56l6.91,6.68c4.18,4.04,6.88,12.69,6.88,22.02
		c0,17.74-9.95,36.69-37.89,36.69c-28.41,0-50.41-19.02-71.69-37.42c-3.89-3.36-7.61-6.58-11.33-9.65c1.43-1.22,2.9-2.48,4.41-3.78
		c9.08-7.8,19.37-16.63,32.28-26.58c23.9-15.91,63.89-46.46,63.89-72.73c0-10.31-5.95-21.4-19-21.4c-11.18,0-19.61,8.31-19.61,19.33
		c0,10.67,8.08,18.71,18.8,18.71c0.82,0,1.63-0.04,2.42-0.12c-2.74,8.46-10.23,18.35-21.66,28.56l-8.4-53.18
		c-1.31-8.45-7.99-13.29-18.35-13.29c-9.48,0-21.47,3.84-32.92,10.54l-1.21,0.71l-1.4,8.31l5.17-2.47c3.41-1.63,6.93-3.22,9.19-3.22
		c1.29,0,1.46,0.46,1.58,1.21l14.85,74.16c-12.09,9.68-22.08,18.19-30.17,25.07c-2.11,1.8-4.13,3.51-6.05,5.14
		c-10.64-8.19-23.28-16.1-37.5-16.1c-14.75,0-29.68,8.06-29.68,23.46c0,13.29,10.77,22.22,26.81,22.22
		c14.07,0,24.82-6.52,40.27-19.37c3.66,3.04,7.37,6.27,11.27,9.67c24.46,21.31,52.18,45.45,93.62,45.45H839.86z M728.7,388.31
		c-13.87,11.22-22.86,16.58-33.82,16.59c-11.54,0-19-5.72-19-14.57c0-6.36,5.72-15.81,21.46-15.81
		C706.6,374.52,716.11,378.67,728.7,388.31z M877.05,360.04c27.45,0,48.16-15.6,48.16-36.28c0-9.47-4.16-15.55-9.91-19.84
		c0.59,0.07,1.19,0.11,1.8,0.11c9.4,0,15.72-8.71,15.72-16.85c0-13.49-16.03-23.67-37.28-23.67c-26.24,0-45.29,14.74-45.29,35.04
		c0,18.37,15.31,24.09,27.62,28.69c10.51,3.92,16.94,6.65,16.94,13.06c0,7.01-8.07,12.5-18.38,12.5c-6.61,0-9.9-2.25-11.72-4.63
		c3.98-2.95,6.28-7.63,6.28-13.04c0-9.13-6.67-16.02-15.51-16.02c-9.96,0-16.13,8.75-16.13,16.85c0,13.73,16.19,24.08,37.67,24.08
		H877.05z M907.84,275.51c-3.92,2.78-6.25,7.33-6.25,12.5c0,3.97,1.41,7.61,3.73,10.42c-2.77-1.17-5.57-2.19-8.24-3.15
		c-10.57-3.82-17.06-6.47-17.06-12.64c0-7.34,8.9-11.88,17.15-11.88C902.02,270.75,905.47,272.27,907.84,275.51z M976.95,338.65
		c0-11.57-9.35-20.98-20.85-20.98s-20.85,9.41-20.85,20.98s9.35,20.98,20.85,20.98S976.95,350.22,976.95,338.65z M965.03,315.4
		l0.69-2.03c8.8-25.91,18.32-39.9,25.26-50.11c5.81-8.54,10.01-14.71,10.01-22.79c0-13-10.59-18.92-20.44-18.92
		c-12.6,0-25.98,9.46-25.98,26.98c0,4.38,0.86,8.79,1.85,13.89c2.03,10.46,4.82,24.78,2.07,49.65l-0.37,3.33H965.03z"/>
</g>
<g>
	<g>
		<path class="st1" d="M133.7,133.29c0-26.87,34.1-41.75,63.46-39.48c-22.53,6.2-34.93,21.91-34.93,42.17
			c0,17.36,8.89,29.56,27.9,29.56c24.18,0,40.51-19.64,49.19-57.25l22.94-99.83h-9.51c-24.8,0-36.58,16.74-36.58,33.69
			c0,5.79,1.45,12.4,3.93,16.33c-15.5-1.24-25.01-9.51-25.01-21.5C195.09,19.19,216.38,7,246.76,7h68.21l-0.41,1.24
			c-12.81,0-17.36,4.13-21.29,21.08l-9.3,40.1h55.39l9.3-40.1c3.93-16.95,1.03-21.08-11.78-21.08L337.29,7h68.83l-0.41,1.24
			c-12.81,0-17.36,4.13-21.29,21.08l-19.22,83.09c-3.93,16.95-1.24,21.08,11.57,21.08l-0.21,1.24h-68.83l0.21-1.24
			c12.82,0,17.57-4.13,21.5-21.08l9.51-41.13h-55.39l-8.47,37c-9.09,39.27-42.17,58.91-85.37,58.91
			C154.16,167.19,133.7,153.96,133.7,133.29z"/>
	</g>
	<g>
		<path class="st1" d="M381.73,102.7c0-28.11,21.7-56.22,55.81-56.22c13.44,0,19.43,4.55,22.94,7.65l29.76-7.44l0.62,0.21
			l-16.54,74.2c-1.24,5.58,0.62,8.27,4.34,8.27c2.89,0,6.61-1.65,10.54-3.51l-0.21,1.24c-11.37,6.61-22.94,10.13-31.62,10.13
			c-10.54,0-15.5-5.17-15.92-13.44c-7.44,6.82-17.98,13.23-30.59,13.23C390.83,137.01,381.73,121.1,381.73,102.7z M440.85,122.13
			l14.47-63.87c-1.24-5.17-4.55-9.92-10.75-9.92c-17.98,0-29.14,40.72-29.14,59.32c0,10.96,3.93,20.67,12.61,20.67
			C432.99,128.33,437.33,125.23,440.85,122.13z"/>
	</g>
	<g>
		<path class="st1" d="M471.64,167.19c11.16,0,14.26-7.65,16.74-17.98l20.05-86.61c1.24-5.58-0.62-8.27-4.34-8.27
			c-2.89,0-6.62,1.65-10.54,3.51l0.21-1.24c11.37-6.61,22.94-10.13,31.62-10.13c10.33,0,15.09,5.17,15.71,13.02
			c7.44-6.82,17.57-13.02,30.18-13.02c20.05,0,29.35,15.92,29.35,34.31c0,28.32-21.91,56.22-56.01,56.22
			c-9.92,0-15.71-2.27-19.43-4.55l-4.34,18.4c-2.48,10.33-0.21,16.33,10.54,16.33l-0.21,1.24h-59.73L471.64,167.19z M541.92,60.95
			l-13.64,58.7c-2.27,9.71,1.65,15.5,9.51,15.5c18.81,0,29.14-41.96,29.14-59.94c0-11.16-3.93-20.05-12.4-20.05
			C549.57,55.16,545.43,58.05,541.92,60.95z"/>
	</g>
	<g>
		<path class="st1" d="M588.63,167.19c11.16,0,14.26-7.65,16.74-17.98l20.05-86.61c1.24-5.58-0.62-8.27-4.34-8.27
			c-2.89,0-6.61,1.65-10.54,3.51l0.21-1.24c11.37-6.61,22.94-10.13,31.62-10.13c10.33,0,15.09,5.17,15.71,13.02
			c7.44-6.82,17.57-13.02,30.18-13.02c20.05,0,29.35,15.92,29.35,34.31c0,28.32-21.91,56.22-56.01,56.22
			c-9.92,0-15.71-2.27-19.43-4.55l-4.34,18.4c-2.48,10.33-0.21,16.33,10.54,16.33l-0.21,1.24h-59.74L588.63,167.19z M658.91,60.95
			l-13.64,58.7c-2.27,9.71,1.65,15.5,9.51,15.5c18.81,0,29.14-41.96,29.14-59.94c0-11.16-3.93-20.05-12.4-20.05
			C666.56,55.16,662.42,58.05,658.91,60.95z"/>
	</g>
	<g>
		<path class="st1" d="M714.93,169.26c-15.3,12.82-26.25,20.26-40.51,20.26c-14.47,0-23.98-7.65-23.98-19.22
			c0-14.26,14.68-20.46,26.87-20.46c13.23,0,25.42,7.23,37.83,16.95c10.13-8.47,22.74-19.43,39.69-32.86l-15.3-75.86
			c-0.41-2.48-2.07-3.72-4.55-3.72c-2.89,0-6.61,1.65-10.54,3.51l0.21-1.24c11.37-6.61,22.94-10.13,31.62-10.13
			c9.3,0,14.47,4.13,15.5,10.75l9.3,58.49c14.47-11.99,26.25-25.84,27.9-38.24c-1.65,0.62-3.93,1.03-6.41,1.03
			c-9.71,0-15.92-7.23-15.92-15.71c0-8.89,6.61-16.33,16.74-16.33c11.99,0,16.12,10.54,16.12,18.4c0,20.26-27.08,46.51-63.04,70.28
			c-16.74,12.81-29.35,23.98-39.89,32.86c25.42,20.26,51.88,50.02,88.26,50.02c31.21,0,41.13-21.91,41.13-39.69
			c0-8.89-2.48-19.02-7.86-24.18c23.98,3.93,34.93,16.95,34.93,32.24c0,17.78-14.47,38.86-52.5,38.86
			C772.18,225.27,742,191.17,714.93,169.26z M713.48,168.22c-12.2-9.71-23.98-16.74-36.38-16.74c-11.57,0-24.6,6.2-24.6,18.81
			c0,10.54,8.89,17.57,22.12,17.57C687.23,187.86,697.36,181.45,713.48,168.22z"/>
	</g>
	<g>
		<path class="st1" d="M7,349.33c0-26.87,34.11-41.75,63.46-39.48c-22.53,6.2-34.93,21.91-34.93,42.17
			c0,17.36,8.89,29.56,27.9,29.56c24.18,0,40.51-19.64,49.19-57.25l22.94-99.83h-9.51c-24.8,0-36.58,16.74-36.58,33.69
			c0,5.79,1.45,12.4,3.93,16.33c-15.5-1.24-25.01-9.51-25.01-21.5c0-17.78,21.29-29.97,51.67-29.97h68.21l-0.41,1.24
			c-12.82,0-17.36,4.13-21.29,21.08l-9.3,40.1h55.39l9.3-40.1c3.93-16.95,1.03-21.08-11.78-21.08l0.41-1.24h68.83l-0.41,1.24
			c-12.82,0-17.36,4.13-21.29,21.08l-19.22,83.09c-3.93,16.95-1.24,21.08,11.58,21.08l-0.21,1.24h-68.83l0.21-1.24
			c12.82,0,17.57-4.13,21.5-21.08l9.51-41.13h-55.39l-8.47,37c-9.09,39.27-42.17,58.91-85.37,58.91C27.46,383.22,7,370,7,349.33z"/>
	</g>
	<g>
		<path class="st1" d="M262.68,315.63c0-29.35,28.73-53.12,61.59-53.12c21.91,0,44.85,10.54,44.85,37.21
			c0,29.76-28.73,53.33-61.8,53.33C283.35,353.05,262.68,340.65,262.68,315.63z M338.33,281.53c0-14.47-5.99-17.57-11.78-17.57
			c-23.15,0-32.86,51.67-32.86,70.07c0,14.47,5.99,17.57,11.78,17.57C328.82,351.6,338.33,299.72,338.33,281.53z"/>
	</g>
	<g>
		<path class="st1" d="M379.67,330.72l19.02-82.27c1.24-5.79,3.1-11.16,5.38-16.12c-42.79-22.53-77.72-66.56-121.54-66.56
			c-27.08,0-38.65,16.74-38.65,36.79c0,10.13,2.89,24.18,10.54,33.48c-22.53-2.89-38.24-19.02-38.24-37.83
			c0-20.05,18.19-39.69,52.29-39.69c53.53,0,91.57,48.37,136.42,72.14c12.4-25.42,35.96-37,59.53-37
			c21.91,0,30.18,10.13,30.18,22.53c0,18.19-17.98,28.94-42.79,28.94c-6.61,0-12.81-0.83-19.02-2.07l-21.29,94.05
			c-1.24,5.58,0.62,8.27,4.34,8.27c2.89,0,6.61-1.65,10.54-3.51l-0.21,1.24c-11.37,6.61-22.94,10.13-31.62,10.13
			C380.5,353.25,376.57,343.95,379.67,330.72z M451.81,243.5c24.18,0,40.51-10.75,40.51-27.08c0-12.61-9.51-20.67-23.77-20.67
			c-23.36,0-29.97,22.32-34.93,43.82l-0.41,1.86C439.2,242.88,445.4,243.5,451.81,243.5z"/>
	</g>
	<g>
		<path class="st1" d="M445.19,330.72l11.78-52.09c1.24-5.58-0.62-8.27-4.34-8.27c-2.89,0-6.61,1.65-10.54,3.51l0.21-1.24
			c11.37-6.61,22.94-10.13,31.62-10.13c14.05,0,17.98,9.3,14.88,22.53l-11.78,52.09c-1.24,5.58,0.62,8.27,4.34,8.27
			c2.89,0,6.61-1.65,10.54-3.51l-0.21,1.24c-11.37,6.61-22.94,10.13-31.62,10.13C446.02,353.25,442.09,343.95,445.19,330.72z
			 M464.21,233.99c0-10.54,8.47-17.98,19.02-17.98s19.02,7.44,19.02,17.98c0,10.75-8.47,18.19-19.02,18.19
			S464.21,244.74,464.21,233.99z"/>
	</g>
	<g>
		<path class="st1" d="M504.92,318.74c0-28.11,21.7-56.22,55.81-56.22c9.92,0,15.92,2.48,19.64,4.96l7.44-32.04
			c2.89-12.61-1.45-17.36-12.61-17.36l0.41-1.24l50.23-4.13l-28.32,124.43c-1.24,5.58,0.62,8.27,4.34,8.27
			c2.89,0,6.62-1.65,10.54-3.51l-0.21,1.24c-11.37,6.61-22.94,10.13-31.62,10.13c-10.54,0-15.5-5.17-15.92-13.44
			c-7.44,6.82-17.98,13.23-30.59,13.23C514.02,353.05,504.92,337.13,504.92,318.74z M564.04,338.16l14.67-63.46
			c-1.45-5.37-4.75-10.33-10.96-10.33c-17.98,0-29.14,40.72-29.14,59.32c0,10.96,3.93,20.67,12.61,20.67
			C556.18,344.37,560.52,341.27,564.04,338.16z"/>
	</g>
	<g>
		<path class="st1" d="M626.46,318.74c0-28.11,21.7-56.22,55.81-56.22c13.44,0,19.43,4.55,22.94,7.65l29.76-7.44l0.62,0.21
			l-16.54,74.2c-1.24,5.58,0.62,8.27,4.34,8.27c2.89,0,6.61-1.65,10.54-3.51l-0.21,1.24c-11.37,6.61-22.94,10.13-31.62,10.13
			c-10.54,0-15.5-5.17-15.92-13.44c-7.44,6.82-17.98,13.23-30.59,13.23C635.55,353.05,626.46,337.13,626.46,318.74z M685.58,338.16
			l14.47-63.87c-1.24-5.17-4.55-9.92-10.75-9.92c-17.98,0-29.14,40.72-29.14,59.32c0,10.96,3.93,20.67,12.61,20.67
			C677.72,344.37,682.06,341.27,685.58,338.16z"/>
	</g>
	<g>
		<path class="st1" d="M736.21,385.29c-15.3,12.82-26.25,20.26-40.51,20.26c-14.47,0-23.98-7.65-23.98-19.22
			c0-14.26,14.68-20.46,26.87-20.46c13.23,0,25.42,7.23,37.82,16.95c10.13-8.47,22.74-19.43,39.69-32.86l-15.29-75.86
			c-0.41-2.48-2.07-3.72-4.55-3.72c-2.89,0-6.62,1.65-10.54,3.51l0.21-1.24c11.37-6.61,22.94-10.13,31.62-10.13
			c9.3,0,14.47,4.13,15.5,10.75l9.3,58.49c14.47-11.99,26.25-25.84,27.9-38.24c-1.65,0.62-3.93,1.03-6.41,1.03
			c-9.71,0-15.92-7.23-15.92-15.71c0-8.89,6.61-16.33,16.74-16.33c11.99,0,16.12,10.54,16.12,18.4c0,20.26-27.08,46.51-63.04,70.28
			C761,364,748.39,375.17,737.85,384.05c25.42,20.26,51.88,50.02,88.26,50.02c31.21,0,41.13-21.91,41.13-39.69
			c0-8.89-2.48-19.02-7.85-24.18c23.98,3.93,34.93,16.95,34.93,32.24c0,17.78-14.47,38.86-52.5,38.86
			C793.47,441.31,763.29,407.2,736.21,385.29z M734.77,384.26c-12.2-9.71-23.98-16.74-36.38-16.74c-11.58,0-24.6,6.2-24.6,18.81
			c0,10.54,8.89,17.57,22.12,17.57C708.52,403.89,718.64,397.49,734.77,384.26z"/>
	</g>
	<g>
		<path class="st1" d="M844.31,331.96c0-6.82,5.17-13.85,13.23-13.85c7.44,0,12.61,5.79,12.61,13.02c0,5.58-2.89,9.92-7.44,11.99
			c2.27,4.75,6.61,8.68,15.92,8.68c11.58,0,21.5-6.41,21.5-15.5c0-19.64-44.85-12.19-44.85-41.75c0-19.02,18.6-32.04,42.58-32.04
			c20.46,0,34.52,9.51,34.52,20.67c0,7.03-5.38,13.85-12.82,13.85c-7.03,0-12.61-5.79-12.61-13.02c0-5.17,2.89-9.51,7.44-11.37
			c-2.27-4.75-6.41-8.89-14.88-8.89c-10.13,0-20.26,5.79-20.26,14.88c0,19.22,45.47,11.78,45.47,41.13
			c0,20.26-21.5,33.28-45.47,33.28C858.37,353.05,844.31,343.12,844.31,331.96z"/>
	</g>
	<g>
		<path class="st1" d="M940.84,334.65c0-9.92,8.06-17.98,17.98-17.98s17.98,8.06,17.98,17.98s-8.06,17.98-17.98,17.98
			S940.84,344.57,940.84,334.65z M960.27,244.53c0-14.88,11.16-23.98,23.15-23.98c9.09,0,17.57,5.17,17.57,15.92
			c0,15.92-19.02,24.18-35.34,71.93h-1.45C968.33,271.2,960.27,257.35,960.27,244.53z"/>
	</g>
</g>
</svg>
