<?xml version="1.0" encoding="utf-8"?>
<!-- Generator: Adobe Illustrator 24.0.0, SVG Export Plug-In . SVG Version: 6.00 Build 0)  -->
<svg version="1.1" id="Layer_1" xmlns="http://www.w3.org/2000/svg" xmlns:xlink="http://www.w3.org/1999/xlink" x="0px" y="0px"
	 viewBox="0 0 352.77 108.84" style="enable-background:new 0 0 352.77 108.84;" xml:space="preserve">
<style type="text/css">
	.st0{fill:url(#SVGID_1_);}
	.st1{fill:url(#SVGID_2_);}
	.st2{fill:url(#SVGID_3_);}
	.st3{fill:url(#SVGID_4_);}
	.st4{fill:url(#SVGID_5_);}
	.st5{fill:url(#SVGID_6_);}
</style>
<linearGradient id="SVGID_1_" gradientUnits="userSpaceOnUse" x1="74.4921" y1="26.1847" x2="74.4921" y2="77.2943">
	<stop  offset="0.7039" style="stop-color:#FFFFFF"/>
	<stop  offset="1" style="stop-color:#BED1EC"/>
</linearGradient>
<path class="st0" d="M0.08,71.52c1.18,2.18,7.58,3.65,16.32,3.39c11.05-0.32,19.17,0.92,29.83,1.72c4.32,0.33,9.06,0.58,14.59,0.63
	c11.37,0.1,16.69-0.08,20.91-0.33c4.33-0.25,7.51-0.58,14.89-0.75c2.99-0.07,6.67-0.11,11.4-0.11c1.52-1.71,3.25-3.74,5.04-5.96
	c0.78-0.97,1.58-1.97,2.38-3c1.29-1.66,2.55-3.66,3.76-5.78c0.98-1.7,1.92-3.48,2.82-5.21c1.29-2.49,2.49-4.89,3.55-6.83
	c2.03-3.71,3.8-6.43,6.16-8.96c3.51-3.76,8.34-7.1,17.27-12.62c-1.26-0.01-5.95-0.85-7.22-0.92c-3.13-0.18-5.47-0.3-8.21-0.39
	c-2.67-0.09-5.72-0.15-10.26-0.19c-5.91-0.06-11.14-0.02-15.8,0.11c-11.5,0.34-19.56,1.31-25.92,3.05
	c-3.18,0.87-5.94,1.94-8.49,3.22c-6.38,2.81-11.72,6.56-17.22,9.99c-3.7,2.31-7.47,4.48-11.67,6.13c-5.52,2.17-9.54,3.81-13.03,5.39
	c-2.42,1.09-4.6,2.15-6.84,3.33c-2.79,1.46-5.69,3.11-9.34,5.23c-2.33,1.36-7.72,2.2-9.99,3.11C1.62,67.11-0.43,69.93,0.08,71.52z"
	/>
<linearGradient id="SVGID_2_" gradientUnits="userSpaceOnUse" x1="327.8764" y1="52.9943" x2="327.8764" y2="78.5946">
	<stop  offset="0.7039" style="stop-color:#FFFFFF"/>
	<stop  offset="1" style="stop-color:#BED1EC"/>
</linearGradient>
<path class="st1" d="M351.07,77.49c-2.22,1.39-6.02,1.44-12.49,0.31c-0.71-0.12-1.46-0.26-2.24-0.42c-0.02-0.34-0.23-0.79-0.58-1.32
	c-1.36-2.01-4.77-5.07-6.99-6.96c-1.22-1.04-2.61-2.12-4.11-3.2c-2.4-1.74-5.06-3.5-7.67-5.14c-2.1-1.32-4.16-2.58-6.02-3.69
	c-2.68-1.6-4.95-2.91-6.3-3.73c0.28,0.05,0.56,0.09,0.83,0.12c2.49,0.27,4.74-0.12,6.86-0.45c4.71,2.42,8.13,4.23,11.08,5.91
	c2.05,1.16,3.78,2.44,5.76,3.46c2.72,1.41,4.46,3.81,6.69,5.66c1.81,1.5,7.08,4.14,9.01,5.15c2.27,1.18,4.25,2.53,5.42,3.57
	C350.64,77.02,350.89,77.27,351.07,77.49z"/>
<linearGradient id="SVGID_3_" gradientUnits="userSpaceOnUse" x1="218.4846" y1="9.094947e-13" x2="218.4846" y2="91.9736">
	<stop  offset="0.7039" style="stop-color:#FFFFFF"/>
	<stop  offset="1" style="stop-color:#BED1EC"/>
</linearGradient>
<path class="st2" d="M91.1,75.47c2.45,2.64,5.25,4.89,8.33,6.79c5.54,3.43,12.03,5.74,19.14,7.25c5.51,1.17,11.39,1.85,17.52,2.19
	c7.8,0.43,15.99,0.3,24.29-0.11c11.2-0.55,22.58-1.61,33.45-2.48c9.45-0.75,18.5-1.36,26.7-1.36c6.03,0,12.11-0.02,18.21-0.04
	c7.35-0.03,14.74-0.08,22.15-0.13c8.95-0.06,17.94-0.14,26.92-0.21c6.99-0.06,13.98-0.11,20.95-0.16c6.61-0.05,13.2-0.09,19.76-0.11
	c3.01-0.01,6.01-0.02,9-0.03c2.8-0.01,5.58-0.01,8.36-0.01c-0.57-0.77-1.14-1.51-1.72-2.24c-0.74-0.94-1.5-1.85-2.25-2.73
	c-2.14-2.5-4.32-4.8-6.5-7.06c-5.5-5.66-11.05-10.99-16.06-18.2c-2.4-3.45-5.03-6.48-7.87-9.24c-3.45-3.35-7.2-6.3-11.2-9.11
	c-2.32-1.63-4.72-3.21-7.19-4.8c-1.57-1.01-3.18-2.02-4.81-3.05c-1.53-0.94-3.11-1.9-4.74-2.87c-1.74-1.04-3.53-2.09-5.36-3.14
	c-4-2.3-8.22-4.62-12.59-6.86c-4.61-2.37-9.39-4.65-14.29-6.75c-6.29-2.69-12.76-5.08-19.27-6.94c-5.39-1.54-10.81-2.71-16.18-3.4
	c-4.46-0.57-8.88-0.8-13.23-0.62c-5.45,0.23-10.25,0.69-14.52,1.35c-4.92,0.75-9.13,1.75-12.81,2.91c-2.73,0.86-5.16,1.81-7.38,2.82
	c-1.74,0.79-3.34,1.61-4.84,2.46c-1.94,1.09-3.7,2.21-5.37,3.32c-0.93,0.62-1.82,1.24-2.7,1.85c-2.26,1.86-4.44,3.52-6.57,5.04
	c-3.35,2.39-6.55,4.45-9.66,6.47c-5.36,3.49-10.43,6.89-15.43,11.72c-4.12,3.98-8.19,8.94-12.34,15.73
	c-4.57,7.5-6.63,11.69-10.14,15.18c-1.4,1.38-3.03,2.66-5.14,3.98c-0.75,0.47-1.56,0.94-2.44,1.43
	C92.6,74.69,91.87,75.08,91.1,75.47z"/>
<linearGradient id="SVGID_4_" gradientUnits="userSpaceOnUse" x1="138.0408" y1="72.2766" x2="138.0408" y2="100.1804">
	<stop  offset="0.7039" style="stop-color:#FFFFFF"/>
	<stop  offset="1" style="stop-color:#BED1EC"/>
</linearGradient>
<path class="st3" d="M119.65,96.22c0.63-0.71,1.22-1.18,1.79-1.46c0.96-0.46,1.86-0.39,2.79-0.01c1.42,0.58,2.92,1.86,4.81,3.04
	c2.17,1.35,4.84,2.56,8.5,2.38c1.68-0.08,2.96-0.11,4.03-0.2c1.41-0.12,2.46-0.38,3.55-1.06c0.65-0.41,1.41-1.02,2.37-1.53
	c0.92-0.48,2.21-0.8,3.15-1.91c0.48-0.51,0.91-1.59,1.18-2.02c0.67-1.07,1.99-1.39,2.74-2.24c0.9-1.03,1.88-1.92,1.88-3.89
	c0-2.66-0.54-4.46-1.44-6.02c-0.53-0.92-1.19-1.76-1.94-2.64c-0.21-0.24-0.42-0.49-0.65-0.74c-0.42-0.52-1.01-1.08-1.73-1.64
	c-0.79-0.62-1.75-1.23-2.83-1.79c-1.82-0.94-4-1.71-6.35-2.04c-1.78-0.25-3.65-0.24-5.54,0.15c-3.52,0.72-6.09,2.77-8.11,5.08
	c-1.76,2.01-3.1,4.21-4.3,5.91c-0.78,1.12-1.5,2.02-2.22,2.51c-0.43,0.29-0.87,0.43-1.32,0.39c0,0.12,0,0.24,0.01,0.35
	c0.02,0.41,0.06,0.78,0.11,1.19c0.08,0.68,0.18,1.44,0.22,2.57c0.06,1.96-0.06,3.09-0.21,3.82c-0.13,0.65-0.29,0.98-0.39,1.3
	C119.68,95.87,119.65,96.02,119.65,96.22z"/>
<linearGradient id="SVGID_5_" gradientUnits="userSpaceOnUse" x1="247.0412" y1="76.1749" x2="247.0412" y2="108.8375">
	<stop  offset="0.7039" style="stop-color:#FFFFFF"/>
	<stop  offset="1" style="stop-color:#BED1EC"/>
</linearGradient>
<path class="st4" d="M141.32,104.69c0,1.25,1.74,2.11,3.39,2.57c3.14,0.89,8.03,1.38,13.99,1.53c5.35,0.13,11.55-0.03,18.1-0.45
	c6.03-0.38,12.36-0.99,18.59-1.8c8.71-1.13,14.25-0.9,19.06-0.26c6.43,0.86,11.56,2.44,21.24,2.44c7.66,0,15.99-0.8,24.58-1.61
	c7.37-0.7,14.93-1.42,22.44-1.66c3.66-0.12,8.38,0.25,13.2,0.56c6.2,0.4,12.58,0.71,17.11-0.23c5.96-1.24,10.45-1.8,14.12-2.16
	c6.29-0.62,10.15-0.63,14.85-2.37c2.4-0.89,3.6-2.64,5.54-3.78c2.41-1.41,5.3-2.21,5.21-3.27c0.09-0.79-0.31-1.58-1.03-2.4
	c-1.26-1.43-3.48-2.95-5.69-4.74c-0.98-0.8-1.84-1.88-2.78-3.1c-1.62-2.12-3.46-4.66-6.54-6.89c-3.09,0-2.52,3.19-7.64,5.71
	c-1.15,0.57-5.16,1.02-7.64,0.92c-4.87-0.19-7.97-1.34-11.52-2.28c-2.07-0.54-4.3-1.01-7.12-1.17c-4.07-0.23-8.84-0.5-13.53-0.73
	c-3.65-0.18-7.24-0.34-10.41-0.44c-6.5-0.21-10.83-0.81-14.99-1.23c-4.85-0.49-9.48-0.72-17.09,0.22
	c-9.32,1.15-13.88,2.66-19.56,2.64c-4.24-0.01-9.11-0.88-17.05-3.4c-1.98-0.63-4.65-1-7.62-1.11c-3.22-0.12-6.77,0.07-10.14,0.57
	c-3.75,0.56-7.25,1.53-9.79,2.9c-1.34,0.72-2.41,1.56-3.1,2.51c-3.25,3.03-9.06,3.3-16.02,5.06c-4.02,1.01-8.43,2.53-12.95,5.35
	c-2.42,1.51-5.5,4.53-7.42,7.67C142.03,102.07,141.32,103.06,141.32,104.69z"/>
<linearGradient id="SVGID_6_" gradientUnits="userSpaceOnUse" x1="80.3285" y1="69.4735" x2="80.3285" y2="106.0404">
	<stop  offset="0.7039" style="stop-color:#FFFFFF"/>
	<stop  offset="1" style="stop-color:#BED1EC"/>
</linearGradient>
<path class="st5" d="M42.73,102.91c2.34,0.45,5.77,0.93,9.71,1.37c3.28,0.37,6.92,0.71,10.56,0.99c3.82,0.3,7.64,0.53,11.07,0.66
	c1.94,0.07,3.76,0.11,5.38,0.11c4.2,0,7.93-0.39,11.42-0.96c4.69-0.76,8.96-1.85,13.4-2.73c1.54-0.31,3.11-0.59,4.71-0.83
	c1.32-0.2,2.67-0.36,4.07-0.49c0.62-0.05,1.25-0.1,1.89-0.14c1.99-0.77,3.7-2.43,4.93-4.43c1.26-2.05,2.01-4.47,2.01-6.66
	c0-2.03-1.73-4.26-3.92-6.26c-1.51-1.38-3.25-2.66-4.79-3.71c-0.98-0.67-1.88-1.23-2.6-1.67c-0.35-0.2-0.71-0.4-1.08-0.6
	c-0.82-0.44-1.68-0.86-2.58-1.26c-1.09-0.49-2.23-0.94-3.44-1.38c-3.47-1.25-7.43-2.29-11.98-3.22c-3.39-0.7-7.11-1.33-11.19-1.94
	c-1.6-0.24-3.23-0.33-4.84-0.28c-2.86,0.08-5.7,0.58-8.42,1.35c-2.59,0.73-5.06,1.71-7.31,2.82c-2.69,1.32-5.07,2.82-6.96,4.29
	c-0.69,0.65-1.54,1.37-2.48,2.16c-1.47,1.24-3.16,2.66-4.79,4.25c-2.37,2.31-4.62,4.99-5.94,8.04c-0.87,2.01-1.07,4.55-0.54,6.63
	C39.57,101.03,40.78,102.63,42.73,102.91z"/>
</svg>
