<?xml version="1.0" encoding="utf-8"?>
<!-- Generator: Adobe Illustrator 24.0.0, SVG Export Plug-In . SVG Version: 6.00 Build 0)  -->
<svg version="1.1" id="Layer_1" xmlns="http://www.w3.org/2000/svg" xmlns:xlink="http://www.w3.org/1999/xlink" x="0px" y="0px"
	 viewBox="0 0 404.97 57.97" style="enable-background:new 0 0 404.97 57.97;" xml:space="preserve">
<style type="text/css">
	.st0{fill:#FFFFFF;}
</style>
<path class="st0" d="M4.82,44.22c0.39,0.36,0.79,0.64,1.2,0.86c2.41,1.3,5.27,0.53,10.53,1.07c3.31,0.34,7.35,2.82,13.23,3.29
	c4.51,0.36,9.13-0.36,13.95-0.21c4.29,0.13,10.01,3.97,14.22,5.14c8.39,2.34,14.52-4.59,22.04-4.37c9.29,0.28,12.1,1.36,21.39,1.66
	c5,0.16,14.59-1.22,20.67-1.65c5.56-0.39,11.3-1.35,16.38-1.21c5.99,0.16,11.25-0.12,17.45-0.14c3.76-0.02,10.8-0.73,14.59-0.79
	c8.38-0.12,12.6,10.83,20.99,10.07c5.24-0.48,6.48-5.66,12.84-7.78c8.12-2.7,25.11,1.29,32.19,0.36c10.89-1.43,12.91-2.1,19.74-2.22
	c6.73-0.12,10.89,1.21,17.43,1.87c5.28,0.54,12.1,0.64,23.06-0.8c4.6-0.6,10.65,0.71,17.02,0.57c5.37-0.11,10.89-2.18,16.24-1.5
	c6.22,0.79,14.14-1.28,20.31-1.43c4.27-0.11,8.96,2.06,13.23,1.97c4.16-0.09,8.15-2.11,12.1-3.1c4.02-1.01,8.92,1.21,12.49-0.38
	c2.83-1.26,3.88-4.07,7.88-10.43c1.19-1.9,2.88-0.08,4.74,0.72c1.08,0.46,2.21,0.58,3.35-0.58c0.39-0.53,0.62-0.96,0.73-1.35
	c0.3-1.05-0.26-1.82-0.76-3.67c-0.32-1.21-0.78-3.13-0.61-5.42c0.08-1.1,0.48-2.22,0.95-3.31c0.61-1.42,0.77-4.3,0.37-5.62
	c-1.1-3.58-3.64-5.27-5.87-6.53c-0.21-0.16-1.24-0.62-1.69-0.81c-0.77-0.34-1.84-0.71-3.04-1.07c-2.52-0.75-4.9-1.41-7.57-1.31
	c-3.56,0.13-5.3,0.35-8.15,0.99c-2.81,0.63-6.53,1.17-13.19,0.71c-4.26-0.29-8.78-1.31-13.43-2.43c-6.72-1.62-13.68-3.46-20.4-3.65
	c-5.76-0.16-11.76-0.45-17.7-0.71c-7.05-0.31-14.03-0.58-20.42-0.58c-6.86,0-12.54,0.54-18.31,0.98c-7.14,0.54-14.4,0.91-24.18-0.12
	c-6.79-0.71-13.03-1.6-19.88-1.22c-9.36,0.53-14.95,3.15-28.68,2.43c-6.43-0.33-11.12,0.3-14.86,1.34
	c-8.01,2.24-11.67,6.37-18.68,6.95c-3.66,0.3-6.45-3.5-10.37-3.58c-7.37-0.14-14.46-1.43-20.45-1.43c-5.08,0-9.08-0.71-14.95-1.07
	c-5.05-0.31-9.8,1.1-14.8,1.43c-9.3,0.62-18.9-2.28-28.18-2.15c-9.94,0.14-14.2,4.82-21.89,6.51c-4.32,0.95-8.3-3.43-14.02-2.57
	c-5.33,0.8-9.5,1.04-14.23,0.71c-5.45-0.37-9.79-0.95-13.35-0.61c-5.67,0.54-9.39,1.92-12.5,4c-0.53,0.35-1.04,0.73-1.54,1.12
	c-5.15,4.01-0.59,5.59,0.86,10.37c0.39,1.29,0.27,2.8,0.09,4.33c-0.14,1.17-0.31,2.36-0.31,3.46c0,2.53-0.19,4.43-0.33,5.96
	c-0.21,2.34-0.3,3.79,0.63,5.25C3.68,43.1,4.16,43.64,4.82,44.22z"/>
</svg>
